<?xml version="1.0" encoding="utf-8" standalone="no"?>
<!DOCTYPE svg PUBLIC "-//W3C//DTD SVG 1.1//EN"
  "http://www.w3.org/Graphics/SVG/1.1/DTD/svg11.dtd">
<svg xmlns:xlink="http://www.w3.org/1999/xlink" width="864pt" height="360pt" viewBox="0 0 864 360" xmlns="http://www.w3.org/2000/svg" version="1.1">
 <metadata>
  <rdf:RDF xmlns:dc="http://purl.org/dc/elements/1.1/" xmlns:cc="http://creativecommons.org/ns#" xmlns:rdf="http://www.w3.org/1999/02/22-rdf-syntax-ns#">
   <cc:Work>
    <dc:type rdf:resource="http://purl.org/dc/dcmitype/StillImage"/>
    <dc:date>2025-05-17T20:06:41.572384</dc:date>
    <dc:format>image/svg+xml</dc:format>
    <dc:creator>
     <cc:Agent>
      <dc:title>Matplotlib v3.9.1, https://matplotlib.org/</dc:title>
     </cc:Agent>
    </dc:creator>
   </cc:Work>
  </rdf:RDF>
 </metadata>
 <defs>
  <style type="text/css">*{stroke-linejoin: round; stroke-linecap: butt}</style>
 </defs>
 <g id="figure_1">
  <g id="patch_1">
   <path d="M 0 360 
L 864 360 
L 864 0 
L 0 0 
z
" style="fill: #ffffff"/>
  </g>
  <g id="axes_1">
   <g id="patch_2">
    <path d="M 32.56 303.928 
L 265.94828 303.928 
L 265.94828 54.24 
L 32.56 54.24 
z
" style="fill: #ffffff"/>
   </g>
   <g id="matplotlib.axis_1">
    <g id="xtick_1">
     <g id="line2d_1">
      <defs>
       <path id="mcfe034a3f0" d="M 0 0 
L 0 3.5 
" style="stroke: #000000; stroke-width: 0.8"/>
      </defs>
      <g>
       <use xlink:href="#mcfe034a3f0" x="43.168558" y="303.928" style="stroke: #000000; stroke-width: 0.8"/>
      </g>
     </g>
     <g id="text_1">
      <!-- $\mathdefault{10^{-1}}$ -->
      <g transform="translate(31.418558 318.526437) scale(0.1 -0.1)">
       <defs>
        <path id="DejaVuSans-31" d="M 794 531 
L 1825 531 
L 1825 4091 
L 703 3866 
L 703 4441 
L 1819 4666 
L 2450 4666 
L 2450 531 
L 3481 531 
L 3481 0 
L 794 0 
L 794 531 
z
" transform="scale(0.015625)"/>
        <path id="DejaVuSans-30" d="M 2034 4250 
Q 1547 4250 1301 3770 
Q 1056 3291 1056 2328 
Q 1056 1369 1301 889 
Q 1547 409 2034 409 
Q 2525 409 2770 889 
Q 3016 1369 3016 2328 
Q 3016 3291 2770 3770 
Q 2525 4250 2034 4250 
z
M 2034 4750 
Q 2819 4750 3233 4129 
Q 3647 3509 3647 2328 
Q 3647 1150 3233 529 
Q 2819 -91 2034 -91 
Q 1250 -91 836 529 
Q 422 1150 422 2328 
Q 422 3509 836 4129 
Q 1250 4750 2034 4750 
z
" transform="scale(0.015625)"/>
        <path id="DejaVuSans-2212" d="M 678 2272 
L 4684 2272 
L 4684 1741 
L 678 1741 
L 678 2272 
z
" transform="scale(0.015625)"/>
       </defs>
       <use xlink:href="#DejaVuSans-31" transform="translate(0 0.684375)"/>
       <use xlink:href="#DejaVuSans-30" transform="translate(63.623047 0.684375)"/>
       <use xlink:href="#DejaVuSans-2212" transform="translate(128.203125 38.965625) scale(0.7)"/>
       <use xlink:href="#DejaVuSans-31" transform="translate(186.855469 38.965625) scale(0.7)"/>
      </g>
     </g>
    </g>
    <g id="xtick_2">
     <g id="line2d_2">
      <defs>
       <path id="m97cc5ff937" d="M 0 0 
L 0 2 
" style="stroke: #000000; stroke-width: 0.6"/>
      </defs>
      <g>
       <use xlink:href="#m97cc5ff937" x="149.25414" y="303.928" style="stroke: #000000; stroke-width: 0.6"/>
      </g>
     </g>
     <g id="text_2">
      <!-- $\mathdefault{2\times10^{-1}}$ -->
      <g transform="translate(128.20414 316.926438) scale(0.1 -0.1)">
       <defs>
        <path id="DejaVuSans-32" d="M 1228 531 
L 3431 531 
L 3431 0 
L 469 0 
L 469 531 
Q 828 903 1448 1529 
Q 2069 2156 2228 2338 
Q 2531 2678 2651 2914 
Q 2772 3150 2772 3378 
Q 2772 3750 2511 3984 
Q 2250 4219 1831 4219 
Q 1534 4219 1204 4116 
Q 875 4013 500 3803 
L 500 4441 
Q 881 4594 1212 4672 
Q 1544 4750 1819 4750 
Q 2544 4750 2975 4387 
Q 3406 4025 3406 3419 
Q 3406 3131 3298 2873 
Q 3191 2616 2906 2266 
Q 2828 2175 2409 1742 
Q 1991 1309 1228 531 
z
" transform="scale(0.015625)"/>
        <path id="DejaVuSans-d7" d="M 4488 3438 
L 3059 2003 
L 4488 575 
L 4116 197 
L 2681 1631 
L 1247 197 
L 878 575 
L 2303 2003 
L 878 3438 
L 1247 3816 
L 2681 2381 
L 4116 3816 
L 4488 3438 
z
" transform="scale(0.015625)"/>
       </defs>
       <use xlink:href="#DejaVuSans-32" transform="translate(0 0.684375)"/>
       <use xlink:href="#DejaVuSans-d7" transform="translate(83.105469 0.684375)"/>
       <use xlink:href="#DejaVuSans-31" transform="translate(186.376953 0.684375)"/>
       <use xlink:href="#DejaVuSans-30" transform="translate(250 0.684375)"/>
       <use xlink:href="#DejaVuSans-2212" transform="translate(314.580078 38.965625) scale(0.7)"/>
       <use xlink:href="#DejaVuSans-31" transform="translate(373.232422 38.965625) scale(0.7)"/>
      </g>
     </g>
    </g>
    <g id="xtick_3">
     <g id="line2d_3">
      <g>
       <use xlink:href="#m97cc5ff937" x="211.310227" y="303.928" style="stroke: #000000; stroke-width: 0.6"/>
      </g>
     </g>
     <g id="text_3">
      <!-- $\mathdefault{3\times10^{-1}}$ -->
      <g transform="translate(190.260227 316.926438) scale(0.1 -0.1)">
       <defs>
        <path id="DejaVuSans-33" d="M 2597 2516 
Q 3050 2419 3304 2112 
Q 3559 1806 3559 1356 
Q 3559 666 3084 287 
Q 2609 -91 1734 -91 
Q 1441 -91 1130 -33 
Q 819 25 488 141 
L 488 750 
Q 750 597 1062 519 
Q 1375 441 1716 441 
Q 2309 441 2620 675 
Q 2931 909 2931 1356 
Q 2931 1769 2642 2001 
Q 2353 2234 1838 2234 
L 1294 2234 
L 1294 2753 
L 1863 2753 
Q 2328 2753 2575 2939 
Q 2822 3125 2822 3475 
Q 2822 3834 2567 4026 
Q 2313 4219 1838 4219 
Q 1578 4219 1281 4162 
Q 984 4106 628 3988 
L 628 4550 
Q 988 4650 1302 4700 
Q 1616 4750 1894 4750 
Q 2613 4750 3031 4423 
Q 3450 4097 3450 3541 
Q 3450 3153 3228 2886 
Q 3006 2619 2597 2516 
z
" transform="scale(0.015625)"/>
       </defs>
       <use xlink:href="#DejaVuSans-33" transform="translate(0 0.684375)"/>
       <use xlink:href="#DejaVuSans-d7" transform="translate(83.105469 0.684375)"/>
       <use xlink:href="#DejaVuSans-31" transform="translate(186.376953 0.684375)"/>
       <use xlink:href="#DejaVuSans-30" transform="translate(250 0.684375)"/>
       <use xlink:href="#DejaVuSans-2212" transform="translate(314.580078 38.965625) scale(0.7)"/>
       <use xlink:href="#DejaVuSans-31" transform="translate(373.232422 38.965625) scale(0.7)"/>
      </g>
     </g>
    </g>
    <g id="xtick_4">
     <g id="line2d_4">
      <g>
       <use xlink:href="#m97cc5ff937" x="255.339722" y="303.928" style="stroke: #000000; stroke-width: 0.6"/>
      </g>
     </g>
     <g id="text_4">
      <!-- $\mathdefault{4\times10^{-1}}$ -->
      <g transform="translate(234.289722 316.926438) scale(0.1 -0.1)">
       <defs>
        <path id="DejaVuSans-34" d="M 2419 4116 
L 825 1625 
L 2419 1625 
L 2419 4116 
z
M 2253 4666 
L 3047 4666 
L 3047 1625 
L 3713 1625 
L 3713 1100 
L 3047 1100 
L 3047 0 
L 2419 0 
L 2419 1100 
L 313 1100 
L 313 1709 
L 2253 4666 
z
" transform="scale(0.015625)"/>
       </defs>
       <use xlink:href="#DejaVuSans-34" transform="translate(0 0.684375)"/>
       <use xlink:href="#DejaVuSans-d7" transform="translate(83.105469 0.684375)"/>
       <use xlink:href="#DejaVuSans-31" transform="translate(186.376953 0.684375)"/>
       <use xlink:href="#DejaVuSans-30" transform="translate(250 0.684375)"/>
       <use xlink:href="#DejaVuSans-2212" transform="translate(314.580078 38.965625) scale(0.7)"/>
       <use xlink:href="#DejaVuSans-31" transform="translate(373.232422 38.965625) scale(0.7)"/>
      </g>
     </g>
    </g>
    <g id="text_5">
     <!-- Normalized Cutoff Frequency W/Ws [dimensionless] -->
     <g transform="translate(19.858827 332.204563) scale(0.1 -0.1)">
      <defs>
       <path id="DejaVuSans-4e" d="M 628 4666 
L 1478 4666 
L 3547 763 
L 3547 4666 
L 4159 4666 
L 4159 0 
L 3309 0 
L 1241 3903 
L 1241 0 
L 628 0 
L 628 4666 
z
" transform="scale(0.015625)"/>
       <path id="DejaVuSans-6f" d="M 1959 3097 
Q 1497 3097 1228 2736 
Q 959 2375 959 1747 
Q 959 1119 1226 758 
Q 1494 397 1959 397 
Q 2419 397 2687 759 
Q 2956 1122 2956 1747 
Q 2956 2369 2687 2733 
Q 2419 3097 1959 3097 
z
M 1959 3584 
Q 2709 3584 3137 3096 
Q 3566 2609 3566 1747 
Q 3566 888 3137 398 
Q 2709 -91 1959 -91 
Q 1206 -91 779 398 
Q 353 888 353 1747 
Q 353 2609 779 3096 
Q 1206 3584 1959 3584 
z
" transform="scale(0.015625)"/>
       <path id="DejaVuSans-72" d="M 2631 2963 
Q 2534 3019 2420 3045 
Q 2306 3072 2169 3072 
Q 1681 3072 1420 2755 
Q 1159 2438 1159 1844 
L 1159 0 
L 581 0 
L 581 3500 
L 1159 3500 
L 1159 2956 
Q 1341 3275 1631 3429 
Q 1922 3584 2338 3584 
Q 2397 3584 2469 3576 
Q 2541 3569 2628 3553 
L 2631 2963 
z
" transform="scale(0.015625)"/>
       <path id="DejaVuSans-6d" d="M 3328 2828 
Q 3544 3216 3844 3400 
Q 4144 3584 4550 3584 
Q 5097 3584 5394 3201 
Q 5691 2819 5691 2113 
L 5691 0 
L 5113 0 
L 5113 2094 
Q 5113 2597 4934 2840 
Q 4756 3084 4391 3084 
Q 3944 3084 3684 2787 
Q 3425 2491 3425 1978 
L 3425 0 
L 2847 0 
L 2847 2094 
Q 2847 2600 2669 2842 
Q 2491 3084 2119 3084 
Q 1678 3084 1418 2786 
Q 1159 2488 1159 1978 
L 1159 0 
L 581 0 
L 581 3500 
L 1159 3500 
L 1159 2956 
Q 1356 3278 1631 3431 
Q 1906 3584 2284 3584 
Q 2666 3584 2933 3390 
Q 3200 3197 3328 2828 
z
" transform="scale(0.015625)"/>
       <path id="DejaVuSans-61" d="M 2194 1759 
Q 1497 1759 1228 1600 
Q 959 1441 959 1056 
Q 959 750 1161 570 
Q 1363 391 1709 391 
Q 2188 391 2477 730 
Q 2766 1069 2766 1631 
L 2766 1759 
L 2194 1759 
z
M 3341 1997 
L 3341 0 
L 2766 0 
L 2766 531 
Q 2569 213 2275 61 
Q 1981 -91 1556 -91 
Q 1019 -91 701 211 
Q 384 513 384 1019 
Q 384 1609 779 1909 
Q 1175 2209 1959 2209 
L 2766 2209 
L 2766 2266 
Q 2766 2663 2505 2880 
Q 2244 3097 1772 3097 
Q 1472 3097 1187 3025 
Q 903 2953 641 2809 
L 641 3341 
Q 956 3463 1253 3523 
Q 1550 3584 1831 3584 
Q 2591 3584 2966 3190 
Q 3341 2797 3341 1997 
z
" transform="scale(0.015625)"/>
       <path id="DejaVuSans-6c" d="M 603 4863 
L 1178 4863 
L 1178 0 
L 603 0 
L 603 4863 
z
" transform="scale(0.015625)"/>
       <path id="DejaVuSans-69" d="M 603 3500 
L 1178 3500 
L 1178 0 
L 603 0 
L 603 3500 
z
M 603 4863 
L 1178 4863 
L 1178 4134 
L 603 4134 
L 603 4863 
z
" transform="scale(0.015625)"/>
       <path id="DejaVuSans-7a" d="M 353 3500 
L 3084 3500 
L 3084 2975 
L 922 459 
L 3084 459 
L 3084 0 
L 275 0 
L 275 525 
L 2438 3041 
L 353 3041 
L 353 3500 
z
" transform="scale(0.015625)"/>
       <path id="DejaVuSans-65" d="M 3597 1894 
L 3597 1613 
L 953 1613 
Q 991 1019 1311 708 
Q 1631 397 2203 397 
Q 2534 397 2845 478 
Q 3156 559 3463 722 
L 3463 178 
Q 3153 47 2828 -22 
Q 2503 -91 2169 -91 
Q 1331 -91 842 396 
Q 353 884 353 1716 
Q 353 2575 817 3079 
Q 1281 3584 2069 3584 
Q 2775 3584 3186 3129 
Q 3597 2675 3597 1894 
z
M 3022 2063 
Q 3016 2534 2758 2815 
Q 2500 3097 2075 3097 
Q 1594 3097 1305 2825 
Q 1016 2553 972 2059 
L 3022 2063 
z
" transform="scale(0.015625)"/>
       <path id="DejaVuSans-64" d="M 2906 2969 
L 2906 4863 
L 3481 4863 
L 3481 0 
L 2906 0 
L 2906 525 
Q 2725 213 2448 61 
Q 2172 -91 1784 -91 
Q 1150 -91 751 415 
Q 353 922 353 1747 
Q 353 2572 751 3078 
Q 1150 3584 1784 3584 
Q 2172 3584 2448 3432 
Q 2725 3281 2906 2969 
z
M 947 1747 
Q 947 1113 1208 752 
Q 1469 391 1925 391 
Q 2381 391 2643 752 
Q 2906 1113 2906 1747 
Q 2906 2381 2643 2742 
Q 2381 3103 1925 3103 
Q 1469 3103 1208 2742 
Q 947 2381 947 1747 
z
" transform="scale(0.015625)"/>
       <path id="DejaVuSans-20" transform="scale(0.015625)"/>
       <path id="DejaVuSans-43" d="M 4122 4306 
L 4122 3641 
Q 3803 3938 3442 4084 
Q 3081 4231 2675 4231 
Q 1875 4231 1450 3742 
Q 1025 3253 1025 2328 
Q 1025 1406 1450 917 
Q 1875 428 2675 428 
Q 3081 428 3442 575 
Q 3803 722 4122 1019 
L 4122 359 
Q 3791 134 3420 21 
Q 3050 -91 2638 -91 
Q 1578 -91 968 557 
Q 359 1206 359 2328 
Q 359 3453 968 4101 
Q 1578 4750 2638 4750 
Q 3056 4750 3426 4639 
Q 3797 4528 4122 4306 
z
" transform="scale(0.015625)"/>
       <path id="DejaVuSans-75" d="M 544 1381 
L 544 3500 
L 1119 3500 
L 1119 1403 
Q 1119 906 1312 657 
Q 1506 409 1894 409 
Q 2359 409 2629 706 
Q 2900 1003 2900 1516 
L 2900 3500 
L 3475 3500 
L 3475 0 
L 2900 0 
L 2900 538 
Q 2691 219 2414 64 
Q 2138 -91 1772 -91 
Q 1169 -91 856 284 
Q 544 659 544 1381 
z
M 1991 3584 
L 1991 3584 
z
" transform="scale(0.015625)"/>
       <path id="DejaVuSans-74" d="M 1172 4494 
L 1172 3500 
L 2356 3500 
L 2356 3053 
L 1172 3053 
L 1172 1153 
Q 1172 725 1289 603 
Q 1406 481 1766 481 
L 2356 481 
L 2356 0 
L 1766 0 
Q 1100 0 847 248 
Q 594 497 594 1153 
L 594 3053 
L 172 3053 
L 172 3500 
L 594 3500 
L 594 4494 
L 1172 4494 
z
" transform="scale(0.015625)"/>
       <path id="DejaVuSans-66" d="M 2375 4863 
L 2375 4384 
L 1825 4384 
Q 1516 4384 1395 4259 
Q 1275 4134 1275 3809 
L 1275 3500 
L 2222 3500 
L 2222 3053 
L 1275 3053 
L 1275 0 
L 697 0 
L 697 3053 
L 147 3053 
L 147 3500 
L 697 3500 
L 697 3744 
Q 697 4328 969 4595 
Q 1241 4863 1831 4863 
L 2375 4863 
z
" transform="scale(0.015625)"/>
       <path id="DejaVuSans-46" d="M 628 4666 
L 3309 4666 
L 3309 4134 
L 1259 4134 
L 1259 2759 
L 3109 2759 
L 3109 2228 
L 1259 2228 
L 1259 0 
L 628 0 
L 628 4666 
z
" transform="scale(0.015625)"/>
       <path id="DejaVuSans-71" d="M 947 1747 
Q 947 1113 1208 752 
Q 1469 391 1925 391 
Q 2381 391 2643 752 
Q 2906 1113 2906 1747 
Q 2906 2381 2643 2742 
Q 2381 3103 1925 3103 
Q 1469 3103 1208 2742 
Q 947 2381 947 1747 
z
M 2906 525 
Q 2725 213 2448 61 
Q 2172 -91 1784 -91 
Q 1150 -91 751 415 
Q 353 922 353 1747 
Q 353 2572 751 3078 
Q 1150 3584 1784 3584 
Q 2172 3584 2448 3432 
Q 2725 3281 2906 2969 
L 2906 3500 
L 3481 3500 
L 3481 -1331 
L 2906 -1331 
L 2906 525 
z
" transform="scale(0.015625)"/>
       <path id="DejaVuSans-6e" d="M 3513 2113 
L 3513 0 
L 2938 0 
L 2938 2094 
Q 2938 2591 2744 2837 
Q 2550 3084 2163 3084 
Q 1697 3084 1428 2787 
Q 1159 2491 1159 1978 
L 1159 0 
L 581 0 
L 581 3500 
L 1159 3500 
L 1159 2956 
Q 1366 3272 1645 3428 
Q 1925 3584 2291 3584 
Q 2894 3584 3203 3211 
Q 3513 2838 3513 2113 
z
" transform="scale(0.015625)"/>
       <path id="DejaVuSans-63" d="M 3122 3366 
L 3122 2828 
Q 2878 2963 2633 3030 
Q 2388 3097 2138 3097 
Q 1578 3097 1268 2742 
Q 959 2388 959 1747 
Q 959 1106 1268 751 
Q 1578 397 2138 397 
Q 2388 397 2633 464 
Q 2878 531 3122 666 
L 3122 134 
Q 2881 22 2623 -34 
Q 2366 -91 2075 -91 
Q 1284 -91 818 406 
Q 353 903 353 1747 
Q 353 2603 823 3093 
Q 1294 3584 2113 3584 
Q 2378 3584 2631 3529 
Q 2884 3475 3122 3366 
z
" transform="scale(0.015625)"/>
       <path id="DejaVuSans-79" d="M 2059 -325 
Q 1816 -950 1584 -1140 
Q 1353 -1331 966 -1331 
L 506 -1331 
L 506 -850 
L 844 -850 
Q 1081 -850 1212 -737 
Q 1344 -625 1503 -206 
L 1606 56 
L 191 3500 
L 800 3500 
L 1894 763 
L 2988 3500 
L 3597 3500 
L 2059 -325 
z
" transform="scale(0.015625)"/>
       <path id="DejaVuSans-57" d="M 213 4666 
L 850 4666 
L 1831 722 
L 2809 4666 
L 3519 4666 
L 4500 722 
L 5478 4666 
L 6119 4666 
L 4947 0 
L 4153 0 
L 3169 4050 
L 2175 0 
L 1381 0 
L 213 4666 
z
" transform="scale(0.015625)"/>
       <path id="DejaVuSans-2f" d="M 1625 4666 
L 2156 4666 
L 531 -594 
L 0 -594 
L 1625 4666 
z
" transform="scale(0.015625)"/>
       <path id="DejaVuSans-73" d="M 2834 3397 
L 2834 2853 
Q 2591 2978 2328 3040 
Q 2066 3103 1784 3103 
Q 1356 3103 1142 2972 
Q 928 2841 928 2578 
Q 928 2378 1081 2264 
Q 1234 2150 1697 2047 
L 1894 2003 
Q 2506 1872 2764 1633 
Q 3022 1394 3022 966 
Q 3022 478 2636 193 
Q 2250 -91 1575 -91 
Q 1294 -91 989 -36 
Q 684 19 347 128 
L 347 722 
Q 666 556 975 473 
Q 1284 391 1588 391 
Q 1994 391 2212 530 
Q 2431 669 2431 922 
Q 2431 1156 2273 1281 
Q 2116 1406 1581 1522 
L 1381 1569 
Q 847 1681 609 1914 
Q 372 2147 372 2553 
Q 372 3047 722 3315 
Q 1072 3584 1716 3584 
Q 2034 3584 2315 3537 
Q 2597 3491 2834 3397 
z
" transform="scale(0.015625)"/>
       <path id="DejaVuSans-5b" d="M 550 4863 
L 1875 4863 
L 1875 4416 
L 1125 4416 
L 1125 -397 
L 1875 -397 
L 1875 -844 
L 550 -844 
L 550 4863 
z
" transform="scale(0.015625)"/>
       <path id="DejaVuSans-5d" d="M 1947 4863 
L 1947 -844 
L 622 -844 
L 622 -397 
L 1369 -397 
L 1369 4416 
L 622 4416 
L 622 4863 
L 1947 4863 
z
" transform="scale(0.015625)"/>
      </defs>
      <use xlink:href="#DejaVuSans-4e"/>
      <use xlink:href="#DejaVuSans-6f" x="74.804688"/>
      <use xlink:href="#DejaVuSans-72" x="135.986328"/>
      <use xlink:href="#DejaVuSans-6d" x="175.349609"/>
      <use xlink:href="#DejaVuSans-61" x="272.761719"/>
      <use xlink:href="#DejaVuSans-6c" x="334.041016"/>
      <use xlink:href="#DejaVuSans-69" x="361.824219"/>
      <use xlink:href="#DejaVuSans-7a" x="389.607422"/>
      <use xlink:href="#DejaVuSans-65" x="442.097656"/>
      <use xlink:href="#DejaVuSans-64" x="503.621094"/>
      <use xlink:href="#DejaVuSans-20" x="567.097656"/>
      <use xlink:href="#DejaVuSans-43" x="598.884766"/>
      <use xlink:href="#DejaVuSans-75" x="668.708984"/>
      <use xlink:href="#DejaVuSans-74" x="732.087891"/>
      <use xlink:href="#DejaVuSans-6f" x="771.296875"/>
      <use xlink:href="#DejaVuSans-66" x="832.478516"/>
      <use xlink:href="#DejaVuSans-66" x="867.683594"/>
      <use xlink:href="#DejaVuSans-20" x="902.888672"/>
      <use xlink:href="#DejaVuSans-46" x="934.675781"/>
      <use xlink:href="#DejaVuSans-72" x="984.945312"/>
      <use xlink:href="#DejaVuSans-65" x="1023.808594"/>
      <use xlink:href="#DejaVuSans-71" x="1085.332031"/>
      <use xlink:href="#DejaVuSans-75" x="1148.808594"/>
      <use xlink:href="#DejaVuSans-65" x="1212.1875"/>
      <use xlink:href="#DejaVuSans-6e" x="1273.710938"/>
      <use xlink:href="#DejaVuSans-63" x="1337.089844"/>
      <use xlink:href="#DejaVuSans-79" x="1392.070312"/>
      <use xlink:href="#DejaVuSans-20" x="1451.25"/>
      <use xlink:href="#DejaVuSans-57" x="1483.037109"/>
      <use xlink:href="#DejaVuSans-2f" x="1581.914062"/>
      <use xlink:href="#DejaVuSans-57" x="1615.605469"/>
      <use xlink:href="#DejaVuSans-73" x="1714.482422"/>
      <use xlink:href="#DejaVuSans-20" x="1766.582031"/>
      <use xlink:href="#DejaVuSans-5b" x="1798.369141"/>
      <use xlink:href="#DejaVuSans-64" x="1837.382812"/>
      <use xlink:href="#DejaVuSans-69" x="1900.859375"/>
      <use xlink:href="#DejaVuSans-6d" x="1928.642578"/>
      <use xlink:href="#DejaVuSans-65" x="2026.054688"/>
      <use xlink:href="#DejaVuSans-6e" x="2087.578125"/>
      <use xlink:href="#DejaVuSans-73" x="2150.957031"/>
      <use xlink:href="#DejaVuSans-69" x="2203.056641"/>
      <use xlink:href="#DejaVuSans-6f" x="2230.839844"/>
      <use xlink:href="#DejaVuSans-6e" x="2292.021484"/>
      <use xlink:href="#DejaVuSans-6c" x="2355.400391"/>
      <use xlink:href="#DejaVuSans-65" x="2383.183594"/>
      <use xlink:href="#DejaVuSans-73" x="2444.707031"/>
      <use xlink:href="#DejaVuSans-73" x="2496.806641"/>
      <use xlink:href="#DejaVuSans-5d" x="2548.90625"/>
     </g>
    </g>
   </g>
   <g id="matplotlib.axis_2">
    <g id="ytick_1">
     <g id="line2d_5">
      <defs>
       <path id="m25652bf22c" d="M 0 0 
L -3.5 0 
" style="stroke: #000000; stroke-width: 0.8"/>
      </defs>
      <g>
       <use xlink:href="#m25652bf22c" x="32.56" y="299.8713" style="stroke: #000000; stroke-width: 0.8"/>
      </g>
     </g>
     <g id="text_6">
      <!-- −6 -->
      <g transform="translate(10.817813 303.670519) scale(0.1 -0.1)">
       <defs>
        <path id="DejaVuSans-36" d="M 2113 2584 
Q 1688 2584 1439 2293 
Q 1191 2003 1191 1497 
Q 1191 994 1439 701 
Q 1688 409 2113 409 
Q 2538 409 2786 701 
Q 3034 994 3034 1497 
Q 3034 2003 2786 2293 
Q 2538 2584 2113 2584 
z
M 3366 4563 
L 3366 3988 
Q 3128 4100 2886 4159 
Q 2644 4219 2406 4219 
Q 1781 4219 1451 3797 
Q 1122 3375 1075 2522 
Q 1259 2794 1537 2939 
Q 1816 3084 2150 3084 
Q 2853 3084 3261 2657 
Q 3669 2231 3669 1497 
Q 3669 778 3244 343 
Q 2819 -91 2113 -91 
Q 1303 -91 875 529 
Q 447 1150 447 2328 
Q 447 3434 972 4092 
Q 1497 4750 2381 4750 
Q 2619 4750 2861 4703 
Q 3103 4656 3366 4563 
z
" transform="scale(0.015625)"/>
       </defs>
       <use xlink:href="#DejaVuSans-2212"/>
       <use xlink:href="#DejaVuSans-36" x="83.789062"/>
      </g>
     </g>
    </g>
    <g id="ytick_2">
     <g id="line2d_6">
      <g>
       <use xlink:href="#m25652bf22c" x="32.56" y="257.140252" style="stroke: #000000; stroke-width: 0.8"/>
      </g>
     </g>
     <g id="text_7">
      <!-- −4 -->
      <g transform="translate(10.817813 260.939471) scale(0.1 -0.1)">
       <use xlink:href="#DejaVuSans-2212"/>
       <use xlink:href="#DejaVuSans-34" x="83.789062"/>
      </g>
     </g>
    </g>
    <g id="ytick_3">
     <g id="line2d_7">
      <g>
       <use xlink:href="#m25652bf22c" x="32.56" y="214.409203" style="stroke: #000000; stroke-width: 0.8"/>
      </g>
     </g>
     <g id="text_8">
      <!-- −2 -->
      <g transform="translate(10.817813 218.208422) scale(0.1 -0.1)">
       <use xlink:href="#DejaVuSans-2212"/>
       <use xlink:href="#DejaVuSans-32" x="83.789062"/>
      </g>
     </g>
    </g>
    <g id="ytick_4">
     <g id="line2d_8">
      <g>
       <use xlink:href="#m25652bf22c" x="32.56" y="171.678154" style="stroke: #000000; stroke-width: 0.8"/>
      </g>
     </g>
     <g id="text_9">
      <!-- 0 -->
      <g transform="translate(19.1975 175.477373) scale(0.1 -0.1)">
       <use xlink:href="#DejaVuSans-30"/>
      </g>
     </g>
    </g>
    <g id="ytick_5">
     <g id="line2d_9">
      <g>
       <use xlink:href="#m25652bf22c" x="32.56" y="128.947106" style="stroke: #000000; stroke-width: 0.8"/>
      </g>
     </g>
     <g id="text_10">
      <!-- 2 -->
      <g transform="translate(19.1975 132.746325) scale(0.1 -0.1)">
       <use xlink:href="#DejaVuSans-32"/>
      </g>
     </g>
    </g>
    <g id="ytick_6">
     <g id="line2d_10">
      <g>
       <use xlink:href="#m25652bf22c" x="32.56" y="86.216057" style="stroke: #000000; stroke-width: 0.8"/>
      </g>
     </g>
     <g id="text_11">
      <!-- 4 -->
      <g transform="translate(19.1975 90.015276) scale(0.1 -0.1)">
       <use xlink:href="#DejaVuSans-34"/>
      </g>
     </g>
    </g>
   </g>
   <g id="line2d_11">
    <path d="M 43.168558 95.201653 
L 45.311701 95.927024 
L 47.454844 96.662479 
L 49.597987 97.408157 
L 51.74113 98.164197 
L 53.884274 98.930739 
L 56.027417 99.707927 
L 58.17056 100.495907 
L 60.313703 101.294825 
L 62.456846 102.10483 
L 64.599989 102.926073 
L 66.743132 103.758708 
L 68.886275 104.602889 
L 71.029418 105.458774 
L 73.172561 106.326522 
L 75.315704 107.206295 
L 77.458847 108.098257 
L 79.60199 109.002573 
L 81.745133 109.919412 
L 83.888276 110.848946 
L 86.03142 111.791346 
L 88.174563 112.74679 
L 90.317706 113.715453 
L 92.460849 114.697518 
L 94.603992 115.693168 
L 96.747135 116.702587 
L 98.890278 117.725966 
L 101.033421 118.763494 
L 103.176564 119.815366 
L 105.319707 120.88178 
L 107.46285 121.962933 
L 109.605993 123.059031 
L 111.749136 124.170278 
L 113.892279 125.296883 
L 116.035422 126.439059 
L 118.178566 127.597022 
L 120.321709 128.770989 
L 122.464852 129.961184 
L 124.607995 131.167832 
L 126.751138 132.391164 
L 128.894281 133.631411 
L 131.037424 134.888812 
L 133.180567 136.163607 
L 135.32371 137.456041 
L 137.466853 138.766364 
L 139.609996 140.094828 
L 141.753139 141.441693 
L 143.896282 142.807219 
L 146.039425 144.191674 
L 148.182568 145.595329 
L 150.325712 147.018462 
L 152.468855 148.461353 
L 154.611998 149.924289 
L 156.755141 151.407563 
L 158.898284 152.911472 
L 161.041427 154.436319 
L 163.18457 155.982413 
L 165.327713 157.550069 
L 167.470856 159.139608 
L 169.613999 160.751358 
L 171.757142 162.385653 
L 173.900285 164.042832 
L 176.043428 165.723243 
L 178.186571 167.427241 
L 180.329714 169.155188 
L 182.472858 170.907452 
L 184.616001 172.684411 
L 186.759144 174.486448 
L 188.902287 176.313956 
L 191.04543 178.167336 
L 193.188573 180.046997 
L 195.331716 181.953356 
L 197.474859 183.886841 
L 199.618002 185.847885 
L 201.761145 187.836933 
L 203.904288 189.85444 
L 206.047431 191.900866 
L 208.190574 193.976686 
L 210.333717 196.082379 
L 212.47686 198.218439 
L 214.620004 200.385365 
L 216.763147 202.583668 
L 218.90629 204.813869 
L 221.049433 207.076498 
L 223.192576 209.372094 
L 225.335719 211.701206 
L 227.478862 214.064391 
L 229.622005 216.462218 
L 231.765148 218.89526 
L 233.908291 221.364103 
L 236.051434 223.869338 
L 238.194577 226.411562 
L 240.33772 228.991383 
L 242.480863 231.60941 
L 244.624006 234.26626 
L 246.76715 236.962554 
L 248.910293 239.698915 
L 251.053436 242.475968 
L 253.196579 245.29434 
L 255.339722 248.154656 
" clip-path="url(#pef7b0d0eb7)" style="fill: none; stroke: #1f77b4; stroke-width: 1.5; stroke-linecap: square"/>
   </g>
   <g id="line2d_12">
    <path d="M 43.168558 292.578545 
L 45.311701 290.569981 
L 47.454844 288.554576 
L 49.597987 286.532787 
L 51.74113 284.505089 
L 53.884274 282.471979 
L 56.027417 280.433976 
L 58.17056 278.391619 
L 60.313703 276.34547 
L 62.456846 274.296114 
L 64.599989 272.244161 
L 66.743132 270.190244 
L 68.886275 268.135022 
L 71.029418 266.079181 
L 73.172561 264.023432 
L 75.315704 261.968514 
L 77.458847 259.915197 
L 79.60199 257.864276 
L 81.745133 255.816579 
L 83.888276 253.772965 
L 86.03142 251.734324 
L 88.174563 249.70158 
L 90.317706 247.67569 
L 92.460849 245.657647 
L 94.603992 243.648478 
L 96.747135 241.649251 
L 98.890278 239.66107 
L 101.033421 237.685077 
L 103.176564 235.722457 
L 105.319707 233.774437 
L 107.46285 231.842286 
L 109.605993 229.92732 
L 111.749136 228.030898 
L 113.892279 226.15443 
L 116.035422 224.299372 
L 118.178566 222.467233 
L 120.321709 220.659573 
L 122.464852 218.878009 
L 124.607995 217.124209 
L 126.751138 215.399905 
L 128.894281 213.706883 
L 131.037424 212.046996 
L 133.180567 210.422157 
L 135.32371 208.834347 
L 137.466853 207.285617 
L 139.609996 205.778087 
L 141.753139 204.313952 
L 143.896282 202.895482 
L 146.039425 201.525029 
L 148.182568 200.205023 
L 150.325712 198.937984 
L 152.468855 197.726517 
L 154.611998 196.573321 
L 156.755141 195.481189 
L 158.898284 194.453016 
L 161.041427 193.491797 
L 163.18457 192.600637 
L 165.327713 191.782752 
L 167.470856 191.041476 
L 169.613999 190.380262 
L 171.757142 189.802692 
L 173.900285 189.312479 
L 176.043428 188.913473 
L 178.186571 188.609671 
L 180.329714 188.405216 
L 182.472858 188.304411 
L 184.616001 188.311722 
L 186.759144 188.431786 
L 188.902287 188.669419 
L 191.04543 189.029628 
L 193.188573 189.517611 
L 195.331716 190.138776 
L 197.474859 190.898744 
L 199.618002 191.803364 
L 201.761145 192.85872 
L 203.904288 194.071144 
L 206.047431 195.447228 
L 208.190574 196.993838 
L 210.333717 198.718126 
L 212.47686 200.627545 
L 214.620004 202.729862 
L 216.763147 205.033176 
L 218.90629 207.545933 
L 221.049433 210.276946 
L 223.192576 213.235408 
L 225.335719 216.430916 
L 227.478862 219.873489 
L 229.622005 223.57359 
L 231.765148 227.542146 
L 233.908291 231.790572 
L 236.051434 236.330794 
L 238.194577 241.175278 
L 240.33772 246.337049 
L 242.480863 251.829723 
L 244.624006 257.667532 
L 246.76715 263.865352 
L 248.910293 270.438737 
L 251.053436 277.403943 
L 253.196579 284.77796 
L 255.339722 292.578545 
" clip-path="url(#pef7b0d0eb7)" style="fill: none; stroke: #ff7f0e; stroke-width: 1.5; stroke-linecap: square"/>
   </g>
   <g id="line2d_13">
    <path d="M 43.168558 65.589455 
L 45.311701 67.979904 
L 47.454844 70.360187 
L 49.597987 72.729528 
L 51.74113 75.087141 
L 53.884274 77.432234 
L 56.027417 79.764009 
L 58.17056 82.08166 
L 60.313703 84.384376 
L 62.456846 86.671341 
L 64.599989 88.941736 
L 66.743132 91.194737 
L 68.886275 93.42952 
L 71.029418 95.645258 
L 73.172561 97.841126 
L 75.315704 100.016299 
L 77.458847 102.169954 
L 79.60199 104.301272 
L 81.745133 106.40944 
L 83.888276 108.49365 
L 86.03142 110.553103 
L 88.174563 112.587009 
L 90.317706 114.594591 
L 92.460849 116.575082 
L 94.603992 118.527734 
L 96.747135 120.451814 
L 98.890278 122.346609 
L 101.033421 124.211427 
L 103.176564 126.045602 
L 105.319707 127.848491 
L 107.46285 129.619486 
L 109.605993 131.358006 
L 111.749136 133.063507 
L 113.892279 134.735486 
L 116.035422 136.373478 
L 118.178566 137.977066 
L 120.321709 139.54588 
L 122.464852 141.079607 
L 124.607995 142.577987 
L 126.751138 144.040824 
L 128.894281 145.46799 
L 131.037424 146.859426 
L 133.180567 148.215151 
L 135.32371 149.535267 
L 137.466853 150.819965 
L 139.609996 152.069529 
L 141.753139 153.284346 
L 143.896282 154.464911 
L 146.039425 155.611836 
L 148.182568 156.725856 
L 150.325712 157.807841 
L 152.468855 158.8588 
L 154.611998 159.879895 
L 156.755141 160.87245 
L 158.898284 161.837961 
L 161.041427 162.77811 
L 163.18457 163.694775 
L 165.327713 164.590043 
L 167.470856 165.466228 
L 169.613999 166.325882 
L 171.757142 167.171814 
L 173.900285 168.007106 
L 176.043428 168.835131 
L 178.186571 169.659578 
L 180.329714 170.484465 
L 182.472858 171.314169 
L 184.616001 172.153449 
L 186.759144 173.007471 
L 188.902287 173.881839 
L 191.04543 174.782623 
L 193.188573 175.716394 
L 195.331716 176.690262 
L 197.474859 177.711908 
L 199.618002 178.789633 
L 201.761145 179.932399 
L 203.904288 181.149877 
L 206.047431 182.452503 
L 208.190574 183.85153 
L 210.333717 185.359095 
L 212.47686 186.988279 
L 214.620004 188.753187 
L 216.763147 190.669018 
L 218.90629 192.752155 
L 221.049433 195.020258 
L 223.192576 197.492357 
L 225.335719 200.18897 
L 227.478862 203.132211 
L 229.622005 206.345927 
L 231.765148 209.855831 
L 233.908291 213.689656 
L 236.051434 217.877318 
L 238.194577 222.451098 
L 240.33772 227.445835 
L 242.480863 232.89914 
L 244.624006 238.851623 
L 246.76715 245.347149 
L 248.910293 252.433109 
L 251.053436 260.16072 
L 253.196579 268.585346 
L 255.339722 277.766854 
" clip-path="url(#pef7b0d0eb7)" style="fill: none; stroke: #2ca02c; stroke-width: 1.5; stroke-linecap: square"/>
   </g>
   <g id="line2d_14">
    <path d="M 43.168558 225.722139 
L 45.311701 224.231818 
L 47.454844 222.757307 
L 49.597987 221.299064 
L 51.74113 219.857542 
L 53.884274 218.433188 
L 56.027417 217.026441 
L 58.17056 215.637734 
L 60.313703 214.267493 
L 62.456846 212.916134 
L 64.599989 211.584063 
L 66.743132 210.271681 
L 68.886275 208.979373 
L 71.029418 207.707518 
L 73.172561 206.45648 
L 75.315704 205.226613 
L 77.458847 204.018258 
L 79.60199 202.831742 
L 81.745133 201.66738 
L 83.888276 200.525471 
L 86.03142 199.406298 
L 88.174563 198.310132 
L 90.317706 197.237226 
L 92.460849 196.187816 
L 94.603992 195.162122 
L 96.747135 194.160347 
L 98.890278 193.182676 
L 101.033421 192.229276 
L 103.176564 191.300295 
L 105.319707 190.395864 
L 107.46285 189.516094 
L 109.605993 188.661079 
L 111.749136 187.830892 
L 113.892279 187.025589 
L 116.035422 186.245207 
L 118.178566 185.489764 
L 120.321709 184.759261 
L 122.464852 184.053681 
L 124.607995 183.372991 
L 126.751138 182.71714 
L 128.894281 182.086065 
L 131.037424 181.479686 
L 133.180567 180.897911 
L 135.32371 180.340638 
L 137.466853 179.807754 
L 139.609996 179.299139 
L 141.753139 178.814668 
L 143.896282 178.354213 
L 146.039425 177.917646 
L 148.182568 177.504843 
L 150.325712 177.115685 
L 152.468855 176.750068 
L 154.611998 176.4079 
L 156.755141 176.089111 
L 158.898284 175.793658 
L 161.041427 175.52153 
L 163.18457 175.272757 
L 165.327713 175.047415 
L 167.470856 174.845636 
L 169.613999 174.667619 
L 171.757142 174.513637 
L 173.900285 174.384053 
L 176.043428 174.27933 
L 178.186571 174.200045 
L 180.329714 174.146907 
L 182.472858 174.120772 
L 184.616001 174.122666 
L 186.759144 174.153802 
L 188.902287 174.215607 
L 191.04543 174.309746 
L 193.188573 174.438155 
L 195.331716 174.603066 
L 197.474859 174.807052 
L 199.618002 175.053059 
L 201.761145 175.344455 
L 203.904288 175.685075 
L 206.047431 176.079279 
L 208.190574 176.532011 
L 210.333717 177.048863 
L 212.47686 177.636157 
L 214.620004 178.301021 
L 216.763147 179.051485 
L 218.90629 179.896588 
L 221.049433 180.846485 
L 223.192576 181.912588 
L 225.335719 183.107698 
L 227.478862 184.44618 
L 229.622005 185.944131 
L 231.765148 187.619595 
L 233.908291 189.492783 
L 236.051434 191.586333 
L 238.194577 193.925597 
L 240.33772 196.538964 
L 242.480863 199.458227 
L 244.624006 202.718991 
L 246.76715 206.361137 
L 248.910293 210.429347 
L 251.053436 214.973694 
L 253.196579 220.050309 
L 255.339722 225.722139 
" clip-path="url(#pef7b0d0eb7)" style="fill: none; stroke: #d62728; stroke-width: 1.5; stroke-linecap: square"/>
   </g>
   <g id="line2d_15">
    <path d="M 43.168558 156.609603 
L 45.311701 157.091425 
L 47.454844 157.565535 
L 49.597987 158.031828 
L 51.74113 158.490206 
L 53.884274 158.940574 
L 56.027417 159.382843 
L 58.17056 159.81693 
L 60.313703 160.242755 
L 62.456846 160.660248 
L 64.599989 161.069341 
L 66.743132 161.469974 
L 68.886275 161.862092 
L 71.029418 162.245648 
L 73.172561 162.6206 
L 75.315704 162.986912 
L 77.458847 163.344557 
L 79.60199 163.693512 
L 81.745133 164.033763 
L 83.888276 164.365303 
L 86.03142 164.68813 
L 88.174563 165.00225 
L 90.317706 165.307679 
L 92.460849 165.604436 
L 94.603992 165.89255 
L 96.747135 166.172056 
L 98.890278 166.442999 
L 101.033421 166.705428 
L 103.176564 166.959401 
L 105.319707 167.204985 
L 107.46285 167.442253 
L 109.605993 167.671285 
L 111.749136 167.89217 
L 113.892279 168.105003 
L 116.035422 168.309888 
L 118.178566 168.506936 
L 120.321709 168.696265 
L 122.464852 168.878001 
L 124.607995 169.052277 
L 126.751138 169.219236 
L 128.894281 169.379024 
L 131.037424 169.531799 
L 133.180567 169.677724 
L 135.32371 169.816971 
L 137.466853 169.949718 
L 139.609996 170.076152 
L 141.753139 170.19647 
L 143.896282 170.310874 
L 146.039425 170.419576 
L 148.182568 170.522797 
L 150.325712 170.620767 
L 152.468855 170.713726 
L 154.611998 170.801923 
L 156.755141 170.88562 
L 158.898284 170.965088 
L 161.041427 171.040614 
L 163.18457 171.112496 
L 165.327713 171.181049 
L 167.470856 171.246603 
L 169.613999 171.309508 
L 171.757142 171.370133 
L 173.900285 171.428871 
L 176.043428 171.486141 
L 178.186571 171.542389 
L 180.329714 171.598095 
L 182.472858 171.653776 
L 184.616001 171.709991 
L 186.759144 171.767343 
L 188.902287 171.826492 
L 191.04543 171.888158 
L 193.188573 171.95313 
L 195.331716 172.022277 
L 197.474859 172.096556 
L 199.618002 172.177029 
L 201.761145 172.264874 
L 203.904288 172.361402 
L 206.047431 172.468078 
L 208.190574 172.586541 
L 210.333717 172.71863 
L 212.47686 172.866409 
L 214.620004 173.032207 
L 216.763147 173.218648 
L 218.90629 173.428698 
L 221.049433 173.665714 
L 223.192576 173.933503 
L 225.335719 174.236384 
L 227.478862 174.579267 
L 229.622005 174.967737 
L 231.765148 175.408158 
L 233.908291 175.907791 
L 236.051434 176.474923 
L 238.194577 177.119029 
L 240.33772 177.850952 
L 242.480863 178.683111 
L 244.624006 179.629753 
L 246.76715 180.70723 
L 248.910293 181.934338 
L 251.053436 183.332706 
L 253.196579 184.92725 
L 255.339722 186.746706 
" clip-path="url(#pef7b0d0eb7)" style="fill: none; stroke: #9467bd; stroke-width: 1.5; stroke-linecap: square"/>
   </g>
   <g id="line2d_16">
    <path d="M 43.168558 173.467656 
L 45.311701 173.403481 
L 47.454844 173.340635 
L 49.597987 173.279125 
L 51.74113 173.218954 
L 53.884274 173.160126 
L 56.027417 173.102644 
L 58.17056 173.046509 
L 60.313703 172.991721 
L 62.456846 172.938281 
L 64.599989 172.886186 
L 66.743132 172.835436 
L 68.886275 172.786026 
L 71.029418 172.737952 
L 73.172561 172.69121 
L 75.315704 172.645792 
L 77.458847 172.601692 
L 79.60199 172.558901 
L 81.745133 172.517412 
L 83.888276 172.477213 
L 86.03142 172.438293 
L 88.174563 172.400642 
L 90.317706 172.364246 
L 92.460849 172.329091 
L 94.603992 172.295164 
L 96.747135 172.262449 
L 98.890278 172.23093 
L 101.033421 172.200591 
L 103.176564 172.171413 
L 105.319707 172.143378 
L 107.46285 172.116468 
L 109.605993 172.090663 
L 111.749136 172.065942 
L 113.892279 172.042285 
L 116.035422 172.019671 
L 118.178566 171.998078 
L 120.321709 171.977483 
L 122.464852 171.957864 
L 124.607995 171.939199 
L 126.751138 171.921463 
L 128.894281 171.904633 
L 131.037424 171.888687 
L 133.180567 171.873599 
L 135.32371 171.859347 
L 137.466853 171.845907 
L 139.609996 171.833255 
L 141.753139 171.821369 
L 143.896282 171.810224 
L 146.039425 171.799799 
L 148.182568 171.790072 
L 150.325712 171.781021 
L 152.468855 171.772625 
L 154.611998 171.764866 
L 156.755141 171.757723 
L 158.898284 171.75118 
L 161.041427 171.74522 
L 163.18457 171.739829 
L 165.327713 171.734995 
L 167.470856 171.730705 
L 169.613999 171.726953 
L 171.757142 171.723732 
L 173.900285 171.721039 
L 176.043428 171.718875 
L 178.186571 171.717244 
L 180.329714 171.716154 
L 182.472858 171.715619 
L 184.616001 171.715658 
L 186.759144 171.716295 
L 188.902287 171.717563 
L 191.04543 171.719502 
L 193.188573 171.722161 
L 195.331716 171.7256 
L 197.474859 171.72989 
L 199.618002 171.735115 
L 201.761145 171.741377 
L 203.904288 171.748794 
L 206.047431 171.757504 
L 208.190574 171.767669 
L 210.333717 171.779479 
L 212.47686 171.793152 
L 214.620004 171.808947 
L 216.763147 171.827159 
L 218.90629 171.848135 
L 221.049433 171.872276 
L 223.192576 171.900049 
L 225.335719 171.931995 
L 227.478862 171.968744 
L 229.622005 172.01103 
L 231.765148 172.059704 
L 233.908291 172.11576 
L 236.051434 172.180356 
L 238.194577 172.254844 
L 240.33772 172.340805 
L 242.480863 172.440088 
L 244.624006 172.554862 
L 246.76715 172.68767 
L 248.910293 172.841503 
L 251.053436 173.019883 
L 253.196579 173.226964 
L 255.339722 173.467656 
" clip-path="url(#pef7b0d0eb7)" style="fill: none; stroke: #8c564b; stroke-width: 1.5; stroke-linecap: square"/>
   </g>
   <g id="patch_3">
    <path d="M 32.56 303.928 
L 32.56 54.24 
" style="fill: none; stroke: #000000; stroke-width: 0.8; stroke-linejoin: miter; stroke-linecap: square"/>
   </g>
   <g id="patch_4">
    <path d="M 265.94828 303.928 
L 265.94828 54.24 
" style="fill: none; stroke: #000000; stroke-width: 0.8; stroke-linejoin: miter; stroke-linecap: square"/>
   </g>
   <g id="patch_5">
    <path d="M 32.56 303.928 
L 265.94828 303.928 
" style="fill: none; stroke: #000000; stroke-width: 0.8; stroke-linejoin: miter; stroke-linecap: square"/>
   </g>
   <g id="patch_6">
    <path d="M 32.56 54.24 
L 265.94828 54.24 
" style="fill: none; stroke: #000000; stroke-width: 0.8; stroke-linejoin: miter; stroke-linecap: square"/>
   </g>
   <g id="text_12">
    <!-- A -->
    <g transform="translate(145.149765 48.24) scale(0.12 -0.12)">
     <defs>
      <path id="DejaVuSans-41" d="M 2188 4044 
L 1331 1722 
L 3047 1722 
L 2188 4044 
z
M 1831 4666 
L 2547 4666 
L 4325 0 
L 3669 0 
L 3244 1197 
L 1141 1197 
L 716 0 
L 50 0 
L 1831 4666 
z
" transform="scale(0.015625)"/>
     </defs>
     <use xlink:href="#DejaVuSans-41"/>
    </g>
   </g>
  </g>
  <g id="axes_2">
   <g id="patch_7">
    <path d="M 320.034018 303.928 
L 553.422298 303.928 
L 553.422298 54.24 
L 320.034018 54.24 
z
" style="fill: #ffffff"/>
   </g>
   <g id="matplotlib.axis_3">
    <g id="xtick_5">
     <g id="line2d_17">
      <g>
       <use xlink:href="#mcfe034a3f0" x="330.642576" y="303.928" style="stroke: #000000; stroke-width: 0.8"/>
      </g>
     </g>
     <g id="text_13">
      <!-- $\mathdefault{10^{-1}}$ -->
      <g transform="translate(318.892576 318.526437) scale(0.1 -0.1)">
       <use xlink:href="#DejaVuSans-31" transform="translate(0 0.684375)"/>
       <use xlink:href="#DejaVuSans-30" transform="translate(63.623047 0.684375)"/>
       <use xlink:href="#DejaVuSans-2212" transform="translate(128.203125 38.965625) scale(0.7)"/>
       <use xlink:href="#DejaVuSans-31" transform="translate(186.855469 38.965625) scale(0.7)"/>
      </g>
     </g>
    </g>
    <g id="xtick_6">
     <g id="line2d_18">
      <g>
       <use xlink:href="#m97cc5ff937" x="436.728158" y="303.928" style="stroke: #000000; stroke-width: 0.6"/>
      </g>
     </g>
     <g id="text_14">
      <!-- $\mathdefault{2\times10^{-1}}$ -->
      <g transform="translate(415.678158 316.926438) scale(0.1 -0.1)">
       <use xlink:href="#DejaVuSans-32" transform="translate(0 0.684375)"/>
       <use xlink:href="#DejaVuSans-d7" transform="translate(83.105469 0.684375)"/>
       <use xlink:href="#DejaVuSans-31" transform="translate(186.376953 0.684375)"/>
       <use xlink:href="#DejaVuSans-30" transform="translate(250 0.684375)"/>
       <use xlink:href="#DejaVuSans-2212" transform="translate(314.580078 38.965625) scale(0.7)"/>
       <use xlink:href="#DejaVuSans-31" transform="translate(373.232422 38.965625) scale(0.7)"/>
      </g>
     </g>
    </g>
    <g id="xtick_7">
     <g id="line2d_19">
      <g>
       <use xlink:href="#m97cc5ff937" x="498.784245" y="303.928" style="stroke: #000000; stroke-width: 0.6"/>
      </g>
     </g>
     <g id="text_15">
      <!-- $\mathdefault{3\times10^{-1}}$ -->
      <g transform="translate(477.734245 316.926438) scale(0.1 -0.1)">
       <use xlink:href="#DejaVuSans-33" transform="translate(0 0.684375)"/>
       <use xlink:href="#DejaVuSans-d7" transform="translate(83.105469 0.684375)"/>
       <use xlink:href="#DejaVuSans-31" transform="translate(186.376953 0.684375)"/>
       <use xlink:href="#DejaVuSans-30" transform="translate(250 0.684375)"/>
       <use xlink:href="#DejaVuSans-2212" transform="translate(314.580078 38.965625) scale(0.7)"/>
       <use xlink:href="#DejaVuSans-31" transform="translate(373.232422 38.965625) scale(0.7)"/>
      </g>
     </g>
    </g>
    <g id="xtick_8">
     <g id="line2d_20">
      <g>
       <use xlink:href="#m97cc5ff937" x="542.81374" y="303.928" style="stroke: #000000; stroke-width: 0.6"/>
      </g>
     </g>
     <g id="text_16">
      <!-- $\mathdefault{4\times10^{-1}}$ -->
      <g transform="translate(521.76374 316.926438) scale(0.1 -0.1)">
       <use xlink:href="#DejaVuSans-34" transform="translate(0 0.684375)"/>
       <use xlink:href="#DejaVuSans-d7" transform="translate(83.105469 0.684375)"/>
       <use xlink:href="#DejaVuSans-31" transform="translate(186.376953 0.684375)"/>
       <use xlink:href="#DejaVuSans-30" transform="translate(250 0.684375)"/>
       <use xlink:href="#DejaVuSans-2212" transform="translate(314.580078 38.965625) scale(0.7)"/>
       <use xlink:href="#DejaVuSans-31" transform="translate(373.232422 38.965625) scale(0.7)"/>
      </g>
     </g>
    </g>
    <g id="text_17">
     <!-- Normalized Cutoff Frequency W/Ws [dimensionless] -->
     <g transform="translate(307.332845 332.204563) scale(0.1 -0.1)">
      <use xlink:href="#DejaVuSans-4e"/>
      <use xlink:href="#DejaVuSans-6f" x="74.804688"/>
      <use xlink:href="#DejaVuSans-72" x="135.986328"/>
      <use xlink:href="#DejaVuSans-6d" x="175.349609"/>
      <use xlink:href="#DejaVuSans-61" x="272.761719"/>
      <use xlink:href="#DejaVuSans-6c" x="334.041016"/>
      <use xlink:href="#DejaVuSans-69" x="361.824219"/>
      <use xlink:href="#DejaVuSans-7a" x="389.607422"/>
      <use xlink:href="#DejaVuSans-65" x="442.097656"/>
      <use xlink:href="#DejaVuSans-64" x="503.621094"/>
      <use xlink:href="#DejaVuSans-20" x="567.097656"/>
      <use xlink:href="#DejaVuSans-43" x="598.884766"/>
      <use xlink:href="#DejaVuSans-75" x="668.708984"/>
      <use xlink:href="#DejaVuSans-74" x="732.087891"/>
      <use xlink:href="#DejaVuSans-6f" x="771.296875"/>
      <use xlink:href="#DejaVuSans-66" x="832.478516"/>
      <use xlink:href="#DejaVuSans-66" x="867.683594"/>
      <use xlink:href="#DejaVuSans-20" x="902.888672"/>
      <use xlink:href="#DejaVuSans-46" x="934.675781"/>
      <use xlink:href="#DejaVuSans-72" x="984.945312"/>
      <use xlink:href="#DejaVuSans-65" x="1023.808594"/>
      <use xlink:href="#DejaVuSans-71" x="1085.332031"/>
      <use xlink:href="#DejaVuSans-75" x="1148.808594"/>
      <use xlink:href="#DejaVuSans-65" x="1212.1875"/>
      <use xlink:href="#DejaVuSans-6e" x="1273.710938"/>
      <use xlink:href="#DejaVuSans-63" x="1337.089844"/>
      <use xlink:href="#DejaVuSans-79" x="1392.070312"/>
      <use xlink:href="#DejaVuSans-20" x="1451.25"/>
      <use xlink:href="#DejaVuSans-57" x="1483.037109"/>
      <use xlink:href="#DejaVuSans-2f" x="1581.914062"/>
      <use xlink:href="#DejaVuSans-57" x="1615.605469"/>
      <use xlink:href="#DejaVuSans-73" x="1714.482422"/>
      <use xlink:href="#DejaVuSans-20" x="1766.582031"/>
      <use xlink:href="#DejaVuSans-5b" x="1798.369141"/>
      <use xlink:href="#DejaVuSans-64" x="1837.382812"/>
      <use xlink:href="#DejaVuSans-69" x="1900.859375"/>
      <use xlink:href="#DejaVuSans-6d" x="1928.642578"/>
      <use xlink:href="#DejaVuSans-65" x="2026.054688"/>
      <use xlink:href="#DejaVuSans-6e" x="2087.578125"/>
      <use xlink:href="#DejaVuSans-73" x="2150.957031"/>
      <use xlink:href="#DejaVuSans-69" x="2203.056641"/>
      <use xlink:href="#DejaVuSans-6f" x="2230.839844"/>
      <use xlink:href="#DejaVuSans-6e" x="2292.021484"/>
      <use xlink:href="#DejaVuSans-6c" x="2355.400391"/>
      <use xlink:href="#DejaVuSans-65" x="2383.183594"/>
      <use xlink:href="#DejaVuSans-73" x="2444.707031"/>
      <use xlink:href="#DejaVuSans-73" x="2496.806641"/>
      <use xlink:href="#DejaVuSans-5d" x="2548.90625"/>
     </g>
    </g>
   </g>
   <g id="matplotlib.axis_4">
    <g id="ytick_7">
     <g id="line2d_21">
      <g>
       <use xlink:href="#m25652bf22c" x="320.034018" y="264.874693" style="stroke: #000000; stroke-width: 0.8"/>
      </g>
     </g>
     <g id="text_18">
      <!-- $\mathdefault{10^{-3}}$ -->
      <g transform="translate(289.534018 268.673912) scale(0.1 -0.1)">
       <use xlink:href="#DejaVuSans-31" transform="translate(0 0.765625)"/>
       <use xlink:href="#DejaVuSans-30" transform="translate(63.623047 0.765625)"/>
       <use xlink:href="#DejaVuSans-2212" transform="translate(128.203125 39.046875) scale(0.7)"/>
       <use xlink:href="#DejaVuSans-33" transform="translate(186.855469 39.046875) scale(0.7)"/>
      </g>
     </g>
    </g>
    <g id="ytick_8">
     <g id="line2d_22">
      <g>
       <use xlink:href="#m25652bf22c" x="320.034018" y="210.104941" style="stroke: #000000; stroke-width: 0.8"/>
      </g>
     </g>
     <g id="text_19">
      <!-- $\mathdefault{10^{-2}}$ -->
      <g transform="translate(289.534018 213.90416) scale(0.1 -0.1)">
       <use xlink:href="#DejaVuSans-31" transform="translate(0 0.765625)"/>
       <use xlink:href="#DejaVuSans-30" transform="translate(63.623047 0.765625)"/>
       <use xlink:href="#DejaVuSans-2212" transform="translate(128.203125 39.046875) scale(0.7)"/>
       <use xlink:href="#DejaVuSans-32" transform="translate(186.855469 39.046875) scale(0.7)"/>
      </g>
     </g>
    </g>
    <g id="ytick_9">
     <g id="line2d_23">
      <g>
       <use xlink:href="#m25652bf22c" x="320.034018" y="155.335189" style="stroke: #000000; stroke-width: 0.8"/>
      </g>
     </g>
     <g id="text_20">
      <!-- $\mathdefault{10^{-1}}$ -->
      <g transform="translate(289.534018 159.134408) scale(0.1 -0.1)">
       <use xlink:href="#DejaVuSans-31" transform="translate(0 0.684375)"/>
       <use xlink:href="#DejaVuSans-30" transform="translate(63.623047 0.684375)"/>
       <use xlink:href="#DejaVuSans-2212" transform="translate(128.203125 38.965625) scale(0.7)"/>
       <use xlink:href="#DejaVuSans-31" transform="translate(186.855469 38.965625) scale(0.7)"/>
      </g>
     </g>
    </g>
    <g id="ytick_10">
     <g id="line2d_24">
      <g>
       <use xlink:href="#m25652bf22c" x="320.034018" y="100.565437" style="stroke: #000000; stroke-width: 0.8"/>
      </g>
     </g>
     <g id="text_21">
      <!-- $\mathdefault{10^{0}}$ -->
      <g transform="translate(295.434018 104.364656) scale(0.1 -0.1)">
       <use xlink:href="#DejaVuSans-31" transform="translate(0 0.765625)"/>
       <use xlink:href="#DejaVuSans-30" transform="translate(63.623047 0.765625)"/>
       <use xlink:href="#DejaVuSans-30" transform="translate(128.203125 39.046875) scale(0.7)"/>
      </g>
     </g>
    </g>
    <g id="ytick_11">
     <g id="line2d_25">
      <defs>
       <path id="m6b6c28f423" d="M 0 0 
L -2 0 
" style="stroke: #000000; stroke-width: 0.6"/>
      </defs>
      <g>
       <use xlink:href="#m6b6c28f423" x="320.034018" y="303.157107" style="stroke: #000000; stroke-width: 0.6"/>
      </g>
     </g>
    </g>
    <g id="ytick_12">
     <g id="line2d_26">
      <g>
       <use xlink:href="#m6b6c28f423" x="320.034018" y="293.512633" style="stroke: #000000; stroke-width: 0.6"/>
      </g>
     </g>
    </g>
    <g id="ytick_13">
     <g id="line2d_27">
      <g>
       <use xlink:href="#m6b6c28f423" x="320.034018" y="286.669769" style="stroke: #000000; stroke-width: 0.6"/>
      </g>
     </g>
    </g>
    <g id="ytick_14">
     <g id="line2d_28">
      <g>
       <use xlink:href="#m6b6c28f423" x="320.034018" y="281.362032" style="stroke: #000000; stroke-width: 0.6"/>
      </g>
     </g>
    </g>
    <g id="ytick_15">
     <g id="line2d_29">
      <g>
       <use xlink:href="#m6b6c28f423" x="320.034018" y="277.025294" style="stroke: #000000; stroke-width: 0.6"/>
      </g>
     </g>
    </g>
    <g id="ytick_16">
     <g id="line2d_30">
      <g>
       <use xlink:href="#m6b6c28f423" x="320.034018" y="273.358635" style="stroke: #000000; stroke-width: 0.6"/>
      </g>
     </g>
    </g>
    <g id="ytick_17">
     <g id="line2d_31">
      <g>
       <use xlink:href="#m6b6c28f423" x="320.034018" y="270.182431" style="stroke: #000000; stroke-width: 0.6"/>
      </g>
     </g>
    </g>
    <g id="ytick_18">
     <g id="line2d_32">
      <g>
       <use xlink:href="#m6b6c28f423" x="320.034018" y="267.38082" style="stroke: #000000; stroke-width: 0.6"/>
      </g>
     </g>
    </g>
    <g id="ytick_19">
     <g id="line2d_33">
      <g>
       <use xlink:href="#m6b6c28f423" x="320.034018" y="248.387355" style="stroke: #000000; stroke-width: 0.6"/>
      </g>
     </g>
    </g>
    <g id="ytick_20">
     <g id="line2d_34">
      <g>
       <use xlink:href="#m6b6c28f423" x="320.034018" y="238.742881" style="stroke: #000000; stroke-width: 0.6"/>
      </g>
     </g>
    </g>
    <g id="ytick_21">
     <g id="line2d_35">
      <g>
       <use xlink:href="#m6b6c28f423" x="320.034018" y="231.900017" style="stroke: #000000; stroke-width: 0.6"/>
      </g>
     </g>
    </g>
    <g id="ytick_22">
     <g id="line2d_36">
      <g>
       <use xlink:href="#m6b6c28f423" x="320.034018" y="226.59228" style="stroke: #000000; stroke-width: 0.6"/>
      </g>
     </g>
    </g>
    <g id="ytick_23">
     <g id="line2d_37">
      <g>
       <use xlink:href="#m6b6c28f423" x="320.034018" y="222.255542" style="stroke: #000000; stroke-width: 0.6"/>
      </g>
     </g>
    </g>
    <g id="ytick_24">
     <g id="line2d_38">
      <g>
       <use xlink:href="#m6b6c28f423" x="320.034018" y="218.588883" style="stroke: #000000; stroke-width: 0.6"/>
      </g>
     </g>
    </g>
    <g id="ytick_25">
     <g id="line2d_39">
      <g>
       <use xlink:href="#m6b6c28f423" x="320.034018" y="215.412679" style="stroke: #000000; stroke-width: 0.6"/>
      </g>
     </g>
    </g>
    <g id="ytick_26">
     <g id="line2d_40">
      <g>
       <use xlink:href="#m6b6c28f423" x="320.034018" y="212.611068" style="stroke: #000000; stroke-width: 0.6"/>
      </g>
     </g>
    </g>
    <g id="ytick_27">
     <g id="line2d_41">
      <g>
       <use xlink:href="#m6b6c28f423" x="320.034018" y="193.617603" style="stroke: #000000; stroke-width: 0.6"/>
      </g>
     </g>
    </g>
    <g id="ytick_28">
     <g id="line2d_42">
      <g>
       <use xlink:href="#m6b6c28f423" x="320.034018" y="183.973128" style="stroke: #000000; stroke-width: 0.6"/>
      </g>
     </g>
    </g>
    <g id="ytick_29">
     <g id="line2d_43">
      <g>
       <use xlink:href="#m6b6c28f423" x="320.034018" y="177.130265" style="stroke: #000000; stroke-width: 0.6"/>
      </g>
     </g>
    </g>
    <g id="ytick_30">
     <g id="line2d_44">
      <g>
       <use xlink:href="#m6b6c28f423" x="320.034018" y="171.822527" style="stroke: #000000; stroke-width: 0.6"/>
      </g>
     </g>
    </g>
    <g id="ytick_31">
     <g id="line2d_45">
      <g>
       <use xlink:href="#m6b6c28f423" x="320.034018" y="167.48579" style="stroke: #000000; stroke-width: 0.6"/>
      </g>
     </g>
    </g>
    <g id="ytick_32">
     <g id="line2d_46">
      <g>
       <use xlink:href="#m6b6c28f423" x="320.034018" y="163.819131" style="stroke: #000000; stroke-width: 0.6"/>
      </g>
     </g>
    </g>
    <g id="ytick_33">
     <g id="line2d_47">
      <g>
       <use xlink:href="#m6b6c28f423" x="320.034018" y="160.642927" style="stroke: #000000; stroke-width: 0.6"/>
      </g>
     </g>
    </g>
    <g id="ytick_34">
     <g id="line2d_48">
      <g>
       <use xlink:href="#m6b6c28f423" x="320.034018" y="157.841316" style="stroke: #000000; stroke-width: 0.6"/>
      </g>
     </g>
    </g>
    <g id="ytick_35">
     <g id="line2d_49">
      <g>
       <use xlink:href="#m6b6c28f423" x="320.034018" y="138.847851" style="stroke: #000000; stroke-width: 0.6"/>
      </g>
     </g>
    </g>
    <g id="ytick_36">
     <g id="line2d_50">
      <g>
       <use xlink:href="#m6b6c28f423" x="320.034018" y="129.203376" style="stroke: #000000; stroke-width: 0.6"/>
      </g>
     </g>
    </g>
    <g id="ytick_37">
     <g id="line2d_51">
      <g>
       <use xlink:href="#m6b6c28f423" x="320.034018" y="122.360513" style="stroke: #000000; stroke-width: 0.6"/>
      </g>
     </g>
    </g>
    <g id="ytick_38">
     <g id="line2d_52">
      <g>
       <use xlink:href="#m6b6c28f423" x="320.034018" y="117.052775" style="stroke: #000000; stroke-width: 0.6"/>
      </g>
     </g>
    </g>
    <g id="ytick_39">
     <g id="line2d_53">
      <g>
       <use xlink:href="#m6b6c28f423" x="320.034018" y="112.716038" style="stroke: #000000; stroke-width: 0.6"/>
      </g>
     </g>
    </g>
    <g id="ytick_40">
     <g id="line2d_54">
      <g>
       <use xlink:href="#m6b6c28f423" x="320.034018" y="109.049379" style="stroke: #000000; stroke-width: 0.6"/>
      </g>
     </g>
    </g>
    <g id="ytick_41">
     <g id="line2d_55">
      <g>
       <use xlink:href="#m6b6c28f423" x="320.034018" y="105.873175" style="stroke: #000000; stroke-width: 0.6"/>
      </g>
     </g>
    </g>
    <g id="ytick_42">
     <g id="line2d_56">
      <g>
       <use xlink:href="#m6b6c28f423" x="320.034018" y="103.071564" style="stroke: #000000; stroke-width: 0.6"/>
      </g>
     </g>
    </g>
    <g id="ytick_43">
     <g id="line2d_57">
      <g>
       <use xlink:href="#m6b6c28f423" x="320.034018" y="84.078099" style="stroke: #000000; stroke-width: 0.6"/>
      </g>
     </g>
    </g>
    <g id="ytick_44">
     <g id="line2d_58">
      <g>
       <use xlink:href="#m6b6c28f423" x="320.034018" y="74.433624" style="stroke: #000000; stroke-width: 0.6"/>
      </g>
     </g>
    </g>
    <g id="ytick_45">
     <g id="line2d_59">
      <g>
       <use xlink:href="#m6b6c28f423" x="320.034018" y="67.590761" style="stroke: #000000; stroke-width: 0.6"/>
      </g>
     </g>
    </g>
    <g id="ytick_46">
     <g id="line2d_60">
      <g>
       <use xlink:href="#m6b6c28f423" x="320.034018" y="62.283023" style="stroke: #000000; stroke-width: 0.6"/>
      </g>
     </g>
    </g>
    <g id="ytick_47">
     <g id="line2d_61">
      <g>
       <use xlink:href="#m6b6c28f423" x="320.034018" y="57.946286" style="stroke: #000000; stroke-width: 0.6"/>
      </g>
     </g>
    </g>
    <g id="ytick_48">
     <g id="line2d_62">
      <g>
       <use xlink:href="#m6b6c28f423" x="320.034018" y="54.279627" style="stroke: #000000; stroke-width: 0.6"/>
      </g>
     </g>
    </g>
   </g>
   <g id="line2d_63">
    <path d="M 330.642576 236.750151 
L 332.785719 235.130628 
L 334.928862 233.515366 
L 337.072005 231.904403 
L 339.215148 230.297775 
L 341.358291 228.695519 
L 343.501435 227.097673 
L 345.644578 225.504273 
L 347.787721 223.915358 
L 349.930864 222.330964 
L 352.074007 220.751131 
L 354.21715 219.175896 
L 356.360293 217.605297 
L 358.503436 216.039374 
L 360.646579 214.478164 
L 362.789722 212.921706 
L 364.932865 211.370041 
L 367.076008 209.823207 
L 369.219151 208.281244 
L 371.362294 206.744193 
L 373.505437 205.212093 
L 375.648581 203.684986 
L 377.791724 202.162913 
L 379.934867 200.645916 
L 382.07801 199.134035 
L 384.221153 197.627315 
L 386.364296 196.125798 
L 388.507439 194.629527 
L 390.650582 193.138547 
L 392.793725 191.652903 
L 394.936868 190.17264 
L 397.080011 188.697805 
L 399.223154 187.228445 
L 401.366297 185.764607 
L 403.50944 184.306342 
L 405.652583 182.8537 
L 407.795727 181.406731 
L 409.93887 179.965488 
L 412.082013 178.530026 
L 414.225156 177.100399 
L 416.368299 175.676665 
L 418.511442 174.258883 
L 420.654585 172.847114 
L 422.797728 171.44142 
L 424.940871 170.041866 
L 427.084014 168.648521 
L 429.227157 167.261454 
L 431.3703 165.880738 
L 433.513443 164.50645 
L 435.656586 163.13867 
L 437.799729 161.77748 
L 439.942873 160.422969 
L 442.086016 159.075229 
L 444.229159 157.734355 
L 446.372302 156.400451 
L 448.515445 155.073623 
L 450.658588 153.753986 
L 452.801731 152.441662 
L 454.944874 151.136777 
L 457.088017 149.839468 
L 459.23116 148.549881 
L 461.374303 147.268171 
L 463.517446 145.994504 
L 465.660589 144.729055 
L 467.803732 143.472017 
L 469.946875 142.223593 
L 472.090019 140.984002 
L 474.233162 139.753482 
L 476.376305 138.532287 
L 478.519448 137.320693 
L 480.662591 136.119 
L 482.805734 134.92753 
L 484.948877 133.746636 
L 487.09202 132.5767 
L 489.235163 131.418138 
L 491.378306 130.271407 
L 493.521449 129.137002 
L 495.664592 128.015469 
L 497.807735 126.907406 
L 499.950878 125.81347 
L 502.094021 124.734385 
L 504.237165 123.670952 
L 506.380308 122.624054 
L 508.523451 121.594674 
L 510.666594 120.583903 
L 512.809737 119.592956 
L 514.95288 118.623194 
L 517.096023 117.676142 
L 519.239166 116.753513 
L 521.382309 115.857242 
L 523.525452 114.98952 
L 525.668595 114.152838 
L 527.811738 113.350041 
L 529.954881 112.584392 
L 532.098024 111.859653 
L 534.241167 111.180187 
L 536.384311 110.551081 
L 538.527454 109.978312 
L 540.670597 109.46895 
L 542.81374 109.031434 
" clip-path="url(#p3b943698e1)" style="fill: none; stroke: #1f77b4; stroke-width: 1.5; stroke-linecap: square"/>
   </g>
   <g id="line2d_64">
    <path d="M 330.642576 237.348841 
L 332.785719 235.406684 
L 334.928862 233.468869 
L 337.072005 231.535432 
L 339.215148 229.606409 
L 341.358291 227.681834 
L 343.501435 225.761744 
L 345.644578 223.846174 
L 347.787721 221.935161 
L 349.930864 220.028739 
L 352.074007 218.126945 
L 354.21715 216.229814 
L 356.360293 214.337382 
L 358.503436 212.449686 
L 360.646579 210.566761 
L 362.789722 208.688643 
L 364.932865 206.815369 
L 367.076008 204.946975 
L 369.219151 203.083497 
L 371.362294 201.224973 
L 373.505437 199.371437 
L 375.648581 197.522928 
L 377.791724 195.679482 
L 379.934867 193.841137 
L 382.07801 192.007929 
L 384.221153 190.179897 
L 386.364296 188.357078 
L 388.507439 186.539511 
L 390.650582 184.727233 
L 392.793725 182.920285 
L 394.936868 181.118704 
L 397.080011 179.322532 
L 399.223154 177.531808 
L 401.366297 175.746574 
L 403.50944 173.96687 
L 405.652583 172.19274 
L 407.795727 170.424226 
L 409.93887 168.661373 
L 412.082013 166.904225 
L 414.225156 165.152829 
L 416.368299 163.407231 
L 418.511442 161.667481 
L 420.654585 159.93363 
L 422.797728 158.205727 
L 424.940871 156.483828 
L 427.084014 154.767987 
L 429.227157 153.058263 
L 431.3703 151.354715 
L 433.513443 149.657406 
L 435.656586 147.966402 
L 437.799729 146.281772 
L 439.942873 144.603587 
L 442.086016 142.931924 
L 444.229159 141.266863 
L 446.372302 139.60849 
L 448.515445 137.956893 
L 450.658588 136.312169 
L 452.801731 134.674419 
L 454.944874 133.043752 
L 457.088017 131.420283 
L 459.23116 129.804136 
L 461.374303 128.195444 
L 463.517446 126.59435 
L 465.660589 125.001008 
L 467.803732 123.415582 
L 469.946875 121.838253 
L 472.090019 120.269212 
L 474.233162 118.708669 
L 476.376305 117.156851 
L 478.519448 115.614006 
L 480.662591 114.080401 
L 482.805734 112.55633 
L 484.948877 111.042112 
L 487.09202 109.538096 
L 489.235163 108.044665 
L 491.378306 106.562239 
L 493.521449 105.09128 
L 495.664592 103.632293 
L 497.807735 102.185841 
L 499.950878 100.752539 
L 502.094021 99.333073 
L 504.237165 97.9282 
L 506.380308 96.538763 
L 508.523451 95.165701 
L 510.666594 93.810059 
L 512.809737 92.473008 
L 514.95288 91.155863 
L 517.096023 89.8601 
L 519.239166 88.587386 
L 521.382309 87.339606 
L 523.525452 86.118902 
L 525.668595 84.927716 
L 527.811738 83.768842 
L 529.954881 82.645492 
L 532.098024 81.561378 
L 534.241167 80.520812 
L 536.384311 79.52883 
L 538.527454 78.59136 
L 540.670597 77.715423 
L 542.81374 76.909409 
" clip-path="url(#p3b943698e1)" style="fill: none; stroke: #ff7f0e; stroke-width: 1.5; stroke-linecap: square"/>
   </g>
   <g id="line2d_65">
    <path d="M 330.642576 213.965993 
L 332.785719 212.368858 
L 334.928862 210.774528 
L 337.072005 209.182971 
L 339.215148 207.594155 
L 341.358291 206.008044 
L 343.501435 204.424601 
L 345.644578 202.84379 
L 347.787721 201.265569 
L 349.930864 199.689896 
L 352.074007 198.116728 
L 354.21715 196.54602 
L 356.360293 194.977724 
L 358.503436 193.411792 
L 360.646579 191.848172 
L 362.789722 190.286812 
L 364.932865 188.727658 
L 367.076008 187.170654 
L 369.219151 185.615743 
L 371.362294 184.062866 
L 373.505437 182.511962 
L 375.648581 180.962969 
L 377.791724 179.415824 
L 379.934867 177.870461 
L 382.07801 176.326816 
L 384.221153 174.784819 
L 386.364296 173.244404 
L 388.507439 171.705499 
L 390.650582 170.168036 
L 392.793725 168.631943 
L 394.936868 167.097148 
L 397.080011 165.563579 
L 399.223154 164.031163 
L 401.366297 162.499826 
L 403.50944 160.969497 
L 405.652583 159.440102 
L 407.795727 157.911569 
L 409.93887 156.383825 
L 412.082013 154.856799 
L 414.225156 153.330421 
L 416.368299 151.804621 
L 418.511442 150.279332 
L 420.654585 148.754487 
L 422.797728 147.230023 
L 424.940871 145.705877 
L 427.084014 144.181991 
L 429.227157 142.658308 
L 431.3703 141.134775 
L 433.513443 139.611342 
L 435.656586 138.087965 
L 437.799729 136.564603 
L 439.942873 135.04122 
L 442.086016 133.517785 
L 444.229159 131.994274 
L 446.372302 130.470669 
L 448.515445 128.946958 
L 450.658588 127.423138 
L 452.801731 125.899214 
L 454.944874 124.3752 
L 457.088017 122.851118 
L 459.23116 121.327004 
L 461.374303 119.802901 
L 463.517446 118.278868 
L 465.660589 116.754977 
L 467.803732 115.231312 
L 469.946875 113.707976 
L 472.090019 112.185088 
L 474.233162 110.662784 
L 476.376305 109.141223 
L 478.519448 107.620585 
L 480.662591 106.101074 
L 482.805734 104.582923 
L 484.948877 103.066391 
L 487.09202 101.551772 
L 489.235163 100.039394 
L 491.378306 98.529625 
L 493.521449 97.022876 
L 495.664592 95.519607 
L 497.807735 94.02033 
L 499.950878 92.52562 
L 502.094021 91.036118 
L 504.237165 89.552539 
L 506.380308 88.075686 
L 508.523451 86.606457 
L 510.666594 85.14586 
L 512.809737 83.695027 
L 514.95288 82.255233 
L 517.096023 80.827918 
L 519.239166 79.41471 
L 521.382309 78.017456 
L 523.525452 76.638258 
L 525.668595 75.279519 
L 527.811738 73.94399 
L 529.954881 72.634844 
L 532.098024 71.355748 
L 534.241167 70.110969 
L 536.384311 68.905498 
L 538.527454 67.745213 
L 540.670597 66.637086 
L 542.81374 65.589455 
" clip-path="url(#p3b943698e1)" style="fill: none; stroke: #2ca02c; stroke-width: 1.5; stroke-linecap: square"/>
   </g>
   <g id="line2d_66">
    <path d="M 330.642576 230.476595 
L 332.785719 228.639945 
L 334.928862 226.808207 
L 337.072005 224.981395 
L 339.215148 223.159524 
L 341.358291 221.342606 
L 343.501435 219.530653 
L 345.644578 217.723674 
L 347.787721 215.921678 
L 349.930864 214.124672 
L 352.074007 212.332662 
L 354.21715 210.545653 
L 356.360293 208.763646 
L 358.503436 206.986643 
L 360.646579 205.214644 
L 362.789722 203.447646 
L 364.932865 201.685645 
L 367.076008 199.928635 
L 369.219151 198.176608 
L 371.362294 196.429554 
L 373.505437 194.687461 
L 375.648581 192.950316 
L 377.791724 191.218102 
L 379.934867 189.490802 
L 382.07801 187.768393 
L 384.221153 186.050854 
L 386.364296 184.33816 
L 388.507439 182.630281 
L 390.650582 180.927189 
L 392.793725 179.228851 
L 394.936868 177.53523 
L 397.080011 175.84629 
L 399.223154 174.161989 
L 401.366297 172.482283 
L 403.50944 170.807127 
L 405.652583 169.136471 
L 407.795727 167.470263 
L 409.93887 165.808449 
L 412.082013 164.15097 
L 414.225156 162.497765 
L 416.368299 160.848771 
L 418.511442 159.203921 
L 420.654585 157.563146 
L 422.797728 155.926372 
L 424.940871 154.293525 
L 427.084014 152.664526 
L 429.227157 151.039294 
L 431.3703 149.417746 
L 433.513443 147.799795 
L 435.656586 146.185352 
L 437.799729 144.574326 
L 439.942873 142.966625 
L 442.086016 141.362152 
L 444.229159 139.760811 
L 446.372302 138.162505 
L 448.515445 136.567132 
L 450.658588 134.974594 
L 452.801731 133.38479 
L 454.944874 131.79762 
L 457.088017 130.212984 
L 459.23116 128.630784 
L 461.374303 127.050925 
L 463.517446 125.473311 
L 465.660589 123.897855 
L 467.803732 122.32447 
L 469.946875 120.753078 
L 472.090019 119.183606 
L 474.233162 117.615991 
L 476.376305 116.05018 
L 478.519448 114.48613 
L 480.662591 112.923815 
L 482.805734 111.363222 
L 484.948877 109.80436 
L 487.09202 108.247258 
L 489.235163 106.691971 
L 491.378306 105.138583 
L 493.521449 103.58721 
L 495.664592 102.038009 
L 497.807735 100.491179 
L 499.950878 98.946969 
L 502.094021 97.405688 
L 504.237165 95.867708 
L 506.380308 94.333481 
L 508.523451 92.803544 
L 510.666594 91.278535 
L 512.809737 89.759209 
L 514.95288 88.246456 
L 517.096023 86.741321 
L 519.239166 85.245031 
L 521.382309 83.759025 
L 523.525452 82.28499 
L 525.668595 80.824905 
L 527.811738 79.381095 
L 529.954881 77.956296 
L 532.098024 76.553735 
L 534.241167 75.177235 
L 536.384311 73.831334 
L 538.527454 72.521454 
L 540.670597 71.254106 
L 542.81374 70.037163 
" clip-path="url(#p3b943698e1)" style="fill: none; stroke: #d62728; stroke-width: 1.5; stroke-linecap: square"/>
   </g>
   <g id="line2d_67">
    <path d="M 330.642576 245.235264 
L 332.785719 243.611424 
L 334.928862 241.989346 
L 337.072005 240.369006 
L 339.215148 238.750383 
L 341.358291 237.133452 
L 343.501435 235.518192 
L 345.644578 233.904578 
L 347.787721 232.292588 
L 349.930864 230.682198 
L 352.074007 229.073388 
L 354.21715 227.466132 
L 356.360293 225.86041 
L 358.503436 224.256198 
L 360.646579 222.653474 
L 362.789722 221.052217 
L 364.932865 219.452404 
L 367.076008 217.854014 
L 369.219151 216.257024 
L 371.362294 214.661415 
L 373.505437 213.067165 
L 375.648581 211.474252 
L 377.791724 209.882656 
L 379.934867 208.292356 
L 382.07801 206.703332 
L 384.221153 205.115564 
L 386.364296 203.52903 
L 388.507439 201.943711 
L 390.650582 200.359587 
L 392.793725 198.776637 
L 394.936868 197.194841 
L 397.080011 195.614178 
L 399.223154 194.034628 
L 401.366297 192.456171 
L 403.50944 190.878784 
L 405.652583 189.302447 
L 407.795727 187.727139 
L 409.93887 186.152835 
L 412.082013 184.579515 
L 414.225156 183.007154 
L 416.368299 181.435728 
L 418.511442 179.865213 
L 420.654585 178.295583 
L 422.797728 176.726811 
L 424.940871 175.15887 
L 427.084014 173.59173 
L 429.227157 172.025363 
L 431.3703 170.459737 
L 433.513443 168.894819 
L 435.656586 167.330576 
L 437.799729 165.766973 
L 439.942873 164.203973 
L 442.086016 162.641539 
L 444.229159 161.079631 
L 446.372302 159.518207 
L 448.515445 157.957226 
L 450.658588 156.396645 
L 452.801731 154.836417 
L 454.944874 153.276496 
L 457.088017 151.716837 
L 459.23116 150.15739 
L 461.374303 148.598106 
L 463.517446 147.038939 
L 465.660589 145.479838 
L 467.803732 143.920755 
L 469.946875 142.361645 
L 472.090019 140.802463 
L 474.233162 139.243166 
L 476.376305 137.683716 
L 478.519448 136.124081 
L 480.662591 134.564233 
L 482.805734 133.004152 
L 484.948877 131.44383 
L 487.09202 129.883267 
L 489.235163 128.322482 
L 491.378306 126.761506 
L 493.521449 125.200395 
L 495.664592 123.639227 
L 497.807735 122.078111 
L 499.950878 120.517189 
L 502.094021 118.956645 
L 504.237165 117.396712 
L 506.380308 115.837679 
L 508.523451 114.279904 
L 510.666594 112.723823 
L 512.809737 111.169968 
L 514.95288 109.618981 
L 517.096023 108.071637 
L 519.239166 106.528864 
L 521.382309 104.991778 
L 523.525452 103.461714 
L 525.668595 101.94027 
L 527.811738 100.429361 
L 529.954881 98.93128 
L 532.098024 97.448781 
L 534.241167 95.985179 
L 536.384311 94.544473 
L 538.527454 93.131508 
L 540.670597 91.752187 
L 542.81374 90.413733 
" clip-path="url(#p3b943698e1)" style="fill: none; stroke: #9467bd; stroke-width: 1.5; stroke-linecap: square"/>
   </g>
   <g id="line2d_68">
    <path d="M 330.642576 292.578545 
L 332.785719 290.796723 
L 334.928862 289.019539 
L 337.072005 287.24699 
L 339.215148 285.479069 
L 341.358291 283.715768 
L 343.501435 281.957078 
L 345.644578 280.20299 
L 347.787721 278.453489 
L 349.930864 276.708564 
L 352.074007 274.968199 
L 354.21715 273.232378 
L 356.360293 271.501081 
L 358.503436 269.77429 
L 360.646579 268.051983 
L 362.789722 266.334136 
L 364.932865 264.620724 
L 367.076008 262.911721 
L 369.219151 261.207098 
L 371.362294 259.506825 
L 373.505437 257.810869 
L 375.648581 256.119197 
L 377.791724 254.431772 
L 379.934867 252.748556 
L 382.07801 251.06951 
L 384.221153 249.394592 
L 386.364296 247.723757 
L 388.507439 246.05696 
L 390.650582 244.394153 
L 392.793725 242.735285 
L 394.936868 241.080304 
L 397.080011 239.429156 
L 399.223154 237.781783 
L 401.366297 236.138128 
L 403.50944 234.498128 
L 405.652583 232.861721 
L 407.795727 231.22884 
L 409.93887 229.599418 
L 412.082013 227.973384 
L 414.225156 226.350665 
L 416.368299 224.731187 
L 418.511442 223.114871 
L 420.654585 221.501637 
L 422.797728 219.891404 
L 424.940871 218.284085 
L 427.084014 216.679594 
L 429.227157 215.077841 
L 431.3703 213.478732 
L 433.513443 211.882174 
L 435.656586 210.288068 
L 437.799729 208.696315 
L 439.942873 207.106812 
L 442.086016 205.519453 
L 444.229159 203.934132 
L 446.372302 202.350739 
L 448.515445 200.769161 
L 450.658588 199.189284 
L 452.801731 197.610992 
L 454.944874 196.034164 
L 457.088017 194.458682 
L 459.23116 192.884421 
L 461.374303 191.311258 
L 463.517446 189.739068 
L 465.660589 188.167724 
L 467.803732 186.597099 
L 469.946875 185.027065 
L 472.090019 183.457495 
L 474.233162 181.888262 
L 476.376305 180.319242 
L 478.519448 178.750311 
L 480.662591 177.181351 
L 482.805734 175.612245 
L 484.948877 174.042886 
L 487.09202 172.473171 
L 489.235163 170.903007 
L 491.378306 169.332315 
L 493.521449 167.761027 
L 495.664592 166.189093 
L 497.807735 164.616487 
L 499.950878 163.043204 
L 502.094021 161.469274 
L 504.237165 159.894761 
L 506.380308 158.319775 
L 508.523451 156.744478 
L 510.666594 155.169096 
L 512.809737 153.593932 
L 514.95288 152.019381 
L 517.096023 150.445945 
L 519.239166 148.874262 
L 521.382309 147.305126 
L 523.525452 145.739522 
L 525.668595 144.178669 
L 527.811738 142.624067 
L 529.954881 141.077556 
L 532.098024 139.541399 
L 534.241167 138.018373 
L 536.384311 136.511893 
L 538.527454 135.026171 
L 540.670597 133.566419 
L 542.81374 132.139113 
" clip-path="url(#p3b943698e1)" style="fill: none; stroke: #8c564b; stroke-width: 1.5; stroke-linecap: square"/>
   </g>
   <g id="patch_8">
    <path d="M 320.034018 303.928 
L 320.034018 54.24 
" style="fill: none; stroke: #000000; stroke-width: 0.8; stroke-linejoin: miter; stroke-linecap: square"/>
   </g>
   <g id="patch_9">
    <path d="M 553.422298 303.928 
L 553.422298 54.24 
" style="fill: none; stroke: #000000; stroke-width: 0.8; stroke-linejoin: miter; stroke-linecap: square"/>
   </g>
   <g id="patch_10">
    <path d="M 320.034018 303.928 
L 553.422298 303.928 
" style="fill: none; stroke: #000000; stroke-width: 0.8; stroke-linejoin: miter; stroke-linecap: square"/>
   </g>
   <g id="patch_11">
    <path d="M 320.034018 54.24 
L 553.422298 54.24 
" style="fill: none; stroke: #000000; stroke-width: 0.8; stroke-linejoin: miter; stroke-linecap: square"/>
   </g>
   <g id="text_22">
    <!-- C -->
    <g transform="translate(432.53847 48.24) scale(0.12 -0.12)">
     <use xlink:href="#DejaVuSans-43"/>
    </g>
   </g>
  </g>
  <g id="axes_3">
   <g id="patch_12">
    <path d="M 607.508036 303.928 
L 840.896316 303.928 
L 840.896316 54.24 
L 607.508036 54.24 
z
" style="fill: #ffffff"/>
   </g>
   <g id="matplotlib.axis_5">
    <g id="xtick_9">
     <g id="line2d_69">
      <g>
       <use xlink:href="#mcfe034a3f0" x="618.116594" y="303.928" style="stroke: #000000; stroke-width: 0.8"/>
      </g>
     </g>
     <g id="text_23">
      <!-- $\mathdefault{10^{-1}}$ -->
      <g transform="translate(606.366594 318.526437) scale(0.1 -0.1)">
       <use xlink:href="#DejaVuSans-31" transform="translate(0 0.684375)"/>
       <use xlink:href="#DejaVuSans-30" transform="translate(63.623047 0.684375)"/>
       <use xlink:href="#DejaVuSans-2212" transform="translate(128.203125 38.965625) scale(0.7)"/>
       <use xlink:href="#DejaVuSans-31" transform="translate(186.855469 38.965625) scale(0.7)"/>
      </g>
     </g>
    </g>
    <g id="xtick_10">
     <g id="line2d_70">
      <g>
       <use xlink:href="#m97cc5ff937" x="724.202176" y="303.928" style="stroke: #000000; stroke-width: 0.6"/>
      </g>
     </g>
     <g id="text_24">
      <!-- $\mathdefault{2\times10^{-1}}$ -->
      <g transform="translate(703.152176 316.926438) scale(0.1 -0.1)">
       <use xlink:href="#DejaVuSans-32" transform="translate(0 0.684375)"/>
       <use xlink:href="#DejaVuSans-d7" transform="translate(83.105469 0.684375)"/>
       <use xlink:href="#DejaVuSans-31" transform="translate(186.376953 0.684375)"/>
       <use xlink:href="#DejaVuSans-30" transform="translate(250 0.684375)"/>
       <use xlink:href="#DejaVuSans-2212" transform="translate(314.580078 38.965625) scale(0.7)"/>
       <use xlink:href="#DejaVuSans-31" transform="translate(373.232422 38.965625) scale(0.7)"/>
      </g>
     </g>
    </g>
    <g id="xtick_11">
     <g id="line2d_71">
      <g>
       <use xlink:href="#m97cc5ff937" x="786.258263" y="303.928" style="stroke: #000000; stroke-width: 0.6"/>
      </g>
     </g>
     <g id="text_25">
      <!-- $\mathdefault{3\times10^{-1}}$ -->
      <g transform="translate(765.208263 316.926438) scale(0.1 -0.1)">
       <use xlink:href="#DejaVuSans-33" transform="translate(0 0.684375)"/>
       <use xlink:href="#DejaVuSans-d7" transform="translate(83.105469 0.684375)"/>
       <use xlink:href="#DejaVuSans-31" transform="translate(186.376953 0.684375)"/>
       <use xlink:href="#DejaVuSans-30" transform="translate(250 0.684375)"/>
       <use xlink:href="#DejaVuSans-2212" transform="translate(314.580078 38.965625) scale(0.7)"/>
       <use xlink:href="#DejaVuSans-31" transform="translate(373.232422 38.965625) scale(0.7)"/>
      </g>
     </g>
    </g>
    <g id="xtick_12">
     <g id="line2d_72">
      <g>
       <use xlink:href="#m97cc5ff937" x="830.287758" y="303.928" style="stroke: #000000; stroke-width: 0.6"/>
      </g>
     </g>
     <g id="text_26">
      <!-- $\mathdefault{4\times10^{-1}}$ -->
      <g transform="translate(809.237758 316.926438) scale(0.1 -0.1)">
       <use xlink:href="#DejaVuSans-34" transform="translate(0 0.684375)"/>
       <use xlink:href="#DejaVuSans-d7" transform="translate(83.105469 0.684375)"/>
       <use xlink:href="#DejaVuSans-31" transform="translate(186.376953 0.684375)"/>
       <use xlink:href="#DejaVuSans-30" transform="translate(250 0.684375)"/>
       <use xlink:href="#DejaVuSans-2212" transform="translate(314.580078 38.965625) scale(0.7)"/>
       <use xlink:href="#DejaVuSans-31" transform="translate(373.232422 38.965625) scale(0.7)"/>
      </g>
     </g>
    </g>
    <g id="text_27">
     <!-- Normalized Cutoff Frequency W/Ws [dimensionless] -->
     <g transform="translate(594.806863 332.204563) scale(0.1 -0.1)">
      <use xlink:href="#DejaVuSans-4e"/>
      <use xlink:href="#DejaVuSans-6f" x="74.804688"/>
      <use xlink:href="#DejaVuSans-72" x="135.986328"/>
      <use xlink:href="#DejaVuSans-6d" x="175.349609"/>
      <use xlink:href="#DejaVuSans-61" x="272.761719"/>
      <use xlink:href="#DejaVuSans-6c" x="334.041016"/>
      <use xlink:href="#DejaVuSans-69" x="361.824219"/>
      <use xlink:href="#DejaVuSans-7a" x="389.607422"/>
      <use xlink:href="#DejaVuSans-65" x="442.097656"/>
      <use xlink:href="#DejaVuSans-64" x="503.621094"/>
      <use xlink:href="#DejaVuSans-20" x="567.097656"/>
      <use xlink:href="#DejaVuSans-43" x="598.884766"/>
      <use xlink:href="#DejaVuSans-75" x="668.708984"/>
      <use xlink:href="#DejaVuSans-74" x="732.087891"/>
      <use xlink:href="#DejaVuSans-6f" x="771.296875"/>
      <use xlink:href="#DejaVuSans-66" x="832.478516"/>
      <use xlink:href="#DejaVuSans-66" x="867.683594"/>
      <use xlink:href="#DejaVuSans-20" x="902.888672"/>
      <use xlink:href="#DejaVuSans-46" x="934.675781"/>
      <use xlink:href="#DejaVuSans-72" x="984.945312"/>
      <use xlink:href="#DejaVuSans-65" x="1023.808594"/>
      <use xlink:href="#DejaVuSans-71" x="1085.332031"/>
      <use xlink:href="#DejaVuSans-75" x="1148.808594"/>
      <use xlink:href="#DejaVuSans-65" x="1212.1875"/>
      <use xlink:href="#DejaVuSans-6e" x="1273.710938"/>
      <use xlink:href="#DejaVuSans-63" x="1337.089844"/>
      <use xlink:href="#DejaVuSans-79" x="1392.070312"/>
      <use xlink:href="#DejaVuSans-20" x="1451.25"/>
      <use xlink:href="#DejaVuSans-57" x="1483.037109"/>
      <use xlink:href="#DejaVuSans-2f" x="1581.914062"/>
      <use xlink:href="#DejaVuSans-57" x="1615.605469"/>
      <use xlink:href="#DejaVuSans-73" x="1714.482422"/>
      <use xlink:href="#DejaVuSans-20" x="1766.582031"/>
      <use xlink:href="#DejaVuSans-5b" x="1798.369141"/>
      <use xlink:href="#DejaVuSans-64" x="1837.382812"/>
      <use xlink:href="#DejaVuSans-69" x="1900.859375"/>
      <use xlink:href="#DejaVuSans-6d" x="1928.642578"/>
      <use xlink:href="#DejaVuSans-65" x="2026.054688"/>
      <use xlink:href="#DejaVuSans-6e" x="2087.578125"/>
      <use xlink:href="#DejaVuSans-73" x="2150.957031"/>
      <use xlink:href="#DejaVuSans-69" x="2203.056641"/>
      <use xlink:href="#DejaVuSans-6f" x="2230.839844"/>
      <use xlink:href="#DejaVuSans-6e" x="2292.021484"/>
      <use xlink:href="#DejaVuSans-6c" x="2355.400391"/>
      <use xlink:href="#DejaVuSans-65" x="2383.183594"/>
      <use xlink:href="#DejaVuSans-73" x="2444.707031"/>
      <use xlink:href="#DejaVuSans-73" x="2496.806641"/>
      <use xlink:href="#DejaVuSans-5d" x="2548.90625"/>
     </g>
    </g>
   </g>
   <g id="matplotlib.axis_6">
    <g id="ytick_49">
     <g id="line2d_73">
      <g>
       <use xlink:href="#m25652bf22c" x="607.508036" y="256.326942" style="stroke: #000000; stroke-width: 0.8"/>
      </g>
     </g>
     <g id="text_28">
      <!-- $\mathdefault{10^{-3}}$ -->
      <g transform="translate(577.008036 260.12616) scale(0.1 -0.1)">
       <use xlink:href="#DejaVuSans-31" transform="translate(0 0.765625)"/>
       <use xlink:href="#DejaVuSans-30" transform="translate(63.623047 0.765625)"/>
       <use xlink:href="#DejaVuSans-2212" transform="translate(128.203125 39.046875) scale(0.7)"/>
       <use xlink:href="#DejaVuSans-33" transform="translate(186.855469 39.046875) scale(0.7)"/>
      </g>
     </g>
    </g>
    <g id="ytick_50">
     <g id="line2d_74">
      <g>
       <use xlink:href="#m25652bf22c" x="607.508036" y="178.838907" style="stroke: #000000; stroke-width: 0.8"/>
      </g>
     </g>
     <g id="text_29">
      <!-- $\mathdefault{10^{-2}}$ -->
      <g transform="translate(577.008036 182.638126) scale(0.1 -0.1)">
       <use xlink:href="#DejaVuSans-31" transform="translate(0 0.765625)"/>
       <use xlink:href="#DejaVuSans-30" transform="translate(63.623047 0.765625)"/>
       <use xlink:href="#DejaVuSans-2212" transform="translate(128.203125 39.046875) scale(0.7)"/>
       <use xlink:href="#DejaVuSans-32" transform="translate(186.855469 39.046875) scale(0.7)"/>
      </g>
     </g>
    </g>
    <g id="ytick_51">
     <g id="line2d_75">
      <g>
       <use xlink:href="#m25652bf22c" x="607.508036" y="101.350873" style="stroke: #000000; stroke-width: 0.8"/>
      </g>
     </g>
     <g id="text_30">
      <!-- $\mathdefault{10^{-1}}$ -->
      <g transform="translate(577.008036 105.150091) scale(0.1 -0.1)">
       <use xlink:href="#DejaVuSans-31" transform="translate(0 0.684375)"/>
       <use xlink:href="#DejaVuSans-30" transform="translate(63.623047 0.684375)"/>
       <use xlink:href="#DejaVuSans-2212" transform="translate(128.203125 38.965625) scale(0.7)"/>
       <use xlink:href="#DejaVuSans-31" transform="translate(186.855469 38.965625) scale(0.7)"/>
      </g>
     </g>
    </g>
    <g id="ytick_52">
     <g id="line2d_76">
      <g>
       <use xlink:href="#m6b6c28f423" x="607.508036" y="296.843788" style="stroke: #000000; stroke-width: 0.6"/>
      </g>
     </g>
    </g>
    <g id="ytick_53">
     <g id="line2d_77">
      <g>
       <use xlink:href="#m6b6c28f423" x="607.508036" y="287.162531" style="stroke: #000000; stroke-width: 0.6"/>
      </g>
     </g>
    </g>
    <g id="ytick_54">
     <g id="line2d_78">
      <g>
       <use xlink:href="#m6b6c28f423" x="607.508036" y="279.653164" style="stroke: #000000; stroke-width: 0.6"/>
      </g>
     </g>
    </g>
    <g id="ytick_55">
     <g id="line2d_79">
      <g>
       <use xlink:href="#m6b6c28f423" x="607.508036" y="273.517565" style="stroke: #000000; stroke-width: 0.6"/>
      </g>
     </g>
    </g>
    <g id="ytick_56">
     <g id="line2d_80">
      <g>
       <use xlink:href="#m6b6c28f423" x="607.508036" y="268.32999" style="stroke: #000000; stroke-width: 0.6"/>
      </g>
     </g>
    </g>
    <g id="ytick_57">
     <g id="line2d_81">
      <g>
       <use xlink:href="#m6b6c28f423" x="607.508036" y="263.836308" style="stroke: #000000; stroke-width: 0.6"/>
      </g>
     </g>
    </g>
    <g id="ytick_58">
     <g id="line2d_82">
      <g>
       <use xlink:href="#m6b6c28f423" x="607.508036" y="259.8726" style="stroke: #000000; stroke-width: 0.6"/>
      </g>
     </g>
    </g>
    <g id="ytick_59">
     <g id="line2d_83">
      <g>
       <use xlink:href="#m6b6c28f423" x="607.508036" y="233.000719" style="stroke: #000000; stroke-width: 0.6"/>
      </g>
     </g>
    </g>
    <g id="ytick_60">
     <g id="line2d_84">
      <g>
       <use xlink:href="#m6b6c28f423" x="607.508036" y="219.355753" style="stroke: #000000; stroke-width: 0.6"/>
      </g>
     </g>
    </g>
    <g id="ytick_61">
     <g id="line2d_85">
      <g>
       <use xlink:href="#m6b6c28f423" x="607.508036" y="209.674496" style="stroke: #000000; stroke-width: 0.6"/>
      </g>
     </g>
    </g>
    <g id="ytick_62">
     <g id="line2d_86">
      <g>
       <use xlink:href="#m6b6c28f423" x="607.508036" y="202.16513" style="stroke: #000000; stroke-width: 0.6"/>
      </g>
     </g>
    </g>
    <g id="ytick_63">
     <g id="line2d_87">
      <g>
       <use xlink:href="#m6b6c28f423" x="607.508036" y="196.029531" style="stroke: #000000; stroke-width: 0.6"/>
      </g>
     </g>
    </g>
    <g id="ytick_64">
     <g id="line2d_88">
      <g>
       <use xlink:href="#m6b6c28f423" x="607.508036" y="190.841956" style="stroke: #000000; stroke-width: 0.6"/>
      </g>
     </g>
    </g>
    <g id="ytick_65">
     <g id="line2d_89">
      <g>
       <use xlink:href="#m6b6c28f423" x="607.508036" y="186.348274" style="stroke: #000000; stroke-width: 0.6"/>
      </g>
     </g>
    </g>
    <g id="ytick_66">
     <g id="line2d_90">
      <g>
       <use xlink:href="#m6b6c28f423" x="607.508036" y="182.384565" style="stroke: #000000; stroke-width: 0.6"/>
      </g>
     </g>
    </g>
    <g id="ytick_67">
     <g id="line2d_91">
      <g>
       <use xlink:href="#m6b6c28f423" x="607.508036" y="155.512684" style="stroke: #000000; stroke-width: 0.6"/>
      </g>
     </g>
    </g>
    <g id="ytick_68">
     <g id="line2d_92">
      <g>
       <use xlink:href="#m6b6c28f423" x="607.508036" y="141.867719" style="stroke: #000000; stroke-width: 0.6"/>
      </g>
     </g>
    </g>
    <g id="ytick_69">
     <g id="line2d_93">
      <g>
       <use xlink:href="#m6b6c28f423" x="607.508036" y="132.186462" style="stroke: #000000; stroke-width: 0.6"/>
      </g>
     </g>
    </g>
    <g id="ytick_70">
     <g id="line2d_94">
      <g>
       <use xlink:href="#m6b6c28f423" x="607.508036" y="124.677095" style="stroke: #000000; stroke-width: 0.6"/>
      </g>
     </g>
    </g>
    <g id="ytick_71">
     <g id="line2d_95">
      <g>
       <use xlink:href="#m6b6c28f423" x="607.508036" y="118.541496" style="stroke: #000000; stroke-width: 0.6"/>
      </g>
     </g>
    </g>
    <g id="ytick_72">
     <g id="line2d_96">
      <g>
       <use xlink:href="#m6b6c28f423" x="607.508036" y="113.353921" style="stroke: #000000; stroke-width: 0.6"/>
      </g>
     </g>
    </g>
    <g id="ytick_73">
     <g id="line2d_97">
      <g>
       <use xlink:href="#m6b6c28f423" x="607.508036" y="108.860239" style="stroke: #000000; stroke-width: 0.6"/>
      </g>
     </g>
    </g>
    <g id="ytick_74">
     <g id="line2d_98">
      <g>
       <use xlink:href="#m6b6c28f423" x="607.508036" y="104.896531" style="stroke: #000000; stroke-width: 0.6"/>
      </g>
     </g>
    </g>
    <g id="ytick_75">
     <g id="line2d_99">
      <g>
       <use xlink:href="#m6b6c28f423" x="607.508036" y="78.02465" style="stroke: #000000; stroke-width: 0.6"/>
      </g>
     </g>
    </g>
    <g id="ytick_76">
     <g id="line2d_100">
      <g>
       <use xlink:href="#m6b6c28f423" x="607.508036" y="64.379684" style="stroke: #000000; stroke-width: 0.6"/>
      </g>
     </g>
    </g>
    <g id="ytick_77">
     <g id="line2d_101">
      <g>
       <use xlink:href="#m6b6c28f423" x="607.508036" y="54.698427" style="stroke: #000000; stroke-width: 0.6"/>
      </g>
     </g>
    </g>
   </g>
   <g id="line2d_102">
    <path d="M 618.116594 292.578545 
L 620.259737 290.167771 
L 622.40288 287.760929 
L 624.546023 285.358028 
L 626.689166 282.959076 
L 628.832309 280.564078 
L 630.975453 278.173038 
L 633.118596 275.785961 
L 635.261739 273.40285 
L 637.404882 271.023704 
L 639.548025 268.648526 
L 641.691168 266.277313 
L 643.834311 263.910063 
L 645.977454 261.546772 
L 648.120597 259.187436 
L 650.26374 256.832047 
L 652.406883 254.480597 
L 654.550026 252.133076 
L 656.693169 249.789473 
L 658.836312 247.449774 
L 660.979455 245.113966 
L 663.122599 242.78203 
L 665.265742 240.453949 
L 667.408885 238.129702 
L 669.552028 235.809267 
L 671.695171 233.492619 
L 673.838314 231.17973 
L 675.981457 228.870574 
L 678.1246 226.565117 
L 680.267743 224.263327 
L 682.410886 221.965168 
L 684.554029 219.670601 
L 686.697172 217.379585 
L 688.840315 215.092077 
L 690.983458 212.808029 
L 693.126601 210.527392 
L 695.269745 208.250114 
L 697.412888 205.97614 
L 699.556031 203.70541 
L 701.699174 201.437863 
L 703.842317 199.173434 
L 705.98546 196.912053 
L 708.128603 194.653648 
L 710.271746 192.398144 
L 712.414889 190.14546 
L 714.558032 187.895511 
L 716.701175 185.648211 
L 718.844318 183.403466 
L 720.987461 181.16118 
L 723.130604 178.921251 
L 725.273747 176.683573 
L 727.416891 174.448035 
L 729.560034 172.21452 
L 731.703177 169.982909 
L 733.84632 167.753073 
L 735.989463 165.524881 
L 738.132606 163.298194 
L 740.275749 161.072867 
L 742.418892 158.848751 
L 744.562035 156.625689 
L 746.705178 154.403516 
L 748.848321 152.182062 
L 750.991464 149.961149 
L 753.134607 147.740592 
L 755.27775 145.520197 
L 757.420893 143.299763 
L 759.564037 141.07908 
L 761.70718 138.85793 
L 763.850323 136.636085 
L 765.993466 134.413307 
L 768.136609 132.189352 
L 770.279752 129.96396 
L 772.422895 127.736864 
L 774.566038 125.507785 
L 776.709181 123.276433 
L 778.852324 121.042504 
L 780.995467 118.805684 
L 783.13861 116.565645 
L 785.281753 114.322042 
L 787.424896 112.074521 
L 789.568039 109.82271 
L 791.711183 107.56622 
L 793.854326 105.304648 
L 795.997469 103.037572 
L 798.140612 100.764554 
L 800.283755 98.485134 
L 802.426898 96.198833 
L 804.570041 93.905153 
L 806.713184 91.603572 
L 808.856327 89.293545 
L 810.99947 86.974503 
L 813.142613 84.645849 
L 815.285756 82.306963 
L 817.428899 79.957192 
L 819.572042 77.595855 
L 821.715185 75.222238 
L 823.858329 72.835593 
L 826.001472 70.435136 
L 828.144615 68.020044 
L 830.287758 65.589455 
" clip-path="url(#pb7e72583d6)" style="fill: none; stroke: #1f77b4; stroke-width: 1.5; stroke-linecap: square"/>
   </g>
   <g id="patch_13">
    <path d="M 607.508036 303.928 
L 607.508036 54.24 
" style="fill: none; stroke: #000000; stroke-width: 0.8; stroke-linejoin: miter; stroke-linecap: square"/>
   </g>
   <g id="patch_14">
    <path d="M 840.896316 303.928 
L 840.896316 54.24 
" style="fill: none; stroke: #000000; stroke-width: 0.8; stroke-linejoin: miter; stroke-linecap: square"/>
   </g>
   <g id="patch_15">
    <path d="M 607.508036 303.928 
L 840.896316 303.928 
" style="fill: none; stroke: #000000; stroke-width: 0.8; stroke-linejoin: miter; stroke-linecap: square"/>
   </g>
   <g id="patch_16">
    <path d="M 607.508036 54.24 
L 840.896316 54.24 
" style="fill: none; stroke: #000000; stroke-width: 0.8; stroke-linejoin: miter; stroke-linecap: square"/>
   </g>
   <g id="text_31">
    <!-- D -->
    <g transform="translate(719.582176 48.24) scale(0.12 -0.12)">
     <defs>
      <path id="DejaVuSans-44" d="M 1259 4147 
L 1259 519 
L 2022 519 
Q 2988 519 3436 956 
Q 3884 1394 3884 2338 
Q 3884 3275 3436 3711 
Q 2988 4147 2022 4147 
L 1259 4147 
z
M 628 4666 
L 1925 4666 
Q 3281 4666 3915 4102 
Q 4550 3538 4550 2338 
Q 4550 1131 3912 565 
Q 3275 0 1925 0 
L 628 0 
L 628 4666 
z
" transform="scale(0.015625)"/>
     </defs>
     <use xlink:href="#DejaVuSans-44"/>
    </g>
   </g>
  </g>
  <g id="text_32">
   <!-- Discrete Butterworth, Order = 6 -->
   <g transform="translate(335.807813 16.318125) scale(0.12 -0.12)">
    <defs>
     <path id="DejaVuSans-42" d="M 1259 2228 
L 1259 519 
L 2272 519 
Q 2781 519 3026 730 
Q 3272 941 3272 1375 
Q 3272 1813 3026 2020 
Q 2781 2228 2272 2228 
L 1259 2228 
z
M 1259 4147 
L 1259 2741 
L 2194 2741 
Q 2656 2741 2882 2914 
Q 3109 3088 3109 3444 
Q 3109 3797 2882 3972 
Q 2656 4147 2194 4147 
L 1259 4147 
z
M 628 4666 
L 2241 4666 
Q 2963 4666 3353 4366 
Q 3744 4066 3744 3513 
Q 3744 3084 3544 2831 
Q 3344 2578 2956 2516 
Q 3422 2416 3680 2098 
Q 3938 1781 3938 1306 
Q 3938 681 3513 340 
Q 3088 0 2303 0 
L 628 0 
L 628 4666 
z
" transform="scale(0.015625)"/>
     <path id="DejaVuSans-77" d="M 269 3500 
L 844 3500 
L 1563 769 
L 2278 3500 
L 2956 3500 
L 3675 769 
L 4391 3500 
L 4966 3500 
L 4050 0 
L 3372 0 
L 2619 2869 
L 1863 0 
L 1184 0 
L 269 3500 
z
" transform="scale(0.015625)"/>
     <path id="DejaVuSans-68" d="M 3513 2113 
L 3513 0 
L 2938 0 
L 2938 2094 
Q 2938 2591 2744 2837 
Q 2550 3084 2163 3084 
Q 1697 3084 1428 2787 
Q 1159 2491 1159 1978 
L 1159 0 
L 581 0 
L 581 4863 
L 1159 4863 
L 1159 2956 
Q 1366 3272 1645 3428 
Q 1925 3584 2291 3584 
Q 2894 3584 3203 3211 
Q 3513 2838 3513 2113 
z
" transform="scale(0.015625)"/>
     <path id="DejaVuSans-2c" d="M 750 794 
L 1409 794 
L 1409 256 
L 897 -744 
L 494 -744 
L 750 256 
L 750 794 
z
" transform="scale(0.015625)"/>
     <path id="DejaVuSans-4f" d="M 2522 4238 
Q 1834 4238 1429 3725 
Q 1025 3213 1025 2328 
Q 1025 1447 1429 934 
Q 1834 422 2522 422 
Q 3209 422 3611 934 
Q 4013 1447 4013 2328 
Q 4013 3213 3611 3725 
Q 3209 4238 2522 4238 
z
M 2522 4750 
Q 3503 4750 4090 4092 
Q 4678 3434 4678 2328 
Q 4678 1225 4090 567 
Q 3503 -91 2522 -91 
Q 1538 -91 948 565 
Q 359 1222 359 2328 
Q 359 3434 948 4092 
Q 1538 4750 2522 4750 
z
" transform="scale(0.015625)"/>
     <path id="DejaVuSans-3d" d="M 678 2906 
L 4684 2906 
L 4684 2381 
L 678 2381 
L 678 2906 
z
M 678 1631 
L 4684 1631 
L 4684 1100 
L 678 1100 
L 678 1631 
z
" transform="scale(0.015625)"/>
    </defs>
    <use xlink:href="#DejaVuSans-44"/>
    <use xlink:href="#DejaVuSans-69" x="77.001953"/>
    <use xlink:href="#DejaVuSans-73" x="104.785156"/>
    <use xlink:href="#DejaVuSans-63" x="156.884766"/>
    <use xlink:href="#DejaVuSans-72" x="211.865234"/>
    <use xlink:href="#DejaVuSans-65" x="250.728516"/>
    <use xlink:href="#DejaVuSans-74" x="312.251953"/>
    <use xlink:href="#DejaVuSans-65" x="351.460938"/>
    <use xlink:href="#DejaVuSans-20" x="412.984375"/>
    <use xlink:href="#DejaVuSans-42" x="444.771484"/>
    <use xlink:href="#DejaVuSans-75" x="513.375"/>
    <use xlink:href="#DejaVuSans-74" x="576.753906"/>
    <use xlink:href="#DejaVuSans-74" x="615.962891"/>
    <use xlink:href="#DejaVuSans-65" x="655.171875"/>
    <use xlink:href="#DejaVuSans-72" x="716.695312"/>
    <use xlink:href="#DejaVuSans-77" x="757.808594"/>
    <use xlink:href="#DejaVuSans-6f" x="839.595703"/>
    <use xlink:href="#DejaVuSans-72" x="900.777344"/>
    <use xlink:href="#DejaVuSans-74" x="941.890625"/>
    <use xlink:href="#DejaVuSans-68" x="981.099609"/>
    <use xlink:href="#DejaVuSans-2c" x="1044.478516"/>
    <use xlink:href="#DejaVuSans-20" x="1076.265625"/>
    <use xlink:href="#DejaVuSans-4f" x="1108.052734"/>
    <use xlink:href="#DejaVuSans-72" x="1186.763672"/>
    <use xlink:href="#DejaVuSans-64" x="1226.126953"/>
    <use xlink:href="#DejaVuSans-65" x="1289.603516"/>
    <use xlink:href="#DejaVuSans-72" x="1351.126953"/>
    <use xlink:href="#DejaVuSans-20" x="1392.240234"/>
    <use xlink:href="#DejaVuSans-3d" x="1424.027344"/>
    <use xlink:href="#DejaVuSans-20" x="1507.816406"/>
    <use xlink:href="#DejaVuSans-36" x="1539.603516"/>
   </g>
  </g>
 </g>
 <defs>
  <clipPath id="pef7b0d0eb7">
   <rect x="32.56" y="54.24" width="233.38828" height="249.688"/>
  </clipPath>
  <clipPath id="p3b943698e1">
   <rect x="320.034018" y="54.24" width="233.38828" height="249.688"/>
  </clipPath>
  <clipPath id="pb7e72583d6">
   <rect x="607.508036" y="54.24" width="233.38828" height="249.688"/>
  </clipPath>
 </defs>
</svg>
