<?xml version="1.0" encoding="utf-8" standalone="no"?>
<!DOCTYPE svg PUBLIC "-//W3C//DTD SVG 1.1//EN"
  "http://www.w3.org/Graphics/SVG/1.1/DTD/svg11.dtd">
<svg xmlns:xlink="http://www.w3.org/1999/xlink" width="432pt" height="576pt" viewBox="0 0 432 576" xmlns="http://www.w3.org/2000/svg" version="1.1">
 <metadata>
  <rdf:RDF xmlns:dc="http://purl.org/dc/elements/1.1/" xmlns:cc="http://creativecommons.org/ns#" xmlns:rdf="http://www.w3.org/1999/02/22-rdf-syntax-ns#">
   <cc:Work>
    <dc:type rdf:resource="http://purl.org/dc/dcmitype/StillImage"/>
    <dc:date>2025-05-25T13:56:36.343016</dc:date>
    <dc:format>image/svg+xml</dc:format>
    <dc:creator>
     <cc:Agent>
      <dc:title>Matplotlib v3.9.1, https://matplotlib.org/</dc:title>
     </cc:Agent>
    </dc:creator>
   </cc:Work>
  </rdf:RDF>
 </metadata>
 <defs>
  <style type="text/css">*{stroke-linejoin: round; stroke-linecap: butt}</style>
 </defs>
 <g id="figure_1">
  <g id="patch_1">
   <path d="M 0 576 
L 432 576 
L 432 0 
L 0 0 
z
" style="fill: #ffffff"/>
  </g>
  <g id="axes_1">
   <g id="patch_2">
    <path d="M 52.94 282.982 
L 421.2 282.982 
L 421.2 49.536 
L 52.94 49.536 
z
" style="fill: #ffffff"/>
   </g>
   <g id="matplotlib.axis_1">
    <g id="xtick_1">
     <g id="line2d_1">
      <defs>
       <path id="md3a471510d" d="M 0 0 
L 0 3.5 
" style="stroke: #000000; stroke-width: 0.8"/>
      </defs>
      <g>
       <use xlink:href="#md3a471510d" x="105.695355" y="282.982" style="stroke: #000000; stroke-width: 0.8"/>
      </g>
     </g>
    </g>
    <g id="xtick_2">
     <g id="line2d_2">
      <g>
       <use xlink:href="#md3a471510d" x="196.202122" y="282.982" style="stroke: #000000; stroke-width: 0.8"/>
      </g>
     </g>
    </g>
    <g id="xtick_3">
     <g id="line2d_3">
      <g>
       <use xlink:href="#md3a471510d" x="286.70889" y="282.982" style="stroke: #000000; stroke-width: 0.8"/>
      </g>
     </g>
    </g>
    <g id="xtick_4">
     <g id="line2d_4">
      <g>
       <use xlink:href="#md3a471510d" x="377.215657" y="282.982" style="stroke: #000000; stroke-width: 0.8"/>
      </g>
     </g>
    </g>
    <g id="xtick_5">
     <g id="line2d_5">
      <defs>
       <path id="m3b92e4d061" d="M 0 0 
L 0 2 
" style="stroke: #000000; stroke-width: 0.6"/>
      </defs>
      <g>
       <use xlink:href="#m3b92e4d061" x="58.37129" y="282.982" style="stroke: #000000; stroke-width: 0.6"/>
      </g>
     </g>
    </g>
    <g id="xtick_6">
     <g id="line2d_6">
      <g>
       <use xlink:href="#m3b92e4d061" x="69.679091" y="282.982" style="stroke: #000000; stroke-width: 0.6"/>
      </g>
     </g>
    </g>
    <g id="xtick_7">
     <g id="line2d_7">
      <g>
       <use xlink:href="#m3b92e4d061" x="78.450103" y="282.982" style="stroke: #000000; stroke-width: 0.6"/>
      </g>
     </g>
    </g>
    <g id="xtick_8">
     <g id="line2d_8">
      <g>
       <use xlink:href="#m3b92e4d061" x="85.616542" y="282.982" style="stroke: #000000; stroke-width: 0.6"/>
      </g>
     </g>
    </g>
    <g id="xtick_9">
     <g id="line2d_9">
      <g>
       <use xlink:href="#m3b92e4d061" x="91.675679" y="282.982" style="stroke: #000000; stroke-width: 0.6"/>
      </g>
     </g>
    </g>
    <g id="xtick_10">
     <g id="line2d_10">
      <g>
       <use xlink:href="#m3b92e4d061" x="96.924343" y="282.982" style="stroke: #000000; stroke-width: 0.6"/>
      </g>
     </g>
    </g>
    <g id="xtick_11">
     <g id="line2d_11">
      <g>
       <use xlink:href="#m3b92e4d061" x="101.553992" y="282.982" style="stroke: #000000; stroke-width: 0.6"/>
      </g>
     </g>
    </g>
    <g id="xtick_12">
     <g id="line2d_12">
      <g>
       <use xlink:href="#m3b92e4d061" x="132.940607" y="282.982" style="stroke: #000000; stroke-width: 0.6"/>
      </g>
     </g>
    </g>
    <g id="xtick_13">
     <g id="line2d_13">
      <g>
       <use xlink:href="#m3b92e4d061" x="148.878057" y="282.982" style="stroke: #000000; stroke-width: 0.6"/>
      </g>
     </g>
    </g>
    <g id="xtick_14">
     <g id="line2d_14">
      <g>
       <use xlink:href="#m3b92e4d061" x="160.185858" y="282.982" style="stroke: #000000; stroke-width: 0.6"/>
      </g>
     </g>
    </g>
    <g id="xtick_15">
     <g id="line2d_15">
      <g>
       <use xlink:href="#m3b92e4d061" x="168.95687" y="282.982" style="stroke: #000000; stroke-width: 0.6"/>
      </g>
     </g>
    </g>
    <g id="xtick_16">
     <g id="line2d_16">
      <g>
       <use xlink:href="#m3b92e4d061" x="176.123309" y="282.982" style="stroke: #000000; stroke-width: 0.6"/>
      </g>
     </g>
    </g>
    <g id="xtick_17">
     <g id="line2d_17">
      <g>
       <use xlink:href="#m3b92e4d061" x="182.182447" y="282.982" style="stroke: #000000; stroke-width: 0.6"/>
      </g>
     </g>
    </g>
    <g id="xtick_18">
     <g id="line2d_18">
      <g>
       <use xlink:href="#m3b92e4d061" x="187.43111" y="282.982" style="stroke: #000000; stroke-width: 0.6"/>
      </g>
     </g>
    </g>
    <g id="xtick_19">
     <g id="line2d_19">
      <g>
       <use xlink:href="#m3b92e4d061" x="192.06076" y="282.982" style="stroke: #000000; stroke-width: 0.6"/>
      </g>
     </g>
    </g>
    <g id="xtick_20">
     <g id="line2d_20">
      <g>
       <use xlink:href="#m3b92e4d061" x="223.447374" y="282.982" style="stroke: #000000; stroke-width: 0.6"/>
      </g>
     </g>
    </g>
    <g id="xtick_21">
     <g id="line2d_21">
      <g>
       <use xlink:href="#m3b92e4d061" x="239.384825" y="282.982" style="stroke: #000000; stroke-width: 0.6"/>
      </g>
     </g>
    </g>
    <g id="xtick_22">
     <g id="line2d_22">
      <g>
       <use xlink:href="#m3b92e4d061" x="250.692626" y="282.982" style="stroke: #000000; stroke-width: 0.6"/>
      </g>
     </g>
    </g>
    <g id="xtick_23">
     <g id="line2d_23">
      <g>
       <use xlink:href="#m3b92e4d061" x="259.463638" y="282.982" style="stroke: #000000; stroke-width: 0.6"/>
      </g>
     </g>
    </g>
    <g id="xtick_24">
     <g id="line2d_24">
      <g>
       <use xlink:href="#m3b92e4d061" x="266.630077" y="282.982" style="stroke: #000000; stroke-width: 0.6"/>
      </g>
     </g>
    </g>
    <g id="xtick_25">
     <g id="line2d_25">
      <g>
       <use xlink:href="#m3b92e4d061" x="272.689214" y="282.982" style="stroke: #000000; stroke-width: 0.6"/>
      </g>
     </g>
    </g>
    <g id="xtick_26">
     <g id="line2d_26">
      <g>
       <use xlink:href="#m3b92e4d061" x="277.937878" y="282.982" style="stroke: #000000; stroke-width: 0.6"/>
      </g>
     </g>
    </g>
    <g id="xtick_27">
     <g id="line2d_27">
      <g>
       <use xlink:href="#m3b92e4d061" x="282.567527" y="282.982" style="stroke: #000000; stroke-width: 0.6"/>
      </g>
     </g>
    </g>
    <g id="xtick_28">
     <g id="line2d_28">
      <g>
       <use xlink:href="#m3b92e4d061" x="313.954142" y="282.982" style="stroke: #000000; stroke-width: 0.6"/>
      </g>
     </g>
    </g>
    <g id="xtick_29">
     <g id="line2d_29">
      <g>
       <use xlink:href="#m3b92e4d061" x="329.891592" y="282.982" style="stroke: #000000; stroke-width: 0.6"/>
      </g>
     </g>
    </g>
    <g id="xtick_30">
     <g id="line2d_30">
      <g>
       <use xlink:href="#m3b92e4d061" x="341.199393" y="282.982" style="stroke: #000000; stroke-width: 0.6"/>
      </g>
     </g>
    </g>
    <g id="xtick_31">
     <g id="line2d_31">
      <g>
       <use xlink:href="#m3b92e4d061" x="349.970405" y="282.982" style="stroke: #000000; stroke-width: 0.6"/>
      </g>
     </g>
    </g>
    <g id="xtick_32">
     <g id="line2d_32">
      <g>
       <use xlink:href="#m3b92e4d061" x="357.136844" y="282.982" style="stroke: #000000; stroke-width: 0.6"/>
      </g>
     </g>
    </g>
    <g id="xtick_33">
     <g id="line2d_33">
      <g>
       <use xlink:href="#m3b92e4d061" x="363.195982" y="282.982" style="stroke: #000000; stroke-width: 0.6"/>
      </g>
     </g>
    </g>
    <g id="xtick_34">
     <g id="line2d_34">
      <g>
       <use xlink:href="#m3b92e4d061" x="368.444645" y="282.982" style="stroke: #000000; stroke-width: 0.6"/>
      </g>
     </g>
    </g>
    <g id="xtick_35">
     <g id="line2d_35">
      <g>
       <use xlink:href="#m3b92e4d061" x="373.074295" y="282.982" style="stroke: #000000; stroke-width: 0.6"/>
      </g>
     </g>
    </g>
    <g id="xtick_36">
     <g id="line2d_36">
      <g>
       <use xlink:href="#m3b92e4d061" x="404.460909" y="282.982" style="stroke: #000000; stroke-width: 0.6"/>
      </g>
     </g>
    </g>
    <g id="xtick_37">
     <g id="line2d_37">
      <g>
       <use xlink:href="#m3b92e4d061" x="420.39836" y="282.982" style="stroke: #000000; stroke-width: 0.6"/>
      </g>
     </g>
    </g>
   </g>
   <g id="matplotlib.axis_2">
    <g id="ytick_1">
     <g id="line2d_38">
      <defs>
       <path id="m928d792afe" d="M 0 0 
L -3.5 0 
" style="stroke: #000000; stroke-width: 0.8"/>
      </defs>
      <g>
       <use xlink:href="#m928d792afe" x="52.94" y="262.306116" style="stroke: #000000; stroke-width: 0.8"/>
      </g>
     </g>
     <g id="text_1">
      <!-- −35 -->
      <g transform="translate(24.835313 266.105335) scale(0.1 -0.1)">
       <defs>
        <path id="DejaVuSans-2212" d="M 678 2272 
L 4684 2272 
L 4684 1741 
L 678 1741 
L 678 2272 
z
" transform="scale(0.015625)"/>
        <path id="DejaVuSans-33" d="M 2597 2516 
Q 3050 2419 3304 2112 
Q 3559 1806 3559 1356 
Q 3559 666 3084 287 
Q 2609 -91 1734 -91 
Q 1441 -91 1130 -33 
Q 819 25 488 141 
L 488 750 
Q 750 597 1062 519 
Q 1375 441 1716 441 
Q 2309 441 2620 675 
Q 2931 909 2931 1356 
Q 2931 1769 2642 2001 
Q 2353 2234 1838 2234 
L 1294 2234 
L 1294 2753 
L 1863 2753 
Q 2328 2753 2575 2939 
Q 2822 3125 2822 3475 
Q 2822 3834 2567 4026 
Q 2313 4219 1838 4219 
Q 1578 4219 1281 4162 
Q 984 4106 628 3988 
L 628 4550 
Q 988 4650 1302 4700 
Q 1616 4750 1894 4750 
Q 2613 4750 3031 4423 
Q 3450 4097 3450 3541 
Q 3450 3153 3228 2886 
Q 3006 2619 2597 2516 
z
" transform="scale(0.015625)"/>
        <path id="DejaVuSans-35" d="M 691 4666 
L 3169 4666 
L 3169 4134 
L 1269 4134 
L 1269 2991 
Q 1406 3038 1543 3061 
Q 1681 3084 1819 3084 
Q 2600 3084 3056 2656 
Q 3513 2228 3513 1497 
Q 3513 744 3044 326 
Q 2575 -91 1722 -91 
Q 1428 -91 1123 -41 
Q 819 9 494 109 
L 494 744 
Q 775 591 1075 516 
Q 1375 441 1709 441 
Q 2250 441 2565 725 
Q 2881 1009 2881 1497 
Q 2881 1984 2565 2268 
Q 2250 2553 1709 2553 
Q 1456 2553 1204 2497 
Q 953 2441 691 2322 
L 691 4666 
z
" transform="scale(0.015625)"/>
       </defs>
       <use xlink:href="#DejaVuSans-2212"/>
       <use xlink:href="#DejaVuSans-33" x="83.789062"/>
       <use xlink:href="#DejaVuSans-35" x="147.412109"/>
      </g>
     </g>
    </g>
    <g id="ytick_2">
     <g id="line2d_39">
      <g>
       <use xlink:href="#m928d792afe" x="52.94" y="234.905085" style="stroke: #000000; stroke-width: 0.8"/>
      </g>
     </g>
     <g id="text_2">
      <!-- −30 -->
      <g transform="translate(24.835313 238.704303) scale(0.1 -0.1)">
       <defs>
        <path id="DejaVuSans-30" d="M 2034 4250 
Q 1547 4250 1301 3770 
Q 1056 3291 1056 2328 
Q 1056 1369 1301 889 
Q 1547 409 2034 409 
Q 2525 409 2770 889 
Q 3016 1369 3016 2328 
Q 3016 3291 2770 3770 
Q 2525 4250 2034 4250 
z
M 2034 4750 
Q 2819 4750 3233 4129 
Q 3647 3509 3647 2328 
Q 3647 1150 3233 529 
Q 2819 -91 2034 -91 
Q 1250 -91 836 529 
Q 422 1150 422 2328 
Q 422 3509 836 4129 
Q 1250 4750 2034 4750 
z
" transform="scale(0.015625)"/>
       </defs>
       <use xlink:href="#DejaVuSans-2212"/>
       <use xlink:href="#DejaVuSans-33" x="83.789062"/>
       <use xlink:href="#DejaVuSans-30" x="147.412109"/>
      </g>
     </g>
    </g>
    <g id="ytick_3">
     <g id="line2d_40">
      <g>
       <use xlink:href="#m928d792afe" x="52.94" y="207.504053" style="stroke: #000000; stroke-width: 0.8"/>
      </g>
     </g>
     <g id="text_3">
      <!-- −25 -->
      <g transform="translate(24.835313 211.303272) scale(0.1 -0.1)">
       <defs>
        <path id="DejaVuSans-32" d="M 1228 531 
L 3431 531 
L 3431 0 
L 469 0 
L 469 531 
Q 828 903 1448 1529 
Q 2069 2156 2228 2338 
Q 2531 2678 2651 2914 
Q 2772 3150 2772 3378 
Q 2772 3750 2511 3984 
Q 2250 4219 1831 4219 
Q 1534 4219 1204 4116 
Q 875 4013 500 3803 
L 500 4441 
Q 881 4594 1212 4672 
Q 1544 4750 1819 4750 
Q 2544 4750 2975 4387 
Q 3406 4025 3406 3419 
Q 3406 3131 3298 2873 
Q 3191 2616 2906 2266 
Q 2828 2175 2409 1742 
Q 1991 1309 1228 531 
z
" transform="scale(0.015625)"/>
       </defs>
       <use xlink:href="#DejaVuSans-2212"/>
       <use xlink:href="#DejaVuSans-32" x="83.789062"/>
       <use xlink:href="#DejaVuSans-35" x="147.412109"/>
      </g>
     </g>
    </g>
    <g id="ytick_4">
     <g id="line2d_41">
      <g>
       <use xlink:href="#m928d792afe" x="52.94" y="180.103022" style="stroke: #000000; stroke-width: 0.8"/>
      </g>
     </g>
     <g id="text_4">
      <!-- −20 -->
      <g transform="translate(24.835313 183.902241) scale(0.1 -0.1)">
       <use xlink:href="#DejaVuSans-2212"/>
       <use xlink:href="#DejaVuSans-32" x="83.789062"/>
       <use xlink:href="#DejaVuSans-30" x="147.412109"/>
      </g>
     </g>
    </g>
    <g id="ytick_5">
     <g id="line2d_42">
      <g>
       <use xlink:href="#m928d792afe" x="52.94" y="152.701991" style="stroke: #000000; stroke-width: 0.8"/>
      </g>
     </g>
     <g id="text_5">
      <!-- −15 -->
      <g transform="translate(24.835313 156.50121) scale(0.1 -0.1)">
       <defs>
        <path id="DejaVuSans-31" d="M 794 531 
L 1825 531 
L 1825 4091 
L 703 3866 
L 703 4441 
L 1819 4666 
L 2450 4666 
L 2450 531 
L 3481 531 
L 3481 0 
L 794 0 
L 794 531 
z
" transform="scale(0.015625)"/>
       </defs>
       <use xlink:href="#DejaVuSans-2212"/>
       <use xlink:href="#DejaVuSans-31" x="83.789062"/>
       <use xlink:href="#DejaVuSans-35" x="147.412109"/>
      </g>
     </g>
    </g>
    <g id="ytick_6">
     <g id="line2d_43">
      <g>
       <use xlink:href="#m928d792afe" x="52.94" y="125.30096" style="stroke: #000000; stroke-width: 0.8"/>
      </g>
     </g>
     <g id="text_6">
      <!-- −10 -->
      <g transform="translate(24.835313 129.100178) scale(0.1 -0.1)">
       <use xlink:href="#DejaVuSans-2212"/>
       <use xlink:href="#DejaVuSans-31" x="83.789062"/>
       <use xlink:href="#DejaVuSans-30" x="147.412109"/>
      </g>
     </g>
    </g>
    <g id="ytick_7">
     <g id="line2d_44">
      <g>
       <use xlink:href="#m928d792afe" x="52.94" y="97.899929" style="stroke: #000000; stroke-width: 0.8"/>
      </g>
     </g>
     <g id="text_7">
      <!-- −5 -->
      <g transform="translate(31.197813 101.699147) scale(0.1 -0.1)">
       <use xlink:href="#DejaVuSans-2212"/>
       <use xlink:href="#DejaVuSans-35" x="83.789062"/>
      </g>
     </g>
    </g>
    <g id="ytick_8">
     <g id="line2d_45">
      <g>
       <use xlink:href="#m928d792afe" x="52.94" y="70.498897" style="stroke: #000000; stroke-width: 0.8"/>
      </g>
     </g>
     <g id="text_8">
      <!-- 0 -->
      <g transform="translate(39.5775 74.298116) scale(0.1 -0.1)">
       <use xlink:href="#DejaVuSans-30"/>
      </g>
     </g>
    </g>
    <g id="text_9">
     <!-- Magnitude [dB] -->
     <g transform="translate(18.755625 204.844156) rotate(-90) scale(0.1 -0.1)">
      <defs>
       <path id="DejaVuSans-4d" d="M 628 4666 
L 1569 4666 
L 2759 1491 
L 3956 4666 
L 4897 4666 
L 4897 0 
L 4281 0 
L 4281 4097 
L 3078 897 
L 2444 897 
L 1241 4097 
L 1241 0 
L 628 0 
L 628 4666 
z
" transform="scale(0.015625)"/>
       <path id="DejaVuSans-61" d="M 2194 1759 
Q 1497 1759 1228 1600 
Q 959 1441 959 1056 
Q 959 750 1161 570 
Q 1363 391 1709 391 
Q 2188 391 2477 730 
Q 2766 1069 2766 1631 
L 2766 1759 
L 2194 1759 
z
M 3341 1997 
L 3341 0 
L 2766 0 
L 2766 531 
Q 2569 213 2275 61 
Q 1981 -91 1556 -91 
Q 1019 -91 701 211 
Q 384 513 384 1019 
Q 384 1609 779 1909 
Q 1175 2209 1959 2209 
L 2766 2209 
L 2766 2266 
Q 2766 2663 2505 2880 
Q 2244 3097 1772 3097 
Q 1472 3097 1187 3025 
Q 903 2953 641 2809 
L 641 3341 
Q 956 3463 1253 3523 
Q 1550 3584 1831 3584 
Q 2591 3584 2966 3190 
Q 3341 2797 3341 1997 
z
" transform="scale(0.015625)"/>
       <path id="DejaVuSans-67" d="M 2906 1791 
Q 2906 2416 2648 2759 
Q 2391 3103 1925 3103 
Q 1463 3103 1205 2759 
Q 947 2416 947 1791 
Q 947 1169 1205 825 
Q 1463 481 1925 481 
Q 2391 481 2648 825 
Q 2906 1169 2906 1791 
z
M 3481 434 
Q 3481 -459 3084 -895 
Q 2688 -1331 1869 -1331 
Q 1566 -1331 1297 -1286 
Q 1028 -1241 775 -1147 
L 775 -588 
Q 1028 -725 1275 -790 
Q 1522 -856 1778 -856 
Q 2344 -856 2625 -561 
Q 2906 -266 2906 331 
L 2906 616 
Q 2728 306 2450 153 
Q 2172 0 1784 0 
Q 1141 0 747 490 
Q 353 981 353 1791 
Q 353 2603 747 3093 
Q 1141 3584 1784 3584 
Q 2172 3584 2450 3431 
Q 2728 3278 2906 2969 
L 2906 3500 
L 3481 3500 
L 3481 434 
z
" transform="scale(0.015625)"/>
       <path id="DejaVuSans-6e" d="M 3513 2113 
L 3513 0 
L 2938 0 
L 2938 2094 
Q 2938 2591 2744 2837 
Q 2550 3084 2163 3084 
Q 1697 3084 1428 2787 
Q 1159 2491 1159 1978 
L 1159 0 
L 581 0 
L 581 3500 
L 1159 3500 
L 1159 2956 
Q 1366 3272 1645 3428 
Q 1925 3584 2291 3584 
Q 2894 3584 3203 3211 
Q 3513 2838 3513 2113 
z
" transform="scale(0.015625)"/>
       <path id="DejaVuSans-69" d="M 603 3500 
L 1178 3500 
L 1178 0 
L 603 0 
L 603 3500 
z
M 603 4863 
L 1178 4863 
L 1178 4134 
L 603 4134 
L 603 4863 
z
" transform="scale(0.015625)"/>
       <path id="DejaVuSans-74" d="M 1172 4494 
L 1172 3500 
L 2356 3500 
L 2356 3053 
L 1172 3053 
L 1172 1153 
Q 1172 725 1289 603 
Q 1406 481 1766 481 
L 2356 481 
L 2356 0 
L 1766 0 
Q 1100 0 847 248 
Q 594 497 594 1153 
L 594 3053 
L 172 3053 
L 172 3500 
L 594 3500 
L 594 4494 
L 1172 4494 
z
" transform="scale(0.015625)"/>
       <path id="DejaVuSans-75" d="M 544 1381 
L 544 3500 
L 1119 3500 
L 1119 1403 
Q 1119 906 1312 657 
Q 1506 409 1894 409 
Q 2359 409 2629 706 
Q 2900 1003 2900 1516 
L 2900 3500 
L 3475 3500 
L 3475 0 
L 2900 0 
L 2900 538 
Q 2691 219 2414 64 
Q 2138 -91 1772 -91 
Q 1169 -91 856 284 
Q 544 659 544 1381 
z
M 1991 3584 
L 1991 3584 
z
" transform="scale(0.015625)"/>
       <path id="DejaVuSans-64" d="M 2906 2969 
L 2906 4863 
L 3481 4863 
L 3481 0 
L 2906 0 
L 2906 525 
Q 2725 213 2448 61 
Q 2172 -91 1784 -91 
Q 1150 -91 751 415 
Q 353 922 353 1747 
Q 353 2572 751 3078 
Q 1150 3584 1784 3584 
Q 2172 3584 2448 3432 
Q 2725 3281 2906 2969 
z
M 947 1747 
Q 947 1113 1208 752 
Q 1469 391 1925 391 
Q 2381 391 2643 752 
Q 2906 1113 2906 1747 
Q 2906 2381 2643 2742 
Q 2381 3103 1925 3103 
Q 1469 3103 1208 2742 
Q 947 2381 947 1747 
z
" transform="scale(0.015625)"/>
       <path id="DejaVuSans-65" d="M 3597 1894 
L 3597 1613 
L 953 1613 
Q 991 1019 1311 708 
Q 1631 397 2203 397 
Q 2534 397 2845 478 
Q 3156 559 3463 722 
L 3463 178 
Q 3153 47 2828 -22 
Q 2503 -91 2169 -91 
Q 1331 -91 842 396 
Q 353 884 353 1716 
Q 353 2575 817 3079 
Q 1281 3584 2069 3584 
Q 2775 3584 3186 3129 
Q 3597 2675 3597 1894 
z
M 3022 2063 
Q 3016 2534 2758 2815 
Q 2500 3097 2075 3097 
Q 1594 3097 1305 2825 
Q 1016 2553 972 2059 
L 3022 2063 
z
" transform="scale(0.015625)"/>
       <path id="DejaVuSans-20" transform="scale(0.015625)"/>
       <path id="DejaVuSans-5b" d="M 550 4863 
L 1875 4863 
L 1875 4416 
L 1125 4416 
L 1125 -397 
L 1875 -397 
L 1875 -844 
L 550 -844 
L 550 4863 
z
" transform="scale(0.015625)"/>
       <path id="DejaVuSans-42" d="M 1259 2228 
L 1259 519 
L 2272 519 
Q 2781 519 3026 730 
Q 3272 941 3272 1375 
Q 3272 1813 3026 2020 
Q 2781 2228 2272 2228 
L 1259 2228 
z
M 1259 4147 
L 1259 2741 
L 2194 2741 
Q 2656 2741 2882 2914 
Q 3109 3088 3109 3444 
Q 3109 3797 2882 3972 
Q 2656 4147 2194 4147 
L 1259 4147 
z
M 628 4666 
L 2241 4666 
Q 2963 4666 3353 4366 
Q 3744 4066 3744 3513 
Q 3744 3084 3544 2831 
Q 3344 2578 2956 2516 
Q 3422 2416 3680 2098 
Q 3938 1781 3938 1306 
Q 3938 681 3513 340 
Q 3088 0 2303 0 
L 628 0 
L 628 4666 
z
" transform="scale(0.015625)"/>
       <path id="DejaVuSans-5d" d="M 1947 4863 
L 1947 -844 
L 622 -844 
L 622 -397 
L 1369 -397 
L 1369 4416 
L 622 4416 
L 622 4863 
L 1947 4863 
z
" transform="scale(0.015625)"/>
      </defs>
      <use xlink:href="#DejaVuSans-4d"/>
      <use xlink:href="#DejaVuSans-61" x="86.279297"/>
      <use xlink:href="#DejaVuSans-67" x="147.558594"/>
      <use xlink:href="#DejaVuSans-6e" x="211.035156"/>
      <use xlink:href="#DejaVuSans-69" x="274.414062"/>
      <use xlink:href="#DejaVuSans-74" x="302.197266"/>
      <use xlink:href="#DejaVuSans-75" x="341.40625"/>
      <use xlink:href="#DejaVuSans-64" x="404.785156"/>
      <use xlink:href="#DejaVuSans-65" x="468.261719"/>
      <use xlink:href="#DejaVuSans-20" x="529.785156"/>
      <use xlink:href="#DejaVuSans-5b" x="561.572266"/>
      <use xlink:href="#DejaVuSans-64" x="600.585938"/>
      <use xlink:href="#DejaVuSans-42" x="664.0625"/>
      <use xlink:href="#DejaVuSans-5d" x="732.666016"/>
     </g>
    </g>
   </g>
   <g id="line2d_46">
    <path d="M 69.679091 70.498897 
L 404.460909 70.498897 
L 404.460909 70.498897 
" clip-path="url(#p92b7fc4b59)" style="fill: none; stroke: #000000; stroke-opacity: 0.4; stroke-width: 1.5; stroke-linecap: square"/>
   </g>
   <g id="line2d_47">
    <path d="M 69.679091 70.498897 
L 363.576643 70.39431 
L 370.614099 70.133623 
L 376.311087 69.695784 
L 384.353893 69.040033 
L 386.699712 69.10651 
L 388.710413 69.405613 
L 390.385998 69.896666 
L 391.726466 70.488693 
L 393.066933 71.287193 
L 394.407401 72.313061 
L 396.082986 73.926521 
L 397.75857 75.873987 
L 402.115091 81.181984 
L 403.120441 81.955673 
L 403.790675 82.260631 
L 404.460909 82.36651 
L 404.460909 82.36651 
" clip-path="url(#p92b7fc4b59)" style="fill: none; stroke: #000000; stroke-opacity: 0.4; stroke-width: 1.5; stroke-linecap: square"/>
   </g>
   <g id="line2d_48">
    <path d="M 69.679091 70.498897 
L 360.560591 70.392482 
L 366.592695 70.143009 
L 370.949216 69.757686 
L 374.970619 69.185092 
L 385.024127 67.571829 
L 386.699712 67.632605 
L 388.040179 67.869428 
L 389.380647 68.3274 
L 390.721115 69.063363 
L 391.726466 69.835655 
L 392.731816 70.82875 
L 393.737167 72.072918 
L 394.742518 73.598827 
L 396.082986 76.121479 
L 397.423453 79.248821 
L 398.763921 82.984375 
L 400.774623 89.420782 
L 402.450207 94.52752 
L 403.120441 96.065694 
L 403.790675 97.083107 
L 404.125792 97.352079 
L 404.460909 97.443672 
L 404.460909 97.443672 
" clip-path="url(#p92b7fc4b59)" style="fill: none; stroke: #000000; stroke-opacity: 0.4; stroke-width: 1.5; stroke-linecap: square"/>
   </g>
   <g id="line2d_49">
    <path d="M 69.679091 70.498897 
L 358.885006 70.395273 
L 364.581994 70.147628 
L 368.603397 69.768564 
L 371.954566 69.250962 
L 375.305736 68.5152 
L 379.997373 67.211946 
L 383.348542 66.372167 
L 385.359244 66.110322 
L 386.699712 66.124716 
L 388.040179 66.354124 
L 389.04553 66.706351 
L 390.050881 67.248023 
L 391.056232 68.015121 
L 392.061582 69.048525 
L 393.066933 70.394975 
L 394.072284 72.108311 
L 395.077635 74.250965 
L 396.082986 76.895614 
L 397.088337 80.126497 
L 398.093687 84.038972 
L 399.099038 88.733188 
L 400.439506 96.338372 
L 402.115091 107.67363 
L 403.120441 114.206913 
L 403.790675 117.298757 
L 404.125792 118.163953 
L 404.460909 118.463627 
L 404.460909 118.463627 
" clip-path="url(#p92b7fc4b59)" style="fill: none; stroke: #000000; stroke-opacity: 0.4; stroke-width: 1.5; stroke-linecap: square"/>
   </g>
   <g id="line2d_50">
    <path d="M 69.679091 70.498897 
L 357.879655 70.396231 
L 363.241526 70.155377 
L 367.262929 69.758187 
L 370.614099 69.195757 
L 373.630151 68.457781 
L 376.646203 67.49415 
L 384.353893 64.862951 
L 386.029478 64.628937 
L 387.369945 64.668375 
L 388.375296 64.874032 
L 389.380647 65.267262 
L 390.385998 65.886113 
L 391.391349 66.774438 
L 392.396699 67.983439 
L 393.40205 69.573897 
L 394.407401 71.619429 
L 395.412752 74.211353 
L 396.418103 77.466125 
L 397.423453 81.537069 
L 398.428804 86.633481 
L 399.434155 93.05271 
L 400.439506 101.23446 
L 401.444857 111.843757 
L 402.450207 125.797954 
L 404.125792 152.942952 
L 404.460909 154.540838 
L 404.460909 154.540838 
" clip-path="url(#p92b7fc4b59)" style="fill: none; stroke: #000000; stroke-opacity: 0.4; stroke-width: 1.5; stroke-linecap: square"/>
   </g>
   <g id="line2d_51">
    <path d="M 69.679091 70.498897 
L 357.209421 70.396561 
L 362.571292 70.14149 
L 366.257578 69.758967 
L 369.273631 69.239377 
L 371.954566 68.570561 
L 374.635502 67.680528 
L 377.651554 66.434223 
L 384.018776 63.685098 
L 385.694361 63.257038 
L 387.034828 63.132319 
L 388.040179 63.209824 
L 389.04553 63.470546 
L 390.050881 63.952355 
L 391.056232 64.69879 
L 392.061582 65.760618 
L 393.066933 67.198111 
L 394.072284 69.084426 
L 395.077635 71.510744 
L 396.082986 74.594361 
L 397.088337 78.491975 
L 398.093687 83.422755 
L 399.099038 89.71134 
L 400.104389 97.875852 
L 400.774623 104.784955 
L 401.444857 113.38125 
L 402.115091 124.475936 
L 402.785324 139.70132 
L 403.455558 163.223476 
L 403.790675 181.951112 
L 404.125792 213.170379 
L 404.460909 272.370818 
L 404.460909 272.370818 
" clip-path="url(#p92b7fc4b59)" style="fill: none; stroke: #000000; stroke-opacity: 0.4; stroke-width: 1.5; stroke-linecap: square"/>
   </g>
   <g id="line2d_52">
    <path d="M 69.679091 70.498897 
L 356.874304 70.392787 
L 361.901058 70.143896 
L 365.587345 69.748546 
L 368.603397 69.202643 
L 371.284333 68.48874 
L 373.965268 67.521537 
L 376.646203 66.300909 
L 380.667607 64.159898 
L 383.683659 62.642224 
L 385.359244 62.013627 
L 386.699712 61.710725 
L 388.040179 61.656424 
L 389.04553 61.824575 
L 390.050881 62.212721 
L 391.056232 62.863282 
L 392.061582 63.825262 
L 393.066933 65.156225 
L 394.072284 66.925171 
L 395.077635 69.216776 
L 396.082986 72.137804 
L 397.088337 75.827064 
L 398.093687 80.471391 
L 399.099038 86.332085 
L 400.104389 93.789344 
L 401.10974 103.412914 
L 402.115091 116.025519 
L 403.120441 132.264706 
L 403.790675 143.567001 
L 404.125792 147.618129 
L 404.460909 149.159863 
L 404.460909 149.159863 
" clip-path="url(#p92b7fc4b59)" style="fill: none; stroke: #000000; stroke-opacity: 0.4; stroke-width: 1.5; stroke-linecap: square"/>
   </g>
   <g id="line2d_53">
    <path d="M 69.679091 70.498897 
L 356.539187 70.392479 
L 361.565941 70.131866 
L 364.917111 69.762528 
L 367.933163 69.207185 
L 370.614099 68.469575 
L 372.959917 67.596325 
L 375.305736 66.496687 
L 377.986671 64.992433 
L 384.68901 61.058997 
L 386.364595 60.427821 
L 387.705062 60.169896 
L 388.710413 60.1666 
L 389.715764 60.363754 
L 390.721115 60.799422 
L 391.726466 61.516622 
L 392.731816 62.564571 
L 393.737167 64.000385 
L 394.742518 65.89138 
L 395.747869 68.318144 
L 396.75322 71.378512 
L 397.75857 75.192264 
L 398.763921 79.905152 
L 399.769272 85.68646 
L 400.774623 92.699032 
L 402.115091 103.940893 
L 403.455558 115.254133 
L 403.790675 117.266953 
L 404.125792 118.585761 
L 404.460909 119.048647 
L 404.460909 119.048647 
" clip-path="url(#p92b7fc4b59)" style="fill: none; stroke: #000000; stroke-opacity: 0.4; stroke-width: 1.5; stroke-linecap: square"/>
   </g>
   <g id="line2d_54">
    <path d="M 69.679091 70.498897 
L 404.460909 70.498897 
L 404.460909 70.498897 
" clip-path="url(#p92b7fc4b59)" style="fill: none; stroke: #000000; stroke-opacity: 0.4; stroke-width: 1.5; stroke-linecap: square"/>
   </g>
   <g id="line2d_55">
    <path d="M 69.679091 70.498897 
L 404.460909 70.498897 
L 404.460909 70.498897 
" clip-path="url(#p92b7fc4b59)" style="fill: none; stroke: #000000; stroke-opacity: 0.4; stroke-width: 1.5; stroke-linecap: square"/>
   </g>
   <g id="line2d_56">
    <path d="M 69.679091 70.498897 
L 363.576643 70.39431 
L 370.614099 70.133623 
L 376.311087 69.695784 
L 384.353893 69.040033 
L 386.699712 69.10651 
L 388.710413 69.405613 
L 390.385998 69.896666 
L 391.726466 70.488693 
L 393.066933 71.287193 
L 394.407401 72.313061 
L 396.082986 73.926521 
L 397.75857 75.873987 
L 402.115091 81.181984 
L 403.120441 81.955673 
L 403.790675 82.260631 
L 404.460909 82.36651 
L 404.460909 82.36651 
" clip-path="url(#p92b7fc4b59)" style="fill: none; stroke: #000000; stroke-opacity: 0.4; stroke-width: 1.5; stroke-linecap: square"/>
   </g>
   <g id="line2d_57">
    <path d="M 69.679091 70.498897 
L 360.560591 70.392482 
L 366.592695 70.143009 
L 370.949216 69.757686 
L 374.970619 69.185092 
L 385.024127 67.571829 
L 386.699712 67.632605 
L 388.040179 67.869428 
L 389.380647 68.3274 
L 390.721115 69.063363 
L 391.726466 69.835655 
L 392.731816 70.82875 
L 393.737167 72.072918 
L 394.742518 73.598827 
L 396.082986 76.121479 
L 397.423453 79.248821 
L 398.763921 82.984375 
L 400.774623 89.420782 
L 402.450207 94.52752 
L 403.120441 96.065694 
L 403.790675 97.083107 
L 404.125792 97.352079 
L 404.460909 97.443672 
L 404.460909 97.443672 
" clip-path="url(#p92b7fc4b59)" style="fill: none; stroke: #000000; stroke-opacity: 0.4; stroke-width: 1.5; stroke-linecap: square"/>
   </g>
   <g id="line2d_58">
    <path d="M 69.679091 70.498897 
L 363.576643 70.39431 
L 370.614099 70.133623 
L 376.311087 69.695784 
L 384.353893 69.040033 
L 386.699712 69.10651 
L 388.710413 69.405613 
L 390.385998 69.896666 
L 391.726466 70.488693 
L 393.066933 71.287193 
L 394.407401 72.313061 
L 396.082986 73.926521 
L 397.75857 75.873987 
L 402.115091 81.181984 
L 403.120441 81.955673 
L 403.790675 82.260631 
L 404.460909 82.36651 
L 404.460909 82.36651 
" clip-path="url(#p92b7fc4b59)" style="fill: none; stroke: #000000; stroke-opacity: 0.4; stroke-width: 1.5; stroke-linecap: square"/>
   </g>
   <g id="line2d_59">
    <path d="M 69.679091 70.498897 
L 360.560591 70.392482 
L 366.592695 70.143009 
L 370.949216 69.757686 
L 374.970619 69.185092 
L 385.024127 67.571829 
L 386.699712 67.632605 
L 388.040179 67.869428 
L 389.380647 68.3274 
L 390.721115 69.063363 
L 391.726466 69.835655 
L 392.731816 70.82875 
L 393.737167 72.072918 
L 394.742518 73.598827 
L 396.082986 76.121479 
L 397.423453 79.248821 
L 398.763921 82.984375 
L 400.774623 89.420782 
L 402.450207 94.52752 
L 403.120441 96.065694 
L 403.790675 97.083107 
L 404.125792 97.352079 
L 404.460909 97.443672 
L 404.460909 97.443672 
" clip-path="url(#p92b7fc4b59)" style="fill: none; stroke: #000000; stroke-opacity: 0.4; stroke-width: 1.5; stroke-linecap: square"/>
   </g>
   <g id="line2d_60">
    <path d="M 69.679091 70.498897 
L 358.885006 70.395273 
L 364.581994 70.147628 
L 368.603397 69.768564 
L 371.954566 69.250962 
L 375.305736 68.5152 
L 379.997373 67.211946 
L 383.348542 66.372167 
L 385.359244 66.110322 
L 386.699712 66.124716 
L 388.040179 66.354124 
L 389.04553 66.706351 
L 390.050881 67.248023 
L 391.056232 68.015121 
L 392.061582 69.048525 
L 393.066933 70.394975 
L 394.072284 72.108311 
L 395.077635 74.250965 
L 396.082986 76.895614 
L 397.088337 80.126497 
L 398.093687 84.038972 
L 399.099038 88.733188 
L 400.439506 96.338372 
L 402.115091 107.67363 
L 403.120441 114.206913 
L 403.790675 117.298757 
L 404.125792 118.163953 
L 404.460909 118.463627 
L 404.460909 118.463627 
" clip-path="url(#p92b7fc4b59)" style="fill: none; stroke: #000000; stroke-opacity: 0.4; stroke-width: 1.5; stroke-linecap: square"/>
   </g>
   <g id="line2d_61">
    <path d="M 69.679091 70.498897 
L 358.885006 70.395273 
L 364.581994 70.147628 
L 368.603397 69.768564 
L 371.954566 69.250962 
L 375.305736 68.5152 
L 379.997373 67.211946 
L 383.348542 66.372167 
L 385.359244 66.110322 
L 386.699712 66.124716 
L 388.040179 66.354124 
L 389.04553 66.706351 
L 390.050881 67.248023 
L 391.056232 68.015121 
L 392.061582 69.048525 
L 393.066933 70.394975 
L 394.072284 72.108311 
L 395.077635 74.250965 
L 396.082986 76.895614 
L 397.088337 80.126497 
L 398.093687 84.038972 
L 399.099038 88.733188 
L 400.439506 96.338372 
L 402.115091 107.67363 
L 403.120441 114.206913 
L 403.790675 117.298757 
L 404.125792 118.163953 
L 404.460909 118.463627 
L 404.460909 118.463627 
" clip-path="url(#p92b7fc4b59)" style="fill: none; stroke: #000000; stroke-opacity: 0.4; stroke-width: 1.5; stroke-linecap: square"/>
   </g>
   <g id="line2d_62">
    <path d="M 69.679091 70.498897 
L 357.879655 70.396231 
L 363.241526 70.155377 
L 367.262929 69.758187 
L 370.614099 69.195757 
L 373.630151 68.457781 
L 376.646203 67.49415 
L 384.353893 64.862951 
L 386.029478 64.628937 
L 387.369945 64.668375 
L 388.375296 64.874032 
L 389.380647 65.267262 
L 390.385998 65.886113 
L 391.391349 66.774438 
L 392.396699 67.983439 
L 393.40205 69.573897 
L 394.407401 71.619429 
L 395.412752 74.211353 
L 396.418103 77.466125 
L 397.423453 81.537069 
L 398.428804 86.633481 
L 399.434155 93.05271 
L 400.439506 101.23446 
L 401.444857 111.843757 
L 402.450207 125.797954 
L 404.125792 152.942952 
L 404.460909 154.540838 
L 404.460909 154.540838 
" clip-path="url(#p92b7fc4b59)" style="fill: none; stroke: #000000; stroke-opacity: 0.4; stroke-width: 1.5; stroke-linecap: square"/>
   </g>
   <g id="line2d_63">
    <path d="M 69.679091 70.498897 
L 357.879655 70.396231 
L 363.241526 70.155377 
L 367.262929 69.758187 
L 370.614099 69.195757 
L 373.630151 68.457781 
L 376.646203 67.49415 
L 384.353893 64.862951 
L 386.029478 64.628937 
L 387.369945 64.668375 
L 388.375296 64.874032 
L 389.380647 65.267262 
L 390.385998 65.886113 
L 391.391349 66.774438 
L 392.396699 67.983439 
L 393.40205 69.573897 
L 394.407401 71.619429 
L 395.412752 74.211353 
L 396.418103 77.466125 
L 397.423453 81.537069 
L 398.428804 86.633481 
L 399.434155 93.05271 
L 400.439506 101.23446 
L 401.444857 111.843757 
L 402.450207 125.797954 
L 404.125792 152.942952 
L 404.460909 154.540838 
L 404.460909 154.540838 
" clip-path="url(#p92b7fc4b59)" style="fill: none; stroke: #000000; stroke-opacity: 0.4; stroke-width: 1.5; stroke-linecap: square"/>
   </g>
   <g id="line2d_64">
    <path d="M 69.679091 70.498897 
L 357.209421 70.396561 
L 362.571292 70.14149 
L 366.257578 69.758967 
L 369.273631 69.239377 
L 371.954566 68.570561 
L 374.635502 67.680528 
L 377.651554 66.434223 
L 384.018776 63.685098 
L 385.694361 63.257038 
L 387.034828 63.132319 
L 388.040179 63.209824 
L 389.04553 63.470546 
L 390.050881 63.952355 
L 391.056232 64.69879 
L 392.061582 65.760618 
L 393.066933 67.198111 
L 394.072284 69.084426 
L 395.077635 71.510744 
L 396.082986 74.594361 
L 397.088337 78.491975 
L 398.093687 83.422755 
L 399.099038 89.71134 
L 400.104389 97.875852 
L 400.774623 104.784955 
L 401.444857 113.38125 
L 402.115091 124.475936 
L 402.785324 139.70132 
L 403.455558 163.223476 
L 403.790675 181.951112 
L 404.125792 213.170379 
L 404.460909 272.370818 
L 404.460909 272.370818 
" clip-path="url(#p92b7fc4b59)" style="fill: none; stroke: #000000; stroke-opacity: 0.4; stroke-width: 1.5; stroke-linecap: square"/>
   </g>
   <g id="line2d_65">
    <path d="M 69.679091 70.498897 
L 356.874304 70.392787 
L 361.901058 70.143896 
L 365.587345 69.748546 
L 368.603397 69.202643 
L 371.284333 68.48874 
L 373.965268 67.521537 
L 376.646203 66.300909 
L 380.667607 64.159898 
L 383.683659 62.642224 
L 385.359244 62.013627 
L 386.699712 61.710725 
L 388.040179 61.656424 
L 389.04553 61.824575 
L 390.050881 62.212721 
L 391.056232 62.863282 
L 392.061582 63.825262 
L 393.066933 65.156225 
L 394.072284 66.925171 
L 395.077635 69.216776 
L 396.082986 72.137804 
L 397.088337 75.827064 
L 398.093687 80.471391 
L 399.099038 86.332085 
L 400.104389 93.789344 
L 401.10974 103.412914 
L 402.115091 116.025519 
L 403.120441 132.264706 
L 403.790675 143.567001 
L 404.125792 147.618129 
L 404.460909 149.159863 
L 404.460909 149.159863 
" clip-path="url(#p92b7fc4b59)" style="fill: none; stroke: #000000; stroke-opacity: 0.4; stroke-width: 1.5; stroke-linecap: square"/>
   </g>
   <g id="line2d_66">
    <path d="M 404.460909 282.982 
L 404.460909 49.536 
" clip-path="url(#p92b7fc4b59)" style="fill: none; stroke: #000000; stroke-linecap: square"/>
   </g>
   <g id="line2d_67">
    <path d="M 286.70889 282.982 
L 286.70889 49.536 
" clip-path="url(#p92b7fc4b59)" style="fill: none; stroke: #000000; stroke-width: 3; stroke-linecap: square"/>
   </g>
   <g id="patch_3">
    <path d="M 52.94 282.982 
L 52.94 49.536 
" style="fill: none; stroke: #000000; stroke-width: 0.8; stroke-linejoin: miter; stroke-linecap: square"/>
   </g>
   <g id="patch_4">
    <path d="M 421.2 282.982 
L 421.2 49.536 
" style="fill: none; stroke: #000000; stroke-width: 0.8; stroke-linejoin: miter; stroke-linecap: square"/>
   </g>
   <g id="patch_5">
    <path d="M 52.94 282.982 
L 421.2 282.982 
" style="fill: none; stroke: #000000; stroke-width: 0.8; stroke-linejoin: miter; stroke-linecap: square"/>
   </g>
   <g id="patch_6">
    <path d="M 52.94 49.536 
L 421.2 49.536 
" style="fill: none; stroke: #000000; stroke-width: 0.8; stroke-linejoin: miter; stroke-linecap: square"/>
   </g>
   <g id="legend_1">
    <g id="patch_7">
     <path d="M 59.94 277.982 
L 203.830625 277.982 
Q 205.830625 277.982 205.830625 275.982 
L 205.830625 247.62575 
Q 205.830625 245.62575 203.830625 245.62575 
L 59.94 245.62575 
Q 57.94 245.62575 57.94 247.62575 
L 57.94 275.982 
Q 57.94 277.982 59.94 277.982 
z
" style="fill: #ffffff; opacity: 0.8; stroke: #cccccc; stroke-linejoin: miter"/>
    </g>
    <g id="line2d_68">
     <path d="M 61.94 253.724187 
L 71.94 253.724187 
L 81.94 253.724187 
" style="fill: none; stroke: #000000; stroke-linecap: square"/>
    </g>
    <g id="text_10">
     <!-- Nyquist of Samplerate -->
     <g transform="translate(89.94 257.224187) scale(0.1 -0.1)">
      <defs>
       <path id="DejaVuSans-4e" d="M 628 4666 
L 1478 4666 
L 3547 763 
L 3547 4666 
L 4159 4666 
L 4159 0 
L 3309 0 
L 1241 3903 
L 1241 0 
L 628 0 
L 628 4666 
z
" transform="scale(0.015625)"/>
       <path id="DejaVuSans-79" d="M 2059 -325 
Q 1816 -950 1584 -1140 
Q 1353 -1331 966 -1331 
L 506 -1331 
L 506 -850 
L 844 -850 
Q 1081 -850 1212 -737 
Q 1344 -625 1503 -206 
L 1606 56 
L 191 3500 
L 800 3500 
L 1894 763 
L 2988 3500 
L 3597 3500 
L 2059 -325 
z
" transform="scale(0.015625)"/>
       <path id="DejaVuSans-71" d="M 947 1747 
Q 947 1113 1208 752 
Q 1469 391 1925 391 
Q 2381 391 2643 752 
Q 2906 1113 2906 1747 
Q 2906 2381 2643 2742 
Q 2381 3103 1925 3103 
Q 1469 3103 1208 2742 
Q 947 2381 947 1747 
z
M 2906 525 
Q 2725 213 2448 61 
Q 2172 -91 1784 -91 
Q 1150 -91 751 415 
Q 353 922 353 1747 
Q 353 2572 751 3078 
Q 1150 3584 1784 3584 
Q 2172 3584 2448 3432 
Q 2725 3281 2906 2969 
L 2906 3500 
L 3481 3500 
L 3481 -1331 
L 2906 -1331 
L 2906 525 
z
" transform="scale(0.015625)"/>
       <path id="DejaVuSans-73" d="M 2834 3397 
L 2834 2853 
Q 2591 2978 2328 3040 
Q 2066 3103 1784 3103 
Q 1356 3103 1142 2972 
Q 928 2841 928 2578 
Q 928 2378 1081 2264 
Q 1234 2150 1697 2047 
L 1894 2003 
Q 2506 1872 2764 1633 
Q 3022 1394 3022 966 
Q 3022 478 2636 193 
Q 2250 -91 1575 -91 
Q 1294 -91 989 -36 
Q 684 19 347 128 
L 347 722 
Q 666 556 975 473 
Q 1284 391 1588 391 
Q 1994 391 2212 530 
Q 2431 669 2431 922 
Q 2431 1156 2273 1281 
Q 2116 1406 1581 1522 
L 1381 1569 
Q 847 1681 609 1914 
Q 372 2147 372 2553 
Q 372 3047 722 3315 
Q 1072 3584 1716 3584 
Q 2034 3584 2315 3537 
Q 2597 3491 2834 3397 
z
" transform="scale(0.015625)"/>
       <path id="DejaVuSans-6f" d="M 1959 3097 
Q 1497 3097 1228 2736 
Q 959 2375 959 1747 
Q 959 1119 1226 758 
Q 1494 397 1959 397 
Q 2419 397 2687 759 
Q 2956 1122 2956 1747 
Q 2956 2369 2687 2733 
Q 2419 3097 1959 3097 
z
M 1959 3584 
Q 2709 3584 3137 3096 
Q 3566 2609 3566 1747 
Q 3566 888 3137 398 
Q 2709 -91 1959 -91 
Q 1206 -91 779 398 
Q 353 888 353 1747 
Q 353 2609 779 3096 
Q 1206 3584 1959 3584 
z
" transform="scale(0.015625)"/>
       <path id="DejaVuSans-66" d="M 2375 4863 
L 2375 4384 
L 1825 4384 
Q 1516 4384 1395 4259 
Q 1275 4134 1275 3809 
L 1275 3500 
L 2222 3500 
L 2222 3053 
L 1275 3053 
L 1275 0 
L 697 0 
L 697 3053 
L 147 3053 
L 147 3500 
L 697 3500 
L 697 3744 
Q 697 4328 969 4595 
Q 1241 4863 1831 4863 
L 2375 4863 
z
" transform="scale(0.015625)"/>
       <path id="DejaVuSans-53" d="M 3425 4513 
L 3425 3897 
Q 3066 4069 2747 4153 
Q 2428 4238 2131 4238 
Q 1616 4238 1336 4038 
Q 1056 3838 1056 3469 
Q 1056 3159 1242 3001 
Q 1428 2844 1947 2747 
L 2328 2669 
Q 3034 2534 3370 2195 
Q 3706 1856 3706 1288 
Q 3706 609 3251 259 
Q 2797 -91 1919 -91 
Q 1588 -91 1214 -16 
Q 841 59 441 206 
L 441 856 
Q 825 641 1194 531 
Q 1563 422 1919 422 
Q 2459 422 2753 634 
Q 3047 847 3047 1241 
Q 3047 1584 2836 1778 
Q 2625 1972 2144 2069 
L 1759 2144 
Q 1053 2284 737 2584 
Q 422 2884 422 3419 
Q 422 4038 858 4394 
Q 1294 4750 2059 4750 
Q 2388 4750 2728 4690 
Q 3069 4631 3425 4513 
z
" transform="scale(0.015625)"/>
       <path id="DejaVuSans-6d" d="M 3328 2828 
Q 3544 3216 3844 3400 
Q 4144 3584 4550 3584 
Q 5097 3584 5394 3201 
Q 5691 2819 5691 2113 
L 5691 0 
L 5113 0 
L 5113 2094 
Q 5113 2597 4934 2840 
Q 4756 3084 4391 3084 
Q 3944 3084 3684 2787 
Q 3425 2491 3425 1978 
L 3425 0 
L 2847 0 
L 2847 2094 
Q 2847 2600 2669 2842 
Q 2491 3084 2119 3084 
Q 1678 3084 1418 2786 
Q 1159 2488 1159 1978 
L 1159 0 
L 581 0 
L 581 3500 
L 1159 3500 
L 1159 2956 
Q 1356 3278 1631 3431 
Q 1906 3584 2284 3584 
Q 2666 3584 2933 3390 
Q 3200 3197 3328 2828 
z
" transform="scale(0.015625)"/>
       <path id="DejaVuSans-70" d="M 1159 525 
L 1159 -1331 
L 581 -1331 
L 581 3500 
L 1159 3500 
L 1159 2969 
Q 1341 3281 1617 3432 
Q 1894 3584 2278 3584 
Q 2916 3584 3314 3078 
Q 3713 2572 3713 1747 
Q 3713 922 3314 415 
Q 2916 -91 2278 -91 
Q 1894 -91 1617 61 
Q 1341 213 1159 525 
z
M 3116 1747 
Q 3116 2381 2855 2742 
Q 2594 3103 2138 3103 
Q 1681 3103 1420 2742 
Q 1159 2381 1159 1747 
Q 1159 1113 1420 752 
Q 1681 391 2138 391 
Q 2594 391 2855 752 
Q 3116 1113 3116 1747 
z
" transform="scale(0.015625)"/>
       <path id="DejaVuSans-6c" d="M 603 4863 
L 1178 4863 
L 1178 0 
L 603 0 
L 603 4863 
z
" transform="scale(0.015625)"/>
       <path id="DejaVuSans-72" d="M 2631 2963 
Q 2534 3019 2420 3045 
Q 2306 3072 2169 3072 
Q 1681 3072 1420 2755 
Q 1159 2438 1159 1844 
L 1159 0 
L 581 0 
L 581 3500 
L 1159 3500 
L 1159 2956 
Q 1341 3275 1631 3429 
Q 1922 3584 2338 3584 
Q 2397 3584 2469 3576 
Q 2541 3569 2628 3553 
L 2631 2963 
z
" transform="scale(0.015625)"/>
      </defs>
      <use xlink:href="#DejaVuSans-4e"/>
      <use xlink:href="#DejaVuSans-79" x="74.804688"/>
      <use xlink:href="#DejaVuSans-71" x="133.984375"/>
      <use xlink:href="#DejaVuSans-75" x="197.460938"/>
      <use xlink:href="#DejaVuSans-69" x="260.839844"/>
      <use xlink:href="#DejaVuSans-73" x="288.623047"/>
      <use xlink:href="#DejaVuSans-74" x="340.722656"/>
      <use xlink:href="#DejaVuSans-20" x="379.931641"/>
      <use xlink:href="#DejaVuSans-6f" x="411.71875"/>
      <use xlink:href="#DejaVuSans-66" x="472.900391"/>
      <use xlink:href="#DejaVuSans-20" x="508.105469"/>
      <use xlink:href="#DejaVuSans-53" x="539.892578"/>
      <use xlink:href="#DejaVuSans-61" x="603.369141"/>
      <use xlink:href="#DejaVuSans-6d" x="664.648438"/>
      <use xlink:href="#DejaVuSans-70" x="762.060547"/>
      <use xlink:href="#DejaVuSans-6c" x="825.537109"/>
      <use xlink:href="#DejaVuSans-65" x="853.320312"/>
      <use xlink:href="#DejaVuSans-72" x="914.84375"/>
      <use xlink:href="#DejaVuSans-61" x="955.957031"/>
      <use xlink:href="#DejaVuSans-74" x="1017.236328"/>
      <use xlink:href="#DejaVuSans-65" x="1056.445312"/>
     </g>
    </g>
    <g id="line2d_69">
     <path d="M 61.94 268.402312 
L 71.94 268.402312 
L 81.94 268.402312 
" style="fill: none; stroke: #000000; stroke-width: 3; stroke-linecap: square"/>
    </g>
    <g id="text_11">
     <!-- Typical Reporting Rate -->
     <g transform="translate(89.94 271.902312) scale(0.1 -0.1)">
      <defs>
       <path id="DejaVuSans-54" d="M -19 4666 
L 3928 4666 
L 3928 4134 
L 2272 4134 
L 2272 0 
L 1638 0 
L 1638 4134 
L -19 4134 
L -19 4666 
z
" transform="scale(0.015625)"/>
       <path id="DejaVuSans-63" d="M 3122 3366 
L 3122 2828 
Q 2878 2963 2633 3030 
Q 2388 3097 2138 3097 
Q 1578 3097 1268 2742 
Q 959 2388 959 1747 
Q 959 1106 1268 751 
Q 1578 397 2138 397 
Q 2388 397 2633 464 
Q 2878 531 3122 666 
L 3122 134 
Q 2881 22 2623 -34 
Q 2366 -91 2075 -91 
Q 1284 -91 818 406 
Q 353 903 353 1747 
Q 353 2603 823 3093 
Q 1294 3584 2113 3584 
Q 2378 3584 2631 3529 
Q 2884 3475 3122 3366 
z
" transform="scale(0.015625)"/>
       <path id="DejaVuSans-52" d="M 2841 2188 
Q 3044 2119 3236 1894 
Q 3428 1669 3622 1275 
L 4263 0 
L 3584 0 
L 2988 1197 
Q 2756 1666 2539 1819 
Q 2322 1972 1947 1972 
L 1259 1972 
L 1259 0 
L 628 0 
L 628 4666 
L 2053 4666 
Q 2853 4666 3247 4331 
Q 3641 3997 3641 3322 
Q 3641 2881 3436 2590 
Q 3231 2300 2841 2188 
z
M 1259 4147 
L 1259 2491 
L 2053 2491 
Q 2509 2491 2742 2702 
Q 2975 2913 2975 3322 
Q 2975 3731 2742 3939 
Q 2509 4147 2053 4147 
L 1259 4147 
z
" transform="scale(0.015625)"/>
      </defs>
      <use xlink:href="#DejaVuSans-54"/>
      <use xlink:href="#DejaVuSans-79" x="45.458984"/>
      <use xlink:href="#DejaVuSans-70" x="104.638672"/>
      <use xlink:href="#DejaVuSans-69" x="168.115234"/>
      <use xlink:href="#DejaVuSans-63" x="195.898438"/>
      <use xlink:href="#DejaVuSans-61" x="250.878906"/>
      <use xlink:href="#DejaVuSans-6c" x="312.158203"/>
      <use xlink:href="#DejaVuSans-20" x="339.941406"/>
      <use xlink:href="#DejaVuSans-52" x="371.728516"/>
      <use xlink:href="#DejaVuSans-65" x="436.710938"/>
      <use xlink:href="#DejaVuSans-70" x="498.234375"/>
      <use xlink:href="#DejaVuSans-6f" x="561.710938"/>
      <use xlink:href="#DejaVuSans-72" x="622.892578"/>
      <use xlink:href="#DejaVuSans-74" x="664.005859"/>
      <use xlink:href="#DejaVuSans-69" x="703.214844"/>
      <use xlink:href="#DejaVuSans-6e" x="730.998047"/>
      <use xlink:href="#DejaVuSans-67" x="794.376953"/>
      <use xlink:href="#DejaVuSans-20" x="857.853516"/>
      <use xlink:href="#DejaVuSans-52" x="889.640625"/>
      <use xlink:href="#DejaVuSans-61" x="956.873047"/>
      <use xlink:href="#DejaVuSans-74" x="1018.152344"/>
      <use xlink:href="#DejaVuSans-65" x="1057.361328"/>
     </g>
    </g>
   </g>
  </g>
  <g id="axes_2">
   <g id="patch_8">
    <path d="M 52.94 530.728 
L 421.2 530.728 
L 421.2 297.282 
L 52.94 297.282 
z
" style="fill: #ffffff"/>
   </g>
   <g id="matplotlib.axis_3">
    <g id="xtick_38">
     <g id="line2d_70">
      <g>
       <use xlink:href="#md3a471510d" x="105.695355" y="530.728" style="stroke: #000000; stroke-width: 0.8"/>
      </g>
     </g>
     <g id="text_12">
      <!-- $\mathdefault{10^{1}}$ -->
      <g transform="translate(96.895355 545.326437) scale(0.1 -0.1)">
       <use xlink:href="#DejaVuSans-31" transform="translate(0 0.684375)"/>
       <use xlink:href="#DejaVuSans-30" transform="translate(63.623047 0.684375)"/>
       <use xlink:href="#DejaVuSans-31" transform="translate(128.203125 38.965625) scale(0.7)"/>
      </g>
     </g>
    </g>
    <g id="xtick_39">
     <g id="line2d_71">
      <g>
       <use xlink:href="#md3a471510d" x="196.202122" y="530.728" style="stroke: #000000; stroke-width: 0.8"/>
      </g>
     </g>
     <g id="text_13">
      <!-- $\mathdefault{10^{2}}$ -->
      <g transform="translate(187.402122 545.326437) scale(0.1 -0.1)">
       <use xlink:href="#DejaVuSans-31" transform="translate(0 0.765625)"/>
       <use xlink:href="#DejaVuSans-30" transform="translate(63.623047 0.765625)"/>
       <use xlink:href="#DejaVuSans-32" transform="translate(128.203125 39.046875) scale(0.7)"/>
      </g>
     </g>
    </g>
    <g id="xtick_40">
     <g id="line2d_72">
      <g>
       <use xlink:href="#md3a471510d" x="286.70889" y="530.728" style="stroke: #000000; stroke-width: 0.8"/>
      </g>
     </g>
     <g id="text_14">
      <!-- $\mathdefault{10^{3}}$ -->
      <g transform="translate(277.90889 545.326437) scale(0.1 -0.1)">
       <use xlink:href="#DejaVuSans-31" transform="translate(0 0.765625)"/>
       <use xlink:href="#DejaVuSans-30" transform="translate(63.623047 0.765625)"/>
       <use xlink:href="#DejaVuSans-33" transform="translate(128.203125 39.046875) scale(0.7)"/>
      </g>
     </g>
    </g>
    <g id="xtick_41">
     <g id="line2d_73">
      <g>
       <use xlink:href="#md3a471510d" x="377.215657" y="530.728" style="stroke: #000000; stroke-width: 0.8"/>
      </g>
     </g>
     <g id="text_15">
      <!-- $\mathdefault{10^{4}}$ -->
      <g transform="translate(368.415657 545.326437) scale(0.1 -0.1)">
       <defs>
        <path id="DejaVuSans-34" d="M 2419 4116 
L 825 1625 
L 2419 1625 
L 2419 4116 
z
M 2253 4666 
L 3047 4666 
L 3047 1625 
L 3713 1625 
L 3713 1100 
L 3047 1100 
L 3047 0 
L 2419 0 
L 2419 1100 
L 313 1100 
L 313 1709 
L 2253 4666 
z
" transform="scale(0.015625)"/>
       </defs>
       <use xlink:href="#DejaVuSans-31" transform="translate(0 0.684375)"/>
       <use xlink:href="#DejaVuSans-30" transform="translate(63.623047 0.684375)"/>
       <use xlink:href="#DejaVuSans-34" transform="translate(128.203125 38.965625) scale(0.7)"/>
      </g>
     </g>
    </g>
    <g id="xtick_42">
     <g id="line2d_74">
      <g>
       <use xlink:href="#m3b92e4d061" x="58.37129" y="530.728" style="stroke: #000000; stroke-width: 0.6"/>
      </g>
     </g>
    </g>
    <g id="xtick_43">
     <g id="line2d_75">
      <g>
       <use xlink:href="#m3b92e4d061" x="69.679091" y="530.728" style="stroke: #000000; stroke-width: 0.6"/>
      </g>
     </g>
    </g>
    <g id="xtick_44">
     <g id="line2d_76">
      <g>
       <use xlink:href="#m3b92e4d061" x="78.450103" y="530.728" style="stroke: #000000; stroke-width: 0.6"/>
      </g>
     </g>
    </g>
    <g id="xtick_45">
     <g id="line2d_77">
      <g>
       <use xlink:href="#m3b92e4d061" x="85.616542" y="530.728" style="stroke: #000000; stroke-width: 0.6"/>
      </g>
     </g>
    </g>
    <g id="xtick_46">
     <g id="line2d_78">
      <g>
       <use xlink:href="#m3b92e4d061" x="91.675679" y="530.728" style="stroke: #000000; stroke-width: 0.6"/>
      </g>
     </g>
    </g>
    <g id="xtick_47">
     <g id="line2d_79">
      <g>
       <use xlink:href="#m3b92e4d061" x="96.924343" y="530.728" style="stroke: #000000; stroke-width: 0.6"/>
      </g>
     </g>
    </g>
    <g id="xtick_48">
     <g id="line2d_80">
      <g>
       <use xlink:href="#m3b92e4d061" x="101.553992" y="530.728" style="stroke: #000000; stroke-width: 0.6"/>
      </g>
     </g>
    </g>
    <g id="xtick_49">
     <g id="line2d_81">
      <g>
       <use xlink:href="#m3b92e4d061" x="132.940607" y="530.728" style="stroke: #000000; stroke-width: 0.6"/>
      </g>
     </g>
    </g>
    <g id="xtick_50">
     <g id="line2d_82">
      <g>
       <use xlink:href="#m3b92e4d061" x="148.878057" y="530.728" style="stroke: #000000; stroke-width: 0.6"/>
      </g>
     </g>
    </g>
    <g id="xtick_51">
     <g id="line2d_83">
      <g>
       <use xlink:href="#m3b92e4d061" x="160.185858" y="530.728" style="stroke: #000000; stroke-width: 0.6"/>
      </g>
     </g>
    </g>
    <g id="xtick_52">
     <g id="line2d_84">
      <g>
       <use xlink:href="#m3b92e4d061" x="168.95687" y="530.728" style="stroke: #000000; stroke-width: 0.6"/>
      </g>
     </g>
    </g>
    <g id="xtick_53">
     <g id="line2d_85">
      <g>
       <use xlink:href="#m3b92e4d061" x="176.123309" y="530.728" style="stroke: #000000; stroke-width: 0.6"/>
      </g>
     </g>
    </g>
    <g id="xtick_54">
     <g id="line2d_86">
      <g>
       <use xlink:href="#m3b92e4d061" x="182.182447" y="530.728" style="stroke: #000000; stroke-width: 0.6"/>
      </g>
     </g>
    </g>
    <g id="xtick_55">
     <g id="line2d_87">
      <g>
       <use xlink:href="#m3b92e4d061" x="187.43111" y="530.728" style="stroke: #000000; stroke-width: 0.6"/>
      </g>
     </g>
    </g>
    <g id="xtick_56">
     <g id="line2d_88">
      <g>
       <use xlink:href="#m3b92e4d061" x="192.06076" y="530.728" style="stroke: #000000; stroke-width: 0.6"/>
      </g>
     </g>
    </g>
    <g id="xtick_57">
     <g id="line2d_89">
      <g>
       <use xlink:href="#m3b92e4d061" x="223.447374" y="530.728" style="stroke: #000000; stroke-width: 0.6"/>
      </g>
     </g>
    </g>
    <g id="xtick_58">
     <g id="line2d_90">
      <g>
       <use xlink:href="#m3b92e4d061" x="239.384825" y="530.728" style="stroke: #000000; stroke-width: 0.6"/>
      </g>
     </g>
    </g>
    <g id="xtick_59">
     <g id="line2d_91">
      <g>
       <use xlink:href="#m3b92e4d061" x="250.692626" y="530.728" style="stroke: #000000; stroke-width: 0.6"/>
      </g>
     </g>
    </g>
    <g id="xtick_60">
     <g id="line2d_92">
      <g>
       <use xlink:href="#m3b92e4d061" x="259.463638" y="530.728" style="stroke: #000000; stroke-width: 0.6"/>
      </g>
     </g>
    </g>
    <g id="xtick_61">
     <g id="line2d_93">
      <g>
       <use xlink:href="#m3b92e4d061" x="266.630077" y="530.728" style="stroke: #000000; stroke-width: 0.6"/>
      </g>
     </g>
    </g>
    <g id="xtick_62">
     <g id="line2d_94">
      <g>
       <use xlink:href="#m3b92e4d061" x="272.689214" y="530.728" style="stroke: #000000; stroke-width: 0.6"/>
      </g>
     </g>
    </g>
    <g id="xtick_63">
     <g id="line2d_95">
      <g>
       <use xlink:href="#m3b92e4d061" x="277.937878" y="530.728" style="stroke: #000000; stroke-width: 0.6"/>
      </g>
     </g>
    </g>
    <g id="xtick_64">
     <g id="line2d_96">
      <g>
       <use xlink:href="#m3b92e4d061" x="282.567527" y="530.728" style="stroke: #000000; stroke-width: 0.6"/>
      </g>
     </g>
    </g>
    <g id="xtick_65">
     <g id="line2d_97">
      <g>
       <use xlink:href="#m3b92e4d061" x="313.954142" y="530.728" style="stroke: #000000; stroke-width: 0.6"/>
      </g>
     </g>
    </g>
    <g id="xtick_66">
     <g id="line2d_98">
      <g>
       <use xlink:href="#m3b92e4d061" x="329.891592" y="530.728" style="stroke: #000000; stroke-width: 0.6"/>
      </g>
     </g>
    </g>
    <g id="xtick_67">
     <g id="line2d_99">
      <g>
       <use xlink:href="#m3b92e4d061" x="341.199393" y="530.728" style="stroke: #000000; stroke-width: 0.6"/>
      </g>
     </g>
    </g>
    <g id="xtick_68">
     <g id="line2d_100">
      <g>
       <use xlink:href="#m3b92e4d061" x="349.970405" y="530.728" style="stroke: #000000; stroke-width: 0.6"/>
      </g>
     </g>
    </g>
    <g id="xtick_69">
     <g id="line2d_101">
      <g>
       <use xlink:href="#m3b92e4d061" x="357.136844" y="530.728" style="stroke: #000000; stroke-width: 0.6"/>
      </g>
     </g>
    </g>
    <g id="xtick_70">
     <g id="line2d_102">
      <g>
       <use xlink:href="#m3b92e4d061" x="363.195982" y="530.728" style="stroke: #000000; stroke-width: 0.6"/>
      </g>
     </g>
    </g>
    <g id="xtick_71">
     <g id="line2d_103">
      <g>
       <use xlink:href="#m3b92e4d061" x="368.444645" y="530.728" style="stroke: #000000; stroke-width: 0.6"/>
      </g>
     </g>
    </g>
    <g id="xtick_72">
     <g id="line2d_104">
      <g>
       <use xlink:href="#m3b92e4d061" x="373.074295" y="530.728" style="stroke: #000000; stroke-width: 0.6"/>
      </g>
     </g>
    </g>
    <g id="xtick_73">
     <g id="line2d_105">
      <g>
       <use xlink:href="#m3b92e4d061" x="404.460909" y="530.728" style="stroke: #000000; stroke-width: 0.6"/>
      </g>
     </g>
    </g>
    <g id="xtick_74">
     <g id="line2d_106">
      <g>
       <use xlink:href="#m3b92e4d061" x="420.39836" y="530.728" style="stroke: #000000; stroke-width: 0.6"/>
      </g>
     </g>
    </g>
    <g id="text_16">
     <!-- Frequency [Hz] -->
     <g transform="translate(199.365312 559.004563) scale(0.1 -0.1)">
      <defs>
       <path id="DejaVuSans-46" d="M 628 4666 
L 3309 4666 
L 3309 4134 
L 1259 4134 
L 1259 2759 
L 3109 2759 
L 3109 2228 
L 1259 2228 
L 1259 0 
L 628 0 
L 628 4666 
z
" transform="scale(0.015625)"/>
       <path id="DejaVuSans-48" d="M 628 4666 
L 1259 4666 
L 1259 2753 
L 3553 2753 
L 3553 4666 
L 4184 4666 
L 4184 0 
L 3553 0 
L 3553 2222 
L 1259 2222 
L 1259 0 
L 628 0 
L 628 4666 
z
" transform="scale(0.015625)"/>
       <path id="DejaVuSans-7a" d="M 353 3500 
L 3084 3500 
L 3084 2975 
L 922 459 
L 3084 459 
L 3084 0 
L 275 0 
L 275 525 
L 2438 3041 
L 353 3041 
L 353 3500 
z
" transform="scale(0.015625)"/>
      </defs>
      <use xlink:href="#DejaVuSans-46"/>
      <use xlink:href="#DejaVuSans-72" x="50.269531"/>
      <use xlink:href="#DejaVuSans-65" x="89.132812"/>
      <use xlink:href="#DejaVuSans-71" x="150.65625"/>
      <use xlink:href="#DejaVuSans-75" x="214.132812"/>
      <use xlink:href="#DejaVuSans-65" x="277.511719"/>
      <use xlink:href="#DejaVuSans-6e" x="339.035156"/>
      <use xlink:href="#DejaVuSans-63" x="402.414062"/>
      <use xlink:href="#DejaVuSans-79" x="457.394531"/>
      <use xlink:href="#DejaVuSans-20" x="516.574219"/>
      <use xlink:href="#DejaVuSans-5b" x="548.361328"/>
      <use xlink:href="#DejaVuSans-48" x="587.375"/>
      <use xlink:href="#DejaVuSans-7a" x="662.570312"/>
      <use xlink:href="#DejaVuSans-5d" x="715.060547"/>
     </g>
    </g>
   </g>
   <g id="matplotlib.axis_4">
    <g id="ytick_9">
     <g id="line2d_107">
      <g>
       <use xlink:href="#m928d792afe" x="52.94" y="501.37271" style="stroke: #000000; stroke-width: 0.8"/>
      </g>
     </g>
     <g id="text_17">
      <!-- −80 -->
      <g transform="translate(24.835313 505.171929) scale(0.1 -0.1)">
       <defs>
        <path id="DejaVuSans-38" d="M 2034 2216 
Q 1584 2216 1326 1975 
Q 1069 1734 1069 1313 
Q 1069 891 1326 650 
Q 1584 409 2034 409 
Q 2484 409 2743 651 
Q 3003 894 3003 1313 
Q 3003 1734 2745 1975 
Q 2488 2216 2034 2216 
z
M 1403 2484 
Q 997 2584 770 2862 
Q 544 3141 544 3541 
Q 544 4100 942 4425 
Q 1341 4750 2034 4750 
Q 2731 4750 3128 4425 
Q 3525 4100 3525 3541 
Q 3525 3141 3298 2862 
Q 3072 2584 2669 2484 
Q 3125 2378 3379 2068 
Q 3634 1759 3634 1313 
Q 3634 634 3220 271 
Q 2806 -91 2034 -91 
Q 1263 -91 848 271 
Q 434 634 434 1313 
Q 434 1759 690 2068 
Q 947 2378 1403 2484 
z
M 1172 3481 
Q 1172 3119 1398 2916 
Q 1625 2713 2034 2713 
Q 2441 2713 2670 2916 
Q 2900 3119 2900 3481 
Q 2900 3844 2670 4047 
Q 2441 4250 2034 4250 
Q 1625 4250 1398 4047 
Q 1172 3844 1172 3481 
z
" transform="scale(0.015625)"/>
       </defs>
       <use xlink:href="#DejaVuSans-2212"/>
       <use xlink:href="#DejaVuSans-38" x="83.789062"/>
       <use xlink:href="#DejaVuSans-30" x="147.412109"/>
      </g>
     </g>
    </g>
    <g id="ytick_10">
     <g id="line2d_108">
      <g>
       <use xlink:href="#m928d792afe" x="52.94" y="453.002828" style="stroke: #000000; stroke-width: 0.8"/>
      </g>
     </g>
     <g id="text_18">
      <!-- −60 -->
      <g transform="translate(24.835313 456.802047) scale(0.1 -0.1)">
       <defs>
        <path id="DejaVuSans-36" d="M 2113 2584 
Q 1688 2584 1439 2293 
Q 1191 2003 1191 1497 
Q 1191 994 1439 701 
Q 1688 409 2113 409 
Q 2538 409 2786 701 
Q 3034 994 3034 1497 
Q 3034 2003 2786 2293 
Q 2538 2584 2113 2584 
z
M 3366 4563 
L 3366 3988 
Q 3128 4100 2886 4159 
Q 2644 4219 2406 4219 
Q 1781 4219 1451 3797 
Q 1122 3375 1075 2522 
Q 1259 2794 1537 2939 
Q 1816 3084 2150 3084 
Q 2853 3084 3261 2657 
Q 3669 2231 3669 1497 
Q 3669 778 3244 343 
Q 2819 -91 2113 -91 
Q 1303 -91 875 529 
Q 447 1150 447 2328 
Q 447 3434 972 4092 
Q 1497 4750 2381 4750 
Q 2619 4750 2861 4703 
Q 3103 4656 3366 4563 
z
" transform="scale(0.015625)"/>
       </defs>
       <use xlink:href="#DejaVuSans-2212"/>
       <use xlink:href="#DejaVuSans-36" x="83.789062"/>
       <use xlink:href="#DejaVuSans-30" x="147.412109"/>
      </g>
     </g>
    </g>
    <g id="ytick_11">
     <g id="line2d_109">
      <g>
       <use xlink:href="#m928d792afe" x="52.94" y="404.632946" style="stroke: #000000; stroke-width: 0.8"/>
      </g>
     </g>
     <g id="text_19">
      <!-- −40 -->
      <g transform="translate(24.835313 408.432165) scale(0.1 -0.1)">
       <use xlink:href="#DejaVuSans-2212"/>
       <use xlink:href="#DejaVuSans-34" x="83.789062"/>
       <use xlink:href="#DejaVuSans-30" x="147.412109"/>
      </g>
     </g>
    </g>
    <g id="ytick_12">
     <g id="line2d_110">
      <g>
       <use xlink:href="#m928d792afe" x="52.94" y="356.263064" style="stroke: #000000; stroke-width: 0.8"/>
      </g>
     </g>
     <g id="text_20">
      <!-- −20 -->
      <g transform="translate(24.835313 360.062283) scale(0.1 -0.1)">
       <use xlink:href="#DejaVuSans-2212"/>
       <use xlink:href="#DejaVuSans-32" x="83.789062"/>
       <use xlink:href="#DejaVuSans-30" x="147.412109"/>
      </g>
     </g>
    </g>
    <g id="ytick_13">
     <g id="line2d_111">
      <g>
       <use xlink:href="#m928d792afe" x="52.94" y="307.893182" style="stroke: #000000; stroke-width: 0.8"/>
      </g>
     </g>
     <g id="text_21">
      <!-- 0 -->
      <g transform="translate(39.5775 311.692401) scale(0.1 -0.1)">
       <use xlink:href="#DejaVuSans-30"/>
      </g>
     </g>
    </g>
    <g id="text_22">
     <!-- Phase [deg] -->
     <g transform="translate(18.755625 443.849531) rotate(-90) scale(0.1 -0.1)">
      <defs>
       <path id="DejaVuSans-50" d="M 1259 4147 
L 1259 2394 
L 2053 2394 
Q 2494 2394 2734 2622 
Q 2975 2850 2975 3272 
Q 2975 3691 2734 3919 
Q 2494 4147 2053 4147 
L 1259 4147 
z
M 628 4666 
L 2053 4666 
Q 2838 4666 3239 4311 
Q 3641 3956 3641 3272 
Q 3641 2581 3239 2228 
Q 2838 1875 2053 1875 
L 1259 1875 
L 1259 0 
L 628 0 
L 628 4666 
z
" transform="scale(0.015625)"/>
       <path id="DejaVuSans-68" d="M 3513 2113 
L 3513 0 
L 2938 0 
L 2938 2094 
Q 2938 2591 2744 2837 
Q 2550 3084 2163 3084 
Q 1697 3084 1428 2787 
Q 1159 2491 1159 1978 
L 1159 0 
L 581 0 
L 581 4863 
L 1159 4863 
L 1159 2956 
Q 1366 3272 1645 3428 
Q 1925 3584 2291 3584 
Q 2894 3584 3203 3211 
Q 3513 2838 3513 2113 
z
" transform="scale(0.015625)"/>
      </defs>
      <use xlink:href="#DejaVuSans-50"/>
      <use xlink:href="#DejaVuSans-68" x="60.302734"/>
      <use xlink:href="#DejaVuSans-61" x="123.681641"/>
      <use xlink:href="#DejaVuSans-73" x="184.960938"/>
      <use xlink:href="#DejaVuSans-65" x="237.060547"/>
      <use xlink:href="#DejaVuSans-20" x="298.583984"/>
      <use xlink:href="#DejaVuSans-5b" x="330.371094"/>
      <use xlink:href="#DejaVuSans-64" x="369.384766"/>
      <use xlink:href="#DejaVuSans-65" x="432.861328"/>
      <use xlink:href="#DejaVuSans-67" x="494.384766"/>
      <use xlink:href="#DejaVuSans-5d" x="557.861328"/>
     </g>
    </g>
   </g>
   <g id="line2d_112">
    <path d="M 69.679091 307.893182 
L 404.460909 307.893182 
L 404.460909 307.893182 
" clip-path="url(#pc84b819f98)" style="fill: none; stroke: #000000; stroke-opacity: 0.4; stroke-width: 1.5; stroke-linecap: square"/>
   </g>
   <g id="line2d_113">
    <path d="M 69.679091 307.894331 
L 251.31247 308.009935 
L 295.547905 308.252943 
L 323.027494 308.616199 
L 344.810095 309.124519 
L 370.278982 309.93522 
L 373.295034 310.287957 
L 375.640853 310.766333 
L 377.651554 311.392812 
L 379.327139 312.118709 
L 381.002724 313.073644 
L 382.678308 314.295865 
L 384.353893 315.81459 
L 386.029478 317.641616 
L 388.040179 320.215227 
L 390.721115 324.089622 
L 393.40205 327.861936 
L 394.742518 329.349576 
L 395.747869 330.117295 
L 396.418103 330.401007 
L 397.088337 330.458769 
L 397.75857 330.250954 
L 398.428804 329.737101 
L 399.099038 328.87775 
L 399.769272 327.637046 
L 400.439506 325.986208 
L 401.444857 322.707296 
L 402.450207 318.486158 
L 403.790675 311.644678 
L 404.460909 307.893182 
L 404.460909 307.893182 
" clip-path="url(#pc84b819f98)" style="fill: none; stroke: #000000; stroke-opacity: 0.4; stroke-width: 1.5; stroke-linecap: square"/>
   </g>
   <g id="line2d_114">
    <path d="M 69.679091 307.89548 
L 225.843583 308.015333 
L 269.073667 308.260077 
L 296.218139 308.625078 
L 315.990038 309.103071 
L 332.075651 309.708329 
L 348.161264 310.546034 
L 369.273631 311.829291 
L 371.954566 312.296381 
L 373.965268 312.86744 
L 375.640853 313.559332 
L 377.316437 314.515178 
L 378.656905 315.518008 
L 379.997373 316.774653 
L 381.337841 318.324008 
L 382.678308 320.202429 
L 384.018776 322.440664 
L 385.359244 325.060156 
L 387.034828 328.880702 
L 388.710413 333.279076 
L 390.721115 339.177415 
L 394.742518 351.262459 
L 395.747869 353.700446 
L 396.75322 355.524256 
L 397.423453 356.254436 
L 397.75857 356.434354 
L 398.093687 356.470589 
L 398.428804 356.346438 
L 398.763921 356.043973 
L 399.099038 355.54409 
L 399.769272 353.870567 
L 400.439506 351.156365 
L 401.10974 347.232508 
L 401.779974 341.955857 
L 402.450207 335.24982 
L 403.455558 322.653808 
L 404.460909 307.893182 
L 404.460909 307.893182 
" clip-path="url(#pc84b819f98)" style="fill: none; stroke: #000000; stroke-opacity: 0.4; stroke-width: 1.5; stroke-linecap: square"/>
   </g>
   <g id="line2d_115">
    <path d="M 69.679091 307.89663 
L 211.433554 308.020173 
L 253.993405 308.268166 
L 280.80276 308.634877 
L 300.574659 309.119682 
L 316.325155 309.723544 
L 329.394716 310.439817 
L 341.794042 311.343107 
L 367.933163 313.579405 
L 370.614099 314.092969 
L 372.6248 314.71263 
L 374.300385 315.467094 
L 375.640853 316.281906 
L 376.98132 317.334215 
L 378.321788 318.674709 
L 379.662256 320.357041 
L 381.002724 322.435773 
L 382.343191 324.96381 
L 383.683659 327.989371 
L 385.024127 331.552563 
L 386.364595 335.68155 
L 388.040179 341.654482 
L 389.715764 348.501988 
L 391.726466 357.721423 
L 396.75322 381.769882 
L 397.75857 385.320218 
L 398.428804 386.981559 
L 398.763921 387.520576 
L 399.099038 387.819423 
L 399.434155 387.836796 
L 399.769272 387.524655 
L 400.104389 386.827181 
L 400.439506 385.679709 
L 400.774623 384.007777 
L 401.444857 378.740893 
L 402.115091 370.237706 
L 402.785324 357.6714 
L 403.455558 370.936076 
L 404.125792 380.16568 
L 404.460909 383.872415 
L 404.460909 383.872415 
" clip-path="url(#pc84b819f98)" style="fill: none; stroke: #000000; stroke-opacity: 0.4; stroke-width: 1.5; stroke-linecap: square"/>
   </g>
   <g id="line2d_116">
    <path d="M 69.679091 307.897779 
L 201.380046 308.024291 
L 243.269663 308.273779 
L 269.743901 308.639591 
L 289.5158 309.127513 
L 304.931179 309.720133 
L 318.00074 310.43971 
L 329.394716 311.289001 
L 340.118458 312.315563 
L 365.922462 315.16439 
L 368.938514 315.700762 
L 370.949216 316.265097 
L 372.6248 316.947869 
L 373.965268 317.68985 
L 375.305736 318.658651 
L 376.646203 319.910112 
L 377.986671 321.505703 
L 379.327139 323.510934 
L 380.667607 325.993237 
L 382.008074 329.019439 
L 383.348542 332.652976 
L 384.68901 336.951028 
L 386.029478 341.961658 
L 387.369945 347.72098 
L 389.04553 356.003566 
L 390.721115 365.487301 
L 392.731816 378.360016 
L 395.077635 395.037643 
L 398.428804 419.285089 
L 399.434155 425.244721 
L 400.104389 428.199211 
L 400.439506 429.194314 
L 400.774623 429.747405 
L 401.10974 429.731177 
L 401.444857 428.974109 
L 401.779974 427.241208 
L 402.115091 424.205428 
L 402.450207 419.40608 
L 402.785324 412.192473 
L 403.120441 416.859078 
L 403.455558 417.048794 
L 403.790675 411.560254 
L 404.125792 415.138463 
L 404.460909 414.264108 
L 404.460909 414.264108 
" clip-path="url(#pc84b819f98)" style="fill: none; stroke: #000000; stroke-opacity: 0.4; stroke-width: 1.5; stroke-linecap: square"/>
   </g>
   <g id="line2d_117">
    <path d="M 69.679091 307.898928 
L 193.672357 308.027886 
L 235.226857 308.280896 
L 261.701095 308.653548 
L 281.137877 309.139925 
L 296.553256 309.73859 
L 309.2877 310.444389 
L 320.346558 311.271498 
L 330.400066 312.246662 
L 339.783341 313.378875 
L 352.852901 315.218199 
L 368.26828 317.491803 
L 370.278982 318.091681 
L 371.954566 318.807895 
L 373.295034 319.58349 
L 374.635502 320.59676 
L 375.97597 321.909248 
L 377.316437 323.589464 
L 378.656905 325.711362 
L 379.997373 328.352288 
L 381.337841 331.590561 
L 382.678308 335.50292 
L 384.018776 340.162081 
L 385.359244 345.634645 
L 386.699712 351.979517 
L 388.040179 359.246937 
L 389.715764 369.690488 
L 391.391349 381.700614 
L 393.066933 395.31974 
L 394.742518 410.576106 
L 396.75322 431.077847 
L 398.763921 454.048958 
L 400.774623 479.817519 
L 402.115091 499.356517 
L 403.120441 517.359229 
L 403.455558 510.21523 
L 403.790675 506.494911 
L 404.125792 500.538279 
L 404.460909 500.088575 
L 404.460909 500.088575 
" clip-path="url(#pc84b819f98)" style="fill: none; stroke: #000000; stroke-opacity: 0.4; stroke-width: 1.5; stroke-linecap: square"/>
   </g>
   <g id="line2d_118">
    <path d="M 69.679091 307.900077 
L 187.640252 308.03183 
L 228.859635 308.28886 
L 254.998756 308.662579 
L 274.435538 309.154735 
L 289.850917 309.760532 
L 302.585361 310.474908 
L 313.64422 311.313086 
L 323.362611 312.269022 
L 332.075651 313.341418 
L 340.788691 314.639108 
L 353.188018 316.754693 
L 368.26828 319.435977 
L 370.278982 320.135268 
L 371.954566 320.963696 
L 373.295034 321.856516 
L 374.635502 323.018919 
L 375.97597 324.520179 
L 377.316437 326.437091 
L 378.656905 328.852235 
L 379.997373 331.851765 
L 381.337841 335.52294 
L 382.678308 339.951715 
L 384.018776 345.220699 
L 385.359244 351.407793 
L 386.699712 358.58574 
L 388.040179 366.822831 
L 389.715764 378.709121 
L 391.391349 392.487311 
L 393.066933 408.317671 
L 394.742518 426.429856 
L 396.418103 447.214939 
L 397.75857 466.265225 
L 399.099038 488.319922 
L 400.104389 507.842833 
L 400.439506 515.183282 
L 401.444857 495.51027 
L 402.115091 487.574274 
L 402.450207 486.177333 
L 402.785324 487.284474 
L 403.120441 491.772343 
L 403.455558 485.558851 
L 403.790675 484.963797 
L 404.125792 490.358637 
L 404.460909 484.892728 
L 404.460909 484.892728 
" clip-path="url(#pc84b819f98)" style="fill: none; stroke: #000000; stroke-opacity: 0.4; stroke-width: 1.5; stroke-linecap: square"/>
   </g>
   <g id="line2d_119">
    <path d="M 69.679091 307.901227 
L 182.613498 308.03552 
L 223.162647 308.292523 
L 249.301768 308.669701 
L 268.73855 309.166412 
L 284.153929 309.777824 
L 296.888373 310.498876 
L 307.947232 311.345228 
L 317.665623 312.31209 
L 326.378663 313.402767 
L 334.42147 314.632371 
L 342.464276 316.086614 
L 365.922462 320.736951 
L 368.26828 321.389754 
L 370.278982 322.183209 
L 371.954566 323.115776 
L 373.295034 324.115966 
L 374.635502 325.413694 
L 375.97597 327.084934 
L 377.316437 329.213572 
L 378.656905 331.889473 
L 379.997373 335.206105 
L 381.337841 339.258034 
L 382.678308 344.138638 
L 384.018776 349.938408 
L 385.359244 356.744188 
L 386.699712 364.639628 
L 388.040179 373.707169 
L 389.715764 386.820283 
L 391.391349 402.087559 
L 393.066933 419.756103 
L 394.742518 440.196496 
L 396.082986 458.951662 
L 397.423453 480.42661 
L 398.763921 505.606286 
L 399.434155 520.116818 
L 400.439506 499.740301 
L 401.10974 489.344536 
L 401.779974 482.578271 
L 402.115091 480.956106 
L 402.450207 480.762674 
L 402.785324 482.196103 
L 403.120441 485.425361 
L 403.455558 490.536532 
L 403.790675 497.45919 
L 404.460909 484.892728 
L 404.460909 484.892728 
" clip-path="url(#pc84b819f98)" style="fill: none; stroke: #000000; stroke-opacity: 0.4; stroke-width: 1.5; stroke-linecap: square"/>
   </g>
   <g id="line2d_120">
    <path d="M 69.679091 307.893182 
L 404.460909 307.893182 
L 404.460909 307.893182 
" clip-path="url(#pc84b819f98)" style="fill: none; stroke: #000000; stroke-opacity: 0.4; stroke-width: 1.5; stroke-linecap: square"/>
   </g>
   <g id="line2d_121">
    <path d="M 69.679091 307.893182 
L 404.460909 307.893182 
L 404.460909 307.893182 
" clip-path="url(#pc84b819f98)" style="fill: none; stroke: #000000; stroke-opacity: 0.4; stroke-width: 1.5; stroke-linecap: square"/>
   </g>
   <g id="line2d_122">
    <path d="M 69.679091 307.894331 
L 251.31247 308.009935 
L 295.547905 308.252943 
L 323.027494 308.616199 
L 344.810095 309.124519 
L 370.278982 309.93522 
L 373.295034 310.287957 
L 375.640853 310.766333 
L 377.651554 311.392812 
L 379.327139 312.118709 
L 381.002724 313.073644 
L 382.678308 314.295865 
L 384.353893 315.81459 
L 386.029478 317.641616 
L 388.040179 320.215227 
L 390.721115 324.089622 
L 393.40205 327.861936 
L 394.742518 329.349576 
L 395.747869 330.117295 
L 396.418103 330.401007 
L 397.088337 330.458769 
L 397.75857 330.250954 
L 398.428804 329.737101 
L 399.099038 328.87775 
L 399.769272 327.637046 
L 400.439506 325.986208 
L 401.444857 322.707296 
L 402.450207 318.486158 
L 403.790675 311.644678 
L 404.460909 307.893182 
L 404.460909 307.893182 
" clip-path="url(#pc84b819f98)" style="fill: none; stroke: #000000; stroke-opacity: 0.4; stroke-width: 1.5; stroke-linecap: square"/>
   </g>
   <g id="line2d_123">
    <path d="M 69.679091 307.89548 
L 225.843583 308.015333 
L 269.073667 308.260077 
L 296.218139 308.625078 
L 315.990038 309.103071 
L 332.075651 309.708329 
L 348.161264 310.546034 
L 369.273631 311.829291 
L 371.954566 312.296381 
L 373.965268 312.86744 
L 375.640853 313.559332 
L 377.316437 314.515178 
L 378.656905 315.518008 
L 379.997373 316.774653 
L 381.337841 318.324008 
L 382.678308 320.202429 
L 384.018776 322.440664 
L 385.359244 325.060156 
L 387.034828 328.880702 
L 388.710413 333.279076 
L 390.721115 339.177415 
L 394.742518 351.262459 
L 395.747869 353.700446 
L 396.75322 355.524256 
L 397.423453 356.254436 
L 397.75857 356.434354 
L 398.093687 356.470589 
L 398.428804 356.346438 
L 398.763921 356.043973 
L 399.099038 355.54409 
L 399.769272 353.870567 
L 400.439506 351.156365 
L 401.10974 347.232508 
L 401.779974 341.955857 
L 402.450207 335.24982 
L 403.455558 322.653808 
L 404.460909 307.893182 
L 404.460909 307.893182 
" clip-path="url(#pc84b819f98)" style="fill: none; stroke: #000000; stroke-opacity: 0.4; stroke-width: 1.5; stroke-linecap: square"/>
   </g>
   <g id="line2d_124">
    <path d="M 69.679091 307.894331 
L 251.31247 308.009935 
L 295.547905 308.252943 
L 323.027494 308.616199 
L 344.810095 309.124519 
L 370.278982 309.93522 
L 373.295034 310.287957 
L 375.640853 310.766333 
L 377.651554 311.392812 
L 379.327139 312.118709 
L 381.002724 313.073644 
L 382.678308 314.295865 
L 384.353893 315.81459 
L 386.029478 317.641616 
L 388.040179 320.215227 
L 390.721115 324.089622 
L 393.40205 327.861936 
L 394.742518 329.349576 
L 395.747869 330.117295 
L 396.418103 330.401007 
L 397.088337 330.458769 
L 397.75857 330.250954 
L 398.428804 329.737101 
L 399.099038 328.87775 
L 399.769272 327.637046 
L 400.439506 325.986208 
L 401.444857 322.707296 
L 402.450207 318.486158 
L 403.790675 311.644678 
L 404.460909 307.893182 
L 404.460909 307.893182 
" clip-path="url(#pc84b819f98)" style="fill: none; stroke: #000000; stroke-opacity: 0.4; stroke-width: 1.5; stroke-linecap: square"/>
   </g>
   <g id="line2d_125">
    <path d="M 69.679091 307.89548 
L 225.843583 308.015333 
L 269.073667 308.260077 
L 296.218139 308.625078 
L 315.990038 309.103071 
L 332.075651 309.708329 
L 348.161264 310.546034 
L 369.273631 311.829291 
L 371.954566 312.296381 
L 373.965268 312.86744 
L 375.640853 313.559332 
L 377.316437 314.515178 
L 378.656905 315.518008 
L 379.997373 316.774653 
L 381.337841 318.324008 
L 382.678308 320.202429 
L 384.018776 322.440664 
L 385.359244 325.060156 
L 387.034828 328.880702 
L 388.710413 333.279076 
L 390.721115 339.177415 
L 394.742518 351.262459 
L 395.747869 353.700446 
L 396.75322 355.524256 
L 397.423453 356.254436 
L 397.75857 356.434354 
L 398.093687 356.470589 
L 398.428804 356.346438 
L 398.763921 356.043973 
L 399.099038 355.54409 
L 399.769272 353.870567 
L 400.439506 351.156365 
L 401.10974 347.232508 
L 401.779974 341.955857 
L 402.450207 335.24982 
L 403.455558 322.653808 
L 404.460909 307.893182 
L 404.460909 307.893182 
" clip-path="url(#pc84b819f98)" style="fill: none; stroke: #000000; stroke-opacity: 0.4; stroke-width: 1.5; stroke-linecap: square"/>
   </g>
   <g id="line2d_126">
    <path d="M 69.679091 307.89663 
L 211.433554 308.020173 
L 253.993405 308.268166 
L 280.80276 308.634877 
L 300.574659 309.119682 
L 316.325155 309.723544 
L 329.394716 310.439817 
L 341.794042 311.343107 
L 367.933163 313.579405 
L 370.614099 314.092969 
L 372.6248 314.71263 
L 374.300385 315.467094 
L 375.640853 316.281906 
L 376.98132 317.334215 
L 378.321788 318.674709 
L 379.662256 320.357041 
L 381.002724 322.435773 
L 382.343191 324.96381 
L 383.683659 327.989371 
L 385.024127 331.552563 
L 386.364595 335.68155 
L 388.040179 341.654482 
L 389.715764 348.501988 
L 391.726466 357.721423 
L 396.75322 381.769882 
L 397.75857 385.320218 
L 398.428804 386.981559 
L 398.763921 387.520576 
L 399.099038 387.819423 
L 399.434155 387.836796 
L 399.769272 387.524655 
L 400.104389 386.827181 
L 400.439506 385.679709 
L 400.774623 384.007777 
L 401.444857 378.740893 
L 402.115091 370.237706 
L 402.785324 357.6714 
L 403.455558 370.936076 
L 404.125792 380.16568 
L 404.460909 383.872415 
L 404.460909 383.872415 
" clip-path="url(#pc84b819f98)" style="fill: none; stroke: #000000; stroke-opacity: 0.4; stroke-width: 1.5; stroke-linecap: square"/>
   </g>
   <g id="line2d_127">
    <path d="M 69.679091 307.89663 
L 211.433554 308.020173 
L 253.993405 308.268166 
L 280.80276 308.634877 
L 300.574659 309.119682 
L 316.325155 309.723544 
L 329.394716 310.439817 
L 341.794042 311.343107 
L 367.933163 313.579405 
L 370.614099 314.092969 
L 372.6248 314.71263 
L 374.300385 315.467094 
L 375.640853 316.281906 
L 376.98132 317.334215 
L 378.321788 318.674709 
L 379.662256 320.357041 
L 381.002724 322.435773 
L 382.343191 324.96381 
L 383.683659 327.989371 
L 385.024127 331.552563 
L 386.364595 335.68155 
L 388.040179 341.654482 
L 389.715764 348.501988 
L 391.726466 357.721423 
L 396.75322 381.769882 
L 397.75857 385.320218 
L 398.428804 386.981559 
L 398.763921 387.520576 
L 399.099038 387.819423 
L 399.434155 387.836796 
L 399.769272 387.524655 
L 400.104389 386.827181 
L 400.439506 385.679709 
L 400.774623 384.007777 
L 401.444857 378.740893 
L 402.115091 370.237706 
L 402.785324 357.6714 
L 403.455558 370.936076 
L 404.125792 380.16568 
L 404.460909 383.872415 
L 404.460909 383.872415 
" clip-path="url(#pc84b819f98)" style="fill: none; stroke: #000000; stroke-opacity: 0.4; stroke-width: 1.5; stroke-linecap: square"/>
   </g>
   <g id="line2d_128">
    <path d="M 69.679091 307.897779 
L 201.380046 308.024291 
L 243.269663 308.273779 
L 269.743901 308.639591 
L 289.5158 309.127513 
L 304.931179 309.720133 
L 318.00074 310.43971 
L 329.394716 311.289001 
L 340.118458 312.315563 
L 365.922462 315.16439 
L 368.938514 315.700762 
L 370.949216 316.265097 
L 372.6248 316.947869 
L 373.965268 317.68985 
L 375.305736 318.658651 
L 376.646203 319.910112 
L 377.986671 321.505703 
L 379.327139 323.510934 
L 380.667607 325.993237 
L 382.008074 329.019439 
L 383.348542 332.652976 
L 384.68901 336.951028 
L 386.029478 341.961658 
L 387.369945 347.72098 
L 389.04553 356.003566 
L 390.721115 365.487301 
L 392.731816 378.360016 
L 395.077635 395.037643 
L 398.428804 419.285089 
L 399.434155 425.244721 
L 400.104389 428.199211 
L 400.439506 429.194314 
L 400.774623 429.747405 
L 401.10974 429.731177 
L 401.444857 428.974109 
L 401.779974 427.241208 
L 402.115091 424.205428 
L 402.450207 419.40608 
L 402.785324 412.192473 
L 403.120441 416.859078 
L 403.455558 417.048794 
L 403.790675 411.560254 
L 404.125792 415.138463 
L 404.460909 414.264108 
L 404.460909 414.264108 
" clip-path="url(#pc84b819f98)" style="fill: none; stroke: #000000; stroke-opacity: 0.4; stroke-width: 1.5; stroke-linecap: square"/>
   </g>
   <g id="line2d_129">
    <path d="M 69.679091 307.897779 
L 201.380046 308.024291 
L 243.269663 308.273779 
L 269.743901 308.639591 
L 289.5158 309.127513 
L 304.931179 309.720133 
L 318.00074 310.43971 
L 329.394716 311.289001 
L 340.118458 312.315563 
L 365.922462 315.16439 
L 368.938514 315.700762 
L 370.949216 316.265097 
L 372.6248 316.947869 
L 373.965268 317.68985 
L 375.305736 318.658651 
L 376.646203 319.910112 
L 377.986671 321.505703 
L 379.327139 323.510934 
L 380.667607 325.993237 
L 382.008074 329.019439 
L 383.348542 332.652976 
L 384.68901 336.951028 
L 386.029478 341.961658 
L 387.369945 347.72098 
L 389.04553 356.003566 
L 390.721115 365.487301 
L 392.731816 378.360016 
L 395.077635 395.037643 
L 398.428804 419.285089 
L 399.434155 425.244721 
L 400.104389 428.199211 
L 400.439506 429.194314 
L 400.774623 429.747405 
L 401.10974 429.731177 
L 401.444857 428.974109 
L 401.779974 427.241208 
L 402.115091 424.205428 
L 402.450207 419.40608 
L 402.785324 412.192473 
L 403.120441 416.859078 
L 403.455558 417.048794 
L 403.790675 411.560254 
L 404.125792 415.138463 
L 404.460909 414.264108 
L 404.460909 414.264108 
" clip-path="url(#pc84b819f98)" style="fill: none; stroke: #000000; stroke-opacity: 0.4; stroke-width: 1.5; stroke-linecap: square"/>
   </g>
   <g id="line2d_130">
    <path d="M 69.679091 307.898928 
L 193.672357 308.027886 
L 235.226857 308.280896 
L 261.701095 308.653548 
L 281.137877 309.139925 
L 296.553256 309.73859 
L 309.2877 310.444389 
L 320.346558 311.271498 
L 330.400066 312.246662 
L 339.783341 313.378875 
L 352.852901 315.218199 
L 368.26828 317.491803 
L 370.278982 318.091681 
L 371.954566 318.807895 
L 373.295034 319.58349 
L 374.635502 320.59676 
L 375.97597 321.909248 
L 377.316437 323.589464 
L 378.656905 325.711362 
L 379.997373 328.352288 
L 381.337841 331.590561 
L 382.678308 335.50292 
L 384.018776 340.162081 
L 385.359244 345.634645 
L 386.699712 351.979517 
L 388.040179 359.246937 
L 389.715764 369.690488 
L 391.391349 381.700614 
L 393.066933 395.31974 
L 394.742518 410.576106 
L 396.75322 431.077847 
L 398.763921 454.048958 
L 400.774623 479.817519 
L 402.115091 499.356517 
L 403.120441 517.359229 
L 403.455558 510.21523 
L 403.790675 506.494911 
L 404.125792 500.538279 
L 404.460909 500.088575 
L 404.460909 500.088575 
" clip-path="url(#pc84b819f98)" style="fill: none; stroke: #000000; stroke-opacity: 0.4; stroke-width: 1.5; stroke-linecap: square"/>
   </g>
   <g id="line2d_131">
    <path d="M 69.679091 307.900077 
L 187.640252 308.03183 
L 228.859635 308.28886 
L 254.998756 308.662579 
L 274.435538 309.154735 
L 289.850917 309.760532 
L 302.585361 310.474908 
L 313.64422 311.313086 
L 323.362611 312.269022 
L 332.075651 313.341418 
L 340.788691 314.639108 
L 353.188018 316.754693 
L 368.26828 319.435977 
L 370.278982 320.135268 
L 371.954566 320.963696 
L 373.295034 321.856516 
L 374.635502 323.018919 
L 375.97597 324.520179 
L 377.316437 326.437091 
L 378.656905 328.852235 
L 379.997373 331.851765 
L 381.337841 335.52294 
L 382.678308 339.951715 
L 384.018776 345.220699 
L 385.359244 351.407793 
L 386.699712 358.58574 
L 388.040179 366.822831 
L 389.715764 378.709121 
L 391.391349 392.487311 
L 393.066933 408.317671 
L 394.742518 426.429856 
L 396.418103 447.214939 
L 397.75857 466.265225 
L 399.099038 488.319922 
L 400.104389 507.842833 
L 400.439506 515.183282 
L 401.444857 495.51027 
L 402.115091 487.574274 
L 402.450207 486.177333 
L 402.785324 487.284474 
L 403.120441 491.772343 
L 403.455558 485.558851 
L 403.790675 484.963797 
L 404.125792 490.358637 
L 404.460909 484.892728 
L 404.460909 484.892728 
" clip-path="url(#pc84b819f98)" style="fill: none; stroke: #000000; stroke-opacity: 0.4; stroke-width: 1.5; stroke-linecap: square"/>
   </g>
   <g id="line2d_132">
    <path d="M 404.460909 530.728 
L 404.460909 297.282 
" clip-path="url(#pc84b819f98)" style="fill: none; stroke: #000000; stroke-linecap: square"/>
   </g>
   <g id="line2d_133">
    <path d="M 286.70889 530.728 
L 286.70889 297.282 
" clip-path="url(#pc84b819f98)" style="fill: none; stroke: #000000; stroke-width: 3; stroke-linecap: square"/>
   </g>
   <g id="patch_9">
    <path d="M 52.94 530.728 
L 52.94 297.282 
" style="fill: none; stroke: #000000; stroke-width: 0.8; stroke-linejoin: miter; stroke-linecap: square"/>
   </g>
   <g id="patch_10">
    <path d="M 421.2 530.728 
L 421.2 297.282 
" style="fill: none; stroke: #000000; stroke-width: 0.8; stroke-linejoin: miter; stroke-linecap: square"/>
   </g>
   <g id="patch_11">
    <path d="M 52.94 530.728 
L 421.2 530.728 
" style="fill: none; stroke: #000000; stroke-width: 0.8; stroke-linejoin: miter; stroke-linecap: square"/>
   </g>
   <g id="patch_12">
    <path d="M 52.94 297.282 
L 421.2 297.282 
" style="fill: none; stroke: #000000; stroke-width: 0.8; stroke-linejoin: miter; stroke-linecap: square"/>
   </g>
  </g>
  <g id="text_23">
   <!-- Per-Channel Fractional Delays -->
   <g transform="translate(126.585 20.638125) scale(0.12 -0.12)">
    <defs>
     <path id="DejaVuSans-2d" d="M 313 2009 
L 1997 2009 
L 1997 1497 
L 313 1497 
L 313 2009 
z
" transform="scale(0.015625)"/>
     <path id="DejaVuSans-43" d="M 4122 4306 
L 4122 3641 
Q 3803 3938 3442 4084 
Q 3081 4231 2675 4231 
Q 1875 4231 1450 3742 
Q 1025 3253 1025 2328 
Q 1025 1406 1450 917 
Q 1875 428 2675 428 
Q 3081 428 3442 575 
Q 3803 722 4122 1019 
L 4122 359 
Q 3791 134 3420 21 
Q 3050 -91 2638 -91 
Q 1578 -91 968 557 
Q 359 1206 359 2328 
Q 359 3453 968 4101 
Q 1578 4750 2638 4750 
Q 3056 4750 3426 4639 
Q 3797 4528 4122 4306 
z
" transform="scale(0.015625)"/>
     <path id="DejaVuSans-44" d="M 1259 4147 
L 1259 519 
L 2022 519 
Q 2988 519 3436 956 
Q 3884 1394 3884 2338 
Q 3884 3275 3436 3711 
Q 2988 4147 2022 4147 
L 1259 4147 
z
M 628 4666 
L 1925 4666 
Q 3281 4666 3915 4102 
Q 4550 3538 4550 2338 
Q 4550 1131 3912 565 
Q 3275 0 1925 0 
L 628 0 
L 628 4666 
z
" transform="scale(0.015625)"/>
    </defs>
    <use xlink:href="#DejaVuSans-50"/>
    <use xlink:href="#DejaVuSans-65" x="56.677734"/>
    <use xlink:href="#DejaVuSans-72" x="118.201172"/>
    <use xlink:href="#DejaVuSans-2d" x="152.939453"/>
    <use xlink:href="#DejaVuSans-43" x="189.023438"/>
    <use xlink:href="#DejaVuSans-68" x="258.847656"/>
    <use xlink:href="#DejaVuSans-61" x="322.226562"/>
    <use xlink:href="#DejaVuSans-6e" x="383.505859"/>
    <use xlink:href="#DejaVuSans-6e" x="446.884766"/>
    <use xlink:href="#DejaVuSans-65" x="510.263672"/>
    <use xlink:href="#DejaVuSans-6c" x="571.787109"/>
    <use xlink:href="#DejaVuSans-20" x="599.570312"/>
    <use xlink:href="#DejaVuSans-46" x="631.357422"/>
    <use xlink:href="#DejaVuSans-72" x="681.626953"/>
    <use xlink:href="#DejaVuSans-61" x="722.740234"/>
    <use xlink:href="#DejaVuSans-63" x="784.019531"/>
    <use xlink:href="#DejaVuSans-74" x="839"/>
    <use xlink:href="#DejaVuSans-69" x="878.208984"/>
    <use xlink:href="#DejaVuSans-6f" x="905.992188"/>
    <use xlink:href="#DejaVuSans-6e" x="967.173828"/>
    <use xlink:href="#DejaVuSans-61" x="1030.552734"/>
    <use xlink:href="#DejaVuSans-6c" x="1091.832031"/>
    <use xlink:href="#DejaVuSans-20" x="1119.615234"/>
    <use xlink:href="#DejaVuSans-44" x="1151.402344"/>
    <use xlink:href="#DejaVuSans-65" x="1228.404297"/>
    <use xlink:href="#DejaVuSans-6c" x="1289.927734"/>
    <use xlink:href="#DejaVuSans-61" x="1317.710938"/>
    <use xlink:href="#DejaVuSans-79" x="1378.990234"/>
    <use xlink:href="#DejaVuSans-73" x="1438.169922"/>
   </g>
   <!-- Poly Order = 5 (6-Tap), Samplerate = 40.00 kHz -->
   <g transform="translate(72.347813 34.0755) scale(0.12 -0.12)">
    <defs>
     <path id="DejaVuSans-4f" d="M 2522 4238 
Q 1834 4238 1429 3725 
Q 1025 3213 1025 2328 
Q 1025 1447 1429 934 
Q 1834 422 2522 422 
Q 3209 422 3611 934 
Q 4013 1447 4013 2328 
Q 4013 3213 3611 3725 
Q 3209 4238 2522 4238 
z
M 2522 4750 
Q 3503 4750 4090 4092 
Q 4678 3434 4678 2328 
Q 4678 1225 4090 567 
Q 3503 -91 2522 -91 
Q 1538 -91 948 565 
Q 359 1222 359 2328 
Q 359 3434 948 4092 
Q 1538 4750 2522 4750 
z
" transform="scale(0.015625)"/>
     <path id="DejaVuSans-3d" d="M 678 2906 
L 4684 2906 
L 4684 2381 
L 678 2381 
L 678 2906 
z
M 678 1631 
L 4684 1631 
L 4684 1100 
L 678 1100 
L 678 1631 
z
" transform="scale(0.015625)"/>
     <path id="DejaVuSans-28" d="M 1984 4856 
Q 1566 4138 1362 3434 
Q 1159 2731 1159 2009 
Q 1159 1288 1364 580 
Q 1569 -128 1984 -844 
L 1484 -844 
Q 1016 -109 783 600 
Q 550 1309 550 2009 
Q 550 2706 781 3412 
Q 1013 4119 1484 4856 
L 1984 4856 
z
" transform="scale(0.015625)"/>
     <path id="DejaVuSans-29" d="M 513 4856 
L 1013 4856 
Q 1481 4119 1714 3412 
Q 1947 2706 1947 2009 
Q 1947 1309 1714 600 
Q 1481 -109 1013 -844 
L 513 -844 
Q 928 -128 1133 580 
Q 1338 1288 1338 2009 
Q 1338 2731 1133 3434 
Q 928 4138 513 4856 
z
" transform="scale(0.015625)"/>
     <path id="DejaVuSans-2c" d="M 750 794 
L 1409 794 
L 1409 256 
L 897 -744 
L 494 -744 
L 750 256 
L 750 794 
z
" transform="scale(0.015625)"/>
     <path id="DejaVuSans-2e" d="M 684 794 
L 1344 794 
L 1344 0 
L 684 0 
L 684 794 
z
" transform="scale(0.015625)"/>
     <path id="DejaVuSans-6b" d="M 581 4863 
L 1159 4863 
L 1159 1991 
L 2875 3500 
L 3609 3500 
L 1753 1863 
L 3688 0 
L 2938 0 
L 1159 1709 
L 1159 0 
L 581 0 
L 581 4863 
z
" transform="scale(0.015625)"/>
    </defs>
    <use xlink:href="#DejaVuSans-50"/>
    <use xlink:href="#DejaVuSans-6f" x="56.677734"/>
    <use xlink:href="#DejaVuSans-6c" x="117.859375"/>
    <use xlink:href="#DejaVuSans-79" x="145.642578"/>
    <use xlink:href="#DejaVuSans-20" x="204.822266"/>
    <use xlink:href="#DejaVuSans-4f" x="236.609375"/>
    <use xlink:href="#DejaVuSans-72" x="315.320312"/>
    <use xlink:href="#DejaVuSans-64" x="354.683594"/>
    <use xlink:href="#DejaVuSans-65" x="418.160156"/>
    <use xlink:href="#DejaVuSans-72" x="479.683594"/>
    <use xlink:href="#DejaVuSans-20" x="520.796875"/>
    <use xlink:href="#DejaVuSans-3d" x="552.583984"/>
    <use xlink:href="#DejaVuSans-20" x="636.373047"/>
    <use xlink:href="#DejaVuSans-35" x="668.160156"/>
    <use xlink:href="#DejaVuSans-20" x="731.783203"/>
    <use xlink:href="#DejaVuSans-28" x="763.570312"/>
    <use xlink:href="#DejaVuSans-36" x="802.583984"/>
    <use xlink:href="#DejaVuSans-2d" x="866.207031"/>
    <use xlink:href="#DejaVuSans-54" x="893.166016"/>
    <use xlink:href="#DejaVuSans-61" x="937.75"/>
    <use xlink:href="#DejaVuSans-70" x="999.029297"/>
    <use xlink:href="#DejaVuSans-29" x="1062.505859"/>
    <use xlink:href="#DejaVuSans-2c" x="1101.519531"/>
    <use xlink:href="#DejaVuSans-20" x="1133.306641"/>
    <use xlink:href="#DejaVuSans-53" x="1165.09375"/>
    <use xlink:href="#DejaVuSans-61" x="1228.570312"/>
    <use xlink:href="#DejaVuSans-6d" x="1289.849609"/>
    <use xlink:href="#DejaVuSans-70" x="1387.261719"/>
    <use xlink:href="#DejaVuSans-6c" x="1450.738281"/>
    <use xlink:href="#DejaVuSans-65" x="1478.521484"/>
    <use xlink:href="#DejaVuSans-72" x="1540.044922"/>
    <use xlink:href="#DejaVuSans-61" x="1581.158203"/>
    <use xlink:href="#DejaVuSans-74" x="1642.4375"/>
    <use xlink:href="#DejaVuSans-65" x="1681.646484"/>
    <use xlink:href="#DejaVuSans-20" x="1743.169922"/>
    <use xlink:href="#DejaVuSans-3d" x="1774.957031"/>
    <use xlink:href="#DejaVuSans-20" x="1858.746094"/>
    <use xlink:href="#DejaVuSans-34" x="1890.533203"/>
    <use xlink:href="#DejaVuSans-30" x="1954.15625"/>
    <use xlink:href="#DejaVuSans-2e" x="2017.779297"/>
    <use xlink:href="#DejaVuSans-30" x="2049.566406"/>
    <use xlink:href="#DejaVuSans-30" x="2113.189453"/>
    <use xlink:href="#DejaVuSans-20" x="2176.8125"/>
    <use xlink:href="#DejaVuSans-6b" x="2208.599609"/>
    <use xlink:href="#DejaVuSans-48" x="2266.509766"/>
    <use xlink:href="#DejaVuSans-7a" x="2341.705078"/>
   </g>
  </g>
 </g>
 <defs>
  <clipPath id="p92b7fc4b59">
   <rect x="52.94" y="49.536" width="368.26" height="233.446"/>
  </clipPath>
  <clipPath id="pc84b819f98">
   <rect x="52.94" y="297.282" width="368.26" height="233.446"/>
  </clipPath>
 </defs>
</svg>
