<svg class="main-svg" xmlns="http://www.w3.org/2000/svg" xmlns:xlink="http://www.w3.org/1999/xlink" width="700" height="420" style="" viewBox="0 0 700 420"><rect x="0" y="0" width="700" height="420" style="fill: rgb(0, 0, 0); fill-opacity: 0;"/><defs id="defs-49a701"><g class="clips"><clipPath id="clip49a701xyplot" class="plotclip"><rect width="590" height="300"/></clipPath><clipPath class="axesclip" id="clip49a701x"><rect x="70" y="0" width="590" height="420"/></clipPath><clipPath class="axesclip" id="clip49a701y"><rect x="0" y="60" width="700" height="300"/></clipPath><clipPath class="axesclip" id="clip49a701xy"><rect x="70" y="60" width="590" height="300"/></clipPath></g><g class="gradients"/><g class="patterns"/></defs><g class="bglayer"><rect class="bg" x="70" y="60" width="590" height="300" style="fill: rgb(0, 0, 0); fill-opacity: 0; stroke-width: 0;"/></g><g class="layer-below"><g class="imagelayer"/><g class="shapelayer"/></g><g class="cartesianlayer"><g class="subplot xy"><g class="layer-subplot"><g class="shapelayer"/><g class="imagelayer"/></g><g class="minor-gridlayer"><g class="x"/><g class="y"/></g><g class="gridlayer"><g class="x"/><g class="y"/></g><g class="zerolinelayer"/><g class="layer-between"><g class="shapelayer"/><g class="imagelayer"/></g><path class="xlines-below"/><path class="ylines-below"/><g class="overlines-below"/><g class="xaxislayer-below"/><g class="yaxislayer-below"/><g class="overaxes-below"/><g class="overplot"><g class="xy" transform="translate(70,60)" clip-path="url(#clip49a701xyplot)"><g class="scatterlayer mlayer"><g class="trace scatter tracece6a8d" style="stroke-miterlimit: 2; opacity: 1;"><g class="fills"/><g class="errorbars"/><g class="lines"><path class="js-line" d="M307.51,285H307.51V285H307.51V285H307.52V285H307.52V285H307.52V285H307.52V285H307.53V285H307.53V285H307.53V285H307.53V285H307.53V285H307.54V285H307.54V285H307.54V285H307.54V285H307.55V285H307.55V285H307.55V285H307.55V285H307.56V285H307.56V285H307.56V285H307.56V285H307.56V285H307.57V285H307.57V285H307.57V285H307.57V285H307.58V285H307.58V285H307.58V285H307.58V285H307.59V285H307.59V285H307.59V285H307.59V285H307.59V285H307.6V285H307.6V285H307.6V285H307.6V285H307.61V285H307.61V285H307.61V285H307.61V285H307.61V285H307.62V285H307.62V285H307.62V285H307.62V285H307.63V285H307.63V285H307.63V285H307.63V285H307.64V285H307.64V285H307.64V285H307.64V285H307.64V285H307.65V285H307.65V285H307.65V285H307.65V285H307.66V285H307.66V285H307.66V285H307.66V285H307.67V285H307.67V285H307.67V285H307.67V279.94H307.67V279.94H307.68V279.94H307.68V279.94H307.68V279.94H307.68V279.94H307.69V279.94H307.69V279.94H307.69V279.94H307.69V279.94H307.69V279.94H307.7V279.94H307.7V279.94H307.7V279.94H307.7V279.94H307.71V279.94H307.71V279.94H307.71V279.94H307.71V279.94H307.72V279.94H307.72V279.94H307.72V279.94H307.72V279.94H307.72V279.94H307.73V279.94H307.73V279.94H307.73V279.94H307.73V279.94H307.74V279.94H307.74V279.94H307.74V279.94H307.74V279.94H307.75V279.94H307.75V279.94H307.75V279.94H307.75V279.94H307.75V279.94H307.76V279.94H307.76V279.94H307.76V279.94H307.76V279.94H307.77V279.94H307.77V279.94H307.77V279.94H307.77V279.94H307.77V279.94H307.78V279.94H307.78V279.94H307.78V279.94H307.78V279.94H307.79V279.94H307.79V279.94H307.79V279.94H307.79V279.94H307.8V279.94H307.8V279.94H307.8V279.94H307.8V279.94H307.8V279.94H307.81V279.94H307.81V279.94H307.81V279.94H307.81V279.94H307.82V279.94H307.82V279.94H307.82V279.94H307.82V279.94H307.83V279.94H307.83V279.94H307.83V279.94H307.83V279.94H307.83V279.94H307.84V279.94H307.84V279.94H307.84V279.94H307.84V279.94H307.85V279.94H307.85V279.94H307.85V279.94H307.85V279.94H307.85V279.94H307.86V279.94H307.86V279.94H307.86V279.94H307.86V279.94H307.87V279.94H307.87V279.94H307.87V279.94H307.87V276.98H307.88V276.98H307.88V276.98H307.88V276.98H307.88V276.98H307.88V276.98H307.89V276.98H307.89V276.98H307.89V276.98H307.89V276.98H307.9V276.98H307.9V276.98H307.9V276.98H307.9V276.98H307.91V276.98H307.91V276.98H307.91V276.98H307.91V276.98H307.91V276.98H307.92V276.98H307.92V276.98H307.92V276.98H307.92V276.98H307.93V276.98H307.93V276.98H307.93V276.98H307.93V276.98H307.93V276.98H307.94V276.98H307.94V276.98H307.94V276.98H307.94V276.98H307.95V276.98H307.95V276.98H307.95V276.98H307.95V276.98H307.96V276.98H307.96V276.98H307.96V276.98H307.96V276.98H307.96V276.98H307.97V276.98H307.97V276.98H307.97V276.98H307.97V276.98H307.98V276.98H307.98V276.98H307.98V276.98H307.98V276.98H307.99V276.98H307.99V276.98H307.99V276.98H307.99V276.98H307.99V276.98H308V276.98H308V276.98H308V276.98H308V276.98H308.01V274.88H308.01V274.88H308.01V274.88H308.01V274.88H308.01V274.88H308.02V274.88H308.02V274.88H308.02V274.88H308.02V274.88H308.03V274.88H308.03V274.88H308.03V274.88H308.03V274.88H308.04V274.88H308.04V274.88H308.04V274.88H308.04V274.88H308.04V274.88H308.05V274.88H308.05V274.88H308.05V274.88H308.05V274.88H308.06V274.88H308.06V274.88H308.06V274.88H308.06V274.88H308.07V274.88H308.07V274.88H308.07V274.88H308.07V274.88H308.07V274.88H308.08V274.88H308.08V274.88H308.08V274.88H308.08V274.88H308.09V274.88H308.09V274.88H308.09V274.88H308.09V274.88H308.09V274.88H308.1V274.88H308.1V274.88H308.1V274.88H308.1V274.88H308.11V273.25H308.11V273.25H308.11V273.25H308.11V273.25H308.12V273.25H308.12V273.25H308.12V273.25H308.12V273.25H308.12V273.25H308.13V273.25H308.13V273.25H308.13V273.25H308.13V273.25H308.14V273.25H308.14V273.25H308.14V273.25H308.14V273.25H308.15V273.25H308.15V273.25H308.15V273.25H308.15V273.25H308.15V273.25H308.16V273.25H308.16V273.25H308.16V273.25H308.16V273.25H308.17V273.25H308.17V273.25H308.17V273.25H308.17V273.25H308.17V273.25H308.18V273.25H308.18V273.25H308.18V273.25H308.18V271.92H308.19V271.92H308.19V271.92H308.19V271.92H308.19V271.92H308.2V271.92H308.2V271.92H308.2V271.92H308.2V271.92H308.2V271.92H308.21V271.92H308.21V271.92H308.21V271.92H308.21V271.92H308.22V271.92H308.22V271.92H308.22V271.92H308.22V271.92H308.23V271.92H308.23V271.92H308.23V271.92H308.23V271.92H308.23V271.92H308.24V271.92H308.24V271.92H308.24V271.92H308.24V271.92H308.25V271.92H308.25V271.92H308.25V270.79H308.25V270.79H308.25V270.79H308.26V270.79H308.26V270.79H308.26V270.79H308.26V270.79H308.27V270.79H308.27V270.79H308.27V270.79H308.27V270.79H308.28V270.79H308.28V270.79H308.28V270.79H308.28V270.79H308.28V270.79H308.29V270.79H308.29V270.79H308.29V270.79H308.29V270.79H308.3V270.79H308.3V270.79H308.3V270.79H308.3V270.79H308.31V270.79H308.31V269.82H308.31V269.82H308.31V269.82H308.31V269.82H308.32V269.82H308.32V269.82H308.32V269.82H308.32V269.82H308.33V269.82H308.33V269.82H308.33V269.82H308.33V269.82H308.33V269.82H308.34V269.82H308.34V269.82H308.34V269.82H308.34V269.82H308.35V269.82H308.35V269.82H308.35V269.82H308.35V269.82H308.36V269.82H308.36V268.96H308.36V268.96H308.36V268.96H308.36V268.96H308.37V268.96H308.37V268.96H308.37V268.96H308.37V268.96H308.38V268.96H308.38V268.96H308.38V268.96H308.38V268.96H308.39V268.96H308.39V268.96H308.39V268.96H308.39V268.96H308.39V268.96H308.4V268.96H308.4V268.96H308.4V268.19H308.4V268.19H308.41V268.19H308.41V268.19H308.41V268.19H308.41V268.19H308.41V268.19H308.42V268.19H308.42V268.19H308.42V268.19H308.42V268.19H308.43V268.19H308.43V268.19H308.43V268.19H308.43V268.19H308.44V268.19H308.44V268.19H308.44V267.49H308.44V267.49H308.44V267.49H308.45V267.49H308.45V267.49H308.45V267.49H308.45V267.49H308.46V267.49H308.46V267.49H308.46V267.49H308.46V267.49H308.47V267.49H308.47V267.49H308.47V267.49H308.47V267.49H308.47V267.49H308.48V266.86H308.48V266.86H308.48V266.86H308.48V266.86H308.49V266.86H308.49V266.86H308.49V266.86H308.49V266.86H308.49V266.86H308.5V266.86H308.5V266.86H308.5V266.86H308.5V266.86H308.51V266.86H308.51V266.28H308.51V266.28H308.51V266.28H308.52V266.28H308.52V266.28H308.52V266.28H308.52V266.28H308.52V266.28H308.53V266.28H308.53V266.28H308.53V266.28H308.53V266.28H308.54V266.28H308.54V266.28H308.54V265.73H308.54V265.73H308.55V265.73H308.55V265.73H308.55V265.73H308.55V265.73H308.55V265.73H308.56V265.73H308.56V265.73H308.56V265.73H308.56V265.73H308.57V265.73H308.57V265.23H308.57V265.23H308.57V265.23H308.57V265.23H308.58V265.23H308.58V265.23H308.58V265.23H308.58V265.23H308.59V265.23H308.59V265.23H308.59V265.23H308.59V265.23H308.6V264.76H308.6V264.76H308.6V264.76H308.6V264.76H308.6V264.76H308.61V264.76H308.61V264.76H308.61V264.76H308.61V264.76H308.62V264.76H308.62V264.32H308.62V264.32H308.62V264.32H308.63V264.32H308.63V264.32H308.63V264.32H308.63V264.32H308.63V264.32H308.64V264.32H308.64V264.32H308.64V264.32H308.64V263.9H308.65V263.9H308.65V263.9H308.65V263.9H308.65V263.9H308.65V263.9H308.66V263.9H308.66V263.9H308.66V263.9H308.66V263.51H308.67V263.51H308.67V263.51H308.67V263.51H308.67V263.51H308.68V263.51H308.68V263.51H308.68V263.51H308.68V263.51H308.68V263.13H308.69V263.13H308.69V263.13H308.69V263.13H308.69V263.13H308.7V263.13H308.7V263.13H308.7V263.13H308.7V263.13H308.71V262.77H308.71V262.77H308.71V262.77H308.71V262.77H308.71V262.77H308.72V262.77H308.72V262.77H308.72V262.77H308.72V262.43H308.73V262.43H308.73V262.43H308.73V262.43H308.73V262.43H308.73V262.43H308.74V262.43H308.74V262.43H308.74V262.11H308.74V262.11H308.75V262.11H308.75V262.11H308.75V262.11H308.75V262.11H308.76V262.11H308.76V262.11H308.76V261.8H308.76V261.8H308.76V261.8H308.77V261.8H308.77V261.8H308.77V261.8H308.77V261.8H308.78V261.5H308.78V261.5H308.78V261.5H308.78V261.5H308.79V261.5H308.79V261.5H308.79V261.5H308.79V261.22H308.79V261.22H308.8V261.22H308.8V261.22H308.8V261.22H308.8V261.22H308.81V260.94H308.81V260.94H308.81V260.94H308.81V260.94H308.81V260.94H308.82V260.94H308.82V260.94H308.82V260.67H308.82V260.67H308.83V260.67H308.83V260.67H308.83V260.67H308.83V260.67H308.84V260.42H308.84V260.42H308.84V260.42H308.84V260.42H308.84V260.42H308.85V260.42H308.85V260.17H308.85V260.17H308.85V260.17H308.86V260.17H308.86V260.17H308.86V260.17H308.86V259.93H308.87V259.93H308.87V259.93H308.87V259.93H308.87V259.93H308.87V259.7H308.88V259.7H308.88V259.7H308.88V259.7H308.88V259.7H308.89V259.7H308.89V259.47H308.89V259.47H308.89V259.47H308.89V259.47H308.9V259.47H308.9V259.26H308.9V259.26H308.9V259.26H308.91V259.26H308.91V259.26H308.91V259.05H308.91V259.05H308.92V259.05H308.92V259.05H308.92V259.05H308.92V258.84H308.92V258.84H308.93V258.84H308.93V258.84H308.93V258.84H308.93V258.64H308.94V258.64H308.94V258.64H308.94V258.64H308.94V258.44H308.94V258.44H308.95V258.44H308.95V258.44H308.95V258.44H308.95V258.26H308.96V258.26H308.96V258.26H308.96V258.26H308.96V258.07H308.97V258.07H308.97V258.07H308.97V258.07H308.97V258.07H308.97V257.89H308.98V257.89H308.98V257.89H308.98V257.89H308.98V257.71H308.99V257.71H308.99V257.71H308.99V257.71H308.99V257.54H309V257.54H309V257.54H309V257.54H309V257.37H309V257.37H309.01V257.37H309.01V257.37H309.01V257.21H309.01V257.21H309.02V257.21H309.02V257.21H309.02V257.05H309.02V257.05H309.02V257.05H309.03V257.05H309.03V256.89H309.03V256.89H309.03V256.89H309.04V256.74H309.04V256.74H309.04V256.74H309.04V256.74H309.05V256.59H309.05V256.59H309.05V256.59H309.05V256.44H309.05V256.44H309.06V256.44H309.06V256.44H309.06V256.3H309.06V256.3H309.07V256.3H309.07V256.16H309.07V256.16H309.07V256.16H309.08V256.16H309.08V256.02H309.08V256.02H309.08V256.02H309.08V255.88H309.09V255.88H309.09V255.88H309.09V255.75H309.09V255.75H309.1V255.75H309.1V255.61H309.1V255.61H309.1V255.61H309.1V255.49H309.11V255.49H309.11V255.49H309.11V255.36H309.11V255.36H309.12V255.36H309.12V255.23H309.12V255.23H309.12V255.23H309.13V255.11H309.13V255.11H309.13V255.11H309.13V254.99H309.13V254.99H309.14V254.99H309.14V254.87H309.14V254.87H309.14V254.87H309.15V254.75H309.15V254.75H309.15V254.75H309.15V254.64H309.16V254.64H309.16V254.53H309.16V254.53H309.16V254.53H309.16V254.41H309.17V254.41H309.17V254.41H309.17V254.31H309.17V254.31H309.18V254.2H309.18V254.2H309.18V254.2H309.18V254.09H309.18V254.09H309.19V253.99H309.19V253.99H309.19V253.99H309.19V253.88H309.2V253.88H309.2V253.78H309.2V253.78H309.2V253.68H309.21V253.68H309.21V253.68H309.21V253.58H309.21V253.58H309.21V253.48H309.22V253.48H309.22V253.38H309.22V253.38H309.22V253.38H309.23V253.29H309.23V253.29H309.23V253.2H309.23V253.2H309.24V253.1H309.24V253.1H309.24V253.01H309.24V253.01H309.24V253.01H309.25V252.92H309.25V252.92H309.25V252.83H309.25V252.83H309.26V252.74H309.26V252.74H309.26V252.65H309.26V252.65H309.26V252.57H309.27V252.57H309.27V252.48H309.27V252.48H309.27V252.4H309.28V252.4H309.28V252.31H309.28V252.31H309.28V252.23H309.29V252.23H309.29V252.15H309.29V252.15H309.29V252.07H309.29V252.07H309.3V251.99H309.3V251.99H309.3V251.91H309.3V251.83H309.31V251.83H309.31V251.76H309.31V251.76H309.31V251.68H309.32V251.68H309.32V251.6H309.32V251.6H309.32V251.53H309.32V251.45H309.33V251.45H309.33V251.38H309.33V251.38H309.33V251.31H309.34V251.31H309.34V251.24H309.34V251.17H309.34V251.17H309.34V251.1H309.35V251.1H309.35V251.03H309.35V250.96H309.35V250.96H309.36V250.89H309.36V250.89H309.36V250.82H309.36V250.75H309.37V250.75H309.37V250.69H309.37V250.62H309.37V250.62H309.37V250.55H309.38V250.49H309.38V250.49H309.38V250.42H309.38V250.42H309.39V250.36H309.39V250.3H309.39V250.3H309.39V250.24H309.4V250.17H309.4V250.11H309.4V250.11H309.4V250.05H309.4V249.99H309.41V249.99H309.41V249.93H309.41V249.87H309.41V249.87H309.42V249.81H309.42V249.75H309.42V249.69H309.42V249.69H309.42V249.64H309.43V249.58H309.43V249.52H309.43V249.52H309.43V249.47H309.44V249.41H309.44V249.35H309.44V249.35H309.44V249.3H309.45V249.24H309.45V249.19H309.45V249.19H309.45V249.14H309.45V249.08H309.46V249.03H309.46V248.98H309.46V248.98H309.46V248.93H309.47V248.87H309.47V248.82H309.47V248.77H309.47V248.77H309.48V248.72H309.48V248.67H309.48V248.62H309.48V248.57H309.48V248.52H309.49V248.47H309.49V248.47H309.49V248.42H309.49V248.37H309.5V248.32H309.5V248.28H309.5V248.23H309.5V248.18H309.5V248.14H309.51V248.14H309.51V248.09H309.51V248.04H309.51V248H309.52V247.95H309.52V247.9H309.52V247.86H309.52V247.81H309.53V247.77H309.53V247.73H309.53V247.68H309.53V247.64H309.53V247.59H309.54V247.55H309.54V247.51H309.54V247.46H309.54V247.42H309.55V247.38H309.55V247.34H309.55V247.3H309.55V247.25H309.56V247.21H309.56V247.17H309.56V247.13H309.56V247.09H309.56V247.05H309.57V247.01H309.57V246.97H309.57V246.93H309.57V246.89H309.58V246.85H309.58V246.81H309.58V246.77H309.58V246.73H309.58V246.7H309.59V246.62H309.59V246.58H309.59V246.54H309.59V246.51H309.6V246.47H309.6V246.43H309.6V246.39H309.6V246.36H309.61V246.28H309.61V246.25H309.61V246.21H309.61V246.18H309.61V246.14H309.62V246.11H309.62V246.04H309.62V246H309.62V245.97H309.63V245.93H309.63V245.86H309.63V245.83H309.63V245.79H309.64V245.76H309.64V245.73H309.64V245.66H309.64V245.63H309.64V245.59H309.65V245.53H309.65V245.49H309.65V245.46H309.65V245.43H309.66V245.36H309.66V245.33H309.66V245.3H309.66V245.24H309.66V245.21H309.67V245.18H309.67V245.11H309.67V245.08H309.67V245.02H309.68V244.99H309.68V244.96H309.68V244.9H309.68V244.87H309.69V244.81H309.69V244.78H309.69V244.75H309.69V244.69H309.69V244.66H309.7V244.61H309.7V244.58H309.7V244.52H309.7V244.49H309.71V244.43H309.71V244.41H309.71V244.35H309.71V244.32H309.72V244.27H309.72V244.24H309.72V244.18H309.72V244.16H309.72V244.1H309.73V244.08H309.73V244.02H309.73V243.97H309.73V243.94H309.74V243.89H309.74V243.87H309.74V243.81H309.74V243.76H309.74V243.74H309.75V243.68H309.75V243.63H309.75V243.61H309.75V243.56H309.76V243.51H309.76V243.48H309.76V243.43H309.76V243.39H309.77V243.34H309.77V243.31H309.77V243.26H309.77V243.22H309.77V243.17H309.78V243.15H309.78V243.1H309.78V243.05H309.78V243.01H309.79V242.96H309.79V242.91H309.79V242.89H309.79V242.84H309.8V242.8H309.8V242.75H309.8V242.71H309.8V242.67H309.8V242.62H309.81V242.58H309.81V242.53H309.81V242.51H309.81V242.47H309.82V242.43H309.82V242.38H309.82V242.34H309.82V242.3H309.82V242.26H309.83V242.22H309.83V242.17H309.83V242.11H309.83V242.07H309.84V242.03H309.84V241.99H309.84V241.95H309.84V241.91H309.85V241.87H309.85V241.83H309.85V241.79H309.85V241.75H309.85V241.69H309.86V241.65H309.86V241.62H309.86V241.58H309.86V241.54H309.87V241.48H309.87V241.45H309.87V241.41H309.87V241.37H309.88V241.32H309.88V241.28H309.88V241.24H309.88V241.19H309.88V241.15H309.89V241.12H309.89V241.06H309.89V241.03H309.89V240.97H309.9V240.94H309.9V240.91H309.9V240.85H309.9V240.82H309.9V240.77H309.91V240.73H309.91V240.68H309.91V240.65H309.91V240.6H309.92V240.57H309.92V240.52H309.92V240.48H309.92V240.43H309.93V240.39H309.93V240.35H309.93V240.3H309.93V240.27H309.93V240.23H309.94V240.18H309.94V240.15H309.94V240.1H309.94V240.05H309.95V240.01H309.95V239.98H309.95V239.93H309.95V239.88H309.96V239.84H309.96V239.79H309.96V239.76H309.96V239.72H309.96V239.68H309.97V239.63H309.97V239.59H309.97V239.55H309.97V239.5H309.98V239.46H309.98V239.42H309.98V239.37H309.98V239.33H309.98V239.29H309.99V239.25H309.99V239.21H309.99V239.17H309.99V239.12H310V239.08H310V239.04H310V239H310V238.96H310.01V238.91H310.01V238.87H310.01V238.83H310.01V238.79H310.01V238.74H310.02V238.7H310.02V238.66H310.02V238.62H310.02V238.57H310.03V238.54H310.03V238.5H310.03V238.45H310.03V238.41H310.04V238.36H310.04V238.33H310.04V238.28H310.04V238.24H310.04V238.19H310.05V238.16H310.05V238.11H310.05V238.07H310.05V238.03H310.06V237.99H310.06V237.95H310.06V237.9H310.06V237.86H310.06V237.82H310.07V237.77H310.07V237.73H310.07V237.69H310.07V237.65H310.08V237.61H310.08V237.56H310.08V237.52H310.08V237.48H310.09V237.44H310.09V237.4H310.09V237.36H310.09V237.31H310.09V237.27H310.1V237.23H310.1V237.19H310.1V237.14H310.1V237.1H310.11V237.06H310.11V237.01H310.11V236.97H310.11V236.93H310.12V236.89H310.12V236.85H310.12V236.8H310.12V236.76H310.12V236.72H310.13V236.68H310.13V236.63H310.13V236.59H310.13V236.55H310.14V236.51H310.14V236.47H310.14V236.42H310.14V236.39H310.14V236.34H310.15V236.3H310.15V236.26H310.15V236.21H310.15V236.17H310.16V236.13H310.16V236.08H310.16V236.05H310.16V236H310.17V235.96H310.17V235.91H310.17V235.88H310.17V235.84H310.17V235.79H310.18V235.75H310.18V235.71H310.18V235.66H310.18V235.62H310.19V235.58H310.19V235.54H310.19V235.5H310.19V235.46H310.2V235.41H310.2V235.37H310.2V235.33H310.2V235.28H310.2V235.24H310.21V235.2H310.21V235.16H310.21V235.12H310.21V235.07H310.22V235.03H310.22V234.99H310.22V234.95H310.22V234.91H310.22V234.86H310.23V234.82H310.23V234.78H310.23V234.73H310.23V234.7H310.24V234.65H310.24V234.61H310.24V234.56H310.24V234.53H310.25V234.49H310.25V234.44H310.25V234.4H310.28V234.4H310.32V234.4H310.35V234.4H310.39V234.4H310.42V234.4H310.46V234.4H310.49V234.4H310.53V234.4H310.56V234.4H310.59V234.4H310.63V234.4H310.66V234.4H310.7V234.4H310.73V234.4H310.77V234.4H310.8V234.4H310.83V234.4H310.87V234.4H310.9V234.4H310.94V234.4H310.97V234.4H311.01V234.4H311.04V234.4H311.08V234.4H311.11V234.4H311.14V234.4H311.18V234.4H311.21V234.4H311.25V234.4H311.28V234.4H311.32V234.4H311.35V234.4H311.39V234.4H311.42V234.4H311.45V234.4H311.49V234.4H311.52V234.4H311.56V234.4H311.59V234.4H311.63V234.4H311.66V234.4H311.69V234.4H311.73V234.4H311.76V234.4H311.8V234.4H311.83V234.4H311.87V234.4H311.9V234.4H311.94V234.4H311.97V234.4H312V234.4H312.04V234.4H312.07V234.4H312.11V234.4H312.14V234.4H312.18V234.4H312.21V234.4H312.24V234.4H312.28V234.4H312.31V234.4H312.35V234.4H312.38V234.4H312.42V234.4H312.45V234.4H312.49V234.4H312.52V234.4H312.55V234.4H312.59V234.4H312.62V234.4H312.66V234.4H312.69V234.4H312.73V234.4H312.76V234.4H312.8V234.4H312.83V234.4H312.86V234.4H312.9V234.4H312.93V234.4H312.97V234.4H313V234.4H313.04V234.4H313.07V234.4H313.1V234.4H313.14V234.4H313.17V234.4H313.21V234.4H313.24V234.4H313.28V234.4H313.31V234.4H313.35V234.4H313.38V234.4H313.41V234.4H313.45V234.4H313.48V234.4H313.52V234.4H313.55V234.4H313.59V234.4H313.62V234.4H313.66V234.4H313.69V234.4H313.72V234.4H313.76V234.4H313.79V234.4H313.83V234.4H313.86V234.4H313.9V234.4H313.93V234.4H313.96V234.4H314V234.4H314.03V234.4H314.07V234.4H314.1V234.4H314.14V234.4H314.17V234.4H314.21V234.4H314.24V234.4H314.27V234.4H314.31V234.4H314.34V234.4H314.38V234.4H314.41V234.4H314.45V234.4H314.48V234.4H314.52V234.4H314.55V234.4H314.58V234.4H314.62V234.4H314.65V234.4H314.69V234.4H314.72V234.4H314.76V234.4H314.79V234.4H314.82V234.4H314.86V234.4H314.89V234.4H314.93V234.4H314.96V234.4H315V234.4H315.03V234.4H315.07V234.4H315.1V234.4H315.13V234.4H315.17V234.4H315.2V234.4H315.24V234.4H315.27V234.4H315.31V234.4H315.34V234.4H315.38V234.4H315.41V234.4H315.44V234.4H315.48V234.4H315.51V234.4H315.55V234.4H315.58V234.4H315.62V234.4H315.65V234.4H315.68V234.4H315.72V234.4H315.75V234.4H315.79V234.4H315.82V234.4H315.86V234.4H315.89V234.4H315.93V234.4H315.96V234.4H315.99V234.4H316.03V234.4H316.06V234.4H316.1V234.4H316.13V234.4H316.17V234.4H316.2V234.4H316.23V234.4H316.27V234.4H316.3V234.4H316.34V234.4H316.37V234.4H316.41V234.4H316.44V234.4H316.48V234.4H316.51V234.4H316.54V234.4H316.58V234.4H316.61V234.4H316.65V234.4H316.68V234.4H316.72V234.4H316.75V234.4H316.79V234.4H316.82V234.4H316.85V234.4H316.89V234.4H316.92V234.4H316.96V234.4H316.99V234.4H317.03V234.4H317.06V234.4H317.09V234.4H317.13V234.4H317.16V234.4H317.2V234.4H317.23V234.4H317.27V234.4H317.3V234.4H317.34V234.4H317.37V234.4H317.4V234.4H317.44V234.4H317.47V234.4H317.51V234.4H317.54V234.4H317.58V234.4H317.61V234.4H317.65V234.4H317.68V234.4H317.71V234.4H317.75V234.4H317.78V234.4H317.82V234.4H317.85V234.4H317.89V234.4H317.92V234.4H317.95V234.4H317.99V234.4H318.02V234.4H318.06V234.4H318.09V234.4H318.13V234.4H318.16V234.4H318.2V234.4H318.23V234.4H318.26V234.4H318.3V234.4H318.33V234.4H318.37V234.4H318.4V234.4H318.44V234.4H318.47V234.4" style="vector-effect: none; fill: none; stroke: rgb(139, 196, 59); stroke-opacity: 1; stroke-width: 3px; opacity: 1;"/></g><g class="points"/><g class="text"/></g><g class="trace scatter tracef880ad" style="stroke-miterlimit: 2; opacity: 1;"><g class="fills"/><g class="errorbars"/><g class="lines"/><g class="points"><path class="point" transform="translate(310.25,234.4)" d="M5.5,0A5.5,5.5 0 1,1 0,-5.5A5.5,5.5 0 0,1 5.5,0Z" style="opacity: 1; stroke: rgb(139, 196, 59); stroke-opacity: 1; stroke-width: 1px; fill: none;"/></g><g class="text"/></g><g class="trace scatter trace6fa5f8" style="stroke-miterlimit: 2; opacity: 1;"><g class="fills"/><g class="errorbars"/><g class="lines"><path class="js-line" d="M273.26,285H273.26V285H273.27V285H273.27V285H273.28V285H273.28V285H273.29V285H273.29V285H273.3V285H273.3V285H273.31V285H273.31V285H273.32V285H273.32V285H273.33V285H273.33V285H273.34V285H273.35V285H273.35V285H273.36V285H273.36V285H273.37V285H273.37V285H273.38V285H273.38V285H273.39V285H273.39V285H273.4V285H273.4V285H273.41V285H273.41V285H273.42V279.94H273.42V279.94H273.43V279.94H273.43V279.94H273.44V279.94H273.45V279.94H273.45V279.94H273.46V279.94H273.46V279.94H273.47V279.94H273.47V279.94H273.48V279.94H273.48V279.94H273.49V279.94H273.49V279.94H273.5V279.94H273.5V279.94H273.51V279.94H273.51V279.94H273.52V279.94H273.52V279.94H273.53V279.94H273.53V279.94H273.54V279.94H273.55V279.94H273.55V279.94H273.56V279.94H273.56V279.94H273.57V279.94H273.57V279.94H273.58V279.94H273.58V279.94H273.59V279.94H273.59V279.94H273.6V279.94H273.6V279.94H273.61V279.94H273.61V279.94H273.62V276.98H273.62V276.98H273.63V276.98H273.63V276.98H273.64V276.98H273.65V276.98H273.65V276.98H273.66V276.98H273.66V276.98H273.67V276.98H273.67V276.98H273.68V276.98H273.68V276.98H273.69V276.98H273.69V276.98H273.7V276.98H273.7V276.98H273.71V276.98H273.71V276.98H273.72V276.98H273.72V276.98H273.73V276.98H273.73V276.98H273.74V276.98H273.75V276.98H273.75V276.98H273.76V274.88H273.76V274.88H273.77V274.88H273.77V274.88H273.78V274.88H273.78V274.88H273.79V274.88H273.79V274.88H273.8V274.88H273.8V274.88H273.81V274.88H273.81V274.88H273.82V274.88H273.82V274.88H273.83V274.88H273.83V274.88H273.84V274.88H273.84V274.88H273.85V274.88H273.86V273.25H273.86V273.25H273.87V273.25H273.87V273.25H273.88V273.25H273.88V273.25H273.89V273.25H273.89V273.25H273.9V273.25H273.9V273.25H273.91V273.25H273.91V273.25H273.92V273.25H273.92V273.25H273.93V273.25H273.93V271.92H273.94V271.92H273.94V271.92H273.95V271.92H273.96V271.92H273.96V271.92H273.97V271.92H273.97V271.92H273.98V271.92H273.98V271.92H273.99V271.92H273.99V271.92H274V270.79H274V270.79H274.01V270.79H274.01V270.79H274.02V270.79H274.02V270.79H274.03V270.79H274.03V270.79H274.04V270.79H274.04V270.79H274.05V270.79H274.06V269.82H274.06V269.82H274.07V269.82H274.07V269.82H274.08V269.82H274.08V269.82H274.09V269.82H274.09V269.82H274.1V269.82H274.1V268.96H274.11V268.96H274.11V268.96H274.12V268.96H274.12V268.96H274.13V268.96H274.13V268.96H274.14V268.96H274.14V268.96H274.15V268.19H274.16V268.19H274.16V268.19H274.17V268.19H274.17V268.19H274.18V268.19H274.18V268.19H274.19V267.49H274.19V267.49H274.2V267.49H274.2V267.49H274.21V267.49H274.21V267.49H274.22V267.49H274.22V266.86H274.23V266.86H274.23V266.86H274.24V266.86H274.24V266.86H274.25V266.86H274.25V266.28H274.26V266.28H274.27V266.28H274.27V266.28H274.28V266.28H274.28V266.28H274.29V265.73H274.29V265.73H274.3V265.73H274.3V265.73H274.31V265.73H274.31V265.73H274.32V265.23H274.32V265.23H274.33V265.23H274.33V265.23H274.34V265.23H274.34V264.76H274.35V264.76H274.35V264.76H274.36V264.76H274.37V264.32H274.37V264.32H274.38V264.32H274.38V264.32H274.39V264.32H274.39V263.9H274.4V263.9H274.4V263.9H274.41V263.9H274.41V263.51H274.42V263.51H274.42V263.51H274.43V263.51H274.43V263.13H274.44V263.13H274.44V263.13H274.45V263.13H274.45V262.77H274.46V262.77H274.47V262.77H274.47V262.43H274.48V262.43H274.48V262.43H274.49V262.43H274.49V262.11H274.5V262.11H274.5V262.11H274.51V261.8H274.51V261.8H274.52V261.8H274.52V261.5H274.53V261.5H274.53V261.5H274.54V261.22H274.54V261.22H274.55V261.22H274.55V260.94H274.56V260.94H274.57V260.94H274.57V260.67H274.58V260.67H274.58V260.42H274.59V260.42H274.59V260.42H274.6V260.17H274.6V260.17H274.61V260.17H274.61V259.93H274.62V259.93H274.62V259.7H274.63V259.7H274.63V259.47H274.64V259.47H274.64V259.47H274.65V259.26H274.65V259.26H274.66V259.05H274.66V259.05H274.67V258.84H274.68V258.84H274.68V258.64H274.69V258.64H274.69V258.44H274.7V258.44H274.7V258.26H274.71V258.26H274.71V258.07H274.72V258.07H274.72V257.89H274.73V257.89H274.73V257.71H274.74V257.54H274.74V257.54H274.75V257.37H274.75V257.37H274.76V257.21H274.76V257.21H274.77V257.05H274.78V256.89H274.78V256.89H274.79V256.74H274.79V256.59H274.8V256.59H274.8V256.44H274.81V256.3H274.81V256.3H274.82V256.16H274.82V256.02H274.83V256.02H274.83V255.88H274.84V255.75H274.84V255.75H274.85V255.61H274.85V255.49H274.86V255.36H274.86V255.36H274.87V255.23H274.88V255.11H274.88V254.99H274.89V254.87H274.89V254.75H274.9V254.75H274.9V254.64H274.91V254.53H274.91V254.41H274.92V254.31H274.92V254.2H274.93V254.09H274.93V253.99H274.94V253.99H274.94V253.88H274.95V253.78H274.95V253.68H274.96V253.58H274.96V253.48H274.97V253.38H274.98V253.29H274.98V253.2H274.99V253.1H274.99V253.01H275V252.83H275V252.74H275.01V252.65H275.01V252.57H275.02V252.48H275.02V252.4H275.03V252.31H275.03V252.23H275.04V252.07H275.04V251.99H275.05V251.91H275.05V251.83H275.06V251.68H275.06V251.6H275.07V251.53H275.07V251.38H275.08V251.31H275.09V251.24H275.09V251.1H275.1V251.03H275.1V250.96H275.11V250.82H275.11V250.75H275.12V250.62H275.12V250.55H275.13V250.42H275.13V250.36H275.14V250.24H275.14V250.17H275.15V250.05H275.15V249.93H275.16V249.87H275.16V249.75H275.17V249.69H275.17V249.58H275.18V249.47H275.19V249.35H275.19V249.3H275.2V249.19H275.2V249.08H275.21V248.98H275.21V248.87H275.22V248.77H275.22V248.72H275.23V248.62H275.23V248.52H275.24V248.42H275.24V248.32H275.25V248.23H275.25V248.14H275.26V248H275.26V247.9H275.27V247.81H275.27V247.73H275.28V247.64H275.29V247.55H275.29V247.42H275.3V247.34H275.3V247.25H275.31V247.13H275.31V247.05H275.32V246.97H275.32V246.85H275.33V246.77H275.33V246.66H275.34V246.54H275.34V246.47H275.35V246.36H275.35V246.28H275.36V246.18H275.36V246.07H275.37V245.97H275.37V245.9H275.38V245.79H275.39V245.69H275.39V245.59H275.4V245.49H275.4V245.4H275.41V245.3H275.41V245.21H275.42V245.11H275.42V245.02H275.43V244.9H275.43V244.81H275.44V244.72H275.44V244.63H275.45V244.52H275.45V244.43H275.46V244.32H275.46V244.24H275.47V244.13H275.47V244.05H275.48V243.94H275.48V243.84H275.49V243.74H275.5V243.66H275.5V243.56H275.51V243.46H275.51V243.36H275.52V243.26H275.52V243.17H275.53V243.08H275.53V242.96H275.54V242.87H275.54V242.78H275.55V242.69H275.55V242.58H275.56V242.49H275.56V242.38H275.57V242.3H275.57V242.19H275.58V242.09H275.58V241.99H275.59V241.91H275.6V241.81H275.6V241.71H275.61V241.62H275.61V241.52H275.62V241.41H275.62V241.32H275.63V241.22H275.63V241.13H275.64V241.03H275.64V240.94H275.65V240.84H275.65V240.73H275.66V240.65H275.66V240.55H275.67V240.45H275.67V240.35H275.68V240.26H275.68V240.16H275.69V240.05H275.7V239.96H275.7V239.87H275.71V239.76H275.71V239.68H275.72V239.57H275.72V239.47H275.73V239.37H275.73V239.28H275.74V239.18H275.74V239.08H275.75V238.99H275.75V238.9H275.76V238.79H275.76V238.7H275.77V238.6H275.77V238.51H275.78V238.41H275.78V238.31H275.79V238.22H275.8V238.12H275.8V238.01H275.81V237.92H275.81V237.83H275.82V237.73H275.82V237.63H275.83V237.54H275.83V237.44H275.84V237.34H275.84V237.24H275.85V237.14H275.85V237.05H275.86V236.95H275.86V236.86H275.87V236.76H275.87V236.66H275.88V236.57H275.88V236.47H275.89V236.37H275.89V236.27H275.9V236.17H275.91V236.07H275.91V235.99H275.92V235.89H275.92V235.78H275.93V235.69H275.93V235.6H275.94V235.5H275.94V235.4H275.95V235.3H275.95V235.2H275.96V235.11H275.96V235.01H275.97V234.92H275.97V234.82H275.98V234.72H275.98V234.62H275.99V234.53H275.99V234.43H276V234.33H276.01V234.24H276.01V234.14H276.02V234.04H276.02V233.94H276.03V233.84H276.03V233.75H276.04V233.65H276.04V233.55H276.05V233.46H276.05V233.36H276.06V233.27H276.06V233.17H276.07V233.07H276.07V232.97H276.08V232.87H276.08V232.78H276.09V232.68H276.09V232.58H276.1V232.48H276.11V232.39H276.11V232.3H276.12V232.19H276.12V232.1H276.13V232H276.13V231.91H276.14V231.81H276.14V231.71H276.15V231.61H276.15V231.52H276.16V231.42H276.16V231.32H276.17V231.22H276.17V231.13H276.18V231.03H276.18V230.93H276.19V230.84H276.19V230.74H276.2V230.64H276.21V230.55H276.21V230.45H276.22V230.35H276.22V230.25H276.23V230.16H276.23V230.06H276.24V229.96H276.24V229.87H276.25V229.77H276.25V229.67H276.26V229.57H276.26V229.48H276.27V229.38H276.27V229.29H276.28V229.19H276.28V229.09H276.29V228.99H276.29V228.9H276.3V228.8H276.3V228.7H276.31V228.6H276.32V228.51H276.32V228.41H276.33V228.31H276.33V228.22H276.34V228.12H276.34V228.02H276.35V227.92H276.35V227.83H276.36V227.73H276.36V227.63H276.37V227.54H276.37V227.44H276.38V227.34H276.38V227.25H276.39V227.15H276.39V227.05H276.4V226.95H276.4V226.86H276.41V226.76H276.42V226.66H276.42V226.57H276.43V226.47H276.43V226.37H276.44V226.28H276.44V226.18H276.45V226.08H276.45V225.98H276.46V225.89H276.46V225.79H276.47V225.69H276.47V225.6H276.48V225.5H276.48V225.4H276.49V225.3H276.49V225.21H276.5V225.11H276.5V225.01H276.51V224.92H276.52V224.82H276.52V224.72H276.53V224.63H276.53V224.53H276.54V224.43H276.54V224.33H276.55V224.24H276.55V224.14H276.56V224.04H276.56V223.95H276.57V223.85H276.57V223.75H276.58V223.65H276.58V223.56H276.59V223.46H276.59V223.36H276.6V223.27H276.6V223.17H276.61V223.07H276.62V222.97H276.62V222.88H276.63V222.78H276.63V222.68H276.64V222.59H276.64V222.49H276.65V222.39H276.65V222.3H276.66V222.2H276.66V222.1H276.67V222H276.67V221.91H276.68V221.81H276.68V221.71H276.69V221.62H276.69V221.52H276.7V221.42H276.7V221.32H276.71V221.23H276.71V221.13H276.72V221.03H276.73V220.94H276.73V220.84H276.74V220.74H276.74V220.65H276.75V220.55H276.75V220.45H276.76V220.35H276.76V220.26H276.77V220.16H276.77V220.06H276.78V219.97H276.78V219.87H276.79V219.77H276.79V219.67H276.8V219.58H276.8V219.48H276.81V219.38H276.81V219.29H276.82V219.19H276.83V219.09H276.83V218.99H276.84V218.9H276.84V218.8H276.85V218.7H276.85V218.61H276.86V218.51H276.86V218.41H276.87V218.32H276.87V218.22H276.88V218.12H276.88V218.02H276.89V217.93H276.89V217.83H276.9V217.73H276.9V217.64H276.91V217.54H276.91V217.44H276.92V217.35H276.93V217.25H276.93V217.15H276.94V217.05H276.94V216.96H276.95V216.86H276.95V216.76H276.96V216.67H276.96V216.57H276.97V216.47H276.97V216.37H276.98V216.28H276.98V216.18H276.99V216.08H276.99V215.99H277V215.89H277V215.79H277.01V215.69H277.01V215.6H277.02V215.5H277.03V215.4H277.03V215.31H277.04V215.21H277.04V215.11H277.05V215.02H277.05V214.92H277.06V214.82H277.06V214.72H277.07V214.63H277.07V214.53H277.08V214.43H277.08V214.34H277.09V214.24H277.09V214.14H277.1V214.04H277.1V213.95H277.11V213.85H277.11V213.75H277.12V213.66H277.12V213.56H277.13V213.46H277.14V213.37H277.14V213.27H277.15V213.17H277.15V213.07H277.16V212.98H277.16V212.88H277.17V212.78H277.17V212.69H277.18V212.59H277.18V212.49H277.19V212.39H277.19V212.3H277.2V212.2H277.2V212.1H277.21V212.01H277.21V211.91H277.22V211.81H277.22V211.72H277.23V211.62H277.24V211.52H277.24V211.42H277.25V211.33H277.25V211.23H277.26V211.13H277.26V211.04H277.27V210.94H277.27V210.84H277.28V210.74H277.28V210.65H277.29V210.55H277.29V210.45H277.3V210.36H277.3V210.26H277.31V210.16H277.31V210.06H277.32V209.97H277.32V209.87H277.33V209.77H277.34V209.68H277.34V209.58H277.35V209.48H277.35V209.39H277.36V209.29H277.36V209.19H277.37V209.09H277.37V209H277.38V208.9H277.38V208.8H277.39V208.71H277.39V208.61H277.4V208.51H277.4V208.41H277.41V208.32H277.41V208.22H277.42V208.12H277.42V208.03H277.43V207.93H277.44V207.83H277.44V207.74H277.45V207.64H277.45V207.54H277.46V207.44H277.46V207.35H277.47V207.25H277.47V207.15H277.48V207.06H277.48V206.96H277.49V206.86H277.49V206.76H277.5V206.67H277.5V206.57H277.51V206.47H277.51V206.38H277.52V206.28H277.52V206.18H277.53V206.09H277.54V205.99H277.54V205.89H277.55V205.79H277.55V205.7H277.56V205.6H277.56V205.5H277.57V205.41H277.57V205.31H277.58V205.21H277.58V205.11H277.59V205.02H277.59V204.92H277.6V204.82H277.6V204.73H277.61V204.63H277.61V204.53H277.62V204.44H277.62V204.34H277.63V204.24H277.63V204.14H277.64V204.05H277.65V203.95H277.65V203.85H277.66V203.76H277.66V203.66H277.67V203.56H277.67V203.46H277.68V203.37H277.68V203.27H277.69V203.17H277.69V203.08H277.7V202.98H277.7V202.88H277.71V202.79H277.71V202.69H277.72V202.59H277.72V202.49H277.73V202.4H277.73V202.3H277.74V202.2H277.75V202.11H277.75V202.01H277.76V201.91H277.76V201.81H277.77V201.72H277.77V201.62H277.78V201.52H277.78V201.43H277.79V201.33H277.79V201.23H277.8V201.13H277.8V201.04H277.81V200.94H277.81V200.84H277.82V200.75H277.82V200.65H277.83V200.55H277.83V200.46H277.84V200.36H277.85V200.26H277.85V200.16H277.86V200.07H277.86V199.97H277.87V199.87H277.87V199.78H277.88V199.68H277.88V199.58H277.89V199.48H277.89V199.39H277.9V199.29H277.9V199.19H277.91V199.1H277.91V199H277.92V198.9H277.92V198.81H277.93V198.71H277.93V198.61H277.94V198.51H277.95V198.42H277.95V198.32H277.96V198.22H277.96V198.13H277.97V198.03H277.97V197.93H277.98V197.83H277.98V197.74H277.99V197.64H277.99V197.54H278V197.45H278V197.35H278.01V197.25H278.01V197.16H278.02V197.06H278.02V196.96H278.03V196.86H278.03V196.77H278.04V196.67H278.04V196.57H278.05V196.48H278.06V196.38H278.06V196.28H278.07V196.18H278.07V196.09H278.08V195.99H278.08V195.89H278.09V195.8H278.09V195.7H278.1V195.6H278.1V195.51H278.11V195.41H278.11V195.31H278.12V195.21H278.12V195.12H278.13V195.02H278.13V194.92H278.14V194.83H278.14V194.73H278.15V194.63H278.16V194.53H278.16V194.44H278.17V194.34H278.17V194.24H278.18V194.15H278.18V194.05H278.19V193.95H278.19V193.85H278.2V193.76H278.2V193.66H278.21V193.56H278.21V193.47H278.22V193.37H278.22V193.27H278.23V193.18H278.23V193.08H278.24V192.98H278.24V192.88H278.25V192.79H278.26V192.69H278.26V192.59H278.27V192.5H278.27V192.4H278.28V192.3H278.28V192.2H278.29V192.11H278.29V192.01H278.3V191.91H278.3V191.82H278.31V191.72H278.31V191.62H278.32V191.53H278.32V191.43H278.33V191.33H278.33V191.23H278.34V191.14H278.34V191.04H278.35V190.94H278.36V190.85H278.36V190.75H278.37V190.65H278.37V190.55H278.38V190.46H278.38V190.36H278.39V190.26H278.39V190.17H278.4V190.07H278.4V189.97H278.41V189.88H278.41V189.78H278.42V189.68H278.42V189.58H278.43V189.49H278.43V189.39H278.44V189.29H278.44V189.2H278.45V189.1H278.45V189H278.46V188.9H278.47V188.81H278.47V188.71H278.48V188.61H278.48V188.52H278.49V188.42H278.49V188.32H278.5V188.23H278.5V188.13H278.51V188.03H278.51V187.93H278.52V187.84H278.52V187.74H278.53V187.64H278.53V187.55H278.54V187.45H278.54V187.35H278.55V187.25H278.55V187.16H278.56V187.06H278.57V186.96H278.57V186.87H278.58V186.77H278.58V186.67H278.59V186.58H278.59V186.48H278.6V186.38H278.6V186.28H278.61V186.19H278.61V186.09H278.62V185.99H278.62V185.9H278.63V185.8H278.63V185.7H278.64V185.6H278.64V185.51H278.65V185.41H278.65V185.31H278.66V185.22H278.67V185.12H278.67V185.02H278.68V184.92H278.68V184.83H278.69V184.73H278.69V184.63H278.7V184.54H278.7V184.44H278.71V184.34H278.71V184.25H278.72V184.15H278.72V184.05H278.73V183.95H278.73V183.86H278.74V183.76H278.74V183.66H278.75V183.57H278.75V183.47H278.76V183.37H278.77V183.27H278.77V183.18H278.78V183.08H278.78V182.98H278.79V182.89H278.79V182.79H278.8V182.69H278.8V182.6H278.81V182.5H278.81V182.4H278.82V182.3H278.82V182.21H278.83V182.11H278.83V182.01H278.84V181.92H278.84V181.82H278.85V181.72H278.85V181.62H278.86V181.53H278.86V181.43H278.87V181.33H278.88V181.24H278.88V181.14H278.89V181.04H278.89V180.95H278.9V180.85H278.9V180.75H278.91V180.65H278.91V180.56H278.92V180.46H278.92V180.36H278.93V180.27H278.93V180.17H278.94V180.07H278.94V179.97H278.95V179.88H278.95V179.78H278.96V179.68H278.96V179.59H278.97V179.49H278.98V179.39H278.98V179.3H278.99V179.2H278.99V179.1H279V179H279V178.91H279.01V178.81H279.01V178.71H279.02V178.62H279.02V178.52H279.03V178.42H279.03V178.32H279.04V178.23H279.04V178.13H279.05V178.03H279.05V177.94H279.06V177.84H279.06V177.74H279.07V177.64H279.08V177.55H279.08V177.45H279.09V177.35H279.09V177.26H279.1V177.16H279.1V177.06H279.11V176.97H279.11V176.87H279.12V176.77H279.12V176.67H279.13V176.58H279.13V176.48H279.14V176.38H279.14V176.29H279.15V176.19H279.15V176.09H279.16V175.99H279.16V175.9H279.17V175.8H279.18V175.7H279.18V175.61H279.19V175.51H279.19V175.41H279.2V175.32H279.2V175.22H279.21V175.12H279.21V175.02H279.22V174.93H279.22V174.83H279.23V174.73H279.23V174.64H279.24V174.54H279.24V174.44H279.25V174.34H279.25V174.25H279.26V174.15H279.26V174.05H279.27V173.96H279.27V173.86H279.28V173.76H279.29V173.67H279.29V173.57H279.3V173.47H279.3V173.37H279.31V173.28H279.31V173.18H279.32V173.08H279.32V172.99H279.33V172.89H279.33V172.79H279.34V172.69H279.34V172.6H279.35V172.5H279.35V172.4H279.36V172.31H279.36V172.21H279.37V172.11H279.37V172.02H279.38V171.92H279.39V171.82H279.39V171.72H279.4V171.63H279.4V171.53H279.41V171.43H279.41V171.34H279.42V171.24H279.42V171.14H279.43V171.04H279.43V170.95H279.44V170.85H279.44V170.75H279.45V170.66H279.45V170.56H279.46V170.46H279.46V170.36H279.47V170.27H279.47V170.17H279.48V170.07H279.49V169.98H279.49V169.88H279.5V169.78H279.5V169.69H279.51V169.59H279.51V169.49H279.52V169.39H279.52V169.3H279.53V169.2H279.53V169.1H279.54V169.01H279.54V168.91H279.55V168.81H279.55V168.71H279.56V168.62H279.85V168.62H280.14V168.62H280.43V168.62H280.72V168.62H281.01V168.62H281.31V168.62H281.6V168.62H281.89V168.62H282.18V168.62H282.47V168.62H282.76V168.62H283.05V168.62H283.34V168.62H283.64V168.62H283.93V168.62H284.22V168.62H284.51V168.62H284.8V168.62H285.09V168.62H285.38V168.62H285.67V168.62H285.97V168.62H286.26V168.62H286.55V168.62H286.84V168.62H287.13V168.62H287.42V168.62H287.71V168.62H288V168.62H288.3V168.62H288.59V168.62H288.88V168.62H289.17V168.62H289.46V168.62H289.75V168.62H290.04V168.62H290.33V168.62H290.63V168.62H290.92V168.62H291.21V168.62H291.5V168.62H291.79V168.62H292.08V168.62H292.37V168.62H292.66V168.62H292.96V168.62H293.25V168.62H293.54V168.62H293.83V168.62H294.12V168.62H294.41V168.62H294.7V168.62H294.99V168.62H295.29V168.62H295.58V168.62H295.87V168.62H296.16V168.62H296.45V168.62H296.74V168.62H297.03V168.62H297.32V168.62H297.61V168.62H297.91V168.62H298.2V168.62H298.49V168.62H298.78V168.62H299.07V168.62H299.36V168.62H299.65V168.62H299.94V168.62H300.24V168.62H300.53V168.62H300.82V168.62H301.11V168.62H301.4V168.62H301.69V168.62H301.98V168.62H302.27V168.62H302.57V168.62H302.86V168.62H303.15V168.62H303.44V168.62H303.73V168.62H304.02V168.62H304.31V168.62H304.6V168.62H304.9V168.62H305.19V168.62H305.48V168.62H305.77V168.62H306.06V168.62H306.35V168.62H306.64V168.62H306.93V168.62H307.23V168.62H307.52V168.62H307.81V168.62H308.1V168.62H308.39V168.62H308.68V168.62H308.97V168.62H309.26V168.62H309.56V168.62H309.85V168.62H310.14V168.62H310.43V168.62H310.72V168.62H311.01V168.62H311.3V168.62H311.59V168.62H311.89V168.62H312.18V168.62H312.47V168.62H312.76V168.62H313.05V168.62H313.34V168.62H313.63V168.62H313.92V168.62H314.21V168.62H314.51V168.62H314.8V168.62H315.09V168.62H315.38V168.62H315.67V168.62H315.96V168.62H316.25V168.62H316.54V168.62H316.84V168.62H317.13V168.62H317.42V168.62H317.71V168.62H318V168.62H318.29V168.62H318.58V168.62H318.87V168.62H319.17V168.62H319.46V168.62H319.75V168.62H320.04V168.62H320.33V168.62H320.62V168.62H320.91V168.62H321.2V168.62H321.5V168.62H321.79V168.62H322.08V168.62H322.37V168.62H322.66V168.62H322.95V168.62H323.24V168.62H323.53V168.62H323.83V168.62H324.12V168.62H324.41V168.62H324.7V168.62H324.99V168.62H325.28V168.62H325.57V168.62H325.86V168.62H326.16V168.62H326.45V168.62H326.74V168.62H327.03V168.62H327.32V168.62H327.61V168.62H327.9V168.62H328.19V168.62H328.48V168.62H328.78V168.62H329.07V168.62H329.36V168.62H329.65V168.62H329.94V168.62H330.23V168.62H330.52V168.62H330.81V168.62H331.11V168.62H331.4V168.62H331.69V168.62H331.98V168.62H332.27V168.62H332.56V168.62H332.85V168.62H333.14V168.62H333.44V168.62H333.73V168.62H334.02V168.62H334.31V168.62H334.6V168.62H334.89V168.62H335.18V168.62H335.47V168.62H335.77V168.62H336.06V168.62H336.35V168.62H336.64V168.62H336.93V168.62H337.22V168.62H337.51V168.62H337.8V168.62H338.1V168.62H338.39V168.62H338.68V168.62H338.97V168.62H339.26V168.62H339.55V168.62H339.84V168.62H340.13V168.62H340.43V168.62H340.72V168.62H341.01V168.62H341.3V168.62H341.59V168.62H341.88V168.62H342.17V168.62H342.46V168.62H342.76V168.62H343.05V168.62H343.34V168.62H343.63V168.62H343.92V168.62H344.21V168.62H344.5V168.62H344.79V168.62H345.08V168.62H345.38V168.62H345.67V168.62H345.96V168.62H346.25V168.62H346.54V168.62H346.83V168.62H347.12V168.62H347.41V168.62H347.71V168.62H348V168.62H348.29V168.62H348.58V168.62H348.87V168.62H349.16V168.62" style="vector-effect: none; fill: none; stroke: rgb(139, 196, 59); stroke-opacity: 1; stroke-width: 3px; opacity: 1;"/></g><g class="points"/><g class="text"/></g><g class="trace scatter traced8dd91" style="stroke-miterlimit: 2; opacity: 1;"><g class="fills"/><g class="errorbars"/><g class="lines"/><g class="points"><path class="point" transform="translate(279.85,168.62)" d="M5.5,5.5H-5.5V-5.5H5.5Z" style="opacity: 1; stroke: rgb(139, 196, 59); stroke-opacity: 1; stroke-width: 1px; fill: none;"/><path class="point" transform="translate(314.51,168.62)" d="M5.5,5.5H-5.5V-5.5H5.5Z" style="opacity: 1; stroke: rgb(139, 196, 59); stroke-opacity: 1; stroke-width: 1px; fill: none;"/><path class="point" transform="translate(349.16,168.62)" d="M5.5,5.5H-5.5V-5.5H5.5Z" style="opacity: 1; stroke: rgb(139, 196, 59); stroke-opacity: 1; stroke-width: 1px; fill: none;"/></g><g class="text"/></g><g class="trace scatter trace5ebc62" style="stroke-miterlimit: 2; opacity: 1;"><g class="fills"/><g class="errorbars"/><g class="lines"><path class="js-line" d="M19.78,285H19.78V285H19.78V285H19.78V285H19.78V285H19.78V285H19.78V285H19.78V285H19.78V285H19.78V285H19.78V285H19.78V285H19.78V285H19.78V285H20.05V279.94H20.05V279.94H20.05V279.94H20.05V279.94H20.05V279.94H20.05V279.94H20.05V279.94H20.05V279.94H20.05V279.94H20.05V279.94H20.05V279.94H20.05V279.94H20.05V279.94H20.05V279.94H20.05V279.94H20.05V279.94H20.05V279.94H20.21V276.98H20.21V276.98H20.21V276.98H20.21V276.98H20.21V276.98H20.21V276.98H20.21V276.98H20.21V276.98H20.21V276.98H20.21V276.98H20.21V276.98H20.33V274.88H20.33V274.88H20.33V274.88H20.33V274.88H20.33V274.88H20.33V274.88H20.33V274.88H20.33V274.88H20.33V274.88H20.42V273.25H20.42V273.25H20.42V273.25H20.42V273.25H20.42V273.25H20.42V273.25H20.49V271.92H20.49V271.92H20.49V271.92H20.49V271.92H20.49V271.92H20.49V271.92H20.55V270.79H20.55V270.79H20.55V270.79H20.55V270.79H20.55V270.79H20.6V269.82H20.6V269.82H20.6V269.82H20.6V269.82H20.65V268.96H20.65V268.96H20.65V268.96H20.69V268.19H20.69V268.19H20.69V268.19H20.69V268.19H20.73V267.49H20.73V267.49H20.73V267.49H20.76V266.86H20.76V266.86H20.76V266.86H20.79V266.28H20.79V266.28H20.82V265.73H20.82V265.73H20.85V265.23H20.85V265.23H20.85V265.23H20.88V264.76H20.88V264.76H20.9V264.32H20.9V264.32H20.92V263.9H20.92V263.9H20.94V263.51H20.96V263.13H20.96V263.13H20.98V262.77H20.98V262.77H21V262.43H21.02V262.11H21.02V262.11H21.04V261.8H21.05V261.5H21.07V261.22H21.07V261.22H21.08V260.94H21.1V260.67H21.11V260.42H21.12V260.17H21.14V259.93H21.15V259.7H21.16V259.47H21.17V259.26H21.19V259.05H21.2V258.84H21.21V258.64H21.22V258.44H21.23V258.26H21.24V258.07H21.26V257.71H21.27V257.54H21.28V257.37H21.29V257.05H21.3V256.89H21.31V256.74H21.33V256.44H21.33V256.3H21.35V256.02H21.36V255.88H21.37V255.61H21.38V255.36H21.4V255.11H21.4V254.99H21.42V254.75H21.43V254.53H21.44V254.31H21.45V254.09H21.46V253.88H21.48V253.58H21.49V253.38H21.5V253.2H21.52V252.92H21.53V252.74H21.54V252.48H21.55V252.31H21.56V252.07H21.58V251.83H21.58V251.68H21.6V251.45H21.61V251.24H21.62V250.96H21.63V250.75H21.65V250.55H21.66V250.3H21.67V250.11H21.68V249.87H21.69V249.69H21.7V249.47H21.72V249.24H21.73V249.03H21.74V248.77H21.75V248.57H21.76V248.37H21.78V248.14H21.79V247.9H21.8V247.68H21.81V247.46H21.82V247.25H21.83V247.05H21.85V246.81H21.86V246.58H21.87V246.36H21.88V246.14H21.9V245.93H21.91V245.73H21.92V245.49H21.93V245.27H21.94V245.05H21.95V244.84H21.97V244.63H21.98V244.41H21.99V244.18H22V243.97H22.01V243.74H22.03V243.53H22.04V243.31H22.05V243.08H22.06V242.87H22.07V242.64H22.09V242.43H22.1V242.22H22.11V241.99H22.12V241.77H22.13V241.54H22.14V241.33H22.16V241.12H22.17V240.89H22.18V240.67H22.19V240.45H22.2V240.23H22.22V240.01H22.23V239.79H22.24V239.57H22.25V239.36H22.26V239.14H22.28V238.91H22.29V238.7H22.3V238.47H22.31V238.25H22.32V238.04H22.33V237.82H22.35V237.59H22.36V237.38H22.37V237.16H22.38V236.94H22.39V236.72H22.41V236.5H22.42V236.28H22.43V236.07H22.44V235.84H22.45V235.62H22.47V235.41H22.48V235.18H22.49V234.96H22.5V234.74H22.51V234.53H22.52V234.31H22.54V234.09H22.55V233.87H22.56V233.65H22.57V233.43H22.58V233.21H22.6V232.99H22.61V232.77H22.62V232.55H22.63V232.33H22.64V232.11H22.66V231.89H22.67V231.67H22.68V231.45H22.69V231.23H22.7V231.01H22.72V230.79H22.73V230.58H22.74V230.35H22.75V230.14H22.76V229.92H22.77V229.7H22.79V229.48H22.8V229.26H22.81V229.04H22.82V228.82H22.83V228.6H22.85V228.38H22.86V228.16H22.87V227.94H22.88V227.72H22.89V227.5H22.91V227.28H22.92V227.06H22.93V226.85H22.94V226.63H22.95V226.41H22.96V226.19H22.98V225.97H22.99V225.75H23V225.53H23.01V225.31H23.02V225.09H23.04V224.87H23.05V224.65H23.06V224.43H23.07V224.21H23.08V223.99H23.1V223.77H23.11V223.55H23.12V223.33H23.13V223.11H23.14V222.89H23.15V222.68H23.17V222.46H23.18V222.24H23.19V222.02H23.2V221.8H23.21V221.58H23.23V221.36H23.24V221.14H23.25V220.92H23.26V220.7H23.27V220.48H23.29V220.26H23.3V220.04H23.31V219.82H23.32V219.6H23.33V219.38H23.34V219.16H23.36V218.94H23.37V218.73H23.38V218.51H23.39V218.29H23.4V218.07H23.42V217.85H23.43V217.63H23.44V217.41H23.45V217.19H23.46V216.97H23.48V216.75H23.49V216.53H23.5V216.31H23.51V216.09H23.52V215.87H23.54V215.65H23.55V215.43H23.56V215.21H23.57V214.99H23.58V214.77H23.59V214.56H23.61V214.34H23.62V214.12H23.63V213.9H23.64V213.68H23.65V213.46H23.67V213.24H23.68V213.02H23.69V212.8H23.7V212.58H23.71V212.36H23.73V212.14H23.74V211.92H23.75V211.7H23.76V211.48H23.77V211.26H23.78V211.04H23.8V210.82H23.81V210.61H23.82V210.39H23.83V210.17H23.84V209.95H23.86V209.73H23.87V209.51H23.88V209.29H23.89V209.07H23.9V208.85H23.92V208.63H23.93V208.41H23.94V208.19H23.95V207.97H23.96V207.75H23.97V207.53H23.99V207.31H24V207.09H24.01V206.87H24.02V206.66H24.03V206.44H24.05V206.22H24.06V206H24.07V205.78H24.08V205.56H24.09V205.34H24.11V205.12H24.12V204.9H24.13V204.68H24.14V204.46H24.15V204.24H24.17V204.02H24.18V203.8H24.19V203.58H24.2V203.36H24.21V203.14H24.22V202.92H24.24V202.7H24.25V202.49H24.26V202.27H24.27V202.05H24.28V201.83H24.3V201.61H24.31V201.39H24.32V201.17H24.33V200.95H24.34V200.73H24.36V200.51H24.37V200.29H24.38V200.07H24.39V199.85H24.4V199.63H24.41V199.41H24.43V199.19H24.44V198.97H24.45V198.75H24.46V198.54H24.47V198.32H24.49V198.1H24.5V197.88H24.51V197.66H24.52V197.44H24.53V197.22H24.55V197H24.56V196.78H24.57V196.56H24.58V196.34H24.59V196.12H24.6V195.9H24.62V195.68H24.63V195.46H24.64V195.24H24.65V195.02H24.66V194.8H24.68V194.59H24.69V194.37H24.7V194.15H24.71V193.93H24.72V193.71H24.74V193.49H24.75V193.27H24.76V193.05H24.77V192.83H24.78V192.61H24.79V192.39H24.81V192.17H24.82V191.95H24.83V191.73H24.84V191.51H24.85V191.29H24.87V191.07H24.88V190.85H24.89V190.63H24.9V190.42H24.91V190.2H24.93V189.98H24.94V189.76H24.95V189.54H24.96V189.32H24.97V189.1H24.99V188.88H25V188.66H25.01V188.44H25.02V188.22H25.03V188H25.04V187.78H25.06V187.56H25.07V187.34H25.08V187.12H25.09V186.9H25.1V186.68H25.12V186.47H25.13V186.25H25.14V186.03H25.15V185.81H25.16V185.59H25.18V185.37H25.19V185.15H25.2V184.93H25.21V184.71H25.22V184.49H25.23V184.27H25.25V184.05H25.26V183.83H25.27V183.61H25.28V183.39H25.29V183.17H25.31V182.95H25.32V182.73H25.33V182.52H25.34V182.3H25.35V182.08H25.37V181.86H25.38V181.64H25.39V181.42H25.4V181.2H25.41V180.98H25.42V180.76H25.44V180.54H25.45V180.32H25.46V180.1H25.47V179.88H25.48V179.66H25.5V179.44H25.51V179.22H25.52V179H25.53V178.78H25.54V178.56H25.56V178.35H25.57V178.13H25.58V177.91H25.59V177.69H25.6V177.47H25.61V177.25H25.63V177.03H25.64V176.81H25.65V176.59H25.66V176.37H25.67V176.15H25.69V175.93H25.7V175.71H25.71V175.49H25.72V175.27H25.73V175.05H25.75V174.83H25.76V174.61H25.77V174.4H25.78V174.18H25.79V173.96H25.81V173.74H25.82V173.52H25.83V173.3H25.84V173.08H25.85V172.86H25.86V172.64H25.88V172.42H25.89V172.2H25.9V171.98H25.91V171.76H25.92V171.54H25.94V171.32H25.95V171.1H25.96V170.88H25.97V170.66H25.98V170.45H26V170.23H26.01V170.01H26.02V169.79H26.03V169.57H26.04V169.35H26.05V169.13H26.07V168.91H26.08V168.69H26.09V168.47H26.1V168.25H26.11V168.03H26.13V167.81H26.14V167.59H26.15V167.37H26.16V167.15H26.17V166.93H26.19V166.71H26.2V166.49H26.21V166.28H26.22V166.06H26.23V165.84H26.24V165.62H26.26V165.4H26.27V165.18H26.28V164.96H26.29V164.74H26.3V164.52H26.32V164.3H26.33V164.08H26.34V163.86H26.35V163.64H26.36V163.42H26.38V163.2H26.39V162.98H26.4V162.76H26.41V162.54H26.42V162.33H26.43V162.11H26.45V161.89H26.46V161.67H26.47V161.45H26.48V161.23H26.49V161.01H26.51V160.79H26.52V160.57H26.53V160.35H26.54V160.13H26.55V159.91H26.57V159.69H26.58V159.47H26.59V159.25H26.6V159.03H26.61V158.81H26.63V158.59H26.64V158.38H26.65V158.16H26.66V157.94H26.67V157.72H26.68V157.5H26.7V157.28H26.71V157.06H26.72V156.84H26.73V156.62H26.74V156.4H26.76V156.18H26.77V155.96H26.78V155.74H26.79V155.52H26.8V155.3H26.82V155.08H26.83V154.86H26.84V154.64H26.85V154.43H26.86V154.21H26.87V153.99H26.89V153.77H26.9V153.55H26.91V153.33H26.92V153.11H26.93V152.89H26.95V152.67H26.96V152.45H26.97V152.23H26.98V152.01H26.99V151.79H27.01V151.57H27.02V151.35H27.03V151.13H27.04V150.91H27.05V150.69H27.06V150.47H27.08V150.26H27.09V150.04H27.1V149.82H27.11V149.6H27.12V149.38H27.14V149.16H27.15V148.94H27.16V148.72H27.17V148.5H27.18V148.28H27.2V148.06H27.21V147.84H27.22V147.62H27.23V147.4H27.24V147.18H27.25V146.96H27.27V146.74H27.28V146.52H27.29V146.31H27.3V146.09H27.31V145.87H27.33V145.65H27.34V145.43H27.35V145.21H27.36V144.99H27.37V144.77H27.39V144.55H27.4V144.33H27.41V144.11H27.42V143.89H27.43V143.67H27.45V143.45H27.46V143.23H27.47V143.01H27.48V142.79H27.49V142.57H27.5V142.36H27.52V142.14H27.53V141.92H27.54V141.7H27.55V141.48H27.56V141.26H27.58V141.04H27.59V140.82H27.6V140.6H27.61V140.38H27.62V140.16H27.64V139.94H27.65V139.72H27.66V139.5H27.67V139.28H27.68V139.06H27.69V138.84H27.71V138.62H27.72V138.4H27.73V138.19H27.74V137.97H27.75V137.75H27.77V137.53H27.78V137.31H27.79V137.09H27.8V136.87H27.81V136.65H27.83V136.43H27.84V136.21H27.85V135.99H27.86V135.77H27.87V135.55H27.88V135.33H27.9V135.11H27.91V134.89H27.92V134.67H27.93V134.45H27.94V134.24H27.96V134.02H27.97V133.8H27.98V133.58H27.99V133.36H28V133.14H28.02V132.92H28.03V132.7H28.04V132.48H28.05V132.26H28.06V132.04H28.08V131.82H28.09V131.6H28.1V131.38H28.11V131.16H28.12V130.94H28.13V130.72H28.15V130.5H28.16V130.29H28.17V130.07H28.18V129.85H28.19V129.63H28.21V129.41H28.22V129.19H28.23V128.97H28.24V128.75H28.25V128.53H28.27V128.31H28.28V128.09H28.29V127.87H28.3V127.65H28.31V127.43H28.32V127.21H28.34V126.99H28.35V126.77H28.36V126.55H28.37V126.33H28.38V126.12H28.4V125.9H28.41V125.68H28.42V125.46H28.43V125.24H28.44V125.02H28.46V124.8H28.47V124.58H28.48V124.36H28.49V124.14H28.5V123.92H28.51V123.7H28.53V123.48H28.54V123.26H28.55V123.04H28.56V122.82H28.57V122.6H28.59V122.38H28.6V122.17H28.61V121.95H28.62V121.73H28.63V121.51H28.65V121.29H28.66V121.07H28.67V120.85H28.68V120.63H28.69V120.41H28.7V120.19H28.72V119.97H28.73V119.75H28.74V119.53H28.75V119.31H28.76V119.09H28.78V118.87H28.79V118.65H28.8V118.43H28.81V118.22H28.82V118H28.84V117.78H28.85V117.56H28.86V117.34H28.87V117.12H28.88V116.9H28.9V116.68H28.91V116.46H28.92V116.24H28.93V116.02H28.94V115.8H28.95V115.58H28.97V115.36H28.98V115.14H28.99V114.92H29V114.7H29.01V114.48H29.03V114.27H29.04V114.05H29.05V113.83H29.06V113.61H29.07V113.39H29.09V113.17H29.1V112.95H29.11V112.73H29.12V112.51H29.13V112.29H29.14V112.07H29.16V111.85H29.17V111.63H29.18V111.41H29.19V111.19H29.2V110.97H29.22V110.75H29.23V110.53H29.24V110.31H29.25V110.1H29.26V109.88H29.28V109.66H29.29V109.44H29.3V109.22H29.31V109H29.32V108.78H29.33V108.56H29.35V108.34H29.36V108.12H29.37V107.9H29.38V107.68H29.39V107.46H29.41V107.24H29.42V107.02H29.43V106.8H29.44V106.58H29.45V106.36H29.47V106.15H29.48V105.93H29.49V105.71H29.5V105.49H29.51V105.27H29.52V105.05H29.54V104.83H29.55V104.61H29.56V104.39H29.57V104.17H29.58V103.95H29.6V103.73H29.61V103.51H29.62V103.29H29.63V103.07H29.64V102.85H29.66V102.63H29.67V102.41H29.68V102.2H29.69V101.98H29.7V101.76H29.72V101.54H29.73V101.32H29.74V101.1H29.75V100.88H29.76V100.66H29.77V100.44H29.79V100.22H29.8V100H29.81V99.78H29.82V99.56H29.83V99.34H29.85V99.12H29.86V98.9H29.87V98.68H29.88V98.46H29.89V98.24H29.91V98.03H29.92V97.81H29.93V97.59H29.94V97.37H29.95V97.15H29.96V96.93H29.98V96.71H29.99V96.49H30V96.27H30.01V96.05H30.02V95.83H30.04V95.61H30.05V95.39H30.06V95.17H30.07V94.95H30.08V94.73H30.1V94.51H30.11V94.29H30.12V94.08H30.13V93.86H30.14V93.64H30.15V93.42H30.17V93.2H30.18V92.98H30.19V92.76H30.2V92.54H30.21V92.32H30.23V92.1H30.24V91.88H30.25V91.66H30.26V91.44H30.27V91.22H30.29V91H30.3V90.78H30.31V90.56H30.32V90.34H30.33V90.13H30.34V89.91H30.36V89.69H30.37V89.47H30.38V89.25H30.39V89.03H30.4V88.81H30.42V88.59H30.43V88.37H30.44V88.15H30.45V87.93H30.46V87.71H30.48V87.49H30.49V87.27H30.5V87.05H30.51V86.83H30.52V86.61H30.54V86.39H30.55V86.17H30.56V85.96H30.57V85.74H30.58V85.52H30.59V85.3H30.61V85.08H30.62V84.86H30.63V84.64H30.64V84.42H30.65V84.2H30.67V83.98H30.68V83.76H30.69V83.54H30.7V83.32H30.71V83.1H30.73V82.88H30.74V82.66H30.75V82.44H30.76V82.22H30.77V82.01H30.78V81.79H30.8V81.57H30.81V81.35H30.82V81.13H30.83V80.91H30.84V80.69H30.86V80.47H30.87V80.25H30.88V80.03H30.89V79.81H30.9V79.59H30.92V79.37H30.93V79.15H30.94V78.93H30.95V78.71H30.96V78.49H30.97V78.27H30.99V78.06H31V77.84H31.01V77.62H31.02V77.4H31.03V77.18H31.05V76.96H31.06V76.74H31.07V76.52H31.08V76.3H31.09V76.08H31.11V75.86H31.12V75.64H31.13V75.42H31.14V75.2H31.15V74.98H31.16V74.76H31.18V74.54H31.19V74.32H31.2V74.1H31.21V73.89H31.22V73.67H31.24V73.45H31.25V73.23H31.26V73.01H31.27V72.79H31.28V72.57H31.3V72.35H31.31V72.13H31.32V71.91H31.33V71.69H31.34V71.47H31.36V71.25H31.37V71.03H31.38V70.81H31.39V70.59H31.4V70.37H31.41V70.15H31.43V69.94H31.44V69.72H31.45V69.5H31.46V69.28H31.47V69.06H31.49V68.84H31.5V68.62H31.51V68.4H31.52V68.18H31.53V67.96H31.55V67.74H31.56V67.52H31.57V67.3H31.58V67.08H31.59V66.86H31.6V66.64H31.62V66.42H31.63V66.2H31.64V65.99H31.65V65.77H31.66V65.55H31.68V65.33H31.69V65.11H31.7V64.89H31.71V64.67H31.72V64.45H31.74V64.23H31.75V64.01H31.76V63.79H31.77V63.57H31.78V63.35H31.79V63.13H31.81V62.91H31.82V62.69H31.83V62.47H31.84V62.25H31.85V62.04H31.87V61.82H31.88V61.6H31.89V61.38H31.9V61.16H31.91V60.94H31.93V60.72H31.94V60.5H31.95V60.28H31.96V60.06H31.97V59.84H31.99V59.62H32V59.4H32.01V59.18H32.02V58.96H32.03V58.74H32.04V58.52H32.06V58.3H32.07V58.08H32.08V57.87H32.09V57.65H32.1V57.43H32.12V57.21H32.13V56.99H32.14V56.77H32.15V56.55H32.16V56.33H32.18V56.11H32.19V55.89H32.2V55.67H32.21V55.45H32.22V55.23H32.23V55.01H32.25V54.79H32.26V54.57H32.27V54.35H32.28V54.13H32.29V53.92H32.31V53.7H32.32V53.48H32.33V53.26H32.34V53.04H32.35V52.82H32.37V52.6H32.38V52.38H32.39V52.16H32.4V51.94H32.41V51.72H32.42V51.5H32.44V51.28H32.45V51.06H32.46V50.84H32.47V50.62H32.48V50.4H32.5V50.18H32.51V49.97H32.52V49.75H32.53V49.53H32.54V49.31H32.56V49.09H32.57V48.87H32.58V48.65H32.59V48.43H32.6V48.21H32.61V47.99H32.63V47.77H32.64V47.55H32.65V47.33H32.66V47.11H32.67V46.89H32.69V46.67H32.7V46.45H32.71V46.23H32.72V46.01H32.73V45.8H32.75V45.58H32.76V45.36H32.77V45.14H32.78V44.92H32.79V44.7H32.81V44.48H32.82V44.26H32.83V44.04H32.84V43.82H32.85V43.6H32.86V43.38H32.88V43.16H32.89V42.94H32.9V42.72H32.91V42.5H32.92V42.28H32.94V42.06H32.95V41.85H32.96V41.63H32.97V41.41H32.98V41.19H33V40.97H33.01V40.75H33.02V40.53H33.03V40.31H33.04V40.09H33.05V39.87H33.07V39.65H33.08V39.43H33.09V39.21H33.1V38.99H33.11V38.77H33.13V38.55H33.14V38.33H33.15V38.11H33.16V37.9H33.17V37.68H33.19V37.46H33.2V37.24H33.21V37.02H33.22V36.8H33.23V36.58H33.24V36.36H33.26V36.14H33.27V35.92H33.28V35.7H33.29V35.48H33.3V35.26H33.32V35.04H33.33V34.82H33.34V34.6H33.35V34.38H33.36V34.16H33.38V33.94H33.39V33.73H33.4V33.51H33.41V33.29H33.42V33.07H33.43V32.85H33.45V32.63H33.46V32.41H33.47V32.19H33.48V31.97H33.49V31.75H33.51V31.53H33.52V31.31H33.53V31.09H33.54V30.87H33.55V30.65H33.57V30.43H33.58V30.21H33.59V29.99H33.6V29.78H33.61V29.56H33.63V29.34H33.64V29.12H33.65V28.9H33.66V28.68H33.67V28.46H33.68V28.24H33.7V28.02H33.71V27.8H33.72V27.58H33.73V27.36H33.74V27.14H33.76V26.92H33.77V26.7H33.78V26.48H33.79V26.26H33.8V26.04H33.82V25.83H33.83V25.61H33.84V25.39H33.85V25.17H33.86V24.95H33.87V24.73H33.89V24.51H33.9V24.29H33.91V24.07H33.92V23.85H33.93V23.63H33.95V23.41H33.96V23.19H33.97V22.97H33.98V22.75H33.99V22.53H34.01V22.31H34.02V22.09H34.03V21.88H36.37V21.88H38.72V21.88H41.07V21.88H43.41V21.88H45.76V21.88H48.1V21.88H50.45V21.88H52.8V21.88H55.14V21.88H57.49V21.88H59.83V21.88H62.18V21.88H64.53V21.88H66.87V21.88H69.22V21.88H71.56V21.88H73.91V21.88H76.25V21.88H78.6V21.88H80.95V21.88H83.29V21.88H85.64V21.88H87.98V21.88H90.33V21.88H92.68V21.88H95.02V21.88H97.37V21.88H99.71V21.88H102.06V21.88H104.41V21.88H106.75V21.88H109.1V21.88H111.44V21.88H113.79V21.88H116.13V21.88H118.48V21.88H120.83V21.88H123.17V21.88H125.52V21.88H127.86V21.88H130.21V21.88H132.56V21.88H134.9V21.88H137.25V21.88H139.59V21.88H141.94V21.88H144.28V21.88H146.63V21.88H148.98V21.88H151.32V21.88H153.67V21.88H156.01V21.88H158.36V21.88H160.71V21.88H163.05V21.88H165.4V21.88H167.74V21.88H170.09V21.88H172.44V21.88H174.78V21.88H177.13V21.88H179.47V21.88H181.82V21.88H184.16V21.88H186.51V21.88H188.86V21.88H191.2V21.88H193.55V21.88H195.89V21.88H198.24V21.88H200.59V21.88H202.93V21.88H205.28V21.88H207.62V21.88H209.97V21.88H212.32V21.88H214.66V21.88H217.01V21.88H219.35V21.88H221.7V21.88H224.04V21.88H226.39V21.88H228.74V21.88H231.08V21.88H233.43V21.88H235.77V21.88H238.12V21.88H240.47V21.88H242.81V21.88H245.16V21.88H247.5V21.88H249.85V21.88H252.19V21.88H254.54V21.88H256.89V21.88H259.23V21.88H261.58V21.88H263.92V21.88H266.27V21.88H268.62V21.88H270.96V21.88H273.31V21.88H275.65V21.88H278V21.88H280.35V21.88H282.69V21.88H285.04V21.88H287.38V21.88H289.73V21.88H292.07V21.88H294.42V21.88H296.77V21.88H299.11V21.88H301.46V21.88H303.8V21.88H306.15V21.88H308.5V21.88H310.84V21.88H313.19V21.88H315.53V21.88H317.88V21.88H320.23V21.88H322.57V21.88H324.92V21.88H327.26V21.88H329.61V21.88H331.95V21.88H334.3V21.88H336.65V21.88H338.99V21.88H341.34V21.88H343.68V21.88H346.03V21.88H348.38V21.88H350.72V21.88H353.07V21.88H355.41V21.88H357.76V21.88H360.1V21.88H362.45V21.88H364.8V21.88H367.14V21.88H369.49V21.88H371.83V21.88H374.18V21.88H376.53V21.88H378.87V21.88H381.22V21.88H383.56V21.88H385.91V21.88H388.26V21.88H390.6V21.88H392.95V21.88H395.29V21.88H397.64V21.88H399.98V21.88H402.33V21.88H404.68V21.88H407.02V21.88H409.37V21.88H411.71V21.88H414.06V21.88H416.41V21.88H418.75V21.88H421.1V21.88H423.44V21.88H425.79V21.88H428.14V21.88H430.48V21.88H432.83V21.88H435.17V21.88H437.52V21.88H439.86V21.88H442.21V21.88H444.56V21.88H446.9V21.88H449.25V21.88H451.59V21.88H453.94V21.88H456.29V21.88H458.63V21.88H460.98V21.88H463.32V21.88H465.67V21.88H468.01V21.88H470.36V21.88H472.71V21.88H475.05V21.88H477.4V21.88H479.74V21.88H482.09V21.88H484.44V21.88H486.78V21.88H489.13V21.88H491.47V21.88H493.82V21.88H496.17V21.88H498.51V21.88H500.86V21.88H503.2V21.88H505.55V21.88H507.89V21.88H510.24V21.88H512.59V21.88H514.93V21.88H517.28V21.88H519.62V21.88H521.97V21.88H524.32V21.88H526.66V21.88H529.01V21.88H531.35V21.88H533.7V21.88H536.05V21.88H538.39V21.88H540.74V21.88H543.08V21.88H545.43V21.88H547.77V21.88H550.12V21.88H552.47V21.88H554.81V21.88H557.16V21.88H559.5V21.88H561.85V21.88H564.2V21.88H566.54V21.88H568.89V21.88H571.23V21.88H573.58V21.88H575.92V21.88H578.27V21.88H580.62V21.88H582.96V21.88H585.31V21.88H587.65V21.88H590V21.88H592.35V21.88" style="vector-effect: none; fill: none; stroke: rgb(139, 196, 59); stroke-opacity: 1; stroke-width: 3px; opacity: 1;"/></g><g class="points"/><g class="text"/></g><g class="trace scatter trace7f6ce9" style="stroke-miterlimit: 2; opacity: 1;"><g class="fills"/><g class="errorbars"/><g class="lines"/><g class="points"><path class="point" transform="translate(36.37,21.88)" d="M7.15,0L0,7.15L-7.15,0L0,-7.15Z" style="opacity: 1; stroke: rgb(139, 196, 59); stroke-opacity: 1; stroke-width: 1px; fill: none;"/><path class="point" transform="translate(116.13,21.88)" d="M7.15,0L0,7.15L-7.15,0L0,-7.15Z" style="opacity: 1; stroke: rgb(139, 196, 59); stroke-opacity: 1; stroke-width: 1px; fill: none;"/><path class="point" transform="translate(195.89,21.88)" d="M7.15,0L0,7.15L-7.15,0L0,-7.15Z" style="opacity: 1; stroke: rgb(139, 196, 59); stroke-opacity: 1; stroke-width: 1px; fill: none;"/><path class="point" transform="translate(275.65,21.88)" d="M7.15,0L0,7.15L-7.15,0L0,-7.15Z" style="opacity: 1; stroke: rgb(139, 196, 59); stroke-opacity: 1; stroke-width: 1px; fill: none;"/><path class="point" transform="translate(355.41,21.88)" d="M7.15,0L0,7.15L-7.15,0L0,-7.15Z" style="opacity: 1; stroke: rgb(139, 196, 59); stroke-opacity: 1; stroke-width: 1px; fill: none;"/><path class="point" transform="translate(435.17,21.88)" d="M7.15,0L0,7.15L-7.15,0L0,-7.15Z" style="opacity: 1; stroke: rgb(139, 196, 59); stroke-opacity: 1; stroke-width: 1px; fill: none;"/><path class="point" transform="translate(514.93,21.88)" d="M7.15,0L0,7.15L-7.15,0L0,-7.15Z" style="opacity: 1; stroke: rgb(139, 196, 59); stroke-opacity: 1; stroke-width: 1px; fill: none;"/></g><g class="text"/></g></g></g></g><g class="zerolinelayer-above"/><path class="xlines-above crisp" d="M69,360.5H661M69,59.5H661" style="fill: none; stroke-width: 1px; stroke: rgb(255, 255, 255); stroke-opacity: 1;"/><path class="ylines-above crisp" d="M69.5,60V360M660.5,60V360" style="fill: none; stroke-width: 1px; stroke: rgb(255, 255, 255); stroke-opacity: 1;"/><g class="overlines-above"/><g class="xaxislayer-above"><path class="xtick ticks crisp" d="M0,361v5" transform="translate(100.07,0)" style="stroke: rgb(255, 255, 255); stroke-opacity: 1; stroke-width: 1px;"/><path class="xtick ticks crisp" d="M0,361v5" transform="translate(171.07999999999998,0)" style="stroke: rgb(255, 255, 255); stroke-opacity: 1; stroke-width: 1px;"/><path class="xtick ticks crisp" d="M0,361v5" transform="translate(242.08,0)" style="stroke: rgb(255, 255, 255); stroke-opacity: 1; stroke-width: 1px;"/><path class="xtick ticks crisp" d="M0,361v5" transform="translate(313.08000000000004,0)" style="stroke: rgb(255, 255, 255); stroke-opacity: 1; stroke-width: 1px;"/><path class="xtick ticks crisp" d="M0,361v5" transform="translate(384.09,0)" style="stroke: rgb(255, 255, 255); stroke-opacity: 1; stroke-width: 1px;"/><path class="xtick ticks crisp" d="M0,361v5" transform="translate(455.09,0)" style="stroke: rgb(255, 255, 255); stroke-opacity: 1; stroke-width: 1px;"/><path class="xtick ticks crisp" d="M0,361v5" transform="translate(526.0899999999999,0)" style="stroke: rgb(255, 255, 255); stroke-opacity: 1; stroke-width: 1px;"/><path class="xtick ticks crisp" d="M0,361v5" transform="translate(597.1,0)" style="stroke: rgb(255, 255, 255); stroke-opacity: 1; stroke-width: 1px;"/><g class="xtick"><text text-anchor="middle" x="0" y="380.4" transform="translate(100.07,0)" style="font-family: 'Open Sans', verdana, arial, sans-serif; font-size: 12px; fill: rgb(255, 255, 255); fill-opacity: 1; white-space: pre;">1.0e312</text></g><g class="xtick"><text text-anchor="middle" x="0" y="380.4" style="font-family: 'Open Sans', verdana, arial, sans-serif; font-size: 12px; fill: rgb(255, 255, 255); fill-opacity: 1; white-space: pre;" transform="translate(171.07999999999998,0)">1.0e234</text></g><g class="xtick"><text text-anchor="middle" x="0" y="380.4" style="font-family: 'Open Sans', verdana, arial, sans-serif; font-size: 12px; fill: rgb(255, 255, 255); fill-opacity: 1; white-space: pre;" transform="translate(242.08,0)">1.0e156</text></g><g class="xtick"><text text-anchor="middle" x="0" y="380.4" style="font-family: 'Open Sans', verdana, arial, sans-serif; font-size: 12px; fill: rgb(255, 255, 255); fill-opacity: 1; white-space: pre;" transform="translate(313.08000000000004,0)">1.0e78</text></g><g class="xtick"><text text-anchor="middle" x="0" y="380.4" style="font-family: 'Open Sans', verdana, arial, sans-serif; font-size: 12px; fill: rgb(255, 255, 255); fill-opacity: 1; white-space: pre;" transform="translate(384.09,0)">1.0e+0</text></g><g class="xtick"><text text-anchor="middle" x="0" y="380.4" style="font-family: 'Open Sans', verdana, arial, sans-serif; font-size: 12px; fill: rgb(255, 255, 255); fill-opacity: 1; white-space: pre;" transform="translate(455.09,0)">1.0e+78</text></g><g class="xtick"><text text-anchor="middle" x="0" y="380.4" style="font-family: 'Open Sans', verdana, arial, sans-serif; font-size: 12px; fill: rgb(255, 255, 255); fill-opacity: 1; white-space: pre;" transform="translate(526.0899999999999,0)">1.0e+156</text></g><g class="xtick"><text text-anchor="middle" x="0" y="380.4" style="font-family: 'Open Sans', verdana, arial, sans-serif; font-size: 12px; fill: rgb(255, 255, 255); fill-opacity: 1; white-space: pre;" transform="translate(597.1,0)">1.0e+234</text></g></g><g class="yaxislayer-above"><path class="ytick ticks crisp" d="M69,0h-5" transform="translate(0,345)" style="stroke: rgb(255, 255, 255); stroke-opacity: 1; stroke-width: 1px;"/><path class="ytick ticks crisp" d="M69,0h-5" transform="translate(0,294.4)" style="stroke: rgb(255, 255, 255); stroke-opacity: 1; stroke-width: 1px;"/><path class="ytick ticks crisp" d="M69,0h-5" transform="translate(0,243.8)" style="stroke: rgb(255, 255, 255); stroke-opacity: 1; stroke-width: 1px;"/><path class="ytick ticks crisp" d="M69,0h-5" transform="translate(0,193.2)" style="stroke: rgb(255, 255, 255); stroke-opacity: 1; stroke-width: 1px;"/><path class="ytick ticks crisp" d="M69,0h-5" transform="translate(0,142.6)" style="stroke: rgb(255, 255, 255); stroke-opacity: 1; stroke-width: 1px;"/><path class="ytick ticks crisp" d="M69,0h-5" transform="translate(0,92)" style="stroke: rgb(255, 255, 255); stroke-opacity: 1; stroke-width: 1px;"/><g class="ytick"><text text-anchor="end" x="61.6" y="4.199999999999999" transform="translate(0,345)" style="font-family: 'Open Sans', verdana, arial, sans-serif; font-size: 12px; fill: rgb(255, 255, 255); fill-opacity: 1; white-space: pre;">0.0</text></g><g class="ytick"><text text-anchor="end" x="61.6" y="4.199999999999999" style="font-family: 'Open Sans', verdana, arial, sans-serif; font-size: 12px; fill: rgb(255, 255, 255); fill-opacity: 1; white-space: pre;" transform="translate(0,294.4)">10.0</text></g><g class="ytick"><text text-anchor="end" x="61.6" y="4.199999999999999" style="font-family: 'Open Sans', verdana, arial, sans-serif; font-size: 12px; fill: rgb(255, 255, 255); fill-opacity: 1; white-space: pre;" transform="translate(0,243.8)">20.0</text></g><g class="ytick"><text text-anchor="end" x="61.6" y="4.199999999999999" style="font-family: 'Open Sans', verdana, arial, sans-serif; font-size: 12px; fill: rgb(255, 255, 255); fill-opacity: 1; white-space: pre;" transform="translate(0,193.2)">30.0</text></g><g class="ytick"><text text-anchor="end" x="61.6" y="4.199999999999999" style="font-family: 'Open Sans', verdana, arial, sans-serif; font-size: 12px; fill: rgb(255, 255, 255); fill-opacity: 1; white-space: pre;" transform="translate(0,142.6)">40.0</text></g><g class="ytick"><text text-anchor="end" x="61.6" y="4.199999999999999" style="font-family: 'Open Sans', verdana, arial, sans-serif; font-size: 12px; fill: rgb(255, 255, 255); fill-opacity: 1; white-space: pre;" transform="translate(0,92)">50.0</text></g></g><g class="overaxes-above"/></g></g><g class="polarlayer"/><g class="smithlayer"/><g class="ternarylayer"/><g class="geolayer"/><g class="funnelarealayer"/><g class="pielayer"/><g class="iciclelayer"/><g class="treemaplayer"/><g class="sunburstlayer"/><g class="glimages"/><defs id="topdefs-49a701"><g class="clips"/><clipPath id="legend49a701"><rect width="187" height="29" x="0" y="0"/></clipPath></defs><g class="layer-above"><g class="imagelayer"/><g class="shapelayer"/></g><g class="infolayer"><g class="legend" pointer-events="all" transform="translate(473,325)"><rect class="bg" shape-rendering="crispEdges" style="stroke: rgb(68, 68, 68); stroke-opacity: 1; fill: rgb(0, 0, 0); fill-opacity: 0; stroke-width: 0px;" width="187" height="29" x="0" y="0"/><g class="scrollbox" transform="" clip-path="url(#legend49a701)"><g class="groups"><g class="traces" transform="translate(0,14.5)" style="opacity: 1;"><text class="legendtext" text-anchor="start" x="40" y="4.680000000000001" style="font-family: 'Open Sans', verdana, arial, sans-serif; font-size: 12px; fill: rgb(255, 255, 255); fill-opacity: 1; white-space: pre;">f16</text><g class="layers" style="opacity: 1;"><g class="legendfill"/><g class="legendlines"/><g class="legendsymbols"><g class="legendpoints"><path class="scatterpts" transform="translate(20,0)" d="M5.5,0A5.5,5.5 0 1,1 0,-5.5A5.5,5.5 0 0,1 5.5,0Z" style="opacity: 1; stroke: rgb(139, 196, 59); stroke-opacity: 1; stroke-width: 1px; fill: none;"/></g></g></g><rect class="legendtoggle" x="0" y="-9.5" width="59.515625" height="19" style="fill: rgb(0, 0, 0); fill-opacity: 0;"/></g><g class="traces" transform="translate(62.015625,14.5)" style="opacity: 1;"><text class="legendtext" text-anchor="start" x="40" y="4.680000000000001" style="font-family: 'Open Sans', verdana, arial, sans-serif; font-size: 12px; fill: rgb(255, 255, 255); fill-opacity: 1; white-space: pre;">f32</text><g class="layers" style="opacity: 1;"><g class="legendfill"/><g class="legendlines"/><g class="legendsymbols"><g class="legendpoints"><path class="scatterpts" transform="translate(20,0)" d="M5.5,5.5H-5.5V-5.5H5.5Z" style="opacity: 1; stroke: rgb(139, 196, 59); stroke-opacity: 1; stroke-width: 1px; fill: none;"/></g></g></g><rect class="legendtoggle" x="0" y="-9.5" width="59.515625" height="19" style="fill: rgb(0, 0, 0); fill-opacity: 0;"/></g><g class="traces" transform="translate(124.03125,14.5)" style="opacity: 1;"><text class="legendtext" text-anchor="start" x="40" y="4.680000000000001" style="font-family: 'Open Sans', verdana, arial, sans-serif; font-size: 12px; fill: rgb(255, 255, 255); fill-opacity: 1; white-space: pre;">f64</text><g class="layers" style="opacity: 1;"><g class="legendfill"/><g class="legendlines"/><g class="legendsymbols"><g class="legendpoints"><path class="scatterpts" transform="translate(20,0)" d="M7.15,0L0,7.15L-7.15,0L0,-7.15Z" style="opacity: 1; stroke: rgb(139, 196, 59); stroke-opacity: 1; stroke-width: 1px; fill: none;"/></g></g></g><rect class="legendtoggle" x="0" y="-9.5" width="59.515625" height="19" style="fill: rgb(0, 0, 0); fill-opacity: 0;"/></g></g></g><rect class="scrollbar" rx="20" ry="3" width="0" height="0" style="fill: rgb(128, 139, 164); fill-opacity: 1;" x="0" y="0"/></g><g class="g-gtitle"><text class="gtitle" x="35" y="12.600000000000023" text-anchor="start" dy="0.7em" style="opacity: 1; font-family: 'Open Sans', verdana, arial, sans-serif; font-size: 17px; fill: rgb(255, 255, 255); fill-opacity: 1; white-space: pre;">Relative Resolution of IEEE-754 Floats</text></g><g class="g-xtitle"><text class="xtitle" x="365" y="407.70625" text-anchor="middle" style="opacity: 1; font-family: 'Open Sans', verdana, arial, sans-serif; font-size: 14px; fill: rgb(255, 255, 255); fill-opacity: 1; white-space: pre;">Magnitude</text></g><g class="g-ytitle"><text class="ytitle" transform="rotate(-90,18.834375,210)" x="18.834375" y="210" text-anchor="middle" style="opacity: 1; font-family: 'Open Sans', verdana, arial, sans-serif; font-size: 14px; fill: rgb(255, 255, 255); fill-opacity: 1; white-space: pre;">Resolution (bits)</text></g><g class="annotation" data-index="0" style="opacity: 1;"><g class="annotation-text-g" transform="rotate(0,425,264.4)"><g class="cursor-pointer" transform="translate(374,255)"><rect class="bg" x="0.5" y="0.5" width="102" height="17" style="stroke-width: 1px; stroke: rgb(0, 0, 0); stroke-opacity: 0; fill: rgb(0, 0, 0); fill-opacity: 0;"/><text class="annotation-text" text-anchor="middle" x="51.328125" y="13" style="font-family: 'Open Sans', verdana, arial, sans-serif; font-size: 12px; fill: rgb(255, 255, 255); fill-opacity: 1; white-space: pre;">epsilon  9.77e-04</text></g></g><g class="annotation-arrow-g" style="opacity: 1;"><path d="M413.6666666666667,272.9L385,294.4" style="stroke-width: 1px; stroke: rgb(255, 255, 255); stroke-opacity: 1; stroke-dasharray: 0px, 0px, 35.8333px, 35.8333px;"/></g></g><g class="annotation" data-index="1" style="opacity: 1;"><g class="annotation-text-g" transform="rotate(0,425,208.62)"><g class="cursor-pointer" transform="translate(374,200)"><rect class="bg" x="0.5" y="0.5" width="102" height="17" style="stroke-width: 1px; stroke: rgb(0, 0, 0); stroke-opacity: 0; fill: rgb(0, 0, 0); fill-opacity: 0;"/><text class="annotation-text" text-anchor="middle" x="51.328125" y="13" style="font-family: 'Open Sans', verdana, arial, sans-serif; font-size: 12px; fill: rgb(255, 255, 255); fill-opacity: 1; white-space: pre;">epsilon  1.19e-07</text></g></g><g class="annotation-arrow-g" style="opacity: 1;"><path d="M408,217.12L385,228.62" style="stroke-width: 1px; stroke: rgb(255, 255, 255); stroke-opacity: 1; stroke-dasharray: 0px, 0px, 25.7148px, 25.7148px;"/></g></g><g class="annotation" data-index="2" style="opacity: 1;"><g class="annotation-text-g" transform="rotate(0,425,101.88)"><g class="cursor-pointer" transform="translate(374,93)"><rect class="bg" x="0.5" y="0.5" width="102" height="17" style="stroke-width: 1px; stroke: rgb(0, 0, 0); stroke-opacity: 0; fill: rgb(0, 0, 0); fill-opacity: 0;"/><text class="annotation-text" text-anchor="middle" x="51.328125" y="13" style="font-family: 'Open Sans', verdana, arial, sans-serif; font-size: 12px; fill: rgb(255, 255, 255); fill-opacity: 1; white-space: pre;">epsilon  2.22e-16</text></g></g><g class="annotation-arrow-g" style="opacity: 1;"><path d="M408,93.38L385,81.88" style="stroke-width: 1px; stroke: rgb(255, 255, 255); stroke-opacity: 1; stroke-dasharray: 0px, 0px, 25.7148px, 25.7148px;"/></g></g></g></svg>