<svg class="main-svg" xmlns="http://www.w3.org/2000/svg" xmlns:xlink="http://www.w3.org/1999/xlink" width="700" height="420" style="" viewBox="0 0 700 420"><rect x="0" y="0" width="700" height="420" style="fill: rgb(0, 0, 0); fill-opacity: 0;"/><defs id="defs-95dfee"><g class="clips"><clipPath id="clip95dfeexyplot" class="plotclip"><rect width="590" height="300"/></clipPath><clipPath class="axesclip" id="clip95dfeex"><rect x="70" y="0" width="590" height="420"/></clipPath><clipPath class="axesclip" id="clip95dfeey"><rect x="0" y="60" width="700" height="300"/></clipPath><clipPath class="axesclip" id="clip95dfeexy"><rect x="70" y="60" width="590" height="300"/></clipPath></g><g class="gradients"/><g class="patterns"/></defs><g class="bglayer"><rect class="bg" x="70" y="60" width="590" height="300" style="fill: rgb(0, 0, 0); fill-opacity: 0; stroke-width: 0;"/></g><g class="layer-below"><g class="imagelayer"/><g class="shapelayer"/></g><g class="cartesianlayer"><g class="subplot xy"><g class="layer-subplot"><g class="shapelayer"/><g class="imagelayer"/></g><g class="minor-gridlayer"><g class="x"/><g class="y"/></g><g class="gridlayer"><g class="x"/><g class="y"/></g><g class="zerolinelayer"/><g class="layer-between"><g class="shapelayer"/><g class="imagelayer"/></g><path class="xlines-below"/><path class="ylines-below"/><g class="overlines-below"/><g class="xaxislayer-below"/><g class="yaxislayer-below"/><g class="overaxes-below"/><g class="overplot"><g class="xy" transform="translate(70,60)" clip-path="url(#clip95dfeexyplot)"><g class="scatterlayer mlayer"><g class="trace scatter tracec823fc" style="stroke-miterlimit: 2; opacity: 1;"><g class="fills"/><g class="errorbars"/><g class="lines"><path class="js-line" d="M315.73,278.13H315.74V278.13H315.75V278.13H315.76V278.13H315.76V278.13H315.77V278.13H315.78V278.13H315.79V278.13H315.8V278.13H315.81V278.13H315.81V278.13H315.82V278.13H315.83V278.13H315.84V278.13H315.85V278.13H315.86V278.13H315.86V278.13H315.87V278.13H315.88V278.13H315.89V278.13H315.9V278.13H315.91V278.13H315.91V278.13H315.92V278.13H315.93V278.13H315.94V278.13H315.95V278.13H315.96V278.13H315.96V278.13H315.97V278.13H315.98V278.13H315.99V278.13H316V273.2H316.01V273.2H316.01V273.2H316.02V273.2H316.03V273.2H316.04V273.2H316.05V273.2H316.06V273.2H316.06V273.2H316.07V273.2H316.08V273.2H316.09V273.2H316.1V273.2H316.11V273.2H316.11V273.2H316.12V273.2H316.13V273.2H316.14V273.2H316.15V273.2H316.16V273.2H316.16V273.2H316.17V273.2H316.18V273.2H316.19V273.2H316.2V273.2H316.21V273.2H316.21V273.2H316.22V273.2H316.23V273.2H316.24V273.2H316.25V273.2H316.26V273.2H316.26V268.27H316.27V268.27H316.28V268.27H316.29V268.27H316.3V268.27H316.31V268.27H316.31V268.27H316.32V268.27H316.33V268.27H316.34V268.27H316.35V268.27H316.36V268.27H316.37V268.27H316.37V268.27H316.38V268.27H316.39V268.27H316.4V268.27H316.41V268.27H316.42V268.27H316.42V268.27H316.43V268.27H316.44V268.27H316.45V268.27H316.46V268.27H316.47V268.27H316.47V268.27H316.48V268.27H316.49V268.27H316.5V268.27H316.51V268.27H316.52V268.27H316.52V268.27H316.53V263.34H316.54V263.34H316.55V263.34H316.56V263.34H316.57V263.34H316.57V263.34H316.58V263.34H316.59V263.34H316.6V263.34H316.61V263.34H316.62V263.34H316.62V263.34H316.63V263.34H316.64V263.34H316.65V263.34H316.66V263.34H316.67V263.34H316.67V263.34H316.68V263.34H316.69V263.34H316.7V263.34H316.71V263.34H316.72V263.34H316.72V263.34H316.73V263.34H316.74V263.34H316.75V263.34H316.76V263.34H316.77V263.34H316.77V263.34H316.78V263.34H316.79V263.34H316.8V258.41H316.81V258.41H316.82V258.41H316.82V258.41H316.83V258.41H316.84V258.41H316.85V258.41H316.86V258.41H316.87V258.41H316.87V258.41H316.88V258.41H316.89V258.41H316.9V258.41H316.91V258.41H316.92V258.41H316.92V258.41H316.93V258.41H316.94V258.41H316.95V258.41H316.96V258.41H316.97V258.41H316.97V258.41H316.98V258.41H316.99V258.41H317V258.41H317.01V258.41H317.02V258.41H317.02V258.41H317.03V258.41H317.04V258.41H317.05V258.41H317.06V258.41H317.07V253.49H317.07V253.49H317.08V253.49H317.09V253.49H317.1V253.49H317.11V253.49H317.12V253.49H317.12V253.49H317.13V253.49H317.14V253.49H317.15V253.49H317.16V253.49H317.17V253.49H317.17V253.49H317.18V253.49H317.19V253.49H317.2V253.49H317.21V253.49H317.22V253.49H317.22V253.49H317.23V253.49H317.24V253.49H317.25V253.49H317.26V253.49H317.27V253.49H317.27V253.49H317.28V253.49H317.29V253.49H317.3V253.49H317.31V253.49H317.32V253.49H317.32V253.49H317.33V248.56H317.34V248.56H317.35V248.56H317.36V248.56H317.37V248.56H317.37V248.56H317.38V248.56H317.39V248.56H317.4V248.56H317.41V248.56H317.42V248.56H317.42V248.56H317.43V248.56H317.44V248.56H317.45V248.56H317.46V248.56H317.47V248.56H317.47V248.56H317.48V248.56H317.49V248.56H317.5V248.56H317.51V248.56H317.52V248.56H317.52V248.56H317.53V248.56H317.54V248.56H317.55V248.56H317.56V248.56H317.57V248.56H317.57V248.56H317.58V248.56H317.59V248.56H317.6V243.63H317.61V243.63H317.62V243.63H317.62V243.63H317.63V243.63H317.64V243.63H317.65V243.63H317.66V243.63H317.67V243.63H317.67V243.63H317.68V243.63H317.69V243.63H317.7V243.63H317.71V243.63H317.72V243.63H317.72V243.63H317.73V243.63H317.74V243.63H317.75V243.63H317.76V243.63H317.77V243.63H317.77V243.63H317.78V243.63H317.79V243.63H317.8V243.63H317.81V243.63H317.82V243.63H317.82V243.63H317.83V243.63H317.84V243.63H317.85V243.63H317.86V243.63H317.87V238.7H317.87V238.7H317.88V238.7H317.89V238.7H317.9V238.7H317.91V238.7H317.92V238.7H317.92V238.7H317.93V238.7H317.94V238.7H317.95V238.7H317.96V238.7H317.97V238.7H317.97V238.7H317.98V238.7H317.99V238.7H318V238.7H318.01V238.7H318.02V238.7H318.02V238.7H318.03V238.7H318.04V238.7H318.05V238.7H318.06V238.7H318.07V238.7H318.07V238.7H318.08V238.7H318.09V238.7H318.1V238.7H318.11V238.7H318.12V238.7H318.12V238.7H318.13V233.77H318.14V233.77H318.15V233.77H318.16V233.77H318.17V233.77H318.17V233.77H318.18V233.77H318.19V233.77H318.2V233.77H318.21V233.77H318.22V233.77H318.22V233.77H318.23V233.77H318.24V233.77H318.25V233.77H318.26V233.77H318.27V233.77H318.27V233.77H318.28V233.77H318.29V233.77H318.3V233.77H318.31V233.77H318.32V233.77H318.32V233.77H318.33V233.77H318.34V233.77H318.35V233.77H318.36V233.77H318.37V233.77H318.38V233.77H318.38V233.77H318.39V228.85H318.43V228.85H318.46V228.85H318.49V228.85H318.53V228.85H318.56V228.85H318.59V228.85H318.63V228.85H318.66V228.85H318.69V228.85H318.73V228.85H318.76V228.85H318.79V228.85H318.83V228.85H318.86V228.85H318.89V228.85H318.93V228.85H318.96V228.85H318.99V228.85H319.03V228.85H319.06V228.85H319.09V228.85H319.13V228.85H319.16V228.85H319.19V228.85H319.23V228.85H319.26V228.85H319.29V228.85H319.33V228.85H319.36V228.85H319.39V228.85H319.43V228.85H319.46V228.85H319.49V228.85H319.53V228.85H319.56V228.85H319.59V228.85H319.63V228.85H319.66V228.85H319.69V228.85H319.73V228.85H319.76V228.85H319.79V228.85H319.83V228.85H319.86V228.85H319.89V228.85H319.93V228.85H319.96V228.85H319.99V228.85H320.03V228.85H320.06V228.85H320.09V228.85H320.13V228.85H320.16V228.85H320.2V228.85H320.23V228.85H320.26V228.85H320.3V228.85H320.33V228.85H320.36V228.85H320.4V228.85H320.43V228.85H320.46V228.85H320.5V228.85H320.53V228.85H320.56V228.85H320.6V228.85H320.63V228.85H320.66V228.85H320.7V228.85H320.73V228.85H320.76V228.85H320.8V228.85H320.83V228.85H320.86V228.85H320.9V228.85H320.93V228.85H320.96V228.85H321V228.85H321.03V228.85H321.06V228.85H321.1V228.85H321.13V228.85H321.16V228.85H321.2V228.85H321.23V228.85H321.26V228.85H321.3V228.85H321.33V228.85H321.36V228.85H321.4V228.85H321.43V228.85H321.46V228.85H321.5V228.85H321.53V228.85H321.56V228.85H321.6V228.85H321.63V228.85H321.66V228.85H321.7V228.85H321.73V228.85H321.76V228.85H321.8V228.85H321.83V228.85H321.86V228.85H321.9V228.85H321.93V228.85H321.96V228.85H322V228.85H322.03V228.85H322.07V228.85H322.1V228.85H322.13V228.85H322.17V228.85H322.2V228.85H322.23V228.85H322.27V228.85H322.3V228.85H322.33V228.85H322.37V228.85H322.4V228.85H322.43V228.85H322.47V228.85H322.5V228.85H322.53V228.85H322.57V228.85H322.6V228.85H322.63V228.85H322.67V228.85H322.7V228.85H322.73V228.85H322.77V228.85H322.8V228.85H322.83V228.85H322.87V228.85H322.9V228.85H322.93V228.85H322.97V228.85H323V228.85H323.03V228.85H323.07V228.85H323.1V228.85H323.13V228.85H323.17V228.85H323.2V228.85H323.23V228.85H323.27V228.85H323.3V228.85H323.33V228.85H323.37V228.85H323.4V228.85H323.43V228.85H323.47V228.85H323.5V228.85H323.53V228.85H323.57V228.85H323.6V228.85H323.63V228.85H323.67V228.85H323.7V228.85H323.73V228.85H323.77V228.85H323.8V228.85H323.84V228.85H323.87V228.85H323.9V228.85H323.94V228.85H323.97V228.85H324V228.85H324.04V228.85H324.07V228.85H324.1V228.85H324.14V228.85H324.17V228.85H324.2V228.85H324.24V228.85H324.27V228.85H324.3V228.85H324.34V228.85H324.37V228.85H324.4V228.85H324.44V228.85H324.47V228.85H324.5V228.85H324.54V228.85H324.57V228.85H324.6V228.85H324.64V228.85H324.67V228.85H324.7V228.85H324.74V228.85H324.77V228.85H324.8V228.85H324.84V228.85H324.87V228.85H324.9V228.85H324.94V228.85H324.97V228.85H325V228.85H325.04V228.85H325.07V228.85H325.1V228.85H325.14V228.85H325.17V228.85H325.2V228.85H325.24V228.85H325.27V228.85H325.3V228.85H325.34V228.85H325.37V228.85H325.4V228.85H325.44V228.85H325.47V228.85H325.5V228.85H325.54V228.85H325.57V228.85H325.61V228.85H325.64V228.85H325.67V228.85H325.71V228.85H325.74V228.85H325.77V228.85H325.81V228.85H325.84V228.85H325.87V228.85H325.91V228.85H325.94V228.85H325.97V228.85H326.01V228.85H326.04V228.85H326.07V228.85H326.11V228.85H326.14V228.85H326.17V228.85H326.21V228.85H326.24V228.85H326.27V228.85H326.31V228.85H326.34V228.85H326.37V228.85" style="vector-effect: none; fill: none; stroke: rgb(139, 196, 59); stroke-opacity: 1; stroke-width: 3px; opacity: 1;"/></g><g class="points"/><g class="text"/></g><g class="trace scatter trace9a6850" style="stroke-miterlimit: 2; opacity: 1;"><g class="fills"/><g class="errorbars"/><g class="lines"/><g class="points"><path class="point" transform="translate(315.73,278.13)" d="M5.5,0A5.5,5.5 0 1,1 0,-5.5A5.5,5.5 0 0,1 5.5,0Z" style="opacity: 1; stroke: rgb(139, 196, 59); stroke-opacity: 1; stroke-width: 1px; fill: none;"/><path class="point" transform="translate(326.37,228.85)" d="M5.5,0A5.5,5.5 0 1,1 0,-5.5A5.5,5.5 0 0,1 5.5,0Z" style="opacity: 1; stroke: rgb(139, 196, 59); stroke-opacity: 1; stroke-width: 1px; fill: none;"/></g><g class="text"/></g><g class="trace scatter trace3fdf9b" style="stroke-miterlimit: 2; opacity: 1;"><g class="fills"/><g class="errorbars"/><g class="lines"><path class="js-line" d="M282.47,278.13H282.49V278.13H282.51V278.13H282.53V278.13H282.55V278.13H282.57V278.13H282.59V278.13H282.61V278.13H282.63V278.13H282.65V278.13H282.67V278.13H282.69V278.13H282.7V278.13H282.72V278.13H282.74V273.2H282.76V273.2H282.78V273.2H282.8V273.2H282.82V273.2H282.84V273.2H282.86V273.2H282.88V273.2H282.9V273.2H282.92V273.2H282.93V273.2H282.95V273.2H282.97V273.2H282.99V273.2H283.01V268.27H283.03V268.27H283.05V268.27H283.07V268.27H283.09V268.27H283.11V268.27H283.13V268.27H283.15V268.27H283.17V268.27H283.18V268.27H283.2V268.27H283.22V268.27H283.24V268.27H283.26V268.27H283.28V263.34H283.3V263.34H283.32V263.34H283.34V263.34H283.36V263.34H283.38V263.34H283.4V263.34H283.41V263.34H283.43V263.34H283.45V263.34H283.47V263.34H283.49V263.34H283.51V263.34H283.53V263.34H283.55V258.41H283.57V258.41H283.59V258.41H283.61V258.41H283.63V258.41H283.64V258.41H283.66V258.41H283.68V258.41H283.7V258.41H283.72V258.41H283.74V258.41H283.76V258.41H283.78V258.41H283.8V258.41H283.82V253.49H283.84V253.49H283.86V253.49H283.87V253.49H283.89V253.49H283.91V253.49H283.93V253.49H283.95V253.49H283.97V253.49H283.99V253.49H284.01V253.49H284.03V253.49H284.05V253.49H284.07V253.49H284.09V248.56H284.1V248.56H284.12V248.56H284.14V248.56H284.16V248.56H284.18V248.56H284.2V248.56H284.22V248.56H284.24V248.56H284.26V248.56H284.28V248.56H284.3V248.56H284.32V248.56H284.34V248.56H284.35V243.63H284.37V243.63H284.39V243.63H284.41V243.63H284.43V243.63H284.45V243.63H284.47V243.63H284.49V243.63H284.51V243.63H284.53V243.63H284.55V243.63H284.57V243.63H284.58V243.63H284.6V238.7H284.62V238.7H284.64V238.7H284.66V238.7H284.68V238.7H284.7V238.7H284.72V238.7H284.74V238.7H284.76V238.7H284.78V238.7H284.8V238.7H284.81V238.7H284.83V238.7H284.85V238.7H284.87V233.77H284.89V233.77H284.91V233.77H284.93V233.77H284.95V233.77H284.97V233.77H284.99V233.77H285.01V233.77H285.03V233.77H285.04V233.77H285.06V233.77H285.08V233.77H285.1V233.77H285.12V233.77H285.14V228.85H285.16V228.85H285.18V228.85H285.2V228.85H285.22V228.85H285.24V228.85H285.26V228.85H285.28V228.85H285.29V228.85H285.31V228.85H285.33V228.85H285.35V228.85H285.37V228.85H285.39V228.85H285.41V223.92H285.43V223.92H285.45V223.92H285.47V223.92H285.49V223.92H285.51V223.92H285.52V223.92H285.54V223.92H285.56V223.92H285.58V223.92H285.6V223.92H285.62V223.92H285.64V223.92H285.66V223.92H285.68V218.99H285.7V218.99H285.72V218.99H285.74V218.99H285.75V218.99H285.77V218.99H285.79V218.99H285.81V218.99H285.83V218.99H285.85V218.99H285.87V218.99H285.89V218.99H285.91V218.99H285.93V218.99H285.95V214.06H285.97V214.06H285.98V214.06H286V214.06H286.02V214.06H286.04V214.06H286.06V214.06H286.08V214.06H286.1V214.06H286.12V214.06H286.14V214.06H286.16V214.06H286.18V214.06H286.2V214.06H286.22V209.13H286.23V209.13H286.25V209.13H286.27V209.13H286.29V209.13H286.31V209.13H286.33V209.13H286.35V209.13H286.37V209.13H286.39V209.13H286.41V209.13H286.43V209.13H286.45V209.13H286.46V209.13H286.48V204.21H286.5V204.21H286.52V204.21H286.54V204.21H286.56V204.21H286.58V204.21H286.6V204.21H286.62V204.21H286.64V204.21H286.66V204.21H286.68V204.21H286.69V204.21H286.71V204.21H286.73V199.28H286.75V199.28H286.77V199.28H286.79V199.28H286.81V199.28H286.83V199.28H286.85V199.28H286.87V199.28H286.89V199.28H286.91V199.28H286.92V199.28H286.94V199.28H286.96V199.28H286.98V199.28H287V194.35H287.02V194.35H287.04V194.35H287.06V194.35H287.08V194.35H287.1V194.35H287.12V194.35H287.14V194.35H287.16V194.35H287.17V194.35H287.19V194.35H287.21V194.35H287.23V194.35H287.25V194.35H287.27V189.42H287.29V189.42H287.31V189.42H287.33V189.42H287.35V189.42H287.37V189.42H287.39V189.42H287.4V189.42H287.42V189.42H287.44V189.42H287.46V189.42H287.48V189.42H287.5V189.42H287.52V189.42H287.54V184.5H287.56V184.5H287.58V184.5H287.6V184.5H287.62V184.5H287.63V184.5H287.65V184.5H287.67V184.5H287.69V184.5H287.71V184.5H287.73V184.5H287.75V184.5H287.77V184.5H287.79V184.5H287.81V179.57H287.83V179.57H287.85V179.57H287.86V179.57H287.88V179.57H287.9V179.57H287.92V179.57H287.94V179.57H287.96V179.57H287.98V179.57H288V179.57H288.02V179.57H288.04V179.57H288.06V179.57H288.08V174.64H288.09V174.64H288.11V174.64H288.13V174.64H288.15V174.64H288.17V174.64H288.19V174.64H288.21V174.64H288.23V174.64H288.25V174.64H288.27V174.64H288.29V174.64H288.31V174.64H288.33V174.64H288.34V169.71H288.36V169.71H288.38V169.71H288.4V169.71H288.42V169.71H288.44V169.71H288.46V169.71H288.48V169.71H288.5V169.71H288.52V169.71H288.54V169.71H288.56V169.71H288.57V169.71H288.59V164.78H288.88V164.78H289.16V164.78H289.44V164.78H289.72V164.78H290.01V164.78H290.29V164.78H290.57V164.78H290.86V164.78H291.14V164.78H291.42V164.78H291.7V164.78H291.99V164.78H292.27V164.78H292.55V164.78H292.83V164.78H293.12V164.78H293.4V164.78H293.68V164.78H293.97V164.78H294.25V164.78H294.53V164.78H294.81V164.78H295.1V164.78H295.38V164.78H295.66V164.78H295.95V164.78H296.23V164.78H296.51V164.78H296.79V164.78H297.08V164.78H297.36V164.78H297.64V164.78H297.92V164.78H298.21V164.78H298.49V164.78H298.77V164.78H299.06V164.78H299.34V164.78H299.62V164.78H299.9V164.78H300.19V164.78H300.47V164.78H300.75V164.78H301.03V164.78H301.32V164.78H301.6V164.78H301.88V164.78H302.17V164.78H302.45V164.78H302.73V164.78H303.01V164.78H303.3V164.78H303.58V164.78H303.86V164.78H304.15V164.78H304.43V164.78H304.71V164.78H304.99V164.78H305.28V164.78H305.56V164.78H305.84V164.78H306.12V164.78H306.41V164.78H306.69V164.78H306.97V164.78H307.26V164.78H307.54V164.78H307.82V164.78H308.1V164.78H308.39V164.78H308.67V164.78H308.95V164.78H309.23V164.78H309.52V164.78H309.8V164.78H310.08V164.78H310.37V164.78H310.65V164.78H310.93V164.78H311.21V164.78H311.5V164.78H311.78V164.78H312.06V164.78H312.34V164.78H312.63V164.78H312.91V164.78H313.19V164.78H313.48V164.78H313.76V164.78H314.04V164.78H314.32V164.78H314.61V164.78H314.89V164.78H315.17V164.78H315.46V164.78H315.74V164.78H316.02V164.78H316.3V164.78H316.59V164.78H316.87V164.78H317.15V164.78H317.43V164.78H317.72V164.78H318V164.78H318.28V164.78H318.57V164.78H318.85V164.78H319.13V164.78H319.41V164.78H319.7V164.78H319.98V164.78H320.26V164.78H320.54V164.78H320.83V164.78H321.11V164.78H321.39V164.78H321.68V164.78H321.96V164.78H322.24V164.78H322.52V164.78H322.81V164.78H323.09V164.78H323.37V164.78H323.65V164.78H323.94V164.78H324.22V164.78H324.5V164.78H324.79V164.78H325.07V164.78H325.35V164.78H325.63V164.78H325.92V164.78H326.2V164.78H326.48V164.78H326.77V164.78H327.05V164.78H327.33V164.78H327.61V164.78H327.9V164.78H328.18V164.78H328.46V164.78H328.74V164.78H329.03V164.78H329.31V164.78H329.59V164.78H329.88V164.78H330.16V164.78H330.44V164.78H330.72V164.78H331.01V164.78H331.29V164.78H331.57V164.78H331.85V164.78H332.14V164.78H332.42V164.78H332.7V164.78H332.99V164.78H333.27V164.78H333.55V164.78H333.83V164.78H334.12V164.78H334.4V164.78H334.68V164.78H334.96V164.78H335.25V164.78H335.53V164.78H335.81V164.78H336.1V164.78H336.38V164.78H336.66V164.78H336.94V164.78H337.23V164.78H337.51V164.78H337.79V164.78H338.08V164.78H338.36V164.78H338.64V164.78H338.92V164.78H339.21V164.78H339.49V164.78H339.77V164.78H340.05V164.78H340.34V164.78H340.62V164.78H340.9V164.78H341.19V164.78H341.47V164.78H341.75V164.78H342.03V164.78H342.32V164.78H342.6V164.78H342.88V164.78H343.16V164.78H343.45V164.78H343.73V164.78H344.01V164.78H344.3V164.78H344.58V164.78H344.86V164.78H345.14V164.78H345.43V164.78H345.71V164.78H345.99V164.78H346.27V164.78H346.56V164.78H346.84V164.78H347.12V164.78H347.41V164.78H347.69V164.78H347.97V164.78H348.25V164.78H348.54V164.78H348.82V164.78H349.1V164.78H349.39V164.78H349.67V164.78H349.95V164.78H350.23V164.78H350.52V164.78H350.8V164.78H351.08V164.78H351.36V164.78H351.65V164.78H351.93V164.78H352.21V164.78H352.5V164.78H352.78V164.78H353.06V164.78H353.34V164.78H353.63V164.78H353.91V164.78H354.19V164.78H354.47V164.78H354.76V164.78H355.04V164.78H355.32V164.78H355.61V164.78H355.89V164.78H356.17V164.78" style="vector-effect: none; fill: none; stroke: rgb(139, 196, 59); stroke-opacity: 1; stroke-width: 3px; opacity: 1;"/></g><g class="points"/><g class="text"/></g><g class="trace scatter trace240a48" style="stroke-miterlimit: 2; opacity: 1;"><g class="fills"/><g class="errorbars"/><g class="lines"/><g class="points"><path class="point" transform="translate(282.47,278.13)" d="M5.5,5.5H-5.5V-5.5H5.5Z" style="opacity: 1; stroke: rgb(139, 196, 59); stroke-opacity: 1; stroke-width: 1px; fill: none;"/><path class="point" transform="translate(286.04,214.06)" d="M5.5,5.5H-5.5V-5.5H5.5Z" style="opacity: 1; stroke: rgb(139, 196, 59); stroke-opacity: 1; stroke-width: 1px; fill: none;"/><path class="point" transform="translate(303.58,164.78)" d="M5.5,5.5H-5.5V-5.5H5.5Z" style="opacity: 1; stroke: rgb(139, 196, 59); stroke-opacity: 1; stroke-width: 1px; fill: none;"/><path class="point" transform="translate(356.17,164.78)" d="M5.5,5.5H-5.5V-5.5H5.5Z" style="opacity: 1; stroke: rgb(139, 196, 59); stroke-opacity: 1; stroke-width: 1px; fill: none;"/></g><g class="text"/></g><g class="trace scatter trace24e06f" style="stroke-miterlimit: 2; opacity: 1;"><g class="fills"/><g class="errorbars"/><g class="lines"><path class="js-line" d="M36.38,278.13H36.38V278.13H36.38V278.13H36.38V278.13H36.64V273.2H36.64V273.2H36.64V273.2H36.64V273.2H36.64V273.2H36.8V273.2H36.8V273.2H36.8V273.2H36.91V268.27H36.91V268.27H36.99V268.27H36.99V268.27H37.06V268.27H37.12V268.27H37.17V263.34H37.22V263.34H37.26V263.34H37.3V263.34H37.33V263.34H37.36V263.34H37.41V263.34H37.46V258.41H37.51V258.41H37.54V258.41H37.59V258.41H37.63V258.41H37.68V258.41H37.72V253.49H37.76V253.49H37.81V253.49H37.85V253.49H37.89V253.49H37.93V253.49H37.98V248.56H38.02V248.56H38.07V248.56H38.11V248.56H38.15V248.56H38.2V248.56H38.24V243.63H38.28V243.63H38.33V243.63H38.37V243.63H38.41V243.63H38.46V243.63H38.5V243.63H38.54V238.7H38.59V238.7H38.63V238.7H38.67V238.7H38.72V238.7H38.76V238.7H38.8V233.77H38.85V233.77H38.89V233.77H38.93V233.77H38.98V233.77H39.02V233.77H39.06V228.85H39.11V228.85H39.15V228.85H39.19V228.85H39.24V228.85H39.28V228.85H39.32V223.92H39.37V223.92H39.41V223.92H39.45V223.92H39.5V223.92H39.54V223.92H39.58V218.99H39.63V218.99H39.67V218.99H39.71V218.99H39.76V218.99H39.8V218.99H39.84V214.06H39.89V214.06H39.93V214.06H39.97V214.06H40.02V214.06H40.06V214.06H40.1V209.13H40.15V209.13H40.19V209.13H40.23V209.13H40.28V209.13H40.32V209.13H40.36V209.13H40.41V204.21H40.45V204.21H40.5V204.21H40.54V204.21H40.58V204.21H40.63V204.21H40.67V199.28H40.71V199.28H40.76V199.28H40.8V199.28H40.84V199.28H40.89V199.28H40.93V194.35H40.97V194.35H41.02V194.35H41.06V194.35H41.1V194.35H41.15V194.35H41.19V189.42H41.23V189.42H41.28V189.42H41.32V189.42H41.36V189.42H41.41V189.42H41.45V184.5H41.49V184.5H41.54V184.5H41.58V184.5H41.62V184.5H41.67V184.5H41.71V179.57H41.75V179.57H41.8V179.57H41.84V179.57H41.88V179.57H41.93V179.57H41.97V174.64H42.01V174.64H42.06V174.64H42.1V174.64H42.14V174.64H42.19V174.64H42.23V169.71H42.27V169.71H42.32V169.71H42.36V169.71H42.4V169.71H42.45V169.71H42.49V169.71H42.53V164.78H42.58V164.78H42.62V164.78H42.66V164.78H42.71V164.78H42.75V164.78H42.79V159.86H42.84V159.86H42.88V159.86H42.92V159.86H42.97V159.86H43.01V159.86H43.05V154.93H43.1V154.93H43.14V154.93H43.18V154.93H43.23V154.93H43.27V154.93H43.31V150H43.36V150H43.4V150H43.44V150H43.49V150H43.53V150H43.57V145.07H43.62V145.07H43.66V145.07H43.7V145.07H43.75V145.07H43.79V145.07H43.83V140.14H43.88V140.14H43.92V140.14H43.96V140.14H44.01V140.14H44.05V140.14H44.09V135.22H44.14V135.22H44.18V135.22H44.22V135.22H44.27V135.22H44.31V135.22H44.35V135.22H44.4V130.29H44.44V130.29H44.49V130.29H44.53V130.29H44.57V130.29H44.62V130.29H44.66V125.36H44.7V125.36H44.75V125.36H44.79V125.36H44.83V125.36H44.88V125.36H44.92V120.43H44.96V120.43H45.01V120.43H45.05V120.43H45.09V120.43H45.14V120.43H45.18V115.5H45.22V115.5H45.27V115.5H45.31V115.5H45.35V115.5H45.4V115.5H45.44V110.58H45.48V110.58H45.53V110.58H45.57V110.58H45.61V110.58H45.66V110.58H45.7V105.65H45.74V105.65H45.79V105.65H45.83V105.65H45.87V105.65H45.92V105.65H45.96V100.72H46V100.72H46.05V100.72H46.09V100.72H46.13V100.72H46.18V100.72H46.22V95.79H46.26V95.79H46.31V95.79H46.35V95.79H46.39V95.79H46.44V95.79H46.48V95.79H46.52V90.87H46.57V90.87H46.61V90.87H46.65V90.87H46.7V90.87H46.74V90.87H46.78V85.94H46.83V85.94H46.87V85.94H46.91V85.94H46.96V85.94H47V85.94H47.04V81.01H47.09V81.01H47.13V81.01H47.17V81.01H47.22V81.01H47.26V81.01H47.3V76.08H47.35V76.08H47.39V76.08H47.43V76.08H47.48V76.08H47.52V76.08H47.56V71.15H47.61V71.15H47.65V71.15H47.69V71.15H47.74V71.15H47.78V71.15H47.82V66.23H47.87V66.23H47.91V66.23H47.95V66.23H48V66.23H48.04V66.23H48.08V61.3H48.13V61.3H48.17V61.3H48.21V61.3H48.26V61.3H48.3V61.3H48.34V61.3H48.39V56.37H48.43V56.37H48.48V56.37H48.52V56.37H48.56V56.37H48.61V56.37H48.65V51.44H48.69V51.44H48.74V51.44H48.78V51.44H48.82V51.44H48.87V51.44H48.91V46.51H48.95V46.51H49V46.51H49.04V46.51H49.08V46.51H49.13V46.51H49.17V41.59H49.21V41.59H49.26V41.59H49.3V41.59H49.34V41.59H49.39V41.59H49.43V36.66H49.47V36.66H49.52V36.66H49.56V36.66H49.6V36.66H49.65V36.66H49.69V31.73H49.73V31.73H49.78V31.73H49.82V31.73H49.86V31.73H49.91V31.73H49.95V26.8H49.99V26.8H50.04V26.8H50.08V26.8H50.12V26.8H50.17V26.8H50.21V26.8H52.49V21.88H54.76V21.88H57.04V21.88H59.32V21.88H61.6V21.88H63.88V21.88H66.15V21.88H68.43V21.88H70.71V21.88H72.99V21.88H75.26V21.88H77.54V21.88H79.82V21.88H82.1V21.88H84.37V21.88H86.65V21.88H88.93V21.88H91.21V21.88H93.48V21.88H95.76V21.88H98.04V21.88H100.32V21.88H102.59V21.88H104.87V21.88H107.15V21.88H109.43V21.88H111.7V21.88H113.98V21.88H116.26V21.88H118.54V21.88H120.82V21.88H123.09V21.88H125.37V21.88H127.65V21.88H129.93V21.88H132.2V21.88H134.48V21.88H136.76V21.88H139.04V21.88H141.31V21.88H143.59V21.88H145.87V21.88H148.15V21.88H150.42V21.88H152.7V21.88H154.98V21.88H157.26V21.88H159.53V21.88H161.81V21.88H164.09V21.88H166.37V21.88H168.64V21.88H170.92V21.88H173.2V21.88H175.48V21.88H177.76V21.88H180.03V21.88H182.31V21.88H184.59V21.88H186.87V21.88H189.14V21.88H191.42V21.88H193.7V21.88H195.98V21.88H198.25V21.88H200.53V21.88H202.81V21.88H205.09V21.88H207.36V21.88H209.64V21.88H211.92V21.88H214.2V21.88H216.47V21.88H218.75V21.88H221.03V21.88H223.31V21.88H225.58V21.88H227.86V21.88H230.14V21.88H232.42V21.88H234.7V21.88H236.97V21.88H239.25V21.88H241.53V21.88H243.81V21.88H246.08V21.88H248.36V21.88H250.64V21.88H252.92V21.88H255.19V21.88H257.47V21.88H259.75V21.88H262.03V21.88H264.3V21.88H266.58V21.88H268.86V21.88H271.14V21.88H273.41V21.88H275.69V21.88H277.97V21.88H280.25V21.88H282.52V21.88H284.8V21.88H287.08V21.88H289.36V21.88H291.63V21.88H293.91V21.88H296.19V21.88H298.47V21.88H300.75V21.88H303.02V21.88H305.3V21.88H307.58V21.88H309.86V21.88H312.13V21.88H314.41V21.88H316.69V21.88H318.97V21.88H321.24V21.88H323.52V21.88H325.8V21.88H328.08V21.88H330.35V21.88H332.63V21.88H334.91V21.88H337.19V21.88H339.46V21.88H341.74V21.88H344.02V21.88H346.3V21.88H348.57V21.88H350.85V21.88H353.13V21.88H355.41V21.88H357.69V21.88H359.96V21.88H362.24V21.88H364.52V21.88H366.8V21.88H369.07V21.88H371.35V21.88H373.63V21.88H375.91V21.88H378.18V21.88H380.46V21.88H382.74V21.88H385.02V21.88H387.29V21.88H389.57V21.88H391.85V21.88H394.13V21.88H396.4V21.88H398.68V21.88H400.96V21.88H403.24V21.88H405.51V21.88H407.79V21.88H410.07V21.88H412.35V21.88H414.63V21.88H416.9V21.88H419.18V21.88H421.46V21.88H423.74V21.88H426.01V21.88H428.29V21.88H430.57V21.88H432.85V21.88H435.12V21.88H437.4V21.88H439.68V21.88H441.96V21.88H444.23V21.88H446.51V21.88H448.79V21.88H451.07V21.88H453.34V21.88H455.62V21.88H457.9V21.88H460.18V21.88H462.45V21.88H464.73V21.88H467.01V21.88H469.29V21.88H471.57V21.88H473.84V21.88H476.12V21.88H478.4V21.88H480.68V21.88H482.95V21.88H485.23V21.88H487.51V21.88H489.79V21.88H492.06V21.88H494.34V21.88H496.62V21.88H498.9V21.88H501.17V21.88H503.45V21.88H505.73V21.88H508.01V21.88H510.28V21.88H512.56V21.88H514.84V21.88H517.12V21.88H519.39V21.88H521.67V21.88H523.95V21.88H526.23V21.88H528.5V21.88H530.78V21.88H533.06V21.88H535.34V21.88H537.62V21.88H539.89V21.88H542.17V21.88H544.45V21.88H546.73V21.88H549V21.88H551.28V21.88H553.56V21.88H555.84V21.88H558.11V21.88H560.39V21.88H562.67V21.88H564.95V21.88H567.22V21.88H569.5V21.88H571.78V21.88H574.06V21.88H576.33V21.88H578.61V21.88H580.89V21.88H583.17V21.88H585.44V21.88H587.72V21.88H590V21.88H592.28V21.88" style="vector-effect: none; fill: none; stroke: rgb(139, 196, 59); stroke-opacity: 1; stroke-width: 3px; opacity: 1;"/></g><g class="points"/><g class="text"/></g><g class="trace scatter trace860bdf" style="stroke-miterlimit: 2; opacity: 1;"><g class="fills"/><g class="errorbars"/><g class="lines"/><g class="points"><path class="point" transform="translate(36.38,278.13)" d="M7.15,0L0,7.15L-7.15,0L0,-7.15Z" style="opacity: 1; stroke: rgb(139, 196, 59); stroke-opacity: 1; stroke-width: 1px; fill: none;"/><path class="point" transform="translate(39.8,218.99)" d="M7.15,0L0,7.15L-7.15,0L0,-7.15Z" style="opacity: 1; stroke: rgb(139, 196, 59); stroke-opacity: 1; stroke-width: 1px; fill: none;"/><path class="point" transform="translate(43.27,154.93)" d="M7.15,0L0,7.15L-7.15,0L0,-7.15Z" style="opacity: 1; stroke: rgb(139, 196, 59); stroke-opacity: 1; stroke-width: 1px; fill: none;"/><path class="point" transform="translate(46.74,90.87)" d="M7.15,0L0,7.15L-7.15,0L0,-7.15Z" style="opacity: 1; stroke: rgb(139, 196, 59); stroke-opacity: 1; stroke-width: 1px; fill: none;"/><path class="point" transform="translate(50.17,26.8)" d="M7.15,0L0,7.15L-7.15,0L0,-7.15Z" style="opacity: 1; stroke: rgb(139, 196, 59); stroke-opacity: 1; stroke-width: 1px; fill: none;"/><path class="point" transform="translate(230.14,21.88)" d="M7.15,0L0,7.15L-7.15,0L0,-7.15Z" style="opacity: 1; stroke: rgb(139, 196, 59); stroke-opacity: 1; stroke-width: 1px; fill: none;"/><path class="point" transform="translate(412.35,21.88)" d="M7.15,0L0,7.15L-7.15,0L0,-7.15Z" style="opacity: 1; stroke: rgb(139, 196, 59); stroke-opacity: 1; stroke-width: 1px; fill: none;"/></g><g class="text"/></g></g></g></g><g class="zerolinelayer-above"/><path class="xlines-above crisp" d="M69,360.5H661M69,59.5H661" style="fill: none; stroke-width: 1px; stroke: rgb(255, 255, 255); stroke-opacity: 1;"/><path class="ylines-above crisp" d="M69.5,60V360M660.5,60V360" style="fill: none; stroke-width: 1px; stroke: rgb(255, 255, 255); stroke-opacity: 1;"/><g class="overlines-above"/><g class="xaxislayer-above"><path class="xtick ticks crisp" d="M0,361v5" transform="translate(109.3,0)" style="stroke: rgb(255, 255, 255); stroke-opacity: 1; stroke-width: 1px;"/><path class="xtick ticks crisp" d="M0,361v5" transform="translate(180,0)" style="stroke: rgb(255, 255, 255); stroke-opacity: 1; stroke-width: 1px;"/><path class="xtick ticks crisp" d="M0,361v5" transform="translate(250.71,0)" style="stroke: rgb(255, 255, 255); stroke-opacity: 1; stroke-width: 1px;"/><path class="xtick ticks crisp" d="M0,361v5" transform="translate(321.40999999999997,0)" style="stroke: rgb(255, 255, 255); stroke-opacity: 1; stroke-width: 1px;"/><path class="xtick ticks crisp" d="M0,361v5" transform="translate(392.12,0)" style="stroke: rgb(255, 255, 255); stroke-opacity: 1; stroke-width: 1px;"/><path class="xtick ticks crisp" d="M0,361v5" transform="translate(462.82,0)" style="stroke: rgb(255, 255, 255); stroke-opacity: 1; stroke-width: 1px;"/><path class="xtick ticks crisp" d="M0,361v5" transform="translate(533.53,0)" style="stroke: rgb(255, 255, 255); stroke-opacity: 1; stroke-width: 1px;"/><path class="xtick ticks crisp" d="M0,361v5" transform="translate(604.23,0)" style="stroke: rgb(255, 255, 255); stroke-opacity: 1; stroke-width: 1px;"/><g class="xtick"><text text-anchor="middle" x="0" y="380.4" transform="translate(109.3,0)" style="font-family: 'Open Sans', verdana, arial, sans-serif; font-size: 12px; fill: rgb(255, 255, 255); fill-opacity: 1; white-space: pre;">1.0e−320</text></g><g class="xtick"><text text-anchor="middle" x="0" y="380.4" style="font-family: 'Open Sans', verdana, arial, sans-serif; font-size: 12px; fill: rgb(255, 255, 255); fill-opacity: 1; white-space: pre;" transform="translate(180,0)">1.0e−240</text></g><g class="xtick"><text text-anchor="middle" x="0" y="380.4" style="font-family: 'Open Sans', verdana, arial, sans-serif; font-size: 12px; fill: rgb(255, 255, 255); fill-opacity: 1; white-space: pre;" transform="translate(250.71,0)">1.0e−160</text></g><g class="xtick"><text text-anchor="middle" x="0" y="380.4" style="font-family: 'Open Sans', verdana, arial, sans-serif; font-size: 12px; fill: rgb(255, 255, 255); fill-opacity: 1; white-space: pre;" transform="translate(321.40999999999997,0)">1.0e−80</text></g><g class="xtick"><text text-anchor="middle" x="0" y="380.4" style="font-family: 'Open Sans', verdana, arial, sans-serif; font-size: 12px; fill: rgb(255, 255, 255); fill-opacity: 1; white-space: pre;" transform="translate(392.12,0)">1.0e+0</text></g><g class="xtick"><text text-anchor="middle" x="0" y="380.4" style="font-family: 'Open Sans', verdana, arial, sans-serif; font-size: 12px; fill: rgb(255, 255, 255); fill-opacity: 1; white-space: pre;" transform="translate(462.82,0)">1.0e+80</text></g><g class="xtick"><text text-anchor="middle" x="0" y="380.4" style="font-family: 'Open Sans', verdana, arial, sans-serif; font-size: 12px; fill: rgb(255, 255, 255); fill-opacity: 1; white-space: pre;" transform="translate(533.53,0)">1.0e+160</text></g><g class="xtick"><text text-anchor="middle" x="0" y="380.4" style="font-family: 'Open Sans', verdana, arial, sans-serif; font-size: 12px; fill: rgb(255, 255, 255); fill-opacity: 1; white-space: pre;" transform="translate(604.23,0)">1.0e+240</text></g></g><g class="yaxislayer-above"><path class="ytick ticks crisp" d="M69,0h-5" transform="translate(0,338.13)" style="stroke: rgb(255, 255, 255); stroke-opacity: 1; stroke-width: 1px;"/><path class="ytick ticks crisp" d="M69,0h-5" transform="translate(0,288.85)" style="stroke: rgb(255, 255, 255); stroke-opacity: 1; stroke-width: 1px;"/><path class="ytick ticks crisp" d="M69,0h-5" transform="translate(0,239.57)" style="stroke: rgb(255, 255, 255); stroke-opacity: 1; stroke-width: 1px;"/><path class="ytick ticks crisp" d="M69,0h-5" transform="translate(0,190.29)" style="stroke: rgb(255, 255, 255); stroke-opacity: 1; stroke-width: 1px;"/><path class="ytick ticks crisp" d="M69,0h-5" transform="translate(0,141.01)" style="stroke: rgb(255, 255, 255); stroke-opacity: 1; stroke-width: 1px;"/><path class="ytick ticks crisp" d="M69,0h-5" transform="translate(0,91.73)" style="stroke: rgb(255, 255, 255); stroke-opacity: 1; stroke-width: 1px;"/><g class="ytick"><text text-anchor="end" x="61.6" y="4.199999999999999" transform="translate(0,338.13)" style="font-family: 'Open Sans', verdana, arial, sans-serif; font-size: 12px; fill: rgb(255, 255, 255); fill-opacity: 1; white-space: pre;">0.0</text></g><g class="ytick"><text text-anchor="end" x="61.6" y="4.199999999999999" style="font-family: 'Open Sans', verdana, arial, sans-serif; font-size: 12px; fill: rgb(255, 255, 255); fill-opacity: 1; white-space: pre;" transform="translate(0,288.85)">10.0</text></g><g class="ytick"><text text-anchor="end" x="61.6" y="4.199999999999999" style="font-family: 'Open Sans', verdana, arial, sans-serif; font-size: 12px; fill: rgb(255, 255, 255); fill-opacity: 1; white-space: pre;" transform="translate(0,239.57)">20.0</text></g><g class="ytick"><text text-anchor="end" x="61.6" y="4.199999999999999" style="font-family: 'Open Sans', verdana, arial, sans-serif; font-size: 12px; fill: rgb(255, 255, 255); fill-opacity: 1; white-space: pre;" transform="translate(0,190.29)">30.0</text></g><g class="ytick"><text text-anchor="end" x="61.6" y="4.199999999999999" style="font-family: 'Open Sans', verdana, arial, sans-serif; font-size: 12px; fill: rgb(255, 255, 255); fill-opacity: 1; white-space: pre;" transform="translate(0,141.01)">40.0</text></g><g class="ytick"><text text-anchor="end" x="61.6" y="4.199999999999999" style="font-family: 'Open Sans', verdana, arial, sans-serif; font-size: 12px; fill: rgb(255, 255, 255); fill-opacity: 1; white-space: pre;" transform="translate(0,91.73)">50.0</text></g></g><g class="overaxes-above"/></g></g><g class="polarlayer"/><g class="smithlayer"/><g class="ternarylayer"/><g class="geolayer"/><g class="funnelarealayer"/><g class="pielayer"/><g class="iciclelayer"/><g class="treemaplayer"/><g class="sunburstlayer"/><g class="glimages"/><defs id="topdefs-95dfee"><g class="clips"/><clipPath id="legend95dfee"><rect width="187" height="29" x="0" y="0"/></clipPath></defs><g class="layer-above"><g class="imagelayer"/><g class="shapelayer"/></g><g class="infolayer"><g class="legend" pointer-events="all" transform="translate(473,325)"><rect class="bg" shape-rendering="crispEdges" style="stroke: rgb(68, 68, 68); stroke-opacity: 1; fill: rgb(0, 0, 0); fill-opacity: 0; stroke-width: 0px;" width="187" height="29" x="0" y="0"/><g class="scrollbox" transform="" clip-path="url(#legend95dfee)"><g class="groups"><g class="traces" transform="translate(0,14.5)" style="opacity: 1;"><text class="legendtext" text-anchor="start" x="40" y="4.680000000000001" style="font-family: 'Open Sans', verdana, arial, sans-serif; font-size: 12px; fill: rgb(255, 255, 255); fill-opacity: 1; white-space: pre;">f16</text><g class="layers" style="opacity: 1;"><g class="legendfill"/><g class="legendlines"/><g class="legendsymbols"><g class="legendpoints"><path class="scatterpts" transform="translate(20,0)" d="M5.5,0A5.5,5.5 0 1,1 0,-5.5A5.5,5.5 0 0,1 5.5,0Z" style="opacity: 1; stroke: rgb(139, 196, 59); stroke-opacity: 1; stroke-width: 1px; fill: none;"/></g></g></g><rect class="legendtoggle" x="0" y="-9.5" width="59.515625" height="19" style="fill: rgb(0, 0, 0); fill-opacity: 0;"/></g><g class="traces" transform="translate(62.015625,14.5)" style="opacity: 1;"><text class="legendtext" text-anchor="start" x="40" y="4.680000000000001" style="font-family: 'Open Sans', verdana, arial, sans-serif; font-size: 12px; fill: rgb(255, 255, 255); fill-opacity: 1; white-space: pre;">f32</text><g class="layers" style="opacity: 1;"><g class="legendfill"/><g class="legendlines"/><g class="legendsymbols"><g class="legendpoints"><path class="scatterpts" transform="translate(20,0)" d="M5.5,5.5H-5.5V-5.5H5.5Z" style="opacity: 1; stroke: rgb(139, 196, 59); stroke-opacity: 1; stroke-width: 1px; fill: none;"/></g></g></g><rect class="legendtoggle" x="0" y="-9.5" width="59.515625" height="19" style="fill: rgb(0, 0, 0); fill-opacity: 0;"/></g><g class="traces" transform="translate(124.03125,14.5)" style="opacity: 1;"><text class="legendtext" text-anchor="start" x="40" y="4.680000000000001" style="font-family: 'Open Sans', verdana, arial, sans-serif; font-size: 12px; fill: rgb(255, 255, 255); fill-opacity: 1; white-space: pre;">f64</text><g class="layers" style="opacity: 1;"><g class="legendfill"/><g class="legendlines"/><g class="legendsymbols"><g class="legendpoints"><path class="scatterpts" transform="translate(20,0)" d="M7.15,0L0,7.15L-7.15,0L0,-7.15Z" style="opacity: 1; stroke: rgb(139, 196, 59); stroke-opacity: 1; stroke-width: 1px; fill: none;"/></g></g></g><rect class="legendtoggle" x="0" y="-9.5" width="59.515625" height="19" style="fill: rgb(0, 0, 0); fill-opacity: 0;"/></g></g></g><rect class="scrollbar" rx="20" ry="3" width="0" height="0" style="fill: rgb(128, 139, 164); fill-opacity: 1;" x="0" y="0"/></g><g class="g-gtitle"><text class="gtitle" x="35" y="12.600000000000023" text-anchor="start" dy="0.7em" style="opacity: 1; font-family: 'Open Sans', verdana, arial, sans-serif; font-size: 17px; fill: rgb(255, 255, 255); fill-opacity: 1; white-space: pre;">Relative Resolution of IEEE-754 Floats</text></g><g class="g-xtitle"><text class="xtitle" x="365" y="407.70625" text-anchor="middle" style="opacity: 1; font-family: 'Open Sans', verdana, arial, sans-serif; font-size: 14px; fill: rgb(255, 255, 255); fill-opacity: 1; white-space: pre;">Magnitude</text></g><g class="g-ytitle"><text class="ytitle" transform="rotate(-90,18.834375,210)" x="18.834375" y="210" text-anchor="middle" style="opacity: 1; font-family: 'Open Sans', verdana, arial, sans-serif; font-size: 14px; fill: rgb(255, 255, 255); fill-opacity: 1; white-space: pre;">Resolution (bits)</text></g><g class="annotation" data-index="0" style="opacity: 1;"><g class="annotation-text-g" transform="rotate(0,433,258.85)"><g class="cursor-pointer" transform="translate(382,250)"><rect class="bg" x="0.5" y="0.5" width="102" height="17" style="stroke-width: 1px; stroke: rgb(0, 0, 0); stroke-opacity: 0; fill: rgb(0, 0, 0); fill-opacity: 0;"/><text class="annotation-text" text-anchor="middle" x="51.328125" y="13" style="font-family: 'Open Sans', verdana, arial, sans-serif; font-size: 12px; fill: rgb(255, 255, 255); fill-opacity: 1; white-space: pre;">epsilon ≈ 9.77e-04</text></g></g><g class="annotation-arrow-g" style="opacity: 1;"><path d="M421.6666666666667,267.35L393,288.85" style="stroke-width: 1px; stroke: rgb(255, 255, 255); stroke-opacity: 1; stroke-dasharray: 0px, 0px, 35.8333px, 35.8333px;"/></g></g><g class="annotation" data-index="1" style="opacity: 1;"><g class="annotation-text-g" transform="rotate(0,433,204.78)"><g class="cursor-pointer" transform="translate(382,196)"><rect class="bg" x="0.5" y="0.5" width="102" height="17" style="stroke-width: 1px; stroke: rgb(0, 0, 0); stroke-opacity: 0; fill: rgb(0, 0, 0); fill-opacity: 0;"/><text class="annotation-text" text-anchor="middle" x="51.328125" y="13" style="font-family: 'Open Sans', verdana, arial, sans-serif; font-size: 12px; fill: rgb(255, 255, 255); fill-opacity: 1; white-space: pre;">epsilon ≈ 1.19e-07</text></g></g><g class="annotation-arrow-g" style="opacity: 1;"><path d="M416,213.28L393,224.78" style="stroke-width: 1px; stroke: rgb(255, 255, 255); stroke-opacity: 1; stroke-dasharray: 0px, 0px, 25.7148px, 25.7148px;"/></g></g><g class="annotation" data-index="2" style="opacity: 1;"><g class="annotation-text-g" transform="rotate(0,433,101.88)"><g class="cursor-pointer" transform="translate(382,93)"><rect class="bg" x="0.5" y="0.5" width="102" height="17" style="stroke-width: 1px; stroke: rgb(0, 0, 0); stroke-opacity: 0; fill: rgb(0, 0, 0); fill-opacity: 0;"/><text class="annotation-text" text-anchor="middle" x="51.328125" y="13" style="font-family: 'Open Sans', verdana, arial, sans-serif; font-size: 12px; fill: rgb(255, 255, 255); fill-opacity: 1; white-space: pre;">epsilon ≈ 2.22e-16</text></g></g><g class="annotation-arrow-g" style="opacity: 1;"><path d="M416,93.38L393,81.88" style="stroke-width: 1px; stroke: rgb(255, 255, 255); stroke-opacity: 1; stroke-dasharray: 0px, 0px, 25.7148px, 25.7148px;"/></g></g></g></svg>