<?xml version="1.0" encoding="utf-8" standalone="no"?>
<!DOCTYPE svg PUBLIC "-//W3C//DTD SVG 1.1//EN"
  "http://www.w3.org/Graphics/SVG/1.1/DTD/svg11.dtd">
<svg xmlns:xlink="http://www.w3.org/1999/xlink" width="600.3pt" height="161.6724pt" viewBox="0 0 600.3 161.6724" xmlns="http://www.w3.org/2000/svg" version="1.1">
 <metadata>
  <rdf:RDF xmlns:dc="http://purl.org/dc/elements/1.1/" xmlns:cc="http://creativecommons.org/ns#" xmlns:rdf="http://www.w3.org/1999/02/22-rdf-syntax-ns#">
   <cc:Work>
    <dc:type rdf:resource="http://purl.org/dc/dcmitype/StillImage"/>
    <dc:date>2026-01-18T14:11:15.047276</dc:date>
    <dc:format>image/svg+xml</dc:format>
    <dc:creator>
     <cc:Agent>
      <dc:title>Matplotlib v3.10.8, https://matplotlib.org/</dc:title>
     </cc:Agent>
    </dc:creator>
   </cc:Work>
  </rdf:RDF>
 </metadata>
 <defs>
  <style type="text/css">*{stroke-linejoin: round; stroke-linecap: butt}</style>
 </defs>
 <g id="figure_1">
  <g id="patch_1">
   <path d="M 0 161.6724 
L 600.3 161.6724 
L 600.3 0 
L 0 0 
L 0 161.6724 
z
" style="fill: none"/>
  </g>
  <g id="axes_1">
   <g id="text_1">
    <!-- $e = 0 \Rightarrow x = (-1)^s \left(\sum_{i=1}^{52} b_i 2^{-i}\right) 2^{-1022}$ -->
    <g transform="translate(18.918 38.7) scale(0.18 -0.18)">
     <defs>
      <path id="DejaVuSans-Oblique-65" d="M 3078 2063 
Q 3088 2113 3092 2166 
Q 3097 2219 3097 2272 
Q 3097 2653 2873 2875 
Q 2650 3097 2266 3097 
Q 1838 3097 1509 2826 
Q 1181 2556 1013 2059 
L 3078 2063 
z
M 3578 1613 
L 903 1613 
Q 884 1494 878 1425 
Q 872 1356 872 1306 
Q 872 872 1139 634 
Q 1406 397 1894 397 
Q 2269 397 2603 481 
Q 2938 566 3225 728 
L 3116 159 
Q 2806 34 2476 -28 
Q 2147 -91 1806 -91 
Q 1078 -91 686 257 
Q 294 606 294 1247 
Q 294 1794 489 2264 
Q 684 2734 1063 3103 
Q 1306 3334 1642 3459 
Q 1978 3584 2356 3584 
Q 2950 3584 3301 3228 
Q 3653 2872 3653 2272 
Q 3653 2128 3634 1964 
Q 3616 1800 3578 1613 
z
" transform="scale(0.015625)"/>
      <path id="DejaVuSans-3d" d="M 678 2906 
L 4684 2906 
L 4684 2381 
L 678 2381 
L 678 2906 
z
M 678 1631 
L 4684 1631 
L 4684 1100 
L 678 1100 
L 678 1631 
z
" transform="scale(0.015625)"/>
      <path id="DejaVuSans-30" d="M 2034 4250 
Q 1547 4250 1301 3770 
Q 1056 3291 1056 2328 
Q 1056 1369 1301 889 
Q 1547 409 2034 409 
Q 2525 409 2770 889 
Q 3016 1369 3016 2328 
Q 3016 3291 2770 3770 
Q 2525 4250 2034 4250 
z
M 2034 4750 
Q 2819 4750 3233 4129 
Q 3647 3509 3647 2328 
Q 3647 1150 3233 529 
Q 2819 -91 2034 -91 
Q 1250 -91 836 529 
Q 422 1150 422 2328 
Q 422 3509 836 4129 
Q 1250 4750 2034 4750 
z
" transform="scale(0.015625)"/>
      <path id="DejaVuSans-21d2" d="M 4113 1678 
L 4441 2006 
L 4113 2334 
L 366 2334 
L 366 2709 
L 3738 2709 
L 3447 3000 
L 3822 3375 
L 5050 2147 
L 5050 1866 
L 3822 638 
L 3447 1013 
L 3738 1303 
L 366 1303 
L 366 1678 
L 4113 1678 
z
" transform="scale(0.015625)"/>
      <path id="DejaVuSans-Oblique-78" d="M 3841 3500 
L 2234 1784 
L 3219 0 
L 2559 0 
L 1819 1388 
L 531 0 
L -166 0 
L 1556 1844 
L 641 3500 
L 1300 3500 
L 1972 2234 
L 3144 3500 
L 3841 3500 
z
" transform="scale(0.015625)"/>
      <path id="DejaVuSans-28" d="M 1984 4856 
Q 1566 4138 1362 3434 
Q 1159 2731 1159 2009 
Q 1159 1288 1364 580 
Q 1569 -128 1984 -844 
L 1484 -844 
Q 1016 -109 783 600 
Q 550 1309 550 2009 
Q 550 2706 781 3412 
Q 1013 4119 1484 4856 
L 1984 4856 
z
" transform="scale(0.015625)"/>
      <path id="DejaVuSans-2212" d="M 678 2272 
L 4684 2272 
L 4684 1741 
L 678 1741 
L 678 2272 
z
" transform="scale(0.015625)"/>
      <path id="DejaVuSans-31" d="M 794 531 
L 1825 531 
L 1825 4091 
L 703 3866 
L 703 4441 
L 1819 4666 
L 2450 4666 
L 2450 531 
L 3481 531 
L 3481 0 
L 794 0 
L 794 531 
z
" transform="scale(0.015625)"/>
      <path id="DejaVuSans-29" d="M 513 4856 
L 1013 4856 
Q 1481 4119 1714 3412 
Q 1947 2706 1947 2009 
Q 1947 1309 1714 600 
Q 1481 -109 1013 -844 
L 513 -844 
Q 928 -128 1133 580 
Q 1338 1288 1338 2009 
Q 1338 2731 1133 3434 
Q 928 4138 513 4856 
z
" transform="scale(0.015625)"/>
      <path id="DejaVuSans-Oblique-73" d="M 3200 3397 
L 3091 2853 
Q 2863 2978 2609 3040 
Q 2356 3103 2088 3103 
Q 1634 3103 1373 2948 
Q 1113 2794 1113 2528 
Q 1113 2219 1719 2053 
Q 1766 2041 1788 2034 
L 1972 1978 
Q 2547 1819 2739 1644 
Q 2931 1469 2931 1166 
Q 2931 609 2489 259 
Q 2047 -91 1331 -91 
Q 1053 -91 747 -37 
Q 441 16 72 128 
L 184 722 
Q 500 559 806 475 
Q 1113 391 1394 391 
Q 1816 391 2080 572 
Q 2344 753 2344 1031 
Q 2344 1331 1650 1516 
L 1591 1531 
L 1394 1581 
Q 956 1697 753 1886 
Q 550 2075 550 2369 
Q 550 2928 970 3256 
Q 1391 3584 2113 3584 
Q 2397 3584 2667 3537 
Q 2938 3491 3200 3397 
z
" transform="scale(0.015625)"/>
      <path id="STIXSizeFourSym-Regular-28" d="M 4685 -2899 
L 4685 -3258 
Q 2938 -1850 1866 784 
Q 794 3418 794 6586 
Q 794 9747 1866 12380 
Q 2938 15014 4685 16422 
L 4685 16064 
Q 4224 15590 3811 14988 
Q 3398 14387 2988 13516 
Q 2579 12646 2284 11648 
Q 1990 10650 1808 9338 
Q 1626 8026 1626 6586 
Q 1626 4877 1898 3318 
Q 2170 1760 2624 589 
Q 3078 -582 3593 -1443 
Q 4109 -2304 4685 -2899 
z
" transform="scale(0.015625)"/>
      <path id="DejaVuSans-35" d="M 691 4666 
L 3169 4666 
L 3169 4134 
L 1269 4134 
L 1269 2991 
Q 1406 3038 1543 3061 
Q 1681 3084 1819 3084 
Q 2600 3084 3056 2656 
Q 3513 2228 3513 1497 
Q 3513 744 3044 326 
Q 2575 -91 1722 -91 
Q 1428 -91 1123 -41 
Q 819 9 494 109 
L 494 744 
Q 775 591 1075 516 
Q 1375 441 1709 441 
Q 2250 441 2565 725 
Q 2881 1009 2881 1497 
Q 2881 1984 2565 2268 
Q 2250 2553 1709 2553 
Q 1456 2553 1204 2497 
Q 953 2441 691 2322 
L 691 4666 
z
" transform="scale(0.015625)"/>
      <path id="DejaVuSans-32" d="M 1228 531 
L 3431 531 
L 3431 0 
L 469 0 
L 469 531 
Q 828 903 1448 1529 
Q 2069 2156 2228 2338 
Q 2531 2678 2651 2914 
Q 2772 3150 2772 3378 
Q 2772 3750 2511 3984 
Q 2250 4219 1831 4219 
Q 1534 4219 1204 4116 
Q 875 4013 500 3803 
L 500 4441 
Q 881 4594 1212 4672 
Q 1544 4750 1819 4750 
Q 2544 4750 2975 4387 
Q 3406 4025 3406 3419 
Q 3406 3131 3298 2873 
Q 3191 2616 2906 2266 
Q 2828 2175 2409 1742 
Q 1991 1309 1228 531 
z
" transform="scale(0.015625)"/>
      <path id="DejaVuSansDisplay-2211" d="M 244 6509 
L 5803 6509 
L 5803 5656 
L 1566 5656 
L 4534 2488 
L 1469 -888 
L 5919 -888 
L 5919 -1738 
L 109 -1738 
L 109 -1078 
L 3316 2463 
L 244 5728 
L 244 6509 
z
" transform="scale(0.015625)"/>
      <path id="DejaVuSans-Oblique-69" d="M 1172 4863 
L 1747 4863 
L 1606 4134 
L 1031 4134 
L 1172 4863 
z
M 909 3500 
L 1484 3500 
L 800 0 
L 225 0 
L 909 3500 
z
" transform="scale(0.015625)"/>
      <path id="DejaVuSans-Oblique-62" d="M 3169 2138 
Q 3169 2591 2961 2847 
Q 2753 3103 2388 3103 
Q 2122 3103 1889 2973 
Q 1656 2844 1484 2597 
Q 1303 2338 1198 1995 
Q 1094 1653 1094 1313 
Q 1094 881 1298 636 
Q 1503 391 1863 391 
Q 2134 391 2365 517 
Q 2597 644 2772 891 
Q 2950 1147 3059 1487 
Q 3169 1828 3169 2138 
z
M 1381 2969 
Q 1594 3256 1914 3420 
Q 2234 3584 2584 3584 
Q 3122 3584 3439 3221 
Q 3756 2859 3756 2241 
Q 3756 1734 3570 1259 
Q 3384 784 3041 416 
Q 2816 172 2522 40 
Q 2228 -91 1906 -91 
Q 1566 -91 1316 65 
Q 1066 222 909 531 
L 806 0 
L 231 0 
L 1178 4863 
L 1753 4863 
L 1381 2969 
z
" transform="scale(0.015625)"/>
      <path id="STIXSizeFourSym-Regular-29" d="M 486 16064 
L 486 16422 
Q 2240 15008 3309 12390 
Q 4378 9773 4378 6586 
Q 4378 3443 3302 793 
Q 2227 -1856 486 -3258 
L 486 -2899 
Q 941 -2432 1357 -1814 
Q 1773 -1197 2179 -313 
Q 2586 570 2883 1581 
Q 3181 2592 3363 3891 
Q 3546 5190 3546 6592 
Q 3546 8006 3363 9312 
Q 3181 10618 2883 11619 
Q 2586 12621 2179 13497 
Q 1773 14374 1357 14982 
Q 941 15590 486 16064 
z
" transform="scale(0.015625)"/>
     </defs>
     <use xlink:href="#DejaVuSans-Oblique-65" transform="translate(0 0.423438)"/>
     <use xlink:href="#DejaVuSans-3d" transform="translate(81.005859 0.423438)"/>
     <use xlink:href="#DejaVuSans-30" transform="translate(184.277344 0.423438)"/>
     <use xlink:href="#DejaVuSans-21d2" transform="translate(267.382812 0.423438)"/>
     <use xlink:href="#DejaVuSans-Oblique-78" transform="translate(370.654297 0.423438)"/>
     <use xlink:href="#DejaVuSans-3d" transform="translate(449.316406 0.423438)"/>
     <use xlink:href="#DejaVuSans-28" transform="translate(552.587891 0.423438)"/>
     <use xlink:href="#DejaVuSans-2212" transform="translate(591.601562 0.423438)"/>
     <use xlink:href="#DejaVuSans-31" transform="translate(675.390625 0.423438)"/>
     <use xlink:href="#DejaVuSans-29" transform="translate(739.013672 0.423438)"/>
     <use xlink:href="#DejaVuSans-Oblique-73" transform="translate(778.984375 38.704688) scale(0.7)"/>
     <use xlink:href="#STIXSizeFourSym-Regular-28" transform="translate(818.188477 -53.375) scale(0.886169)"/>
     <use xlink:href="#DejaVuSans-35" transform="translate(919.797485 121.871875) scale(0.7)"/>
     <use xlink:href="#DejaVuSans-32" transform="translate(964.333618 121.871875) scale(0.7)"/>
     <use xlink:href="#DejaVuSansDisplay-2211" transform="translate(919.797485 0.423438)"/>
     <use xlink:href="#DejaVuSans-Oblique-69" transform="translate(889.797485 -98.671875) scale(0.7)"/>
     <use xlink:href="#DejaVuSans-3d" transform="translate(922.883423 -98.671875) scale(0.7)"/>
     <use xlink:href="#DejaVuSans-31" transform="translate(995.173462 -98.671875) scale(0.7)"/>
     <use xlink:href="#DejaVuSans-Oblique-62" transform="translate(1039.709595 0.423438)"/>
     <use xlink:href="#DejaVuSans-Oblique-69" transform="translate(1103.186157 -15.982812) scale(0.7)"/>
     <use xlink:href="#DejaVuSans-32" transform="translate(1125.368774 0.423438)"/>
     <use xlink:href="#DejaVuSans-2212" transform="translate(1189.948853 38.704688) scale(0.7)"/>
     <use xlink:href="#DejaVuSans-Oblique-69" transform="translate(1248.601196 38.704688) scale(0.7)"/>
     <use xlink:href="#STIXSizeFourSym-Regular-29" transform="translate(1270.783813 -53.375) scale(0.886169)"/>
     <use xlink:href="#DejaVuSans-32" transform="translate(1342.392822 0.423438)"/>
     <use xlink:href="#DejaVuSans-2212" transform="translate(1406.9729 38.704688) scale(0.7)"/>
     <use xlink:href="#DejaVuSans-31" transform="translate(1465.625244 38.704688) scale(0.7)"/>
     <use xlink:href="#DejaVuSans-30" transform="translate(1510.161377 38.704688) scale(0.7)"/>
     <use xlink:href="#DejaVuSans-32" transform="translate(1554.69751 38.704688) scale(0.7)"/>
     <use xlink:href="#DejaVuSans-32" transform="translate(1599.233643 38.704688) scale(0.7)"/>
    </g>
   </g>
   <g id="text_2">
    <!-- $1 \leq e \leq 2046 \Rightarrow x = (-1)^s \left(1 + \sum_{i=1}^{52} b_i 2^{-i}\right) 2^{e-1023}$ -->
    <g transform="translate(18.918 103.5648) scale(0.18 -0.18)">
     <defs>
      <path id="DejaVuSans-2264" d="M 4684 3175 
L 1684 2309 
L 4684 1453 
L 4684 897 
L 678 2047 
L 678 2578 
L 4684 3725 
L 4684 3175 
z
M 678 531 
L 4684 531 
L 4684 0 
L 678 0 
L 678 531 
z
" transform="scale(0.015625)"/>
      <path id="DejaVuSans-34" d="M 2419 4116 
L 825 1625 
L 2419 1625 
L 2419 4116 
z
M 2253 4666 
L 3047 4666 
L 3047 1625 
L 3713 1625 
L 3713 1100 
L 3047 1100 
L 3047 0 
L 2419 0 
L 2419 1100 
L 313 1100 
L 313 1709 
L 2253 4666 
z
" transform="scale(0.015625)"/>
      <path id="DejaVuSans-36" d="M 2113 2584 
Q 1688 2584 1439 2293 
Q 1191 2003 1191 1497 
Q 1191 994 1439 701 
Q 1688 409 2113 409 
Q 2538 409 2786 701 
Q 3034 994 3034 1497 
Q 3034 2003 2786 2293 
Q 2538 2584 2113 2584 
z
M 3366 4563 
L 3366 3988 
Q 3128 4100 2886 4159 
Q 2644 4219 2406 4219 
Q 1781 4219 1451 3797 
Q 1122 3375 1075 2522 
Q 1259 2794 1537 2939 
Q 1816 3084 2150 3084 
Q 2853 3084 3261 2657 
Q 3669 2231 3669 1497 
Q 3669 778 3244 343 
Q 2819 -91 2113 -91 
Q 1303 -91 875 529 
Q 447 1150 447 2328 
Q 447 3434 972 4092 
Q 1497 4750 2381 4750 
Q 2619 4750 2861 4703 
Q 3103 4656 3366 4563 
z
" transform="scale(0.015625)"/>
      <path id="DejaVuSans-2b" d="M 2944 4013 
L 2944 2272 
L 4684 2272 
L 4684 1741 
L 2944 1741 
L 2944 0 
L 2419 0 
L 2419 1741 
L 678 1741 
L 678 2272 
L 2419 2272 
L 2419 4013 
L 2944 4013 
z
" transform="scale(0.015625)"/>
      <path id="DejaVuSans-33" d="M 2597 2516 
Q 3050 2419 3304 2112 
Q 3559 1806 3559 1356 
Q 3559 666 3084 287 
Q 2609 -91 1734 -91 
Q 1441 -91 1130 -33 
Q 819 25 488 141 
L 488 750 
Q 750 597 1062 519 
Q 1375 441 1716 441 
Q 2309 441 2620 675 
Q 2931 909 2931 1356 
Q 2931 1769 2642 2001 
Q 2353 2234 1838 2234 
L 1294 2234 
L 1294 2753 
L 1863 2753 
Q 2328 2753 2575 2939 
Q 2822 3125 2822 3475 
Q 2822 3834 2567 4026 
Q 2313 4219 1838 4219 
Q 1578 4219 1281 4162 
Q 984 4106 628 3988 
L 628 4550 
Q 988 4650 1302 4700 
Q 1616 4750 1894 4750 
Q 2613 4750 3031 4423 
Q 3450 4097 3450 3541 
Q 3450 3153 3228 2886 
Q 3006 2619 2597 2516 
z
" transform="scale(0.015625)"/>
     </defs>
     <use xlink:href="#DejaVuSans-31" transform="translate(0 0.423438)"/>
     <use xlink:href="#DejaVuSans-2264" transform="translate(83.105469 0.423438)"/>
     <use xlink:href="#DejaVuSans-Oblique-65" transform="translate(186.376953 0.423438)"/>
     <use xlink:href="#DejaVuSans-2264" transform="translate(267.382812 0.423438)"/>
     <use xlink:href="#DejaVuSans-32" transform="translate(370.654297 0.423438)"/>
     <use xlink:href="#DejaVuSans-30" transform="translate(434.277344 0.423438)"/>
     <use xlink:href="#DejaVuSans-34" transform="translate(497.900391 0.423438)"/>
     <use xlink:href="#DejaVuSans-36" transform="translate(561.523438 0.423438)"/>
     <use xlink:href="#DejaVuSans-21d2" transform="translate(644.628906 0.423438)"/>
     <use xlink:href="#DejaVuSans-Oblique-78" transform="translate(747.900391 0.423438)"/>
     <use xlink:href="#DejaVuSans-3d" transform="translate(826.5625 0.423438)"/>
     <use xlink:href="#DejaVuSans-28" transform="translate(929.833984 0.423438)"/>
     <use xlink:href="#DejaVuSans-2212" transform="translate(968.847656 0.423438)"/>
     <use xlink:href="#DejaVuSans-31" transform="translate(1052.636719 0.423438)"/>
     <use xlink:href="#DejaVuSans-29" transform="translate(1116.259766 0.423438)"/>
     <use xlink:href="#DejaVuSans-Oblique-73" transform="translate(1156.230469 38.704688) scale(0.7)"/>
     <use xlink:href="#STIXSizeFourSym-Regular-28" transform="translate(1195.43457 -53.375) scale(0.886169)"/>
     <use xlink:href="#DejaVuSans-31" transform="translate(1267.043579 0.423438)"/>
     <use xlink:href="#DejaVuSans-2b" transform="translate(1350.149048 0.423438)"/>
     <use xlink:href="#DejaVuSans-35" transform="translate(1483.420532 121.871875) scale(0.7)"/>
     <use xlink:href="#DejaVuSans-32" transform="translate(1527.956665 121.871875) scale(0.7)"/>
     <use xlink:href="#DejaVuSansDisplay-2211" transform="translate(1483.420532 0.423438)"/>
     <use xlink:href="#DejaVuSans-Oblique-69" transform="translate(1453.420532 -98.671875) scale(0.7)"/>
     <use xlink:href="#DejaVuSans-3d" transform="translate(1486.50647 -98.671875) scale(0.7)"/>
     <use xlink:href="#DejaVuSans-31" transform="translate(1558.796509 -98.671875) scale(0.7)"/>
     <use xlink:href="#DejaVuSans-Oblique-62" transform="translate(1603.332642 0.423438)"/>
     <use xlink:href="#DejaVuSans-Oblique-69" transform="translate(1666.809204 -15.982812) scale(0.7)"/>
     <use xlink:href="#DejaVuSans-32" transform="translate(1688.991821 0.423438)"/>
     <use xlink:href="#DejaVuSans-2212" transform="translate(1753.571899 38.704688) scale(0.7)"/>
     <use xlink:href="#DejaVuSans-Oblique-69" transform="translate(1812.224243 38.704688) scale(0.7)"/>
     <use xlink:href="#STIXSizeFourSym-Regular-29" transform="translate(1834.40686 -53.375) scale(0.886169)"/>
     <use xlink:href="#DejaVuSans-32" transform="translate(1906.015869 0.423438)"/>
     <use xlink:href="#DejaVuSans-Oblique-65" transform="translate(1970.595947 38.704688) scale(0.7)"/>
     <use xlink:href="#DejaVuSans-2212" transform="translate(2027.300049 38.704688) scale(0.7)"/>
     <use xlink:href="#DejaVuSans-31" transform="translate(2099.590088 38.704688) scale(0.7)"/>
     <use xlink:href="#DejaVuSans-30" transform="translate(2144.126221 38.704688) scale(0.7)"/>
     <use xlink:href="#DejaVuSans-32" transform="translate(2188.662354 38.704688) scale(0.7)"/>
     <use xlink:href="#DejaVuSans-33" transform="translate(2233.198486 38.704688) scale(0.7)"/>
    </g>
   </g>
   <g id="text_3">
    <!-- $e = 2047 \Rightarrow x = \pm\infty \; \mathrm{or} \; \mathrm{NaN}$ -->
    <g transform="translate(18.918 145.024875) scale(0.18 -0.18)">
     <defs>
      <path id="DejaVuSans-37" d="M 525 4666 
L 3525 4666 
L 3525 4397 
L 1831 0 
L 1172 0 
L 2766 4134 
L 525 4134 
L 525 4666 
z
" transform="scale(0.015625)"/>
      <path id="DejaVuSans-b1" d="M 2944 4013 
L 2944 2803 
L 4684 2803 
L 4684 2272 
L 2944 2272 
L 2944 1063 
L 2419 1063 
L 2419 2272 
L 678 2272 
L 678 2803 
L 2419 2803 
L 2419 4013 
L 2944 4013 
z
M 678 531 
L 4684 531 
L 4684 0 
L 678 0 
L 678 531 
z
" transform="scale(0.015625)"/>
      <path id="DejaVuSans-221e" d="M 2916 1091 
Q 2819 1203 2666 1466 
Q 2456 1091 2272 925 
Q 2041 725 1681 725 
Q 1259 725 981 1041 
Q 688 1372 688 1919 
Q 688 2444 981 2800 
Q 1244 3116 1688 3116 
Q 1916 3116 2084 3022 
Q 2281 2919 2416 2741 
Q 2541 2581 2666 2366 
Q 2875 2741 3059 2906 
Q 3291 3106 3650 3106 
Q 4072 3106 4350 2791 
Q 4644 2459 4644 1913 
Q 4644 1388 4350 1031 
Q 4088 716 3644 716 
Q 3416 716 3247 809 
Q 3078 894 2916 1091 
z
M 1647 1134 
Q 2163 1134 2472 1884 
Q 2075 2703 1647 2703 
Q 1334 2703 1175 2478 
Q 1003 2238 1003 1919 
Q 1003 1569 1175 1353 
Q 1350 1134 1647 1134 
z
M 3684 2697 
Q 3219 2697 2859 1947 
Q 3253 1128 3684 1128 
Q 3997 1128 4156 1353 
Q 4328 1594 4328 1913 
Q 4328 2263 4156 2478 
Q 3981 2697 3684 2697 
z
" transform="scale(0.015625)"/>
      <path id="DejaVuSans-6f" d="M 1959 3097 
Q 1497 3097 1228 2736 
Q 959 2375 959 1747 
Q 959 1119 1226 758 
Q 1494 397 1959 397 
Q 2419 397 2687 759 
Q 2956 1122 2956 1747 
Q 2956 2369 2687 2733 
Q 2419 3097 1959 3097 
z
M 1959 3584 
Q 2709 3584 3137 3096 
Q 3566 2609 3566 1747 
Q 3566 888 3137 398 
Q 2709 -91 1959 -91 
Q 1206 -91 779 398 
Q 353 888 353 1747 
Q 353 2609 779 3096 
Q 1206 3584 1959 3584 
z
" transform="scale(0.015625)"/>
      <path id="DejaVuSans-72" d="M 2631 2963 
Q 2534 3019 2420 3045 
Q 2306 3072 2169 3072 
Q 1681 3072 1420 2755 
Q 1159 2438 1159 1844 
L 1159 0 
L 581 0 
L 581 3500 
L 1159 3500 
L 1159 2956 
Q 1341 3275 1631 3429 
Q 1922 3584 2338 3584 
Q 2397 3584 2469 3576 
Q 2541 3569 2628 3553 
L 2631 2963 
z
" transform="scale(0.015625)"/>
      <path id="DejaVuSans-4e" d="M 628 4666 
L 1478 4666 
L 3547 763 
L 3547 4666 
L 4159 4666 
L 4159 0 
L 3309 0 
L 1241 3903 
L 1241 0 
L 628 0 
L 628 4666 
z
" transform="scale(0.015625)"/>
      <path id="DejaVuSans-61" d="M 2194 1759 
Q 1497 1759 1228 1600 
Q 959 1441 959 1056 
Q 959 750 1161 570 
Q 1363 391 1709 391 
Q 2188 391 2477 730 
Q 2766 1069 2766 1631 
L 2766 1759 
L 2194 1759 
z
M 3341 1997 
L 3341 0 
L 2766 0 
L 2766 531 
Q 2569 213 2275 61 
Q 1981 -91 1556 -91 
Q 1019 -91 701 211 
Q 384 513 384 1019 
Q 384 1609 779 1909 
Q 1175 2209 1959 2209 
L 2766 2209 
L 2766 2266 
Q 2766 2663 2505 2880 
Q 2244 3097 1772 3097 
Q 1472 3097 1187 3025 
Q 903 2953 641 2809 
L 641 3341 
Q 956 3463 1253 3523 
Q 1550 3584 1831 3584 
Q 2591 3584 2966 3190 
Q 3341 2797 3341 1997 
z
" transform="scale(0.015625)"/>
     </defs>
     <use xlink:href="#DejaVuSans-Oblique-65" transform="translate(0 0.78125)"/>
     <use xlink:href="#DejaVuSans-3d" transform="translate(81.005859 0.78125)"/>
     <use xlink:href="#DejaVuSans-32" transform="translate(184.277344 0.78125)"/>
     <use xlink:href="#DejaVuSans-30" transform="translate(247.900391 0.78125)"/>
     <use xlink:href="#DejaVuSans-34" transform="translate(311.523438 0.78125)"/>
     <use xlink:href="#DejaVuSans-37" transform="translate(375.146484 0.78125)"/>
     <use xlink:href="#DejaVuSans-21d2" transform="translate(458.251953 0.78125)"/>
     <use xlink:href="#DejaVuSans-Oblique-78" transform="translate(561.523438 0.78125)"/>
     <use xlink:href="#DejaVuSans-3d" transform="translate(640.185547 0.78125)"/>
     <use xlink:href="#DejaVuSans-b1" transform="translate(743.457031 0.78125)"/>
     <use xlink:href="#DejaVuSans-221e" transform="translate(827.246094 0.78125)"/>
     <use xlink:href="#DejaVuSans-6f" transform="translate(937.606011 0.78125)"/>
     <use xlink:href="#DejaVuSans-72" transform="translate(998.787651 0.78125)"/>
     <use xlink:href="#DejaVuSans-4e" transform="translate(1066.960068 0.78125)"/>
     <use xlink:href="#DejaVuSans-61" transform="translate(1141.764756 0.78125)"/>
     <use xlink:href="#DejaVuSans-4e" transform="translate(1203.044053 0.78125)"/>
    </g>
   </g>
  </g>
 </g>
</svg>
